<?xml version="1.0" encoding="utf-8"?>
<!-- Generator: Adobe Illustrator 22.0.1, SVG Export Plug-In . SVG Version: 6.00 Build 0)  -->
<svg version="1.1" id="Layer_1" xmlns="http://www.w3.org/2000/svg" xmlns:xlink="http://www.w3.org/1999/xlink" x="0px" y="0px"
	 viewBox="0 0 53.004 65.995" style="enable-background:new 0 0 53.004 65.995;" xml:space="preserve">
<path style="fill:#0A2369;" d="M48.945,57.374c-1.019,0-1.668,0.486-1.668,1.223c0,0.766,1.003,1.017,2.17,1.312
	c1.624,0.412,3.557,0.914,3.557,3.05c0,1.637-1.152,3.036-3.808,3.036c-1.816,0-3.13-0.634-4.001-1.561l0.959-1.328
	c0.68,0.723,1.743,1.356,3.116,1.356c1.417,0,1.977-0.692,1.977-1.34c0-0.884-1.048-1.149-2.243-1.459
	c-1.609-0.399-3.499-0.87-3.499-2.948c0-1.621,1.432-2.873,3.587-2.873c1.536,0,2.775,0.485,3.691,1.37l-0.989,1.282
	C51.026,57.728,49.978,57.374,48.945,57.374z M34.866,32.907l-4.771,8.566h-9.846v-0.011c-9.241-0.109-16.7-7.613-16.7-16.865
	c0-3.132,0.858-6.064,2.347-8.578l-0.003-0.002l0.404-0.618c0.124-0.19,0.241-0.386,0.373-0.571l4.136-6.327h9.962L15.857,0h9.641
	l23.957,41.473h-9.641C39.814,41.473,34.866,32.907,34.866,32.907z M20.838,8.623l-7.645,11.962
	c-0.011,0.022-0.015,0.05-0.026,0.071c-0.639,1.173-1.002,2.516-1.002,3.941c0,4.562,3.718,8.274,8.287,8.274h14.393L20.838,8.623z
	 M6.023,55.988l3.867,9.83H8.001l-0.723-1.886H2.613L1.89,65.818H0l3.868-9.83H6.023z M6.79,62.414l-1.845-4.967L3.1,62.414H6.79z
	 M18.399,57.506h-2.982v8.312h-1.728v-8.312h-2.981v-1.518h7.691V57.506z M22.921,60.012h5.122v-4.024h1.728v9.83h-1.728v-4.289
	h-5.122v4.289h-1.727v-9.83h1.727V60.012z M37.792,55.826c2.953,0,5.034,2.152,5.034,5.084c0,2.933-2.081,5.085-5.034,5.085
	c-2.952,0-5.033-2.152-5.033-5.085C32.759,57.978,34.84,55.826,37.792,55.826z M37.792,64.462c1.978,0,3.263-1.532,3.263-3.552
	c0-2.033-1.285-3.55-3.263-3.55c-1.992,0-3.262,1.517-3.262,3.55C34.53,62.93,35.8,64.462,37.792,64.462z"/>
</svg>
