<?xml version="1.0" encoding="utf-8"?>
<!-- Generator: Adobe Illustrator 22.0.1, SVG Export Plug-In . SVG Version: 6.00 Build 0)  -->
<svg version="1.1" id="Layer_1" xmlns="http://www.w3.org/2000/svg" xmlns:xlink="http://www.w3.org/1999/xlink" x="0px" y="0px"
	 viewBox="0 0 97.021 32.373" style="enable-background:new 0 0 97.021 32.373;" xml:space="preserve">
<path style="fill:#0A2369;" d="M96.501,9.747h-5.199v15.631c0,0.316-0.211,0.533-0.52,0.533h-2.4c-0.308,0-0.521-0.217-0.521-0.533
	V9.747h-5.197c-0.312,0-0.524-0.219-0.524-0.532V7.057c0-0.316,0.212-0.532,0.524-0.532h13.837c0.309,0,0.52,0.216,0.52,0.532v2.158
	C97.021,9.528,96.81,9.747,96.501,9.747z M83.281,16.144l-2.66,4.655l4.011,4.435c0.31,0.338,0.118,0.677-0.26,0.677h-3.013
	c-0.402,0-0.619-0.095-0.882-0.411l-1.802-2.037c-1.211,1.65-2.894,2.886-5.699,2.886c-3.463,0-6.191-2.133-6.191-5.794
	c0-2.807,1.473-4.312,3.703-5.574c-1.095-1.28-1.594-2.642-1.594-3.827c0-3.006,2.065-5.066,5.176-5.066
	c3.18,0,5.126,1.916,5.126,4.751c0,2.424-1.708,3.777-3.511,4.799l2.66,2.93l1.496-2.667c0.188-0.312,0.402-0.434,0.78-0.434h2.303
	C83.3,15.467,83.516,15.733,83.281,16.144z M75.971,10.911c0-0.996-0.617-1.817-1.853-1.817c-1.235,0-1.946,0.799-1.946,1.866
	c0,0.825,0.428,1.551,1.399,2.615C75.256,12.579,75.971,11.978,75.971,10.911z M72.578,17.041c-1.474,0.851-2.427,1.699-2.427,3.393
	c0,1.673,1.33,2.863,2.9,2.863c1.518,0,2.536-0.754,3.37-2.038L72.578,17.041z M66.667,9.747h-5.195v15.631
	c0,0.316-0.216,0.533-0.529,0.533h-2.395c-0.308,0-0.521-0.217-0.521-0.533V9.747H52.83c-0.312,0-0.521-0.219-0.521-0.532V7.057
	c0-0.316,0.209-0.532,0.521-0.532h13.837c0.308,0,0.52,0.216,0.52,0.532v2.158C67.187,9.528,66.975,9.747,66.667,9.747z
	 M54.21,25.911h-2.47c-0.354,0-0.568-0.168-0.688-0.51l-1.399-4.118h-7.668l-1.399,4.118c-0.12,0.342-0.331,0.51-0.688,0.51h-2.326
	c-0.308,0-0.521-0.315-0.405-0.627l6.436-18.276c0.115-0.339,0.331-0.483,0.685-0.483h3.181c0.357,0,0.595,0.144,0.71,0.483
	l6.433,18.276C54.731,25.596,54.541,25.911,54.21,25.911z M45.832,10.109l-2.754,8h5.481C48.559,18.109,45.832,10.109,45.832,10.109
	z M16.381,25.409c-8.483,0-13.383-2.931-15.347-5.02c-0.431-0.464-0.725-1.045-0.796-1.41C0.085,18.216,0,17.075,0,16.186
	c0-0.035,0.026-0.042,0.033-0.005c0.697,2.634,4.517,6.491,12.631,6.491c8.535,0,18.405-4.207,18.985-7.369
	c0.008-0.042,0.034-0.042,0.034,0.005c0.011,0.266,0.018,0.535,0.018,0.878c0,1.402-0.197,3.073-0.587,4.003
	C30.578,21.479,27.933,25.409,16.381,25.409z M17.842,18.86c-11.476,0-16.391-3.371-17.366-5.479
	c-0.119-0.262-0.145-0.434-0.078-0.783c0.148-0.825,0.666-2.413,1.131-3.355c0.011-0.028,0.038-0.024,0.03,0.011
	c-0.082,0.319-0.142,0.627-0.142,0.938c0,3.224,5.231,5.778,11.504,5.778c5.79,0,17.27-2.712,17.129-6.914
	c0-0.03,0.022-0.033,0.033-0.008c0.369,0.768,0.808,1.858,1.039,2.798c0.208,0.84,0.201,1.462,0.037,2.056
	C30.277,17.106,24.837,18.86,17.842,18.86z M17.809,12.624c-7.225,0-14.952-2.284-14.952-5.431c0-0.216,0.194-0.577,0.51-0.983
	c0.661-0.859,1.414-1.658,2.232-2.368c0.03-0.027,0.049-0.012,0.026,0.023c-0.45,0.565-0.65,1.121-0.65,1.66
	c0,1.52,1.179,3.911,7.476,3.911c8.581,0,13.967-3.182,13.967-4.982c0-0.153-0.033-0.267-0.1-0.373
	c-0.018-0.025,0-0.041,0.026-0.024c0.509,0.477,0.994,0.959,1.503,1.555c0.785,0.913,1.09,1.384,1.09,2.189
	C28.937,10.055,25.503,12.624,17.809,12.624z M15.176,6.457c-5.536,0-8.662-1.467-8.662-2.835c0-0.46,0.402-0.822,1.117-1.273
	C10.016,0.858,12.854,0,15.853,0c2.972,0,5.729,0.828,8.106,2.283c0.641,0.388,0.957,0.647,0.957,1.019
	C24.916,4.849,20.663,6.457,15.176,6.457z M1.569,23.141c2.122,3.147,7.542,4.789,12.583,4.789c7.129,0,14.034-2.236,16.415-5.82
	c0.026-0.038,0.045-0.018,0.034,0.016c-0.272,0.703-0.611,1.418-0.953,2.021c-0.599,1.046-1.269,1.829-1.972,2.413
	c-2.564,2.152-6.849,3.238-10.751,3.238c-7.412,0-13.406-2.348-15.385-6.639C1.529,23.125,1.548,23.114,1.569,23.141z
	 M15.853,31.042c5.61,0,9.174-1.862,10.424-2.714c0.034-0.019,0.049,0,0.014,0.03c-2.785,2.493-6.435,4.015-10.438,4.015
	c-3.661,0-7.036-1.279-9.722-3.403c-0.026-0.023-0.01-0.049,0.023-0.029C7.891,29.932,10.974,31.042,15.853,31.042z"/>
</svg>
