<?xml version="1.0" encoding="utf-8"?>
<!-- Generator: Adobe Illustrator 22.0.1, SVG Export Plug-In . SVG Version: 6.00 Build 0)  -->
<svg version="1.1" id="Layer_1" xmlns="http://www.w3.org/2000/svg" xmlns:xlink="http://www.w3.org/1999/xlink" x="0px" y="0px"
	 viewBox="0 0 64.002 65.549" style="enable-background:new 0 0 64.002 65.549;" xml:space="preserve">
<path style="fill:#0A2369;" d="M63.273,41.61v-2.163L62.64,41.61h-0.728l-0.634-2.163v2.163H60.55v-2.672h1.064l0.662,2.052
	l0.661-2.052h1.065v2.672C64.002,41.61,63.273,41.61,63.273,41.61z M59.132,41.61h-0.73v-2.213h-1.075v-0.459h2.839v0.459h-1.034
	V41.61z M57.309,26.946c-0.679-0.103-1.835-0.587-3.873-0.122c-1.812,0.416-3.306,1.938-3.351,4.58
	c0.028,2.462,1.057,3.855,3.325,3.499c1.733-0.343,1.626-1.111,1.631-1.075l-0.008-1.31c0,0-0.539,0.172-0.889,0.23
	c-1.112,0.203-1.625-0.375-1.637-1.435c0.004-1.088,0.004-1.605,0.004-1.605l6.874-1.486c0,0,0.036,4.186,0,5.511
	c-0.001,0.903-0.211,2.117-1.11,3c-0.989,0.967-2.784,2.01-5.383,2.306c-3.618,0.412-7.648-1.365-7.66-6.825
	c0.012-6.87,4.987-8.983,7.515-9.488c1.894-0.376,3.88-0.264,5.413,0.35C60.23,23.878,59.585,27.286,57.309,26.946z M56.63,21.226
	c-0.791,0.498-1.571,0.236-2.026-0.262l-2.492-2.918c0,0,0.01,1.792,0.008,2.577c-0.009,0.778-0.459,1.349-1.269,1.516l-1.623,0.319
	l0.004-10.582c0,0,3.095-0.546,3.894-0.65c2.216-0.282,3.704,0.948,3.674,2.693c-0.012,1.534-0.977,2.46-1.798,3.015
	c0,0,1.507,1.697,1.911,2.146C57.457,19.684,57.432,20.72,56.63,21.226z M52.105,13.552l0.004,2.86
	c0.002-0.001,1.72-0.654,1.699-2.029C53.791,13.221,52.644,13.433,52.105,13.552z M48.221,9.634
	c-3.977,0.677-10.174,1.893-17.716,3.891c-5.3,1.404-13.698,4.188-16.517,5.138c-0.329,0.109-0.595,0.113-0.778-0.115
	c-0.179-0.224-0.104-0.756-0.059-0.928c0,0,1.196-7.076,9.179-11.375c4.408-2.371,10.695-3.306,15.312-2.813
	c8.624,0.921,11.063,5.06,11.063,5.06s0.311,0.369,0.156,0.744C48.756,9.495,48.501,9.586,48.221,9.634z M21.727,32.267
	c1.231,0.559,1.57,1.902,0.897,2.985c-0.508,0.817-3.609,5.698-3.609,5.698l3.524,3.544c0.695,0.766,0.888,2.478-0.358,3.482
	c-1.377,1.108-2.937,0.66-3.786-0.221l-3.868-4.099l-0.005,5.115c0,0,0.014,0.996-0.363,1.587c-0.409,0.643-1.09,0.837-1.09,0.837
	l-3.459,1.45l0.015-16.141l4.912-2.035l0.008,5.708l4.167-7.078C19.207,32.339,20.37,31.654,21.727,32.267z M15.137,29.679
	c0.039,2.258-1.589,3.458-3.71,4.337l-4.344,1.843l-0.01-11.756c0,0,2.738-1.116,3.631-1.438c2.538-0.923,4.031,0.188,4.031,1.881
	c0,1.133-0.484,2.091-1.536,2.938C14.234,27.656,15.118,28.505,15.137,29.679z M10.073,25.016l-0.001,2.486
	c0.213-0.082,0.37-0.152,0.549-0.239c0.648-0.317,1.109-0.898,1.115-1.658C11.742,24.744,11.031,24.52,10.073,25.016z
	 M10.096,29.313l-0.003,2.861c0,0,0.387-0.172,0.672-0.304c0.699-0.324,1.248-0.907,1.232-1.783
	C11.985,29.198,11.292,28.714,10.096,29.313z M16.871,20.392c0.821-0.271,1.513,0.026,1.513,1.023l0.01,5.982
	c0.001,0.723,0.328,1.182,1.016,1.01c0.899-0.226,1.011-1.137,1.019-1.863l0.005-7.309c0,0,0.777-0.304,1.444-0.494
	c0.825-0.237,1.507,0.028,1.507,1.017l0.002,6.139c-0.027,3.231-1.532,4.49-3.783,5.155c-2.553,0.753-4.228-0.458-4.215-2.884
	c0.011-2.068,0.002-7.246,0.002-7.246S15.945,20.701,16.871,20.392z M54.509,40.334c0.248,0.257,0.196,0.689,0.132,0.955
	c-0.314,1.316-3.095,10.612-16.258,13.794c-8.618,2.082-16.558-0.762-18.346-3.002c0,0-0.417-0.418-0.235-0.84
	c0.118-0.271,0.289-0.332,0.666-0.494c8.771-3.75,23.982-8.389,33.124-10.536C54.003,40.115,54.298,40.118,54.509,40.334z
	 M29.057,29.07c0,0-0.005,12.044-0.005,13.678c0,1.901-0.684,2.834-2.495,3.516c-1.276,0.479-2.644,0.946-2.644,0.946
	s0.005-11.283,0.005-13.449c0-2.361,0.898-3.262,2.461-3.827C27.58,29.502,29.057,29.07,29.057,29.07z M31.967,26.704
	c-0.391,0.366-1.437,0.747-2.255-0.082l-2.542-2.625c0,0-0.007,2.055-0.009,2.882c-0.008,0.775-0.539,1.337-1.211,1.594
	c-0.561,0.193-1.754,0.601-1.754,0.601L24.2,18.04c0,0,2.465-0.856,3.915-1.194c2.252-0.524,3.855,0.499,3.826,2.318
	c-0.016,1.729-0.982,2.781-1.85,3.499L32,24.492C32.587,25.06,32.627,26.085,31.967,26.704z M27.165,19.283v3.061
	c0.003,0,1.743-0.898,1.723-2.325C28.872,18.803,27.749,19.069,27.165,19.283z M37.974,21.045c-0.571,0.12-0.971-0.249-0.976-0.813
	c0.001-0.759,0.005-1.221,0.005-1.221l4.387-0.996l0.002,4.167c-0.002,0.63-0.234,1.367-0.796,1.863
	c-0.564,0.492-1.377,1.021-3.011,1.353c-2.892,0.521-5.263-1.079-5.263-4.703c0-3.538,2.112-6.502,6.243-6.645
	c1.904-0.066,2.794,0.551,2.77,1.552c-0.024,0.933-0.673,1.479-1.806,1.295c-0.461-0.058-1.057-0.142-1.713,0.025
	c-1.311,0.338-2.274,1.536-2.306,3.58c0.015,1.555,0.598,2.373,1.652,2.399c0.75,0.017,1.474-0.298,1.469-0.78l-0.006-1.215
	C38.625,20.906,38.335,20.971,37.974,21.045z M42.73,41.453c-0.911,0.269-1.911,0.198-2.708-0.623l-4.906-5.644
	c0,0,0.003,3.689,0.025,5.581c0.008,1.743-0.609,2.75-2.306,3.334c-0.183,0.063-2.292,0.788-2.292,0.788l-0.004-16.186l2.353-0.71
	c0,0,1.597-0.576,2.562,0.387c1.807,1.806,4.567,5.26,4.567,5.26s0.003-4.133,0.003-4.853c0-2.035,0.93-2.806,2.141-3.151
	c1.052-0.296,2.318-0.565,2.318-0.565s0.012,9.95,0.004,14.026C44.463,40.316,43.677,41.177,42.73,41.453z M48.579,21.391
	c0,0.79-0.404,1.245-1.053,1.387c-1.931,0.419-5.439,1.247-5.439,1.247l0.024-10.719c1.845-0.419,4.807-1.013,6.364-1.287
	c0,0-0.007,0.827-0.007,1.245c0,0.64-0.225,1.108-0.907,1.249c-0.874,0.185-2.497,0.522-2.497,0.522l0.001,1.642l3.122-0.662
	c0,0,0.004,0.556,0.004,1.198c0,0.688-0.316,1.018-0.918,1.148c-0.48,0.104-2.208,0.469-2.208,0.469l-0.007,2.072l3.525-0.77
	C48.583,20.132,48.579,20.675,48.579,21.391z M3.456,31.406c0,6.72,2.012,12.636,5.482,17.313l-0.003,4.928l3.185-1.36
	c5.269,4.93,12.564,7.76,20.829,7.643c11.352-0.161,20.013-7.209,24.526-17.337l5.5,2.987c-3.055,7.501-12.609,19.969-30.314,19.969
	C14.124,65.549,0,50.485,0,32.502C0.001,16.003,13.297,0,33.052,0c3.49,0,6.625,0.546,9.781,1.556
	c-2.051-0.464-4.764-0.932-7.769-0.932C16.653,0.624,3.456,14.193,3.456,31.406z"/>
</svg>
