<?xml version="1.0" encoding="utf-8"?>
<!-- Generator: Adobe Illustrator 22.0.1, SVG Export Plug-In . SVG Version: 6.00 Build 0)  -->
<svg version="1.1" id="Layer_1" xmlns="http://www.w3.org/2000/svg" xmlns:xlink="http://www.w3.org/1999/xlink" x="0px" y="0px"
	 viewBox="0 0 120 37.759" style="enable-background:new 0 0 120 37.759;" xml:space="preserve">
<path style="fill:#242D66;" d="M16.519,0.143c3.721-0.446,7.58,0.147,10.927,1.867c4.402,2.198,7.864,6.191,9.422,10.858
	c1.573,4.674,1.23,9.981-1.002,14.386c-1.995,4.059-5.517,7.324-9.691,9.051c-3.444,1.411-7.305,1.851-10.955,1.074
	c-5.079-0.98-9.675-4.168-12.388-8.57c-2.885-4.589-3.615-10.452-1.964-15.613C2.957,6.29,9.351,0.961,16.519,0.143z M15.885,2.357
	c-5.232,0.905-9.884,4.496-12.154,9.285c-1.776,3.681-2.12,8.02-0.958,11.935c1.342,4.692,4.877,8.689,9.341,10.64
	c3.662,1.63,7.914,1.851,11.742,0.693c4.755-1.427,8.763-5.083,10.63-9.678c1.214-2.872,1.48-6.085,1.027-9.154
	c-0.671-4.059-2.916-7.821-6.147-10.362C25.635,2.728,20.581,1.454,15.885,2.357z M44.801,9.05c0.802-2.073,2.81-3.553,4.998-3.843
	c2.576-0.368,5.104,0.643,7.271,1.954l-1.627,2.666c-1.592-0.643-3.206-1.558-4.986-1.355c-1.261,0.125-2.32,1.193-2.473,2.445
	c-0.265,2.032-0.04,6.355-0.094,6.138l9.75,0.031V32.15h-3.52l-0.05-12.085l-6.172-0.009l-0.066,12.051l-3.553,0.041l-0.078-12.029
	c-0.796-0.053-1.589-0.103-2.382-0.181c-0.003-0.915-0.003-1.829,0-2.744c0.796-0.084,1.595-0.144,2.391-0.203
	C44.242,14.36,43.842,11.582,44.801,9.05z M72.115,5.17h3.394l0.028,12.172c2.382-0.88,5.207-1.111,7.402,0.384
	c4.055,2.51,4.695,8.77,1.505,12.223c-3.022,3.459-9.36,2.797-11.645-1.174c-0.565-0.843-0.724-1.873-0.702-2.869
	C72.097,25.906,72.115,5.17,72.115,5.17z M75.534,20.598c0,0-0.134,4.055,0.094,6.066c0.677,2.142,3.606,2.975,5.426,1.745
	c2.813-1.861,2.548-6.834-0.553-8.267C78.887,19.368,77.066,19.896,75.534,20.598z M116.528,5.17h3.428l0.037,20.739
	c0.137,2.663-1.951,5.023-4.393,5.823c-2.179,0.693-4.736,0.659-6.678-0.662c-3.291-2.167-4.224-6.912-2.479-10.343
	c1.077-2.242,3.35-3.874,5.838-4.077c1.442-0.147,2.853,0.272,4.218,0.687C116.499,17.337,116.528,5.17,116.528,5.17z
	 M111.505,20.171c-3.1,1.495-3.287,6.591-0.337,8.333c1.808,1.09,4.586,0.247,5.248-1.811c0.222-2.026,0.106-4.035,0.084-6.11
	C114.958,19.874,113.113,19.359,111.505,20.171z"/>
<path style="fill:#242D66;" d="M13.272,8.098c2.257-1.411,5.607-0.003,6.107,2.626c0.4,1.417-0.387,2.713-0.884,3.981
	c0.428,1.795,1.898,3.169,2.335,4.97c0.156,2.179-0.759,4.346-2.167,5.982c-1.748,2.011-4.168,3.325-6.684,4.124
	c-0.309-0.731-0.578-1.48-0.824-2.235c2.679-1.127,5.495-2.775,6.537-5.66c0.937-2.039-0.518-4.065-1.577-5.723
	c-1.127-0.593-2.622-0.431-3.568-1.421C10.515,12.996,10.89,9.353,13.272,8.098z M14.964,10.421c-1.074,0.219-1.455,1.817-0.49,2.42
	c0.668,0.596,1.761,0.2,2.07-0.584C17,11.307,15.966,10.13,14.964,10.421z M62.106,9.259h3.459l0.028,7.63
	c1.445,0.016,2.894,0.009,4.34,0.075l0.003,2.866c-1.445,0.075-2.894,0.066-4.34,0.084l0.015,5.397c0,0,0,3.304,0.728,3.522
	c0.28,0.084,0.644,0.079,1.025,0.029c0.998-0.132,2.109-0.578,2.109-0.578l1.149,2.557c-2.032,0.799-4.324,1.851-6.509,1.005
	c-1.405-0.534-1.939-2.12-1.986-3.503c-0.116-2.775,0.006-5.554-0.056-8.333c-0.746-0.072-1.492-0.144-2.238-0.219
	c-0.009-0.93-0.003-1.861,0.009-2.788c0.743-0.069,1.489-0.128,2.232-0.19C62.074,16.813,62.106,9.259,62.106,9.259z M21.808,12.185
	c1.542-0.815,3.625,0.381,3.6,2.148c0.14,1.861-2.167,3.256-3.734,2.21C19.991,15.666,20.078,12.962,21.808,12.185z M94.884,17.008
	c2.148-0.337,4.421,0.312,6.063,1.739c2.292,1.933,3.256,5.279,2.267,8.123c-1.08,3.553-5.011,5.979-8.667,5.145
	c-3.422-0.659-6.063-3.909-6.078-7.38C88.324,20.967,91.25,17.501,94.884,17.008z M94.859,20.358c-1.901,0.421-3.322,2.32-3.2,4.265
	c-0.016,2.279,2.039,4.33,4.34,4.205c2.466,0.053,4.567-2.332,4.261-4.764C100.063,21.513,97.294,19.684,94.859,20.358z
	 M22.457,22.322c1.573-0.234,3.175-0.072,4.761-0.062c0.062,2.538,0.072,5.08-0.003,7.621c-0.88,0.016-1.761,0.019-2.641,0.003
	c-0.066-1.617-0.084-3.238-0.084-4.855c-0.824-0.122-1.701-0.084-2.469-0.44C21.155,24.036,21.42,22.478,22.457,22.322z"/>
</svg>
