<?xml version="1.0" encoding="utf-8"?>
<!-- Generator: Adobe Illustrator 22.0.1, SVG Export Plug-In . SVG Version: 6.00 Build 0)  -->
<svg version="1.1" id="Layer_1" xmlns="http://www.w3.org/2000/svg" xmlns:xlink="http://www.w3.org/1999/xlink" x="0px" y="0px"
	 viewBox="0 0 96.007 63.998" style="enable-background:new 0 0 96.007 63.998;" xml:space="preserve">
<path style="fill:#0A2369;" d="M95.931,56.869c-0.24,1.427-1.04,3.011-2.48,3.565c-0.641,0.238-1.361,0.158-2.001,0.158
	c-0.8-0.079-1.44-0.633-1.92-1.267v1.109h-1.36c-0.08-4.277-0.08-8.317-0.08-12.356h1.44v4.356c1.28-1.663,4.081-1.663,5.441-0.158
	C96.091,53.543,96.091,55.285,95.931,56.869z M93.611,53.147c-0.56-0.634-1.521-0.792-2.321-0.555
	c-1.04,0.317-1.68,1.268-1.76,2.298c-0.08,1.108-0.08,2.296,0.48,3.247c0.72,1.188,2.48,1.346,3.521,0.475
	c0.64-0.713,0.88-1.743,0.88-2.693S94.251,53.86,93.611,53.147z M84.65,59.087c-0.48,0.714-1.28,1.347-2.241,1.426
	c-0.8,0.079-1.76,0.079-2.48-0.475c-0.72-0.475-0.96-1.346-0.96-2.218c0.08-2.139,0.08-4.277,0.08-6.416h1.52v6.02
	c0,0.713,0.32,1.426,1.04,1.663c0.8,0.159,1.68,0.08,2.24-0.554c0.561-0.634,0.721-1.505,0.721-2.376v-4.752h1.52v8.871h-1.44
	C84.65,60.276,84.65,59.087,84.65,59.087z M75.769,48.078h1.44v12.198h-1.44V48.078z M71.608,57.82c0.4-0.634,0.64-1.346,0.8-2.059
	h1.68c-0.08,1.822-1.2,3.564-2.88,4.356c-0.96,0.475-2.08,0.475-3.12,0.396c-2.08,0-3.841-1.584-4.401-3.485
	c-0.48-1.188-0.4-2.534-0.4-3.802c0.08-1.822,1.04-3.643,2.56-4.673c1.281-0.871,2.961-0.95,4.561-0.713
	c1.92,0.317,3.52,1.98,3.68,3.96h-1.68c-0.24-0.95-0.8-1.9-1.76-2.297c-1.44-0.633-3.36-0.395-4.4,0.872
	c-0.801,0.871-1.121,2.138-1.2,3.326c-0.081,1.347,0.079,2.693,0.799,3.882C66.968,59.563,70.328,59.721,71.608,57.82z
	 M57.527,34.375V27.88h6.4c0.08,2.139,0,4.277,0,6.495H57.527z M57.527,25.029v-6.416h6.4v6.495
	C61.767,24.95,59.607,24.95,57.527,25.029z M57.527,15.682V9.266h6.4c0,2.139,0,4.278-0.08,6.416
	C61.767,15.603,59.607,15.682,57.527,15.682z M57.527,6.257V0h6.32c0.08,2.138,0.08,4.277,0,6.336
	C61.767,6.257,59.607,6.257,57.527,6.257z M59.527,52.434v-1.267h2.32v8.871c0,1.03-0.16,2.139-0.96,2.931
	c-1.04,0.95-2.48,1.029-3.76,1.029c-1.041,0-2.161-0.237-3.041-0.871c-0.56-0.475-0.8-1.188-0.88-1.822h2.64
	c0.4,1.109,1.841,1.109,2.721,0.713c1.04-0.554,0.88-1.901,0.96-2.931c-1.28,1.981-4.481,1.664-5.681-0.237
	c-0.88-1.188-0.8-2.693-0.72-4.119c0.16-1.426,0.88-2.851,2.16-3.406C56.727,50.692,58.727,50.929,59.527,52.434z M56.806,53.226
	c-0.72,0.238-1.04,1.03-1.2,1.743c-0.16,0.95-0.08,2.059,0.561,2.772c0.72,0.871,2.32,0.713,2.88-0.238
	c0.56-0.95,0.56-2.218,0.16-3.247C58.887,53.305,57.687,52.83,56.806,53.226z M47.526,34.375V27.88h6.4
	c0.08,2.139,0.08,4.277,0,6.495H47.526z M47.526,18.534c2.16,0,4.24,0.079,6.4,0v6.416h-6.32
	C47.526,22.89,47.526,20.752,47.526,18.534z M47.526,9.266c2.16-0.079,4.24-0.079,6.4,0v6.416h-6.32
	C47.526,13.544,47.526,11.405,47.526,9.266z M47.606,0h6.32v6.336h-6.32C47.526,4.197,47.526,2.059,47.606,0z M50.806,51.642
	c0.56,0.396,0.88,1.109,0.88,1.822v6.812h-2.48v-5.307c0-0.475,0-1.03-0.32-1.426c-0.48-0.554-1.36-0.554-2.001-0.317
	c-0.8,0.317-1.04,1.188-1.04,1.981v5.148h-2.4v-9.03h2.32c0.08,0.317,0.08,0.713,0.08,1.109c0.48-0.634,1.04-1.267,1.841-1.426
	C48.726,50.85,49.926,50.929,50.806,51.642z M37.604,27.88h6.401v6.495h-6.321C37.524,32.236,37.524,30.019,37.604,27.88z
	 M43.925,18.534v6.416h-6.321c-0.08-2.06-0.08-4.198,0-6.416C39.685,18.613,41.845,18.613,43.925,18.534z M37.604,6.257
	c-0.08-2.06-0.08-4.198,0-6.257h6.321c0.08,2.138,0.08,4.197,0,6.336C41.845,6.336,39.685,6.336,37.604,6.257z M35.044,59.087
	c-0.56,0.951-1.6,1.585-2.72,1.426c-1.36,0.159-2.64-0.792-3.28-1.901c-0.641-1.029-0.561-2.297-0.561-3.405
	c0-1.426,0.721-2.931,2.001-3.644c1.44-0.871,3.52-0.634,4.48,0.792v-4.277h2.4v12.198h-2.32
	C35.044,60.276,35.044,59.087,35.044,59.087z M34.724,54.097c-0.48-0.871-1.6-1.267-2.48-0.871c-0.8,0.317-1.12,1.188-1.2,1.901
	c-0.08,0.951-0.08,2.059,0.56,2.852c0.48,0.554,1.28,0.713,2,0.475s1.2-0.951,1.36-1.743C35.124,55.84,35.124,54.89,34.724,54.097z
	 M27.603,27.88h6.401v6.416h-6.401C27.603,34.296,27.603,27.88,27.603,27.88z M27.603,18.613h6.401v6.416h-6.321
	C27.603,22.89,27.603,20.752,27.603,18.613z M27.603,9.266h6.401v6.337h-6.401C27.603,15.603,27.603,9.266,27.603,9.266z
	 M27.603,6.336V0h6.321v6.336C31.844,6.257,29.764,6.257,27.603,6.336z M24.723,60.355c0-1.98,0.08-4.04,0-6.02
	c0-0.871-0.96-1.426-1.76-1.188c-0.96,0.079-1.52,1.03-1.52,1.901c-0.08,1.821,0,3.564,0,5.386h-2.401v-9.029h2.321v1.029
	c0.4-0.634,1.04-1.267,1.84-1.346c0.96-0.159,2-0.159,2.88,0.396c0.72,0.396,1.12,1.188,1.12,2.059c0.08,2.297,0,4.515,0,6.812
	C27.203,60.355,24.723,60.355,24.723,60.355z M11.522,56.315c0.08,0.476,0.16,1.03,0.56,1.505c0.88,1.03,2.88,1.03,3.52-0.317h2.56
	c-0.4,1.664-2,2.931-3.68,2.931c-1.12,0.079-2.24,0.079-3.2-0.554c-1.121-0.555-1.921-1.743-2.001-3.011
	c-0.16-1.266-0.24-2.692,0.56-3.96c0.801-1.346,2.321-2.059,3.841-1.98c1.44-0.079,3.04,0.476,3.84,1.743
	c0.8,1.029,0.8,2.376,0.72,3.643H11.522z M15.282,53.543c-0.64-0.634-1.76-0.792-2.56-0.396c-0.64,0.317-0.88,1.03-1.04,1.663h4.08
	C15.682,54.414,15.602,53.939,15.282,53.543z M0,48.078h2.561v9.98h6.08v2.218H0V48.078z M41.525,50.375h-2.4v-2.376h2.4V50.375z
	 M41.605,60.355h-2.4v-9.109h2.4V60.355z"/>
</svg>
