<?xml version="1.0" encoding="utf-8"?>
<!-- Generator: Adobe Illustrator 22.0.1, SVG Export Plug-In . SVG Version: 6.00 Build 0)  -->
<svg version="1.1" id="Layer_1" xmlns="http://www.w3.org/2000/svg" xmlns:xlink="http://www.w3.org/1999/xlink" x="0px" y="0px"
	 viewBox="0 0 100.004 38.008" style="enable-background:new 0 0 100.004 38.008;" xml:space="preserve">
<path style="fill:#0A2369;" d="M97.792,26.196c0.564,0.531,0.996,1.034,1.294,1.507c0.612,0.931,0.918,2.105,0.918,3.524
	c0,2.053-0.635,3.701-1.906,4.942c-1.256,1.226-2.942,1.839-5.06,1.839c-1.303,0-2.621-0.362-3.954-1.086v-4.1
	c1.302,0.917,2.534,1.375,3.695,1.375c2.055,0,3.083-0.954,3.083-2.859c0-0.71-0.188-1.323-0.565-1.84
	c-0.173-0.251-0.447-0.543-0.824-0.875c-0.376-0.333-0.839-0.706-1.388-1.12c-1.899-1.388-3.186-2.555-3.86-3.501
	c-0.659-0.976-0.988-2.15-0.988-3.524c0-1.847,0.604-3.361,1.812-4.543c1.224-1.167,2.816-1.751,4.777-1.751
	c1.381,0,2.722,0.332,4.025,0.997v3.967c-1.099-0.768-2.252-1.153-3.46-1.153c-0.408,0-0.785,0.067-1.129,0.2
	c-0.346,0.133-0.648,0.314-0.907,0.543c-0.258,0.229-0.463,0.503-0.611,0.82c-0.15,0.318-0.224,0.654-0.224,1.009
	c0,1.093,1.051,2.393,3.154,3.9C96.521,25.088,97.227,25.664,97.792,26.196z M84.058,11.639c-1.698,0-3.074-1.4-3.074-3.128
	s1.376-3.128,3.074-3.128s3.074,1.4,3.074,3.128S85.756,11.639,84.058,11.639z M81.208,28.434V14.715h4.495v13.719
	c0,3.206-0.251,5.349-0.753,6.427c-1.051,2.099-3.232,3.147-6.542,3.147c-2.605,0-4.457-0.62-5.555-1.862
	c-1.098-1.255-1.647-3.346-1.647-6.271v-15.16h4.495v15.337c0.031,1.418,0.255,2.431,0.671,3.036
	c0.415,0.606,1.11,0.909,2.083,0.909c1.019,0,1.733-0.266,2.141-0.798c0.408-0.561,0.612-1.537,0.612-2.925
	C81.208,30.274,81.208,28.434,81.208,28.434z M74.644,11.639c-1.698,0-3.074-1.4-3.074-3.128s1.376-3.128,3.074-3.128
	s3.074,1.4,3.074,3.128S76.342,11.639,74.644,11.639z M65.236,11.639c-1.697,0-3.074-1.4-3.074-3.128s1.377-3.128,3.074-3.128
	c1.698,0,3.074,1.4,3.074,3.128S66.934,11.639,65.236,11.639z M54.725,34.706c-0.644,1.256-1.287,2.12-1.93,2.593
	c-0.644,0.473-1.498,0.709-2.565,0.709c-2.009,0-3.483-0.971-4.425-2.914c-0.941-1.943-1.412-4.998-1.412-9.164
	c0-2.009,0.118-3.746,0.353-5.209c0.235-1.462,0.592-2.666,1.071-3.612c0.478-0.945,1.094-1.643,1.847-2.094
	c0.754-0.45,1.648-0.676,2.683-0.676c0.989,0,1.804,0.222,2.448,0.665c0.314,0.207,0.635,0.502,0.965,0.887
	c0.329,0.384,0.65,0.856,0.965,1.418V0h4.495v37.654h-4.495C54.725,37.654,54.725,34.706,54.725,34.706z M54.183,20.035
	c-0.455-1.242-1.184-1.862-2.188-1.862c-1.067,0-1.828,0.591-2.283,1.773c-0.44,1.094-0.659,3.14-0.659,6.139
	c0,3.014,0.212,5.119,0.635,6.316c0.439,1.197,1.208,1.796,2.307,1.796c1.004,0,1.733-0.621,2.188-1.863
	c0.455-1.329,0.683-3.375,0.683-6.138C54.866,23.418,54.638,21.365,54.183,20.035z M34.823,38.008c-5.1,0-7.649-3.937-7.649-11.812
	c0-7.905,2.542-11.857,7.625-11.857c1.318,0,2.459,0.236,3.424,0.709s1.761,1.205,2.389,2.194c0.627,0.99,1.094,2.239,1.4,3.746
	s0.459,3.302,0.459,5.385C42.471,34.13,39.921,38.008,34.823,38.008z M37.176,19.968c-0.424-1.197-1.177-1.795-2.259-1.795
	c-1.067,0-1.828,0.591-2.283,1.773c-0.424,1.182-0.635,3.243-0.635,6.183c0,2.941,0.211,4.995,0.635,6.161
	c0.455,1.183,1.216,1.773,2.283,1.773c1.066,0,1.812-0.583,2.235-1.751c0.439-1.093,0.66-3.109,0.66-6.05
	C37.812,23.248,37.6,21.15,37.176,19.968z M19.84,22.561c0-1.729-0.173-2.888-0.518-3.48c-0.33-0.605-0.973-0.908-1.93-0.908
	c-1.083,0-1.82,0.31-2.212,0.931c-0.377,0.606-0.565,1.758-0.565,3.457v15.093h-4.66V22.561c0-0.812-0.043-1.499-0.129-2.061
	c-0.087-0.561-0.232-1.012-0.436-1.352c-0.204-0.34-0.47-0.587-0.8-0.742c-0.329-0.156-0.738-0.233-1.224-0.233
	c-1.035,0-1.773,0.332-2.212,0.997c-0.439,0.665-0.659,1.796-0.659,3.391v15.093H0V14.715h4.495v2.837
	c1.239-2.142,2.887-3.213,4.942-3.213c2.244,0,3.766,1.071,4.566,3.213c1.192-2.142,2.887-3.213,5.083-3.213
	c1.71,0,3.016,0.425,3.919,1.274c0.902,0.85,1.353,2.102,1.353,3.756v18.285H19.84V22.561z M67.496,37.654h-4.519V14.715h4.519
	V37.654z"/>
</svg>
