<?xml version="1.0" encoding="utf-8"?>
<!-- Generator: Adobe Illustrator 22.0.1, SVG Export Plug-In . SVG Version: 6.00 Build 0)  -->
<svg version="1.1" id="Layer_1" xmlns="http://www.w3.org/2000/svg" xmlns:xlink="http://www.w3.org/1999/xlink" x="0px" y="0px"
	 viewBox="0 0 45.793 58" style="enable-background:new 0 0 45.793 58;" xml:space="preserve">
<path style="fill:#476DB2;" d="M14.856,45.212H0.646C0.258,45.212,0,44.953,0,44.565V0.646C0,0.258,0.258,0,0.646,0H15.5v44.565
	C15.501,44.953,15.179,45.212,14.856,45.212z M45.147,0h-14.21c-0.323,0-0.646,0.323-0.646,0.646v13.886l15.501,15.501
	L30.809,45.018c-0.13,0.13-0.323,0.193-0.517,0.193h14.855c0.323,0,0.646-0.323,0.646-0.646V0.646C45.793,0.323,45.47,0,45.147,0z"
	/>
<path style="fill:#242D66;" d="M45.793,30.033L30.291,14.532v30.679c0.193,0,0.323-0.065,0.517-0.193L45.793,30.033z"/>
<path style="fill:#204799;" d="M15.953,0.193C15.824,0.065,15.695,0,15.501,0v30.614l14.403,14.403
	c0.13,0.13,0.258,0.193,0.452,0.193V14.532L15.953,0.193z M15.372,0H0.646C0.323,0,0,0.323,0,0.646v14.532L15.049,0.13
	C15.114,0.065,15.242,0,15.372,0z M0.13,45.018c0.13,0.13,0.258,0.193,0.452,0.193h14.209c0.388,0,0.646-0.323,0.646-0.646V30.614
	L1.033,45.018C0.84,45.276,0.388,45.276,0.13,45.018z"/>
<g>
	<path style="fill:#242D66;" d="M4.328,53.995c0.258,0.323,0.388,0.775,0.388,1.356v2.519H3.165v-2.454
		c0-0.258-0.065-0.452-0.13-0.581c-0.065-0.13-0.258-0.193-0.452-0.193c-0.258,0-0.388,0.065-0.581,0.258s-0.193,0.388-0.193,0.581
		v2.39H0.258v-3.035c0-0.452,0-0.84-0.065-1.227h1.421l0.065,0.646c0.193-0.258,0.388-0.452,0.581-0.581
		c0.258-0.13,0.517-0.193,0.84-0.193C3.746,53.479,4.069,53.672,4.328,53.995z M9.688,55.933H6.975c0,0.323,0.13,0.581,0.258,0.71
		c0.193,0.13,0.388,0.193,0.711,0.193c0.193,0,0.452-0.065,0.646-0.13c0.193-0.065,0.388-0.193,0.581-0.258l0.388,1.033
		c-0.193,0.13-0.452,0.258-0.775,0.388C8.461,57.935,8.203,58,7.879,58c-0.517,0-0.904-0.065-1.291-0.258
		c-0.388-0.193-0.646-0.452-0.84-0.775c-0.193-0.323-0.258-0.711-0.258-1.163c0-0.452,0.065-0.84,0.258-1.163
		c0.193-0.323,0.452-0.581,0.775-0.775c0.323-0.194,0.711-0.258,1.098-0.258c0.388,0,0.775,0.065,1.033,0.258
		c0.323,0.193,0.517,0.452,0.71,0.775c0.193,0.323,0.258,0.71,0.258,1.163v0.13C9.623,55.933,9.688,55.933,9.688,55.933z
		 M6.975,55.223h1.356c-0.065-0.452-0.258-0.646-0.646-0.646C7.363,54.577,7.105,54.77,6.975,55.223z M13.693,53.608v1.356
		c-0.258-0.13-0.452-0.193-0.71-0.193c-0.646,0-0.969,0.323-0.969,0.904v2.131h-1.551v-3.035c0-0.452,0-0.84-0.065-1.227h1.421
		l0.065,0.71c0.13-0.258,0.258-0.452,0.517-0.581c0.193-0.13,0.452-0.193,0.775-0.193C13.37,53.544,13.563,53.544,13.693,53.608z
		 M18.666,51.735v6.2h-1.486v-0.581c-0.13,0.193-0.323,0.388-0.517,0.452C16.405,57.936,16.146,58,15.888,58
		c-0.388,0-0.71-0.065-0.969-0.258c-0.258-0.193-0.517-0.452-0.646-0.775c-0.13-0.323-0.258-0.711-0.258-1.163
		c0-0.452,0.065-0.84,0.258-1.163c0.13-0.323,0.388-0.581,0.646-0.775c0.258-0.194,0.581-0.258,0.969-0.258
		c0.258,0,0.517,0.065,0.775,0.193c0.258,0.13,0.388,0.258,0.517,0.452v-2.39h1.486C18.666,51.864,18.666,51.735,18.666,51.735z
		 M16.922,56.514c0.13-0.193,0.193-0.452,0.193-0.84c0-0.323-0.065-0.581-0.193-0.775c-0.13-0.193-0.323-0.258-0.646-0.258
		c-0.258,0-0.452,0.065-0.646,0.258c-0.13,0.193-0.193,0.452-0.193,0.775c0,0.323,0.065,0.646,0.193,0.84
		c0.13,0.193,0.388,0.258,0.646,0.258C16.535,56.772,16.793,56.709,16.922,56.514z M25.383,53.608h1.486l-1.809,4.263h-1.227
		l-0.84-2.132l-0.775,2.132h-1.291l-1.809-4.263h1.551l0.969,2.454l0.904-2.454h0.969l0.969,2.519
		C24.478,56.128,25.383,53.608,25.383,53.608z M31.777,53.608v4.263h-1.55V57.29c-0.13,0.193-0.323,0.388-0.517,0.452
		c-0.258,0.13-0.517,0.193-0.775,0.193c-0.388,0-0.71-0.065-0.969-0.258c-0.258-0.193-0.517-0.452-0.646-0.775
		c-0.129-0.323-0.258-0.71-0.258-1.163c0-0.452,0.065-0.84,0.258-1.163c0.193-0.323,0.388-0.581,0.646-0.775
		c0.258-0.193,0.581-0.258,0.969-0.258c0.258,0,0.517,0.065,0.775,0.193c0.258,0.13,0.388,0.258,0.517,0.452v-0.581
		C30.228,53.608,31.777,53.608,31.777,53.608z M30.033,56.579c0.13-0.193,0.193-0.452,0.193-0.775c0-0.323-0.065-0.646-0.193-0.84
		c-0.13-0.193-0.323-0.258-0.646-0.258c-0.258,0-0.452,0.065-0.646,0.258c-0.193,0.193-0.258,0.452-0.258,0.84
		c0,0.323,0.065,0.581,0.193,0.775c0.129,0.194,0.323,0.258,0.646,0.258C29.71,56.837,29.904,56.709,30.033,56.579z M32.811,57.87
		v-6.2h1.551v6.2H32.811z M35.33,57.87v-6.2h1.551v6.2H35.33z M41.853,55.933h-2.648c0,0.323,0.13,0.581,0.258,0.71
		c0.193,0.13,0.388,0.193,0.711,0.193c0.193,0,0.452-0.065,0.646-0.13c0.193-0.065,0.388-0.193,0.581-0.258l0.388,1.033
		c-0.193,0.13-0.452,0.258-0.775,0.388C40.691,57.935,40.432,58,40.109,58c-0.517,0-0.904-0.065-1.291-0.258
		c-0.388-0.193-0.646-0.452-0.84-0.775c-0.194-0.323-0.258-0.711-0.258-1.163c0-0.452,0.065-0.84,0.258-1.163
		c0.193-0.323,0.452-0.581,0.775-0.775c0.323-0.194,0.71-0.258,1.098-0.258s0.775,0.065,1.033,0.258
		c0.258,0.193,0.517,0.452,0.71,0.775c0.193,0.323,0.258,0.71,0.258,1.163C41.853,55.804,41.853,55.933,41.853,55.933z
		 M39.14,55.223h1.356c-0.065-0.452-0.258-0.646-0.646-0.646C39.528,54.577,39.27,54.77,39.14,55.223z M45.47,56.709v1.163
		C45.276,57.935,45.018,58,44.695,58c-0.581,0-1.033-0.193-1.291-0.517c-0.323-0.323-0.452-0.775-0.452-1.356v-2.519l1.551-1.421
		v1.421h1.033v1.098h-1.098v1.356c0,0.193,0.065,0.323,0.193,0.452s0.258,0.13,0.452,0.13C45.147,56.709,45.341,56.709,45.47,56.709
		z"/>
</g>
</svg>
