<?xml version="1.0" encoding="utf-8"?>
<!-- Generator: Adobe Illustrator 22.0.1, SVG Export Plug-In . SVG Version: 6.00 Build 0)  -->
<svg version="1.1" id="Layer_1" xmlns="http://www.w3.org/2000/svg" xmlns:xlink="http://www.w3.org/1999/xlink" x="0px" y="0px"
	 viewBox="0 0 96.017 54.607" style="enable-background:new 0 0 96.017 54.607;" xml:space="preserve">
<path style="fill:#0A2369;" d="M93.963,53.956v-8.677h-0.204l-4.271,8.677h-1.851l-4.251-8.677h-0.224v8.677h-1.993V42.719h3.01
	l4.393,8.839h0.102l4.414-8.839h2.929v11.237C96.017,53.956,93.963,53.956,93.963,53.956z M66.872,54.241
	c-3.499,0-5.716-2.073-5.716-5.792v-5.73h2.075v5.751c0,2.398,1.119,3.942,3.641,3.942c2.522,0,3.661-1.544,3.661-3.942v-5.751
	h2.054v5.73C72.587,52.168,70.37,54.241,66.872,54.241z M58.281,11.463L48.008,5.537l-10.273,5.926v11.851l10.273,5.926v5.537
	l-15.073-8.694V8.695L48.008,0L63.08,8.695v17.388l-4.799-2.769V11.463z M27.05,54.241c-3.478,0-6.285-2.337-6.285-5.893
	c0-3.556,2.807-5.894,6.285-5.894s6.285,2.338,6.285,5.894S30.528,54.241,27.05,54.241z M27.05,44.243
	c-2.359,0-4.21,1.524-4.21,4.105s1.851,4.105,4.21,4.105c2.38,0,4.231-1.524,4.231-4.105S29.43,44.243,27.05,44.243z M12.346,53.245
	l-1.363,1.362l-1.261-1.26c-0.976,0.589-2.156,0.894-3.437,0.894C2.807,54.241,0,51.904,0,48.348c0-3.556,2.807-5.894,6.285-5.894
	s6.285,2.338,6.285,5.894c0,1.504-0.488,2.804-1.343,3.8L12.346,53.245z M6.285,44.243c-2.36,0-4.21,1.524-4.21,4.105
	s1.85,4.105,4.21,4.105c0.773,0,1.464-0.163,2.054-0.488L7.2,50.827l1.363-1.362l1.261,1.26c0.427-0.63,0.692-1.422,0.692-2.377
	C10.516,45.767,8.665,44.243,6.285,44.243z M50.582,22.043l10.748,6.291l-10.748,6.291V22.043z M52.961,47.068
	c0,1.788-0.936,3.109-2.339,3.779l1.77,3.109h-2.258l-1.424-2.601h-4.861v2.601h-2.075V42.719h6.61
	C50.968,42.719,52.961,44.446,52.961,47.068z M43.849,44.609v4.856h4.454c1.546,0,2.604-0.894,2.604-2.397
	c0-1.525-1.058-2.459-2.604-2.459H43.849z"/>
</svg>
