<?xml version="1.0" encoding="utf-8"?>
<!-- Generator: Adobe Illustrator 22.0.1, SVG Export Plug-In . SVG Version: 6.00 Build 0)  -->
<svg version="1.1" id="Layer_1" xmlns="http://www.w3.org/2000/svg" xmlns:xlink="http://www.w3.org/1999/xlink" x="0px" y="0px"
	 viewBox="0 0 90.157 59.724" style="enable-background:new 0 0 90.157 59.724;" xml:space="preserve">
<path style="fill:#0A2369;" d="M86.49,52.095v7.629h-4.185v-7.629h-3.774V49.32h11.626v2.775H86.49z M70.752,53.117l6.268,0.018
	v2.774h-6.268v3.815h-4.183V49.32h11.236v2.775h-7.053C70.752,52.095,70.752,53.117,70.752,53.117z M54.262,59.724V49.32h11.235
	v2.775h-7.051v1.022l6.268,0.018v2.774h-6.268v1.041h7.395v2.774C65.841,59.724,54.262,59.724,54.262,59.724z M55.891,24.166V12.478
	h3.369l-0.002,8.337C59.258,20.815,55.891,24.166,55.891,24.166z M51.706,8.311h3.252v16.783l-3.252,3.233V8.311z M47.523,22.991
	h3.25v18.636h-3.25C47.523,41.627,47.523,22.991,47.523,22.991z M47.523,4.16h3.25v17.902h-3.25
	C47.523,22.062,47.523,4.16,47.523,4.16z M43.337,18.852h3.252v22.775h-3.252C43.337,41.627,43.337,18.852,43.337,18.852z M43.337,0
	h3.252v17.924h-3.252C43.337,17.924,43.337,0,43.337,0z M39.154,22.991h3.25v18.636h-3.25
	C39.154,41.627,39.154,22.991,39.154,22.991z M39.154,4.16h3.25v17.902h-3.25C39.154,22.062,39.154,4.16,39.154,4.16z M34.969,8.311
	h3.249v20.016l-3.249-3.234V8.311z M30.666,12.478h3.369v11.688l-3.369-3.355C30.666,20.811,30.666,12.478,30.666,12.478z
	 M39.236,52.441h-4.178v-0.134c0-0.308-0.254-0.56-0.563-0.56h-2.709c-0.31,0-0.564,0.252-0.564,0.56v0.268
	c0,0.308,0.254,0.56,0.564,0.56h4.144c1.821,0,3.311,1.482,3.311,3.295c0,1.812-1.49,3.294-3.311,3.294h-5.927
	c-1.764,0-3.215-1.389-3.307-3.12h4.178v0.134c0,0.307,0.254,0.559,0.563,0.559h2.71c0.308,0,0.562-0.252,0.562-0.559v-0.269
	c0-0.308-0.253-0.56-0.562-0.56h-4.144c-1.823,0-3.313-1.482-3.313-3.294c0-1.813,1.49-3.295,3.313-3.295h5.927
	C37.692,49.32,39.145,50.708,39.236,52.441z M19.564,59.724c-4.422,0-6.661-1.808-6.661-5.217c0-3.408,2.239-5.187,6.661-5.187
	c4.423,0,6.662,1.779,6.662,5.187C26.226,57.916,23.987,59.724,19.564,59.724z M22.035,53.841c0-1.152-1.112-2.094-2.471-2.094
	s-2.47,0.942-2.47,2.094v1.363c0,1.152,1.111,2.093,2.47,2.093s2.471-0.941,2.471-2.093V53.841z M8.716,59.724l-2.823-3.468H4.184
	v3.468H0V49.32h9.236c1.763,0,3.202,1.409,3.202,3.132v0.672c0,1.473-1.074,2.658-2.477,2.988l2.939,3.612H8.716z M8.697,52.687
	c0-0.516-0.43-0.94-0.96-0.94H4.184v2.081h3.553c0.53,0,0.96-0.422,0.96-0.94C8.697,52.888,8.697,52.687,8.697,52.687z
	 M49.003,55.316V49.32h4.183l0.001,10.404h-4.184l-4.881-5.995v5.995h-4.183V49.32h4.183C44.122,49.32,49.003,55.316,49.003,55.316z
	"/>
</svg>
