<?xml version="1.0" encoding="utf-8"?>
<!-- Generator: Adobe Illustrator 22.0.1, SVG Export Plug-In . SVG Version: 6.00 Build 0)  -->
<svg version="1.1" id="Layer_1" xmlns="http://www.w3.org/2000/svg" xmlns:xlink="http://www.w3.org/1999/xlink" x="0px" y="0px"
	 viewBox="0 0 101.979 43.418" style="enable-background:new 0 0 101.979 43.418;" xml:space="preserve">
<path style="fill:#0A2369;" d="M101.775,34.764c-0.314,0.561-0.941,0.881-1.569,0.881H87.18c0.314,1.042,0.941,2.083,1.805,2.805
	c1.255,1.041,2.903,1.522,4.472,1.362c1.413-0.16,2.747-0.882,3.689-2.003c0.313-0.321,0.549-0.802,0.784-1.202
	c0.471-0.561,1.334-0.802,1.962-0.481c0.706,0.32,1.177,1.202,0.942,2.003c-0.157,0.561-0.471,0.962-0.785,1.443
	c-1.648,2.243-4.394,3.686-7.141,3.765c-2.589,0.081-5.179-1.041-6.984-3.044c-1.098-1.122-1.805-2.565-2.197-4.167
	c-0.157-0.721-0.235-1.443-0.314-2.164c0-1.362,0.236-2.724,0.863-4.006c1.177-2.324,3.218-4.167,5.65-4.968
	c2.825-0.961,6.042-0.401,8.396,1.442c2.041,1.603,3.375,4.087,3.61,6.651C102.011,33.642,102.011,34.203,101.775,34.764z
	 M97.146,30.116c-0.942-1.122-2.276-1.842-3.689-2.003c-1.255-0.24-2.589,0.08-3.766,0.801s-2.041,1.923-2.511,3.285h11.142
	C98.087,31.398,97.695,30.677,97.146,30.116z M80.353,22.504c-0.314,0.08-0.628,0.32-1.02,0.32c-0.392-0.08-0.471-0.64-0.157-0.801
	c0.392-0.16,0.785-0.32,1.177-0.48c2.432-1.122,4.473-3.206,5.493-5.77c1.098-2.724,1.02-6.01-0.236-8.654
	c-1.177-2.484-3.217-4.407-5.728-5.368c-1.962-0.802-4.237-0.962-6.277-0.401c-1.884,0.481-3.689,1.522-5.023,2.965
	c-1.883,1.923-2.981,4.647-2.981,7.372c-0.079,2.483,0.784,4.887,2.354,6.811c1.255,1.522,2.903,2.724,4.708,3.365
	c0.157,0.08,0.392,0.16,0.471,0.321c0.157,0.32-0.157,0.64-0.471,0.64c-0.314-0.08-0.628-0.24-0.942-0.32
	c-1.961-0.801-3.688-2.244-4.865-4.006c-1.412-2.004-2.119-4.408-2.119-6.892c0-2.724,1.021-5.448,2.825-7.452
	c1.962-2.323,4.63-3.766,7.455-4.086c2.119-0.241,4.316,0.16,6.199,1.122c2.276,1.121,4.159,3.125,5.258,5.448
	c1.412,3.045,1.49,6.731,0.157,9.776C85.453,19.138,83.178,21.382,80.353,22.504z M66.621,39.011
	c1.805-1.042,2.982-3.045,2.982-5.209V26.19c0-0.641,0.313-1.202,0.863-1.523c0.549-0.4,1.412-0.32,1.962,0.16
	c0.47,0.321,0.706,0.882,0.627,1.443v6.571c0,0.721,0,1.442-0.078,2.163c-0.314,2.885-2.119,5.609-4.63,7.052
	c-1.883,1.121-4.159,1.522-6.277,1.041c-2.041-0.401-3.924-1.522-5.258-3.125c-0.942-1.122-1.569-2.404-1.883-3.766
	c-0.393-1.523-0.314-3.125-0.314-4.728v-4.727c0-0.481,0-0.962,0.235-1.362c0.157-0.401,0.628-0.722,1.099-0.882
	c0.706-0.16,1.491,0.24,1.805,0.882c0.235,0.48,0.235,1.041,0.235,1.522v6.491c0,0.48,0,0.961,0.079,1.442
	c0.156,1.202,0.784,2.404,1.647,3.205c0.864,0.881,2.041,1.442,3.218,1.683C64.188,39.892,65.522,39.652,66.621,39.011z
	 M53.516,40.773c0,0.401,0,0.882-0.078,1.283c-0.157,0.56-0.628,1.041-1.177,1.121c-0.628,0.16-1.334-0.08-1.727-0.641
	c-0.313-0.4-0.392-0.881-0.392-1.282v-7.372c0.079-1.683-0.706-3.285-1.883-4.407c-1.099-1.041-2.511-1.602-4.002-1.602
	c-1.334,0-2.59,0.48-3.61,1.362c-1.334,1.041-2.118,2.724-2.118,4.487v8.013c-0.079,0.801-0.864,1.522-1.727,1.442
	c-0.863,0-1.726-0.801-1.726-1.682v-7.212c0-0.561,0-1.202-0.157-1.763c-0.314-1.442-1.177-2.724-2.276-3.526
	c-1.02-0.72-2.197-1.121-3.374-1.121c-1.255,0-2.511,0.48-3.531,1.282c-1.334,1.041-2.197,2.804-2.197,4.567v7.773
	c0,0.561-0.314,1.121-0.706,1.442c-0.55,0.4-1.334,0.4-1.884,0c-0.47-0.321-0.784-0.881-0.784-1.442v-7.853
	c-0.157-2.724,1.255-5.529,3.452-7.212c2.355-1.843,5.65-2.403,8.475-1.442c1.883,0.641,3.453,1.843,4.63,3.446
	c0.863-1.122,1.962-2.164,3.217-2.805c2.668-1.442,5.964-1.442,8.632,0c2.589,1.362,4.473,4.006,4.865,6.971
	c0.157,1.042,0.078,2.083,0.078,3.045C53.516,35.645,53.516,40.773,53.516,40.773z M14.595,43.097
	c-0.627,0.24-1.334,0.321-2.04,0.321H2.197c-0.392,0-0.863-0.081-1.177-0.401c-0.392-0.321-0.706-0.881-0.628-1.442
	c0-0.641,0.393-1.282,1.021-1.523c0.47-0.24,1.02-0.16,1.569-0.16h10.044c1.099,0,2.04-1.042,1.962-2.164
	c0-1.121-0.942-2.083-2.04-2.003H6.67c-0.863,0-1.805,0.08-2.668-0.16c-1.334-0.32-2.433-1.202-3.139-2.404
	C0.314,32.28,0,31.238,0,30.116c0-1.442,0.549-2.885,1.569-3.926c0.785-0.801,1.884-1.363,3.061-1.523
	c0.314-0.08,0.628-0.08,0.941-0.08h10.358c0.471,0,0.942,0.16,1.256,0.401c0.471,0.401,0.706,1.042,0.549,1.683
	c-0.157,0.721-0.706,1.282-1.412,1.362c-0.393,0.08-0.785,0-1.177,0H5.336c-1.02,0-1.883,0.801-1.962,1.843
	c-0.078,0.881,0.393,1.763,1.177,2.163c0.393,0.241,0.863,0.241,1.334,0.241h7.063c1.098,0,2.197,0.4,3.06,1.041
	c1.098,0.801,1.883,2.004,2.197,3.366c0.235,1.202,0.078,2.484-0.392,3.525C17.185,41.575,16.008,42.616,14.595,43.097z
	 M72.663,19.94c-0.314-0.08-0.549-0.241-0.785-0.401c-1.962-1.122-3.452-2.965-4.159-5.208c-0.706-2.324-0.471-4.968,0.628-7.052
	c1.413-2.404,3.845-4.166,6.513-4.567c1.962-0.32,4.081,0,5.807,1.042C83.256,5.196,84.983,8,85.14,10.965
	c0.157,1.683-0.157,3.366-0.942,4.808c-0.942,1.843-2.511,3.365-4.394,4.167c-0.157,0.08-0.393,0.16-0.55,0
	c-0.313-0.16-0.235-0.721,0.079-0.802c1.255-0.561,2.354-1.442,3.217-2.564s1.334-2.404,1.569-3.766
	c0.236-1.763-0.078-3.686-0.941-5.288c-0.628-1.122-1.491-2.083-2.59-2.805c-1.961-1.362-4.629-1.682-6.905-0.881
	c-2.197,0.721-4.08,2.564-4.944,4.808c-0.863,2.243-0.706,4.888,0.55,7.051c0.784,1.442,2.04,2.644,3.531,3.285
	c0.157,0.081,0.314,0.161,0.392,0.401C73.291,19.699,72.977,20.02,72.663,19.94z M73.291,16.334c0.078,0.24-0.157,0.561-0.393,0.561
	c-0.157,0-0.314-0.08-0.47-0.16c-1.021-0.802-1.805-2.004-2.119-3.286c-0.393-1.442-0.236-2.965,0.392-4.327
	c0.942-2.163,2.982-3.525,5.101-3.685c1.883-0.161,3.766,0.641,5.022,2.083c1.255,1.362,1.805,3.365,1.491,5.208
	c-0.236,1.362-0.864,2.645-1.884,3.526c-0.235,0.24-0.549,0.561-0.863,0.641c-0.314,0.08-0.627-0.321-0.471-0.641
	c0.157-0.241,0.393-0.321,0.55-0.481c1.569-1.362,2.275-3.766,1.569-5.769c-0.392-1.122-1.098-2.083-2.04-2.725
	c-1.02-0.721-2.354-1.041-3.61-0.881c-1.255,0.16-2.511,0.801-3.295,1.843c-0.785,0.961-1.256,2.243-1.256,3.446
	c-0.078,1.602,0.706,3.285,2.04,4.246C73.134,16.013,73.291,16.174,73.291,16.334z M74.389,14.17c0-0.4,0.079-0.881,0.314-1.202
	c0.235-0.32,0.549-0.56,0.942-0.64c0.627-0.16,1.255,0,1.726,0.48c0.392,0.321,0.471,0.882,0.471,1.362v19.873
	c0,1.362,0.471,2.724,1.334,3.766c0.942,1.202,2.354,1.923,3.845,2.083c0.392,0.08,0.863,0,1.255,0.16
	c0.628,0.241,1.099,0.882,1.021,1.603c0,0.721-0.471,1.362-1.099,1.603c-0.549,0.16-1.177,0.079-1.726,0
	c-2.59-0.321-5.022-1.843-6.435-4.007c-0.628-0.961-1.099-2.083-1.412-3.205c-0.314-1.202-0.236-2.484-0.236-3.686
	C74.389,32.36,74.389,14.17,74.389,14.17z"/>
</svg>
