<?xml version="1.0" encoding="utf-8"?>
<!-- Generator: Adobe Illustrator 22.0.1, SVG Export Plug-In . SVG Version: 6.00 Build 0)  -->
<svg version="1.1" id="Layer_1" xmlns="http://www.w3.org/2000/svg" xmlns:xlink="http://www.w3.org/1999/xlink" x="0px" y="0px"
	 viewBox="0 0 108.231 22.258" style="enable-background:new 0 0 108.231 22.258;" xml:space="preserve">
<path style="fill:#0A2369;" d="M108.231,21.52c-1.691,0.096-3.372,0.328-5.017,0.738c-0.003-0.417-0.012-0.833-0.027-1.251
	c-2.125,1.41-5.026,1.662-7.294,0.439c-1.904-1.006-2.956-3.12-3.087-5.182c-0.233-2.658,0.565-5.64,2.891-7.239
	c2.125-1.527,4.916-1.554,7.413-1.134c-0.052-1.812,0.132-3.638-0.128-5.439c-0.046-0.888-1.104-0.837-1.752-1.029
	c0.015-0.156,0.049-0.468,0.068-0.624c1.742-0.075,3.46-0.399,5.156-0.783c-0.214,5.814-0.122,11.631-0.125,17.446
	c0.168,1.85-0.494,2.938,1.902,3.338C108.231,20.8,108.231,21.52,108.231,21.52z M103.11,10.252c-0.83-0.553-1.859-0.871-2.871-0.86
	c-0.786,0.008-1.563,0.214-2.227,0.662c-1.327,0.924-1.645,2.628-1.764,4.119c-0.107,1.638,0.094,3.474,1.29,4.728
	c1.394,1.482,3.799,1.539,5.578,0.738C103.104,16.51,103.113,13.381,103.11,10.252z M86.446,10.417c0,0-0.009,5.679,0.009,8.517
	c0.07,0.633-0.031,1.455,0.574,1.869c0.584,0.336,1.293,0.318,1.945,0.42c0,0.195-0.004,0.591-0.004,0.786
	c-2.625-0.174-5.257-0.21-7.883-0.006l-0.001-0.78c0.847-0.141,1.728-0.429,1.856-0.924c0.364-1.221,0.187-2.514,0.223-3.771
	c-0.036-2.001,0.074-4.005-0.048-6.003c-0.01-0.972-1.131-1.059-1.859-1.2c0.001-0.276-0.005-0.559-0.006-0.804
	c1.711-0.024,3.422-0.252,5.048-0.789l0.046,1.236c1.645-1.299,4.124-1.629,5.875-0.342l-1.826,2.736
	C89.542,10.072,87.812,9.76,86.446,10.417z M81.252,8.521H81.25H81.252z M74.786,22.013c-2.332,0.477-5.056,0.318-6.93-1.285
	c-1.587-1.313-2.213-3.423-2.204-5.4c-0.082-2.31,0.73-4.77,2.604-6.258c1.26-1.029,2.923-1.422,4.534-1.439
	c1.981-0.04,4.105,0.536,5.431,2.061c1.725,1.985,1.96,4.844,1.398,7.304C79.096,19.366,77.246,21.481,74.786,22.013z
	 M75.089,10.351c-0.555-0.676-1.412-1.025-2.278-1.042c-0.393-0.007-0.789,0.053-1.158,0.184c-1.076,0.342-1.755,1.356-2.103,2.358
	c-0.499,1.497-0.554,3.114-0.337,4.668c0.208,1.17,0.551,2.415,1.471,3.252c1.201,1.191,3.448,1.044,4.49-0.279
	c1.061-1.35,1.275-3.134,1.263-4.788C76.363,13.186,76.094,11.56,75.089,10.351z M64.176,1.681c-0.988-0.3-2.229,0.204-2.486,1.242
	c-0.415,1.647-0.165,3.369-0.226,5.049h3.207v1.875h-3.21c0,2.826,0,5.653-0.003,8.479c-0.012,0.801,0.12,1.593,0.272,2.379
	c0.734,0.333,1.526,0.503,2.336,0.518c-0.003,0.195-0.007,0.589-0.01,0.787c-2.622-0.168-5.248-0.219-7.868-0.003
	c0-0.165,0.006-0.496,0.006-0.661c0.829-0.144,1.856-0.521,1.889-1.499c0.321-3.322,0.104-6.667,0.168-10
	c-0.638,0-1.277,0-1.916-0.003c0.003-0.282,0.009-0.567,0.012-0.849c0.648-0.294,1.281-0.62,1.904-0.957
	c0-1.926-0.116-4.008,0.924-5.727c0.877-1.491,2.644-2.277,4.356-2.292c1.562-0.099,3.329,0.156,4.423,1.368
	c-0.556,0.72-1.088,1.455-1.645,2.175C65.689,2.863,65.178,1.879,64.176,1.681z M47.296,22.007l-0.009-0.681
	c0,0,1.753-0.484,1.864-0.979c0.401-2.136,0.306-4.344,0.285-6.513c-0.08-1.296-0.046-2.916-1.309-3.704
	c-1.354-0.766-3.014-0.412-4.398,0.083c0.009,2.809,0,5.619,0,8.428c0.039,0.75-0.015,1.605,0.483,2.229
	c0.418,0.284,0.944,0.335,1.424,0.467c0.003,0.168,0.006,0.508,0.006,0.679c-2.393-0.153-4.793-0.252-7.183-0.003
	c0-0.168,0.006-0.502,0.006-0.667c0.727-0.164,1.687-0.389,1.825-1.253c0.333-2.07,0.076-4.185,0.155-6.274
	c-0.03-1.191,0.105-2.397-0.11-3.573c-0.167-0.804-1.167-0.759-1.797-0.918c0-0.186-0.003-0.558-0.003-0.744
	c1.709-0.027,3.442-0.201,5.019-0.894c0.056,0.399,0.098,0.798,0.132,1.203c1.812-1.164,4.154-1.617,6.23-0.897
	c1.485,0.489,2.525,1.918,2.656,3.429c0.306,2.877-0.138,5.794,0.254,8.664c0.043,0.903,1.033,1.107,1.751,1.255
	c0.003,0.167,0.003,0.504,0.006,0.672C52.156,21.827,47.296,22.007,47.296,22.007z M32.082,20.863
	c-1.816,1.564-4.882,1.831-6.719,0.178c-1.559-1.731-1.278-4.929,0.899-6.057c1.816-0.889,3.806-1.366,5.728-1.972
	c0.025-1.149-0.079-2.616-1.302-3.162c-1.559-0.846-3.537-0.093-4.383,1.374c-0.196-0.108-0.587-0.321-0.78-0.429
	c0.708-2.171,2.931-3.246,5.135-3.224c1.002,0.01,1.999,0.247,2.849,0.71c1.089,0.633,1.639,1.866,1.7,3.073
	c0.125,2.331-0.006,4.664-0.043,6.992c0.037,0.543-0.027,1.248,0.492,1.599c0.401,0.309,0.862-0.009,1.272-0.111
	c0.113,0.13,0.342,0.385,0.455,0.51c-0.651,0.687-1.308,1.501-2.301,1.69C33.944,22.348,32.635,21.937,32.082,20.863z
	 M31.957,14.831c-1.189,0.392-2.433,0.725-3.482,1.433c-1.091,0.868-1.147,2.931,0.174,3.621c1.079,0.513,2.296,0.099,3.32-0.348
	C31.957,17.968,31.969,16.4,31.957,14.831z M18.234,17.414c0.067,0.959,0.095,2.157,1.009,2.744
	c1.152,0.672,2.531,0.253,3.683-0.188c0.355,0.852-0.547,1.329-1.174,1.683c-1.47,0.699-3.264,0.774-4.783,0.192
	c-1.3-0.477-1.926-1.872-1.994-3.15c-0.155-2.946,0-5.898,0.025-8.847h-1.911c-0.003-0.199-0.006-0.394-0.009-0.588
	c2.076-0.768,3.476-2.524,4.491-4.383V4.876c0.159,0.009,0.48,0.024,0.639,0.033C18.206,5.956,18.206,7,18.206,8.047h4.891v1.8
	h-4.891C18.225,12.368,18.167,14.891,18.234,17.414z M10.072,12.34c2.834,2.214,2.464,7.368-0.898,8.919
	c-2.831,1.284-6.154,0.96-9.076,0.153C0.116,20.033,0.064,18.654,0,17.276c0.211-0.003,0.636-0.012,0.85-0.015
	c0.15,0.867,0.287,1.932,1.183,2.38c1.602,0.882,3.668,0.953,5.331,0.194c2.076-1.124,1.693-4.377-0.248-5.472
	c-1.684-1.273-3.619-2.214-5.175-3.651C0.217,9.14,0.003,6.386,1.113,4.421c0.908-1.566,2.739-2.349,4.503-2.493V1.927
	c2.014-0.12,4.035,0.009,6.028,0.285c-0.12,1.392-0.107,2.793,0.003,4.185c-0.193,0-0.578,0.003-0.771,0.003
	c-0.152-0.87-0.311-1.926-1.256-2.313c-1.4-0.579-3.039-0.636-4.49-0.222C3.231,4.417,2.919,7.159,4.332,8.356
	C6.099,9.874,8.263,10.867,10.072,12.34z"/>
</svg>
