<?xml version="1.0" encoding="utf-8"?>
<!-- Generator: Adobe Illustrator 22.0.1, SVG Export Plug-In . SVG Version: 6.00 Build 0)  -->
<svg version="1.1" id="Layer_1" xmlns="http://www.w3.org/2000/svg" xmlns:xlink="http://www.w3.org/1999/xlink" x="0px" y="0px"
	 viewBox="0 0 59.991 59.761" style="enable-background:new 0 0 59.991 59.761;" xml:space="preserve">
<path style="fill:#0A2369;" d="M29.824,10.504c1.069,0.614,2.202,1.403,3.064,2.24l-0.338,0.339c-1.702-0.18-3.495,0.045-5.109,0.07
	c-0.18-0.181-0.543-0.453-0.205-0.681C27.236,12.472,29.824,10.504,29.824,10.504z M59.924,31.572
	c0.023,0.765,0.095,1.423-0.205,2.206c-3.11,0.881-5.152-2.399-8.17-1.905l0.341,1.701c2.792,0.092,4.536,2.759,7.42,2.644
	c-0.41,0.815,0.182,2.963-1.633,2.105c-1.884-0.451-3.246-2.105-5.312-2.105c-0.248,0.456-0.091,1.087-0.135,1.626
	c2.179,0.34,3.746,2.175,5.923,2.514c-0.205,0.745-0.408,1.58-1.021,2.034c-1.771-0.429-3.156-2.014-5.041-1.969l-0.336,1.562
	c1.792,0.045,2.95,1.625,4.561,2.1c0.044,0.658-0.547,1.247-0.887,1.835c-1.43-0.428-2.52-1.653-4.154-1.561
	c-0.023-0.614,0.342-1.311,0.204-1.967c-1.835,0.544-3.065-1.154-4.425-2.174c-0.04-3.335-3.563-5.522-3.749-8.646
	c-0.036-0.623,0.059-1.288,0.344-2.003c1.158-2.667,0.794-6.131-0.476-8.618c-0.385-0.655-1.069-1.172-1.706-1.557
	c0.932,1.969,2.068,4.295,1.501,6.714c-0.066,1.868-1.172,3.663-1.185,5.464c-0.004,0.642,0.134,1.284,0.504,1.933
	c1.477,2.649,4.133,5.156,3.134,8.479c-0.275,1.021-1.092,1.809-1.296,2.848c1.727,1.425,3.36,3.031,5.652,3.122
	c0.816-0.52,0.363-2.824,2.042-1.761l2.453,1.222c-0.179,0.654-0.728,1.24-1.226,1.691c-0.931-0.451-1.838-0.993-2.999-0.948
	c-0.342,0.361-0.636,0.767-0.611,1.286c0.817,0.134,1.566,0.478,2.248,0.954c-0.316,0.679-0.934,1.105-1.501,1.626l-1.903-0.679
	c-0.317,0.453-0.977,0.929-0.746,1.426c0.43,0.183,0.906,0.431,1.222,0.748c-0.84,0.905-1.904,1.486-2.929,2.1
	c-0.882-2.873-3.789-4.887-3.539-8.209l-0.135-0.135c-0.684,0.766-0.456,1.99-0.411,2.983c0.818,2.08,2.768,3.688,3.064,5.97
	c-0.342,0.587-1.112,0.704-1.702,0.953c0.068-4.114-6.196-7.235-2.179-11.397c1.34-2.037,3.585-3.982,2.789-6.788
	c-0.816-2.709-3.704-4.387-3.679-7.424l0.004-0.237c0.658-3.167,2.657-6.537,1.022-9.905c-0.456-1.355-1.474-2.895-2.858-3.462
	c2.064,2.354,2.882,6.195,1.701,9.362c-0.595,1.26-1.414,2.761-1.496,4.242h-0.005c-0.044,0.774,0.115,1.543,0.615,2.272
	c1.567,2.534,4.29,5.317,2.724,8.619c-1.771,2.645-4.857,5.335-3.134,8.819c1.249,2.08,3.18,4.156,2.659,6.713l-2.043,0.678
	c1.362-4.77-5.312-7.573-2.518-12.345c1.725-2.555,4.81-4.953,3.063-8.344c-1.043-2.101-3.201-3.345-3.133-5.971l0.075-0.441
	c0.703-3.724,3.544-7.249,1.557-11.229c-0.522-1.176-1.565-2.373-2.723-3.052l-0.07,0.069c2.316,2.239,3.021,5.922,1.772,8.884
	c-0.583,1.737-1.862,3.467-2.122,5.329c-0.124,0.878-0.019,1.787,0.49,2.746c1.475,2.327,4.062,4.795,2.448,7.805
	c-1.7,2.485-4.538,4.904-3.405,8.136c1.249,2.827,3.856,5.521,2.448,9.027l-2.107,0.474c1.679-3.416-0.839-6.807-2.314-9.771
	c-1.794-4.251,3.855-6.287,3.946-10.174c-0.022-2.509-2.699-3.934-3.265-6.241c-1.158-0.973-2.36,0.388-3.745,0.136
	c-1.022,0.204-2.593-1.403-3.203,0.339c-0.727,2.554-4.039,4.431-2.584,7.461c1.385,2.692,4.718,4.661,3.605,8.144
	c-0.997,3.255-4.29,6.353-2.248,10.106c-0.839-0.271-2.405,0.248-2.383-1.087c-1.293-4.545,4.222-7.193,2.518-11.737
	c-0.792-2.782-4.404-4.319-3.609-7.665c0.588-2.755,3.691-4.682,3.255-7.699c-0.035-0.253-0.097-0.511-0.186-0.781
	c-1.158-3.256-3.521-6.514-2.113-10.314c0.387-1.086,1.159-2.013,1.837-2.983c-2.246,1.198-3.38,3.732-3.334,6.309
	c-0.098,2.803,1.981,5.204,2.276,7.769c0.117,1.035-0.054,2.095-0.779,3.219c-1.474,1.993-3.402,4.094-2.518,6.719
	c0.841,2.647,4.154,4.25,3.95,7.327c-0.023,3.639-4.267,5.905-3.064,9.975l-2.113-0.683c-0.838-3.617,3.019-5.467,3.064-8.814
	c0.546-3.848-4.381-5.276-4.085-9.027c-0.021-2.851,2.497-4.655,3.609-7.053c0.191-0.583,0.254-1.135,0.229-1.663
	c-0.136-2.651-2.534-4.723-2.136-7.704c0.134-2.193,0.883-4.115,2.314-5.766c-1.974,0.79-2.789,3.054-3.335,4.954
	c-0.946,3.046,1.313,5.786,1.539,8.516c0.101,1.205-0.195,2.403-1.333,3.629c-1.635,1.919-3.294,4.342-2.113,6.922
	c1.25,2.847,5.177,5.063,3.474,8.614c-0.929,2.239-3.155,3.934-3.064,6.579c-0.589-0.249-1.201-0.497-1.702-0.948
	c0-3.369,4.81-5.473,2.519-9.023c-0.204,0.7-0.247,1.652-0.406,2.444c-0.796,2.059-2.497,3.707-3.134,5.835
	c-1.065-0.41-2.178-1.27-3.064-2.174l1.227-0.748c-0.136-0.453-0.499-0.838-0.816-1.222c-0.797-0.111-1.32,0.409-1.977,0.613
	c-0.568-0.498-1.115-0.95-1.567-1.561c0.407-1.155,3.589-0.2,1.977-2.1c-1.088-0.678-2.181,0.29-3.134,0.743L5.722,47.55
	c1.112-0.678,2.221-1.629,3.605-1.357c0.341,0.612,0.365,1.512,1.021,1.831c2.339-0.046,3.996-1.807,5.788-3.187
	c-1.25-1.853-2.266-4.41-1.156-6.649c0.889-2.244,3.206-4.135,3.311-6.616c0.023-0.565-0.065-1.159-0.313-1.799
	c-1.225-3.143-1.658-7.392,0.681-10.175c-1.272,0.34-2.021,1.919-2.453,3.118c-1.406,3.07,0.372,5.914,0.433,8.856
	c0.009,0.529-0.034,1.059-0.163,1.593c-1.204,2.42-3.153,4.542-3.47,7.327c-1.385,0.88-2.522,2.419-4.496,1.9
	c-0.069,0.519,0.09,1.312,0.271,1.9c-1.565-0.066-2.632,1.083-3.95,1.627c-0.702-0.225-0.884-1.129-1.156-1.761
	c1.542-0.52,2.655-2.06,4.426-2.036c0.205-0.568-0.115-1.088-0.206-1.631c-2.202-0.974-5.694,4.816-5.988-0.204
	c2.201-0.135,3.608-2.171,5.788-2.374l0.065-1.626c-2.474-0.249-4.065,2.285-6.538,2.035l-0.545-2.17
	c2.86,0.179,4.565-2.376,7.289-2.513c0.362-0.474,0.406-1.175,0.475-1.83c-2.974-0.387-5.014,2.897-8.17,1.9
	c0,0-0.109-1.367-0.168-2.137h0.005c-0.022-0.302-0.043-0.511-0.043-0.511c2.815,1.088,5.288-0.926,7.695-1.966
	c0.613-0.183,1.568,0.134,1.842-0.544c-0.024-0.52,0.928-1.128,0.136-1.491c-3.52-0.476-5.858,3.753-9.468,1.83L0,28.346
	C0.75,18.126,6.535,8.245,16.135,3.383c3.889-2.214,8.719-3.342,13.59-3.382c5.879-0.049,11.819,1.488,16.239,4.604
	c4.291,2.623,8.396,6.945,10.623,11.332c2.131,3.844,3.111,8.158,3.404,12.75c-3.723,2.803-6.221-2.64-10.013-1.423
	c0.205,0.59,0.317,1.199,0.751,1.697c3.36-0.024,5.674,3.481,9.192,2.1L59.924,31.572z M17.156,18.985
	c-2.361-1.539-5.355-0.09-7.555,0.748c-0.204-2.059-1.043-3.935-2.793-5.291c-0.17-0.085-0.405-0.261-0.616-0.274
	c-0.126-0.008-0.247,0.043-0.34,0.204c0.793,4.861-2.379,8.252-4.627,11.94c0.749,0.61,1.951,0.519,2.859,0.339
	c2.383-0.949,4.652-2.601,7.49-2.035c0.839-1.425,2.248-2.804,3.404-3.935C15.684,20.072,16.655,19.686,17.156,18.985z
	 M24.375,22.038c-0.045,0.292,0.023,0.814,0.475,0.613c0.705-0.973,1.953-0.203,2.724-0.135v-0.274
	c-0.423-0.662-1.294-0.994-2.178-0.961c-0.204,0.007-0.411,0.037-0.611,0.083C24.49,21.43,24.283,21.699,24.375,22.038z
	 M35.474,19.125c-0.634-1.403-2.087-1.971-3.405-2.31c-0.646-0.079-1.317-0.132-1.982-0.139c-0.125-0.001-0.249-0.002-0.373,0
	c-1.861,0.038-3.639,0.514-4.724,2.039c-0.156,0.431-0.842,1.036-0.205,1.422c1.429-0.091,3.061-0.27,4.015,0.953
	c0,1.086,0.704,2.532-0.476,3.052c-0.977-0.901-2.135,0.384-3.199-0.34c-0.5-0.294-0.817,0.05-1.021,0.48
	c-0.296,2.803,1.178,5.897,3.81,7.456c1.067,0.384,2.501,0.748,3.614,0.205c2.679-1.243,3.788-4.09,4.287-6.714
	c-0.067-0.499-0.043-1.472-0.746-1.496c-0.794,0.5-1.953,0.205-2.794,0c-0.498,0.16-0.52,0.885-1.086,1.023l-0.346-0.274
	c-0.295-1.243-0.477-3.007,0.681-3.866c1.295-0.52,2.816-0.747,4.155-0.339C35.929,19.847,35.544,19.509,35.474,19.125z
	 M34.107,21.354c-0.09,0.003-0.177,0.007-0.266,0.01c-0.475,0.316-1.861,0.089-1.361,1.152c0.863-0.68,2.066-0.203,2.928,0.135
	c0.319-0.158,0.25-0.475,0.271-0.748C35.402,21.39,34.74,21.342,34.107,21.354z M43.99,11.793c-1.681-0.089-3.088,0.862-4.631,1.291
	c-0.135-1.309,0.863-2.691,1.091-4.005c-2.496,0.161-4.473,1.657-6.538,2.853c-0.478-1.15-0.957-2.306-1.432-3.461l2.724-2.579
	l0.07-0.339l-3.679-0.205c-0.634-1.106-0.884-2.438-1.633-3.456c-0.612,1.153-1.024,2.374-1.637,3.526l-3.674,0.205v0.269
	l2.789,2.509c-0.342,1.29-0.658,2.691-1.497,3.666c-1.635-0.975-3.245-2.036-5.037-2.714c-0.431-0.139-1.046-0.364-1.431-0.069
	c0.566,1.244,1.36,2.582,1.226,3.94c-0.749-0.138-1.338-0.616-2.042-0.817c-0.842-0.229-1.841-0.677-2.659-0.405
	c1.363,1.898,2.474,3.886,2.859,6.17c4.519-2.173,9.788-3.368,15.259-2.439c2.564,0.406,4.922,1.447,7.215,2.304
	C41.422,15.642,42.943,13.717,43.99,11.793z M51.749,24.82c2.314,0.61,4.634,3.121,7.084,1.492
	c-2.133-3.527-5.309-6.784-4.426-11.397c0.093-0.314-0.112-0.634-0.405-0.678c-1.384,0.564-2.456,1.922-3.004,3.257
	c-0.225,0.79-0.358,1.629-0.676,2.374c-1.658-0.86-3.427-1.693-5.447-1.491c-0.729,0.09-1.772,0.138-1.907,0.883
	c2.292,1.22,4.177,3.257,5.582,5.426C49.529,24.528,50.728,24.663,51.749,24.82z M27.509,28.008l0.065,0.409
	c0.887,0.588,1.16,1.586,2.388,1.496c1.089,0.064,1.905-0.952,2.448-1.766C30.936,27.944,29.143,28.258,27.509,28.008z
	 M28.735,26.178c0.044,0.181-0.113,0.452,0.135,0.543c0.726-0.157,2.042,0.385,2.448-0.474c-0.283-0.316-0.746-0.459-1.231-0.459
	C29.602,25.788,29.099,25.928,28.735,26.178z"/>
</svg>
