<?xml version="1.0" encoding="utf-8"?>
<!-- Generator: Adobe Illustrator 22.0.1, SVG Export Plug-In . SVG Version: 6.00 Build 0)  -->
<svg version="1.1" id="Layer_1" xmlns="http://www.w3.org/2000/svg" xmlns:xlink="http://www.w3.org/1999/xlink" x="0px" y="0px"
	 viewBox="0 0 88 66" style="enable-background:new 0 0 88 66;" xml:space="preserve">
<path style="fill:#8DABD8;" d="M0,0h88v66H35.357c-1.725-0.944-3.702-1.441-5.139-2.847c0.095-0.431,0.24-0.862,0.233-1.309
	c-0.528-0.963-1.362-1.776-1.606-2.882c0.852,0.068,1.705,0.053,2.556-0.02c0.167-2.378,0-4.761,0.044-7.141
	c2.653-0.006,5.309-0.004,7.964-0.002c0.06,2.354-0.119,4.721,0.081,7.066c0.984,0.227,2.059,0.27,3.03-0.029
	c0.077-0.394,0.077-0.796,0.084-1.194c-0.02-4.327-0.011-8.655-0.006-12.982c-0.013-0.849,0.066-1.705-0.075-2.545
	c-0.244-0.24-0.614-0.2-0.924-0.231c-0.704-0.004-1.434-0.062-2.114,0.156c-0.185,2.246-0.022,4.51-0.075,6.765
	c-2.642,0.009-5.284,0.002-7.926,0.004c-0.126-2.248,0.128-4.512-0.108-6.747c-0.963-0.297-2.092-0.273-3.06,0.006
	c-0.086,0.493-0.075,0.996-0.077,1.498c0.029,3.74-0.011,7.482,0.022,11.224c-1.549-0.251-3.038-0.814-4.31-1.745
	c-0.027-7.124-0.044-14.247-0.13-21.371c0.07-1.283-0.57-2.462-0.528-3.74c-0.103-5.214-0.031-10.428-0.15-15.642
	c-0.279-0.167-0.559-0.336-0.838-0.504c-0.053-1.38,0.105-2.785-0.246-4.134c-0.187-0.715-0.154-1.498-0.506-2.163
	c-0.293-0.251-0.697-0.277-1.06-0.339c-2.057-0.24-4.131-0.31-6.204-0.301c-1.844,0.004-3.687,0.072-5.522,0.275
	c-0.444,0.062-0.92,0.103-1.305,0.361C7.067,6.177,7.153,7.016,7.048,7.779c-0.091,0.079-0.273,0.234-0.364,0.31
	c-0.06,1.318,0.242,2.724-0.365,3.958c-0.317,0.706-0.26,1.496-0.264,2.25c0.07,3.815,0.004,7.629,0.042,11.445
	c0.004,0.942,0.141,1.929-0.22,2.829c-0.262,0.732-0.779,1.404-0.713,2.222c-0.043,7.564-0.032,15.129-0.111,22.694
	c-0.268,0.048-0.534,0.099-0.803,0.15C2.799,53.396,1.34,53.79,0,54.331C0,54.331,0,0,0,0z M26.49,7.592
	c-0.24,0.893-0.343,1.986,0.057,2.838c1.322,0.134,2.66,0.018,3.989,0.053c-0.006,4.275,0.009,8.551-0.011,12.826
	c0.013,0.411-0.015,0.845,0.163,1.227c0.99,0.095,2.059,0.229,3.016-0.088c0.095-0.739,0.051-1.485,0.055-2.226
	c-0.006-3.914,0.002-7.825-0.004-11.739c1.368-0.057,2.761,0.136,4.116-0.108c0.174-0.803,0.138-1.644,0.064-2.457
	c-0.077-0.574-0.796-0.328-1.194-0.398C33.326,7.581,29.9,7.436,26.49,7.592z M42.172,7.636c-0.132,0.671-0.077,1.359-0.086,2.04
	c0.009,4.624,0.004,9.249,0,13.873c0.006,0.321,0.018,0.647,0.09,0.961c0.453,0.121,0.928,0.103,1.395,0.11
	c2.862-0.02,5.724,0,8.586-0.006c0.26-0.042,0.64,0.066,0.759-0.253c0.11-0.864,0.141-1.771-0.057-2.625
	c-2.519-0.167-5.058-0.02-7.584-0.07c0.002-1.408,0-2.816,0.002-4.226c1.848-0.002,3.698,0.006,5.548,0.004
	c0.315-0.024,0.708,0.044,0.911-0.268c0.097-0.805,0.099-1.628,0.002-2.433c-0.057-0.06-0.169-0.176-0.227-0.235
	c-2.075-0.101-4.158-0.004-6.235-0.039c-0.002-1.326,0-2.655,0-3.984c2.526-0.057,5.067,0.114,7.584-0.081
	c0.207-0.803,0.136-1.654,0.088-2.475c0.006-0.429-0.513-0.39-0.805-0.4c-2.865-0.006-5.729,0.013-8.593-0.006
	C43.089,7.526,42.619,7.511,42.172,7.636z M58.221,7.599c-0.268,0.658-0.152,1.39-0.174,2.085c0.009,4.178,0.006,8.358,0.002,12.538
	c0.011,0.768-0.075,1.56,0.141,2.31c2.149,0.194,4.323,0.024,6.486,0.079c1.058-0.031,2.132,0.099,3.181-0.09
	c0.165-0.911,0.192-1.877-0.022-2.781c-2.176-0.176-4.371-0.022-6.554-0.075c0-4.362-0.004-8.727,0.004-13.09
	c-0.018-0.328,0.011-0.687-0.176-0.975C60.155,7.473,59.173,7.469,58.221,7.599z M72.022,8.338
	c-0.002,4.996,0.009,9.99-0.006,14.986c0.004,0.394,0.002,0.792,0.079,1.182c0.671,0.167,1.371,0.101,2.055,0.112
	c2.783-0.035,5.571,0.042,8.351-0.033c0.423,0.018,0.383-0.519,0.407-0.803c-0.015-0.675,0.112-1.399-0.159-2.037
	c-2.504-0.189-5.034-0.022-7.546-0.079c0-1.406,0.002-2.814-0.002-4.222c1.85-0.011,3.7,0.004,5.548,0
	c0.319-0.027,0.724,0.053,0.913-0.282c0.103-0.805,0.103-1.63,0-2.436c-0.057-0.055-0.171-0.163-0.229-0.218
	c-2.073-0.105-4.154-0.002-6.231-0.046v-3.978c2.213-0.002,4.428-0.002,6.642,0.004c0.328-0.037,0.741,0.062,0.992-0.213
	c0.117-0.829,0.119-1.685,0.004-2.514c-0.213-0.334-0.675-0.187-1.003-0.24c-3.089,0.024-6.177-0.02-9.264,0.02
	C72.072,7.431,71.991,7.973,72.022,8.338z M27.458,30.081c-1.078,2.028-0.948,4.657,0.381,6.54c0.981,1.415,2.57,2.394,4.281,2.609
	c1.85,0.246,3.731-0.246,5.359-1.122c-0.055-1.665,0.159-3.36-0.103-5.007c-1.272-0.077-2.556-0.097-3.826,0.013
	c-0.121,0.642-0.126,1.316,0.015,1.953c0.539,0.07,1.083,0.048,1.626,0.06c-0.004,0.493-0.006,0.986-0.009,1.481
	c-1.014,0.319-2.116,0.579-3.162,0.235c-1.806-0.519-3.036-2.451-2.776-4.308c0.202-1.87,1.844-3.507,3.753-3.542
	c1.144-0.077,2.149,0.546,3.047,1.175c0.444-0.462,0.939-0.887,1.298-1.419c0.126-0.297-0.165-0.462-0.357-0.625
	c-1.192-0.915-2.7-1.434-4.206-1.384C30.576,26.8,28.468,28.122,27.458,30.081z M39.868,26.963
	c-0.213,0.268-0.103,0.658-0.147,0.977c0.037,3.725-0.037,7.449,0.042,11.172c0.735,0.02,1.472,0.022,2.209-0.009
	c0.112-1.571,0.053-3.148,0.066-4.721c0.633-0.002,1.269-0.002,1.905,0c0.79,1.58,1.573,3.159,2.372,4.734
	c0.783,0.013,1.571,0.051,2.352-0.031c0.112-0.425-0.178-0.796-0.348-1.164c-0.68-1.217-1.324-2.453-2.004-3.669
	c0.986-0.532,1.971-1.254,2.339-2.365c0.649-1.646-0.159-3.643-1.696-4.473c-1.091-0.656-2.405-0.484-3.617-0.501
	C42.183,26.943,41.021,26.844,39.868,26.963z M54.105,28.6c-1.298,2.809-2.592,5.621-3.9,8.424
	c-0.299,0.651-0.631,1.293-0.836,1.984c0.722,0.176,1.491,0.192,2.22,0.046c0.468-0.651,0.717-1.43,1.071-2.145
	c1.729,0.011,3.459,0.002,5.187,0.006c0.367,0.72,0.565,1.566,1.12,2.167c0.711,0.079,1.465,0.143,2.154-0.099
	c-0.246-0.801-0.642-1.542-0.986-2.301c-1.41-3.067-2.816-6.136-4.215-9.205c-0.2-0.369-0.363-0.992-0.909-0.693
	C54.624,27.344,54.396,27.99,54.105,28.6z M62.39,26.967c-0.18,1.043-0.053,2.108-0.084,3.159c0.037,2.976-0.075,5.96,0.051,8.932
	c0.722,0.13,1.458,0.062,2.187,0.057c0.09-1.465,0.035-2.935,0.048-4.402c1.326-0.037,2.759,0.211,3.978-0.451
	c1.329-0.691,2.187-2.184,2.085-3.683c-0.06-1.566-1.199-3.003-2.686-3.467c-0.924-0.299-1.91-0.178-2.862-0.2
	C64.201,26.932,63.29,26.853,62.39,26.967z M72.332,26.95c-0.035,3.632,0.006,7.266-0.022,10.899
	c0.006,0.411-0.015,0.834,0.117,1.232c0.702,0.088,1.419,0.086,2.121,0.002c0.218-1.677,0.037-3.381,0.088-5.069
	c1.881-0.002,3.762-0.002,5.643,0c0.011,1.698-0.064,3.401,0.068,5.095c0.706,0.018,1.417,0.064,2.118-0.027
	c0.176-0.392,0.11-0.836,0.132-1.25c-0.031-3.628,0.02-7.254-0.027-10.881c-0.737-0.037-1.476-0.044-2.213-0.029
	c-0.15,1.646-0.064,3.298-0.084,4.946H74.64c-0.004-1.641,0.015-3.28-0.013-4.921C73.86,26.91,73.095,26.91,72.332,26.95z
	 M47.705,42.198c-0.108,0.933-0.035,1.877-0.024,2.814c0.557,0.068,1.118,0.101,1.679,0.13c-0.006,3.537-0.002,7.073-0.002,10.611
	c-0.541,0.09-1.285-0.194-1.654,0.312c-0.086,0.891-0.088,1.795,0.006,2.686c0.066,0.053,0.194,0.156,0.258,0.209
	c1.751,0.13,3.516,0.015,5.274,0.057c0.367-0.039,1.1,0.064,1.038-0.499c0.031-0.891,0.147-1.819-0.119-2.684
	c-0.524-0.079-1.054-0.07-1.582-0.084c-0.035-3.535-0.004-7.071-0.015-10.606c0.537-0.114,1.314,0.176,1.687-0.303
	c0.103-0.909,0.114-1.844-0.02-2.75c-0.262-0.251-0.658-0.167-0.984-0.198c-1.545,0.009-3.089,0.004-4.633,0.002
	C48.295,41.923,47.862,41.826,47.705,42.198z M59.559,41.954c-0.225,0.345-0.171,0.777-0.194,1.168
	c0.015,4.475,0.009,8.952,0.004,13.427c0.011,0.783-0.055,1.58,0.105,2.354c0.473,0.121,0.966,0.112,1.45,0.117
	c2.352-0.013,4.706-0.011,7.058,0c0.4-0.009,0.823,0.006,1.194-0.174c0.152-0.92,0.075-1.859,0-2.781
	c-2.205-0.037-4.409-0.009-6.613-0.018c0.002-4.38-0.006-8.76,0.004-13.14c-0.024-0.33,0.044-0.726-0.255-0.955
	C61.4,41.846,60.47,41.855,59.559,41.954z M74.27,41.954c-0.284,0.235-0.207,0.625-0.233,0.948c0.009,4.989,0.011,9.979,0,14.967
	c-0.002,0.297,0.015,0.594,0.055,0.891c0.279,0.336,0.753,0.222,1.137,0.26c2.57-0.015,5.142-0.004,7.711-0.004
	c0.315-0.024,0.689,0.033,0.926-0.229c0.128-0.836,0.117-1.701,0.006-2.539c-0.249-0.237-0.614-0.183-0.926-0.204
	c-1.903,0.002-3.804,0.009-5.707,0.004c0.002-4.305-0.009-8.613,0.006-12.918c-0.022-0.392,0.029-0.821-0.192-1.166
	C76.133,41.848,75.192,41.848,74.27,41.954z"/>
<path style="fill:#8DABD8;" d="M42.048,29.022c1.166,0.051,2.376-0.159,3.513,0.163c1.368,0.528,1.3,2.66-0.06,3.15
	c-1.126,0.293-2.316,0.075-3.467,0.134C42.04,31.321,42.031,30.173,42.048,29.022z M64.593,29.084
	c1.087,0.088,2.389-0.303,3.285,0.499c0.928,0.812,0.501,2.484-0.64,2.858c-0.86,0.225-1.762,0.121-2.64,0.143
	C64.59,31.416,64.593,30.25,64.593,29.084z M53.522,34.934c0.567-1.269,1.126-2.543,1.707-3.806
	c0.585,1.265,1.168,2.532,1.738,3.804C55.819,34.936,54.67,34.936,53.522,34.934z"/>
<path style="fill:#456DB2;" d="M8.765,5.128c1.835-0.202,3.678-0.27,5.522-0.275c0.002,0.746-0.002,1.489-0.011,2.235
	c-0.101,0.222-0.2,0.444-0.301,0.666c-0.297-0.174-0.594-0.348-0.891-0.522c-0.046,2.801-0.39,5.59-0.284,8.393
	c-0.029,13.418,0.103,26.838,0.002,40.254c-0.042,0.051-0.123,0.15-0.165,0.2l-0.798,0.442c-0.053-8.655-0.015-17.31-0.015-25.962
	c-0.046-0.418-0.004-0.972-0.423-1.221c-0.68-0.266-0.662,0.807-0.715,1.243c-0.015,7.551,0.006,15.105-0.006,22.658
	c-0.024,1.399-0.015,2.803,0.143,4.195c0.057,0.92,0.13,1.872-0.11,2.772c-0.484,0.35-1.093,0.435-1.646,0.625
	C9.016,50.898,9.12,40.963,9.19,31.03c0.039-0.699-0.156-1.38-0.563-1.949c-0.244,1.813-0.114,3.643-0.139,5.466
	C8.536,43.389,8.41,52.231,8.536,61.07c-0.363,0.183-0.724,0.374-1.087,0.557c-0.048-1.1,0.006-2.202,0.126-3.296
	c-0.761-0.447-1.641-0.557-2.508-0.486c0.031-1.452,0.048-2.906-0.013-4.358c0.079-7.563,0.068-15.129,0.11-22.693
	c-0.066-0.819,0.451-1.489,0.713-2.222c0.361-0.9,0.225-1.887,0.22-2.829c-0.037-3.815,0.029-7.629-0.042-11.445
	c0.004-0.755-0.053-1.545,0.264-2.25c0.607-1.234,0.306-2.64,0.365-3.958c0.092-0.077,0.274-0.232,0.364-0.308
	C7.152,7.019,7.066,6.18,7.46,5.489C7.845,5.232,8.32,5.19,8.765,5.128z M8.926,8.452c-0.156,1.173-0.07,2.363,0.024,3.537
	c0.915-0.654,0.484-1.892,0.59-2.84c0.451,0.123,0.904,0.246,1.357,0.367c-0.138-0.691,0.033-1.738-0.798-2.033
	C9.491,7.198,8.982,7.914,8.926,8.452z M8.211,7.443C8.037,8.549,8.134,9.671,8.07,10.785c-0.024,0.838-0.984,1.318-0.913,2.184
	c0.013,4.633,0.048,9.267,0.06,13.899c0.198-0.009,0.592-0.031,0.79-0.042c0.039-1.093-0.114-2.213,0.138-3.287
	c0.147-0.633,1.168-0.711,1.401-0.101c0.317,1.029,0.165,2.132,0.183,3.192c0.262,0.002,0.524,0.002,0.788,0.004
	c0.015-1.984,0-3.969,0.022-5.953c-0.004-0.741-0.004-1.67-0.73-2.101c-0.669-0.499-1.509-0.136-2.22,0.057
	c0.039-2.099-0.024-4.197,0.042-6.294c0.31-0.22,0.64-0.42,0.911-0.691c0.123-0.654,0.09-1.322,0.099-1.982
	C8.625,8.912,8.716,8.079,8.211,7.443z M9.871,13.011c-0.064,0.781-0.101,1.578,0.062,2.352c0.264,0.015,0.414-0.093,0.451-0.328
	C10.516,14.342,10.668,13.369,9.871,13.011z M8.006,13.701c0,0.557,0,1.113,0.002,1.67c0.132,0,0.396-0.002,0.528-0.004
	c-0.033-0.66-0.068-1.318-0.108-1.978C8.322,13.466,8.112,13.623,8.006,13.701z M8.844,13.451c0.02,0.64-0.006,1.289,0.141,1.916
	c0.112-0.002,0.336-0.006,0.449-0.009c0.103-0.66,0.081-1.333,0.079-1.998C9.345,13.383,9.011,13.429,8.844,13.451z M7.146,27.429
	c0.009,0.183,0.027,0.552,0.035,0.735c1.14-0.548,2.611-0.227,3.573-1.113C9.539,27.009,8.334,27.198,7.146,27.429z M17.22,15.165
	c-0.011-1.274-0.057-2.552,0.114-3.819c0.282,3.324,0.068,6.666,0.114,9.999c-0.051,1.868,0.134,3.749-0.13,5.608
	c-0.169-1.498-0.086-3.007-0.097-4.512C17.215,20.016,17.22,17.589,17.22,15.165z M20.544,23.896l0.068,0.27
	c0.084,0.882,0.018,1.769,0.009,2.655l-0.235-0.006C20.388,25.839,20.416,24.862,20.544,23.896z M14.361,29.286
	c0.306,0.022,0.612,0.046,0.918,0.07c0.086,7.157,0.013,14.313,0.037,21.468c0.015,0.783,0.079,1.564,0.099,2.347
	c-0.018,0.192-0.035,0.381-0.053,0.572c-0.343,0.145-0.689,0.286-1.027,0.447C14.39,45.888,14.32,37.587,14.361,29.286z
	 M16.605,29.302c0.363,0.009,0.728,0.02,1.091,0.029c0.066,5.403,0.002,10.809,0.018,16.212c0.02,2.099-0.077,4.202,0.117,6.297
	c-0.196,0.093-0.394,0.185-0.592,0.275c0.062-6.736-0.009-13.473,0.039-20.207C17.316,30.987,17.009,30.114,16.605,29.302z"/>
<g>
	<path style="fill:#1F479A;" d="M14.287,4.853c2.073-0.009,4.147,0.062,6.204,0.301c0.363,0.062,0.768,0.088,1.06,0.339
		c0.352,0.664,0.319,1.448,0.506,2.163c0.352,1.349,0.194,2.754,0.246,4.134c0.279,0.167,0.559,0.336,0.838,0.504
		c0.119,5.214,0.046,10.428,0.15,15.642c-0.042,1.278,0.598,2.457,0.528,3.74c0.086,7.124,0.103,14.247,0.13,21.371
		c-1.434-0.909-3.221-1.34-4.906-1.06c-0.402-0.051-0.807-0.105-1.212-0.147c-0.194-2.094-0.097-4.197-0.117-6.297
		c-0.015-5.403,0.048-10.809-0.018-16.212c-0.363-0.009-0.728-0.02-1.091-0.029c0.402,0.812,0.711,1.685,0.673,2.605
		c-0.048,6.734,0.022,13.47-0.039,20.207c-0.651,0.268-1.342,0.513-1.824,1.058c-0.02-0.783-0.084-1.564-0.099-2.347
		c-0.024-7.155,0.048-14.311-0.037-21.468c-0.306-0.024-0.612-0.048-0.918-0.07c-0.042,8.301,0.029,16.601-0.027,24.904
		c-0.598,0.477-1.052,1.102-1.533,1.689c0.101-13.416-0.031-26.835-0.002-40.254c-0.105-2.803,0.237-5.592,0.284-8.393
		c0.297,0.174,0.594,0.348,0.891,0.522c-0.138,0.317-0.275,0.638-0.411,0.957c0.561,0.145,1.155,0.218,1.679,0.484
		c0.447,0.761,0.24,1.718,0.317,2.563c0.207,0.006,0.623,0.018,0.829,0.024c0.002-1.274,0.176-2.576-0.128-3.828
		c-0.229-0.869-1.291-0.746-1.984-0.867C14.285,6.342,14.289,5.599,14.287,4.853z M13.458,13.246
		c-0.143,0.695-0.068,1.408-0.044,2.11c0.183,0.006,0.546,0.02,0.728,0.027c0.022-0.671,0.171-1.368-0.02-2.024
		C13.977,13.015,13.755,12.978,13.458,13.246z M14.94,15.651c0.781-0.687,0.464-1.791,0.44-2.691
		C14.338,13.446,14.887,14.773,14.94,15.651z M16.153,13.237c-0.171,0.796-0.029,1.615,0.134,2.4
		c0.486-0.77,0.489-1.714,0.242-2.565C16.434,13.114,16.248,13.196,16.153,13.237z M19.781,15.825
		c0.361-0.823,0.357-1.731,0.213-2.603C19.078,13.805,19.393,15.013,19.781,15.825z M20.491,13.435
		c-0.024,0.792-0.024,1.586,0.044,2.376c0.689-0.546,0.435-1.479,0.466-2.235C20.874,13.541,20.619,13.47,20.491,13.435z
		 M21.489,13.394c-0.046,0.744-0.072,1.489-0.093,2.235c0.126-0.015,0.381-0.046,0.508-0.062c0-0.616,0.002-1.23,0.002-1.844
		C21.802,13.64,21.596,13.475,21.489,13.394z M13.618,18.702c-0.363,0.506-0.312,1.161-0.341,1.753
		c0.022,2.019,0.009,4.041,0.02,6.061c1.126,0.006,2.25,0.006,3.375,0c0.024-2.022,0.004-4.041,0.027-6.063
		c-0.031-0.656,0.029-1.423-0.471-1.929C15.541,17.787,14.192,17.871,13.618,18.702z M19.996,18.46
		c-0.579,0.495-0.55,1.324-0.574,2.017c0.013,2.081,0.002,4.162,0.018,6.243c0.317,0.031,0.631,0.062,0.946,0.095l0.235,0.006
		c0.009-0.887,0.075-1.773-0.009-2.655c0.295,0.864,0.291,1.784,0.246,2.688c0.363,0.048,0.724,0.099,1.087,0.15
		c0.015-2.11-0.002-4.22,0.02-6.33c-0.027-0.673,0.02-1.417-0.383-1.995C21.241,18.17,20.458,18.033,19.996,18.46z M13.198,27.047
		c0.064,0.095,0.194,0.284,0.258,0.378c1.155-0.024,2.394,0.251,3.467-0.306C15.691,26.915,14.439,26.981,13.198,27.047z
		 M19.334,27.26c0.072,0.101,0.218,0.299,0.291,0.398c0.893,0.169,1.809,0.246,2.712,0.101
		C21.388,27.346,20.352,27.271,19.334,27.26z M8.926,8.452c0.057-0.538,0.565-1.254,1.173-0.967c0.831,0.295,0.66,1.342,0.798,2.033
		C10.444,9.396,9.99,9.273,9.539,9.15c-0.105,0.948,0.326,2.187-0.59,2.84C8.856,10.815,8.769,9.625,8.926,8.452z"/>
	<path style="fill:#1F479A;" d="M8.211,7.443c0.506,0.636,0.414,1.47,0.429,2.229C8.631,10.331,8.664,11,8.541,11.653
		c-0.27,0.27-0.6,0.471-0.911,0.691c-0.066,2.097-0.002,4.195-0.042,6.294c0.711-0.194,1.551-0.557,2.22-0.057
		c0.726,0.431,0.726,1.359,0.73,2.101c-0.022,1.984-0.006,3.969-0.022,5.953c-0.264-0.002-0.526-0.002-0.788-0.004
		c-0.018-1.06,0.134-2.163-0.183-3.192c-0.233-0.609-1.254-0.532-1.401,0.101c-0.253,1.074-0.099,2.193-0.138,3.287
		c-0.198,0.011-0.592,0.033-0.79,0.042c-0.011-4.633-0.046-9.267-0.06-13.899c-0.07-0.867,0.889-1.347,0.913-2.184
		C8.134,9.671,8.037,8.549,8.211,7.443z M9.871,13.011c0.796,0.359,0.645,1.331,0.513,2.024c-0.037,0.235-0.187,0.343-0.451,0.328
		C9.77,14.588,9.807,13.792,9.871,13.011z"/>
	<path style="fill:#1F479A;" d="M8.006,13.701c0.105-0.079,0.317-0.235,0.423-0.312c0.039,0.66,0.075,1.318,0.108,1.978
		c-0.132,0.002-0.396,0.004-0.528,0.004C8.006,14.815,8.006,14.258,8.006,13.701z M8.844,13.451c0.167-0.022,0.501-0.068,0.669-0.09
		c0.002,0.664,0.024,1.338-0.079,1.998c-0.112,0.002-0.336,0.006-0.449,0.009C8.838,14.74,8.864,14.091,8.844,13.451z M7.146,27.429
		c1.188-0.231,2.394-0.42,3.608-0.378c-0.961,0.887-2.433,0.565-3.573,1.113C7.173,27.982,7.155,27.612,7.146,27.429z
		 M10.686,30.582c0.053-0.435,0.035-1.509,0.715-1.243c0.418,0.249,0.376,0.803,0.423,1.221c0,8.652-0.037,17.307,0.015,25.962
		c-0.363,0.277-0.689,0.598-1.017,0.913c-0.159-1.392-0.167-2.796-0.143-4.195C10.692,45.687,10.671,38.133,10.686,30.582z
		 M8.627,29.082c0.407,0.57,0.603,1.25,0.563,1.949c-0.07,9.933-0.174,19.868-0.123,29.801c-0.132,0.06-0.398,0.178-0.53,0.237
		c-0.126-8.84,0-17.682-0.048-26.523C8.512,32.725,8.382,30.894,8.627,29.082z"/>
</g>
<g>
	<path style="fill:#242C66;" d="M14.276,7.089c0.693,0.121,1.755-0.002,1.984,0.867c0.303,1.252,0.13,2.554,0.128,3.828
		c-0.207-0.006-0.623-0.018-0.829-0.024c-0.077-0.845,0.13-1.802-0.317-2.563c-0.524-0.266-1.118-0.339-1.679-0.484
		c0.136-0.319,0.273-0.64,0.411-0.957C14.076,7.533,14.175,7.311,14.276,7.089z M18.931,8.246c0.026-0.409,0.506-0.658,0.858-0.88
		c0.458,0.07,0.928,0.354,1.014,0.845c0.204,1.182,0.062,2.389,0.066,3.582c-0.407-0.009-1.694-0.018-2.099-0.027
		C18.781,10.69,18.847,9.579,18.931,8.246z M13.458,13.246c0.297-0.268,0.519-0.231,0.664,0.112c0.192,0.656,0.042,1.353,0.02,2.024
		c-0.183-0.006-0.546-0.02-0.728-0.027C13.389,14.654,13.315,13.941,13.458,13.246z M14.94,15.651
		c-0.053-0.878-0.603-2.205,0.44-2.691C15.405,13.86,15.722,14.964,14.94,15.651z M16.153,13.237
		c0.095-0.042,0.282-0.123,0.376-0.165c0.246,0.852,0.244,1.795-0.242,2.565C16.124,14.852,15.981,14.034,16.153,13.237z
		 M19.781,15.825c-0.387-0.812-0.702-2.019,0.213-2.603C20.136,14.093,20.142,15.002,19.781,15.825z M20.491,13.435
		c0.128,0.035,0.383,0.105,0.51,0.141c-0.031,0.757,0.222,1.689-0.466,2.235C20.466,15.021,20.466,14.227,20.491,13.435z
		 M21.489,13.394c0.105,0.081,0.312,0.246,0.418,0.33c0,0.614-0.002,1.227-0.002,1.844c-0.128,0.015-0.383,0.046-0.508,0.062
		C21.417,14.883,21.444,14.137,21.489,13.394z M13.618,18.702c0.574-0.831,1.923-0.915,2.609-0.178
		c0.499,0.506,0.44,1.274,0.471,1.929c-0.022,2.022-0.002,4.041-0.027,6.063c-1.124,0.006-2.248,0.006-3.375,0
		c-0.011-2.019,0.002-4.041-0.02-6.061C13.305,19.864,13.255,19.208,13.618,18.702z M19.996,18.46
		c0.462-0.427,1.245-0.291,1.586,0.22c0.402,0.579,0.357,1.322,0.383,1.995c-0.022,2.11-0.004,4.22-0.02,6.33
		c-0.363-0.051-2.189-0.253-2.506-0.284c-0.015-2.081-0.004-4.162-0.018-6.243C19.446,19.785,19.418,18.955,19.996,18.46z
		 M13.198,27.047c1.241-0.066,2.493-0.132,3.725,0.072c-1.074,0.557-2.312,0.282-3.467,0.306
		C13.392,27.33,13.262,27.141,13.198,27.047z M19.334,27.26c1.019,0.011,2.055,0.086,3.003,0.499
		c-0.904,0.145-1.819,0.068-2.712-0.101C19.552,27.559,19.406,27.361,19.334,27.26z"/>
</g>
<g>
	<path style="fill:#242C66;" d="M17.24,52.113c0.198-0.09,0.396-0.183,0.592-0.275c0.405,0.042,0.81,0.097,1.212,0.147
		c1.685-0.279,3.471,0.152,4.906,1.06c1.272,0.93,2.761,1.494,4.31,1.745c0.022,1.371-0.02,2.741,0.037,4.11
		c0.18,0.022,0.365,0.042,0.548,0.062c0.244,1.107,1.078,1.918,1.606,2.882c0.006,0.447-0.138,0.878-0.233,1.309
		c1.437,1.406,3.414,1.903,5.139,2.847H0V54.331c1.34-0.541,2.799-0.935,4.251-0.695c0.268-0.051,0.534-0.101,0.803-0.15
		c0.062,1.452,0.044,2.906,0.013,4.358c0.867-0.07,1.747,0.039,2.508,0.486c-0.119,1.093-0.174,2.196-0.126,3.296
		c0.363-0.183,0.724-0.374,1.087-0.557c0.132-0.06,0.398-0.178,0.53-0.237c0.552-0.189,1.161-0.275,1.646-0.625
		c0.24-0.9,0.167-1.852,0.11-2.772c0.328-0.315,0.654-0.636,1.017-0.913l0.798-0.442c0.042-0.051,0.123-0.15,0.165-0.2
		c0.482-0.588,0.935-1.212,1.533-1.689c0.339-0.161,0.684-0.301,1.027-0.447c0.018-0.192,0.035-0.381,0.053-0.572
		C15.897,52.626,16.588,52.382,17.24,52.113z"/>
</g>
</svg>
