<?xml version="1.0" encoding="utf-8"?>
<!-- Generator: Adobe Illustrator 22.0.1, SVG Export Plug-In . SVG Version: 6.00 Build 0)  -->
<svg version="1.1" id="Layer_1" xmlns="http://www.w3.org/2000/svg" xmlns:xlink="http://www.w3.org/1999/xlink" x="0px" y="0px"
	 viewBox="0 0 116 40" style="enable-background:new 0 0 116 40;" xml:space="preserve">
<path style="fill:#0A2369;" d="M115.415,21.35c0.414,0.506,0.58,1.097,0.58,1.856c0,0.929-0.332,1.688-1.077,2.195
	c-0.663,0.506-1.741,0.759-3.066,0.759h-5.054V14.937h4.722c1.243,0,2.155,0.253,2.818,0.759c0.662,0.506,0.994,1.182,0.994,2.11
	c0,0.591-0.166,1.097-0.414,1.603c-0.249,0.506-0.746,0.759-1.243,0.928C114.42,20.506,115,20.844,115.415,21.35z M114.255,17.975
	c0-0.676-0.249-1.182-0.746-1.519c-0.497-0.338-1.16-0.507-2.071-0.507h-3.48V20h3.48c0.911,0,1.574-0.169,2.071-0.507
	C114.006,19.156,114.255,18.649,114.255,17.975z M111.852,20.928h-3.894v4.219h3.894c0.994,0,1.74-0.168,2.237-0.506
	c0.497-0.337,0.746-0.844,0.746-1.603C114.835,21.688,113.84,20.928,111.852,20.928z M101.578,23.122h-6.131l-1.326,2.954h-1.242
	l4.971-11.139h1.16l4.971,11.139h-1.243C102.738,26.076,101.578,23.122,101.578,23.122z M98.43,16.202l-2.652,5.992h5.303
	L98.43,16.202z M84.511,14.937h1.159v10.126h6.131v1.013h-7.29C84.511,26.076,84.511,14.937,84.511,14.937z M78.794,26.076h-2.072
	l0.083-9.367H73.16v-1.772h9.279v1.772h-3.645L78.794,26.076L78.794,26.076z M72.331,1.435l9.611,9.789l-15.825-8.27
	C66.117,2.954,72.331,1.435,72.331,1.435z M56.589,4.895L34.55,11.224L56.589,0l21.956,11.224
	C78.545,11.224,56.589,4.895,56.589,4.895z M40.764,1.435l6.214,1.519l-15.825,8.27C31.153,11.224,40.764,1.435,40.764,1.435z
	 M35.627,15.443c0.663,0.338,1.243,0.759,1.657,1.35c0.415,0.591,0.58,1.266,0.58,2.11s-0.165,1.519-0.58,2.11
	c-0.414,0.59-0.911,1.097-1.657,1.35c-0.662,0.337-1.491,0.506-2.485,0.506h-2.486v3.207h-2.071V14.937h4.557
	C34.136,14.937,34.965,15.105,35.627,15.443z M30.739,21.181h2.403c0.828,0,1.491-0.253,1.988-0.59
	c0.497-0.423,0.663-0.929,0.663-1.604s-0.249-1.266-0.663-1.603c-0.497-0.422-1.16-0.591-1.988-0.591h-2.403V21.181z M23.862,14.937
	h1.16v11.139h-1.16V14.937z M19.057,25.992v0.168l-2.486-3.544c-0.248,0-0.58,0.084-0.911,0.084h-2.9v3.544H11.6V14.937h4.143
	c1.408,0,2.485,0.337,3.314,1.012c0.828,0.675,1.16,1.604,1.16,2.785c0,0.844-0.249,1.603-0.663,2.194s-1.077,1.013-1.823,1.266
	l2.651,3.798C20.382,25.992,19.057,25.992,19.057,25.992z M18.145,20.844c0.58-0.507,0.829-1.182,0.829-2.025
	c0-0.929-0.249-1.604-0.829-2.11c-0.579-0.507-1.408-0.76-2.485-0.76h-2.9v5.57h2.9C16.737,21.603,17.566,21.35,18.145,20.844z
	 M4.972,26.076h-1.16V16.034H0.001v-1.097h8.865v1.012H4.972V26.076z M46.067,26.329c-1.077-0.085-2.154-0.253-2.983-0.76
	c-0.911-0.506-1.574-1.181-2.071-2.025c-0.497-0.844-0.746-1.856-0.746-2.953c0-1.098,0.249-2.026,0.746-2.954
	c0.497-0.928,1.242-1.519,2.071-2.025c0.911-0.507,1.906-0.76,2.983-0.76c1.077,0,2.154,0.253,2.983,0.76
	c0.911,0.506,1.574,1.181,2.071,2.025c0.497,0.844,0.746,1.856,0.746,2.954c0,1.097-0.249,2.109-0.746,2.953
	c-0.497,0.844-1.243,1.519-2.071,2.025C48.138,26.076,47.144,26.329,46.067,26.329z M49.961,20.506c0-0.759-0.166-1.435-0.497-2.025
	c-0.332-0.591-0.829-1.097-1.409-1.435c-0.58-0.337-1.242-0.506-1.988-0.506s-1.409,0.169-1.989,0.506
	c-0.58,0.338-1.077,0.844-1.408,1.435c-0.332,0.59-0.497,1.266-0.497,2.025c0,0.76,0.165,1.435,0.497,2.026
	c0.331,0.59,0.828,1.097,1.408,1.434c0.58,0.338,1.243,0.506,1.989,0.506s1.408-0.168,1.988-0.506
	c0.58-0.337,1.077-0.76,1.409-1.434C49.795,21.941,49.961,21.266,49.961,20.506z M55.098,14.937h2.071v11.139h-2.071V14.937z
	 M70.674,14.937v11.139h-1.657l-6.048-7.511v7.511H60.98V14.937h1.657l6.049,7.51v-7.51H70.674z M78.545,28.776L56.589,40
	L34.55,28.776l22.039,6.329C56.589,35.105,78.545,28.776,78.545,28.776z"/>
</svg>
