<?xml version="1.0" encoding="utf-8"?>
<!-- Generator: Adobe Illustrator 22.0.1, SVG Export Plug-In . SVG Version: 6.00 Build 0)  -->
<svg version="1.1" id="Layer_1" xmlns="http://www.w3.org/2000/svg" xmlns:xlink="http://www.w3.org/1999/xlink" x="0px" y="0px"
	 viewBox="0 0 74.062 44.44" style="enable-background:new 0 0 74.062 44.44;" xml:space="preserve">
<path style="fill:#0A2369;" d="M55.359,41.991c0-0.429-0.124-1.103,0.74-1.103h1.481c0.864,0,0.741,0.674,0.741,1.103
	c0,0.491,0,1.226-0.617,1.226h-1.728C55.359,43.217,55.359,42.482,55.359,41.991 M53.816,41.991c0,0.981-0.062,2.453,1.234,2.453
	h3.456c1.296,0,1.234-1.472,1.234-2.453c0-0.858,0.123-2.268-1.543-2.268h-2.9C53.754,39.723,53.816,41.072,53.816,41.991z
	 M46.103,40.091v3.985c0,0.122,0,0.306,0.247,0.306h0.802c0.308,0,0.247-0.184,0.247-0.306v-2.882
	c0.555,1.042,1.357,2.636,1.666,3.25h1.234c0.308-0.552,1.11-2.208,1.666-3.25v2.882c0,0.122,0,0.306,0.247,0.306h0.802
	c0.308,0,0.247-0.184,0.247-0.306v-3.985c0-0.123,0-0.368-0.247-0.368h-1.358c-0.247,0-0.493-0.062-0.863,0.613
	c-0.247,0.552-0.803,1.716-1.173,2.33c-0.37-0.614-0.864-1.778-1.111-2.33c-0.308-0.675-0.617-0.613-0.802-0.613H46.35
	C46.103,39.723,46.103,39.907,46.103,40.091z M41.537,41.133c0-0.123,0-0.184,0.308-0.184h1.728c0.617,0,0.617,0.061,0.617,0.552
	c0,0.245,0,0.49-0.864,0.49h-1.789V41.133z M40.056,40.152v4.108c0,0.184,0.185,0.184,0.123,0.184h1.172
	c0.062,0,0.247,0,0.247-0.184v-1.962c0,0,0.309,0.674,0.494,0.981h1.728c0.123,0,0.432,0,0.432,0.551
	c0,0.184-0.062,0.614,0.185,0.614h1.172c0.062,0,0.185,0,0.185-0.246c0-0.49,0.124-1.471-0.617-1.594
	c0.432-0.306,0.617-0.368,0.617-1.348c0-1.533-0.74-1.472-1.296-1.472h-3.949C40.241,39.723,40.056,39.845,40.056,40.152z
	 M35.674,42.42c0.062-0.122,0.679-1.287,0.741-1.41h0.062c0.061,0.123,0.617,1.288,0.678,1.41l-0.061,0.062h-1.358L35.674,42.42z
	 M35.489,39.784c0,0-2.098,3.985-2.406,4.537v0.123h1.481c0.185-0.368,0.802-1.594,0.925-1.778c0.062,0.184,0.371,0.919,0.371,0.919
	h1.789l0.432,0.797h1.481v-0.184c-0.309-0.552-1.728-3.31-1.913-3.74c-0.308-0.613-0.555-0.735-0.864-0.735h-1.296V39.784z
	 M25.925,41.133c0-0.123,0-0.184,0.309-0.184h1.727c0.617,0,0.617,0.061,0.617,0.552c0,0.245,0,0.49-0.864,0.49h-1.789V41.133z
	 M24.444,40.152v4.108c0,0.184,0.185,0.184,0.123,0.184h1.173c0.062,0,0.247,0,0.247-0.184v-1.962c0,0,0.308,0.674,0.493,0.981
	h1.728c0.123,0,0.432,0,0.432,0.551c0,0.184-0.062,0.614,0.185,0.614h1.172c0.062,0,0.186,0,0.186-0.246
	c0-0.49,0.123-1.471-0.617-1.594c0.431-0.306,0.617-0.368,0.617-1.348c0-1.533-0.741-1.472-1.296-1.472h-3.949
	C24.629,39.723,24.444,39.845,24.444,40.152z M19.014,40.704v2.575c0,1.042,0.617,1.103,0.925,1.103h3.764
	c0.309,0,0.247-0.184,0.247-0.613c0-0.368,0-0.552-0.247-0.552h-2.961c-0.062,0-0.309,0.062-0.309-0.245v-1.226l0.432,0.858h2.592
	c0.246,0,0.246-0.122,0.185-0.245c-0.062-0.123-0.432-0.858-0.432-0.858h-2.53c-0.309,0-0.247-0.123-0.247-0.368
	c0-0.307,0.247-0.245,0.309-0.245h2.838c0.309,0,0.247-0.184,0.247-0.552s0.062-0.613-0.247-0.613h-3.579
	C19.137,39.784,19.014,40.458,19.014,40.704z M16.299,40.949c0.493,0,0.74,0.061,0.74,1.165c0,0.306,0.062,1.042-0.679,1.042h-2.344
	v-2.207H16.299z M16.607,39.723H12.72v4.659h1.357v-0.981l0.432,0.981h2.098c1.975,0,1.79-1.103,1.79-2.943
	C18.458,39.723,16.854,39.723,16.607,39.723z M5.562,42.543v-2.452c0-0.123,0-0.368-0.309-0.368H4.389
	c-0.308,0-0.246,0.184-0.246,0.368v2.452c0,0.184-0.062,0.674-0.617,0.674H2.045c-0.617,0-0.617-0.49-0.617-0.674v-2.452
	c0-0.123,0-0.368-0.247-0.368H0.317c-0.309,0-0.309,0.184-0.309,0.368v2.452c0,0.49,0,1.901,1.728,1.901h2.16
	C5.562,44.382,5.562,43.033,5.562,42.543z M9.449,41.317c-0.432-0.613-1.049-1.594-1.481-1.594H6.364
	c-0.247,0-0.247,0.184-0.247,0.368v3.985c0,0.122-0.061,0.306,0.247,0.306h0.802c0.309,0,0.247-0.184,0.247-0.306v-3.004
	c0.864,1.103,1.728,2.207,2.283,3.004c0.309,0.306,0.494,0.306,0.802,0.306h1.605v-4.353c0-0.122,0-0.368-0.247-0.368h-0.864
	c-0.308,0-0.247,0.184-0.247,0.368v2.943C10.375,42.482,9.758,41.746,9.449,41.317z M44.498,16.609
	c-2.097,1.349-4.874,2.269-8.392,2.269H35.86c-3.456,0-6.294-0.92-8.331-2.269c2.098-1.348,4.875-2.268,8.392-2.268h0.247
	C39.624,14.341,42.462,15.261,44.498,16.609z M52.891,16.609c5.862-2.697,9.687-6.805,9.872-11.341c0,0-1.542-1.227-6.54-3.189
	c-4.382-1.716-7.714-2.084-7.714-2.084V10.05c0,1.532-0.555,3.065-1.666,4.414c-3.332-0.859-6.972-1.349-10.798-1.349
	s-7.467,0.49-10.799,1.349c-1.111-1.349-1.666-2.882-1.666-4.414V-0.005c0,0-3.332,0.368-7.713,2.084
	c-4.998,1.962-6.541,3.189-6.541,3.189c0.185,4.536,4.011,8.583,9.873,11.341c-5.862,2.698-9.688,6.806-9.873,11.343
	c0,0,1.543,1.226,6.541,3.187c4.381,1.717,7.713,2.085,7.713,2.085V23.17c0-1.533,0.555-3.066,1.666-4.414
	c3.332,0.858,6.973,1.348,10.799,1.348s7.466-0.49,10.798-1.348c1.111,1.348,1.666,2.881,1.666,4.414v10.054
	c0,0,3.332-0.368,7.714-2.085c4.998-1.961,6.54-3.187,6.54-3.187C62.517,23.415,58.691,19.307,52.891,16.609z M65.849,42.543v-2.452
	c0-0.123,0.061-0.368-0.309-0.368h-0.864c-0.308,0-0.246,0.184-0.246,0.368v2.452c0,0.184-0.062,0.674-0.618,0.674h-1.419
	c-0.617,0-0.617-0.49-0.617-0.674v-2.452c0-0.123,0-0.368-0.247-0.368h-0.864c-0.308,0-0.308,0.184-0.308,0.368v2.452
	c0,0.49,0,1.901,1.728,1.901h2.16C65.849,44.382,65.849,43.033,65.849,42.543z M70.6,41.501c0,0.245,0,0.49-0.864,0.49h-1.789
	v-0.858c0-0.123,0-0.184,0.308-0.184h1.728C70.539,40.949,70.6,41.01,70.6,41.501z M72.019,41.194c0-1.533-0.74-1.471-1.295-1.471
	h-3.95c-0.185,0-0.37,0.122-0.37,0.429v4.108c0,0.184,0.185,0.184,0.124,0.184H67.7c0.062,0,0.247,0,0.247-0.184v-1.962
	c0,0,0.308,0.674,0.493,0.981h1.728c0.124,0,0.432,0,0.432,0.551c0,0.184-0.061,0.614,0.185,0.614h1.173
	c0.061,0,0.185,0,0.185-0.246c0-0.49,0.123-1.471-0.617-1.594C71.834,42.236,72.019,42.236,72.019,41.194L72.019,41.194z
	 M73.439,43.34c0,0.061,0,0.061-0.124,0.061h-0.246v-0.184h0.246C73.439,43.217,73.439,43.279,73.439,43.34z M73.624,43.34
	c0-0.123-0.062-0.307-0.247-0.307h-0.37c-0.124,0-0.124,0-0.124,0.123v0.736l0.062,0.122c0.062,0,0.124,0,0.124-0.122v-0.307h0.123
	c0.062,0.123,0.123,0.245,0.247,0.429c0,0,0.185,0,0.123-0.122c-0.062-0.062-0.123-0.184-0.185-0.307
	C73.562,43.585,73.624,43.524,73.624,43.34z M73.871,43.524c0,0.368-0.247,0.674-0.617,0.674c-0.371,0-0.618-0.306-0.618-0.674
	s0.309-0.674,0.618-0.674C73.562,42.911,73.871,43.156,73.871,43.524z M74.056,43.524c0-0.491-0.371-0.858-0.802-0.858
	c-0.432,0-0.803,0.367-0.803,0.858c0,0.49,0.371,0.858,0.803,0.858C73.685,44.382,74.056,44.014,74.056,43.524z"/>
</svg>
