<?xml version="1.0" encoding="utf-8"?>
<!-- Generator: Adobe Illustrator 22.0.1, SVG Export Plug-In . SVG Version: 6.00 Build 0)  -->
<svg version="1.1" id="Layer_1" xmlns="http://www.w3.org/2000/svg" xmlns:xlink="http://www.w3.org/1999/xlink" x="0px" y="0px"
	 viewBox="0 0 104 26" style="enable-background:new 0 0 104 26;" xml:space="preserve">
<path style="fill:#0A2369;" d="M99.71,22.84c-2.51,2.093-5.504,3.156-8.9,3.156c-3.692,0-6.911-1.279-9.569-3.802
	c-2.659-2.523-4.007-5.615-4.007-9.19c0-3.573,1.348-6.665,4.007-9.19c2.658-2.522,5.878-3.802,9.569-3.802
	c2.157,0,4.075,0.345,5.703,1.024c1.621,0.678,3.299,1.848,4.984,3.478l0.272,0.262l-2.787,2.909l-0.291-0.233
	c-1.65-1.323-2.901-2.211-3.715-2.639C93.747,4.174,92.344,3.85,90.81,3.85c-2.634,0-4.855,0.903-6.605,2.683
	c-1.754,1.785-2.643,3.963-2.643,6.471c0,2.51,0.889,4.687,2.643,6.472c1.75,1.78,3.971,2.682,6.605,2.682
	c2.364,0,4.41-0.684,6.08-2.034c1.622-1.341,2.545-3.091,2.744-5.201h-8.756v-2.148c0-1.2,0.169-1.689,1.674-1.689h9.419
	c1.602,0,2.019-0.108,2.019,1.836v0.64C103.99,17.376,102.55,20.498,99.71,22.84L99.71,22.84z M69.219,10.864
	c0-1.84-0.608-3.373-1.823-4.599s-2.668-1.84-4.359-1.84c-1.69,0-3.143,0.614-4.358,1.84s-1.823,2.759-1.823,4.599v14.308h-4.649
	V10.864c0-3.169,1.021-5.748,3.064-7.742c2.043-1.993,4.631-2.989,7.766-2.989s5.724,0.996,7.767,2.989
	c2.042,1.994,3.065,4.573,3.065,7.742v14.308h-4.65V10.864z M34.85,25.974c-3.627,0-6.719-1.205-9.279-3.618
	c-2.667-2.445-3.999-5.547-3.999-9.302s1.332-6.874,3.999-9.355c2.56-2.378,5.652-3.566,9.279-3.566c3.626,0,6.719,1.188,9.28,3.566
	c2.665,2.481,3.998,5.6,3.998,9.355s-1.306,6.847-3.919,9.276C41.595,24.759,38.476,25.974,34.85,25.974z M40.908,6.877
	c-1.574-1.602-3.593-2.403-6.058-2.403c-2.466,0-4.485,0.801-6.057,2.403c-1.573,1.603-2.358,3.663-2.358,6.177
	c0,2.515,0.785,4.574,2.358,6.176c1.572,1.601,3.591,2.403,6.057,2.403c2.465,0,4.484-0.802,6.058-2.403
	c1.572-1.602,2.358-3.661,2.358-6.176C43.266,10.54,42.48,8.48,40.908,6.877z M-0.001,21.936c0-1.188,0.867-2.812,2.601-4.874
	L13.219,4.484H0.92V0.083h12.624c3.323,0,4.986,1.118,4.986,3.353c0,1.189-0.272,2.097-0.814,2.726L5.309,20.835h13.437v4.402H3.9
	C1.299,25.237-0.001,24.137-0.001,21.936z"/>
</svg>
