<svg class="svg-templates" aria-hidden="true" xmlns="http://www.w3.org/2000/svg">
<symbol id="ad-hoc" viewBox="0 0 70 64"> <path d="M61.949 56.176H8.051a1 1 0 0 1-1-1V25.405h2v28.771h51.897V16.178H9.051v9.089h-2V15.178a1 1 0 0 1 1-1h53.897a1 1 0 0 1 1 1v39.999a.998.998 0 0 1-.999.999z"/> <path d="M47.103 16.178H22.75a1 1 0 0 1-1-1v-1.423a5.939 5.939 0 0 1 5.934-5.931h14.49a5.936 5.936 0 0 1 5.929 5.931v1.423a1 1 0 0 1-1 1zm-23.353-2h22.353v-.423a3.935 3.935 0 0 0-3.929-3.931h-14.49a3.937 3.937 0 0 0-3.934 3.931v.423zM34.108 33.654h2v4.711h-2z"/> <g> <path d="M31.31 34.743H12.98a5.935 5.935 0 0 1-5.929-5.929V15.266h2v13.549a3.933 3.933 0 0 0 3.929 3.929h18.33v1.999zM57.021 34.743H38.908v-2h18.113a3.933 3.933 0 0 0 3.928-3.929V15.266h2v13.549a5.935 5.935 0 0 1-5.928 5.928zM48.103 15.178h-2v-1.423a3.935 3.935 0 0 0-3.929-3.931h-14.49a3.937 3.937 0 0 0-3.934 3.931v1.423h-2v-1.423a5.939 5.939 0 0 1 5.934-5.931h14.49a5.936 5.936 0 0 1 5.929 5.931v1.423z"/> <path d="M38.908 39.365H31.31a1 1 0 0 1-1-1v-9.421a1 1 0 0 1 1-1h7.598a1 1 0 0 1 1 1v9.421a1 1 0 0 1-1 1zm-6.598-2h5.598v-7.421H32.31v7.421z"/> <path d="M34.108 33.654h2v4.711h-2z"/> </g> </symbol>
<symbol id="agriculture" viewBox="0 0 70 64"> <path d="M24.555 47.308a.995.995 0 0 1-.724-.311l-7.985-8.385a1 1 0 0 1-.276-.689v-16.77a1.001 1.001 0 0 1 1.724-.69l7.985 8.385a1 1 0 0 1 .276.689v16.77a1.001 1.001 0 0 1-1 1.001zm-6.984-9.786l5.985 6.285v-13.87l-5.985-6.285v13.87z"/> <path d="M15.844 30.227l1.448-1.379 7.984 8.384-1.448 1.379zM16.57 21.153v-7.586M15.571 13.567h2v7.586h-2zM20.894 7.178h2v19.565h-2zM23.555 46.308h2v10.514h-2z"/> <path d="M24.555 47.308a1.001 1.001 0 0 1-1-1v-16.77c0-.257.099-.504.276-.689l7.986-8.385a1.001 1.001 0 0 1 1.724.69v16.77a.997.997 0 0 1-.276.689l-7.986 8.385c-.192.201-.456.31-.724.31zm1-17.37v13.87l5.986-6.285v-13.87l-5.986 6.285z"/> <path d="M23.832 37.235l7.985-8.385 1.448 1.38-7.985 8.385zM32.541 21.153v-7.586M31.541 13.567h2v7.586h-2zM26.218 7.178h2v19.565h-2zM23.555 46.308h2v10.514h-2z"/> <g> <path d="M45.443 47.308a.995.995 0 0 1-.724-.311l-7.984-8.385a1 1 0 0 1-.276-.689v-16.77a1.001 1.001 0 0 1 1.724-.69l7.984 8.385a1 1 0 0 1 .276.689v16.77a1.001 1.001 0 0 1-1 1.001zm-6.984-9.786l5.984 6.285V29.938l-5.984-6.285v13.869z"/> <path d="M36.735 30.23l1.448-1.38 7.985 8.385-1.449 1.38zM37.458 21.153v-7.586M36.459 13.567h2v7.586h-2zM41.782 7.178h2v19.565h-2zM44.443 46.308h2v10.514h-2z"/> <path d="M45.443 47.308a1.001 1.001 0 0 1-1-1v-16.77c0-.257.099-.504.276-.689l7.986-8.385a1.001 1.001 0 0 1 1.724.69v16.77a.997.997 0 0 1-.276.689l-7.986 8.385c-.192.201-.456.31-.724.31zm1-17.37v13.87l5.986-6.285v-13.87l-5.986 6.285z"/> <path d="M44.718 37.23l7.988-8.383 1.448 1.38-7.988 8.383zM53.429 21.153v-7.586M52.429 13.567h2v7.586h-2zM47.106 7.178h2v19.565h-2zM44.443 46.308h2v10.514h-2z"/> </g> </symbol>
<symbol id="approach" viewBox="0 0 70 64"> <path d="M50.727 63.375H19.272a1 1 0 0 1-1-1v-5.873c-.188-1.096.466-4.238 11.06-8.991a1 1 0 1 1 .818 1.825c-9.368 4.203-9.868 6.659-9.894 6.88a.974.974 0 0 1 .016.178v4.981h29.455v-4.981a.98.98 0 0 1 .017-.18c-.025-.223-.53-2.714-10.104-6.976a1 1 0 0 1 .812-1.827c10.802 4.808 11.466 7.984 11.275 9.091v5.873a1 1 0 0 1-1 1zm-30.5-7.279zm29.546-.002v0zm-29.547-.001v0zm29.548-.001l-.001.002.001-.002zm-29.549-.001l.001.002-.001-.002zm29.55-.002l-.001.002.001-.002z"/> <path d="M34.849 51.557c-4.517 0-8.19-3.676-8.19-8.195V36.53c0-4.517 3.674-8.191 8.19-8.191 4.518 0 8.193 3.674 8.193 8.191v6.832c.001 4.519-3.675 8.195-8.193 8.195zm0-21.218a6.197 6.197 0 0 0-6.19 6.191v6.832c0 3.416 2.777 6.195 6.19 6.195a6.2 6.2 0 0 0 6.193-6.195V36.53c.001-3.413-2.778-6.191-6.193-6.191zM22.257 48.453H1.215a1 1 0 0 1-1-1v-3.889c-.196-1.103.686-3.257 7.594-6.357a.999.999 0 1 1 .818 1.824c-5.681 2.55-6.35 4.094-6.418 4.312a.977.977 0 0 1 .006.108v3.001h19.042v-3.001c0-.037.002-.073.006-.11-.068-.22-.747-1.787-6.556-4.374a1 1 0 0 1 .812-1.827c7.039 3.134 7.937 5.31 7.737 6.423v3.888a1 1 0 0 1-.999 1.002zm-.988-5.084h.011-.011zM2.17 43.154c0 .001 0 .001 0 0 0 .001 0 .001 0 0zm-.001-.002v0zm19.134.001zm.001-.002l-.001.001.001-.001zm-19.136-.002l.001.002-.001-.002zm19.136-.001v0z"/> <path d="M11.635 40.547a5.819 5.819 0 0 1-5.81-5.813v-4.57a5.817 5.817 0 0 1 5.81-5.811 5.818 5.818 0 0 1 5.812 5.811v4.57a5.82 5.82 0 0 1-5.812 5.813zm0-14.193a3.814 3.814 0 0 0-3.81 3.811v4.57a3.815 3.815 0 0 0 3.81 3.813 3.816 3.816 0 0 0 3.812-3.813v-4.57a3.815 3.815 0 0 0-3.812-3.811zM68.785 48.453H47.743a1 1 0 0 1-1-1v-3.889c-.196-1.103.686-3.257 7.595-6.357a1 1 0 1 1 .818 1.825c-5.682 2.549-6.351 4.094-6.419 4.312a.977.977 0 0 1 .006.108v3.001h19.042v-3.001a1 1 0 0 1 .006-.11c-.068-.22-.747-1.788-6.555-4.374a1 1 0 0 1 .812-1.827c7.039 3.134 7.936 5.31 7.736 6.424v3.888a.998.998 0 0 1-.999 1zm-.987-5.084h.011-.011zm-19.1-.215c0 .001 0 .001 0 0 0 .001 0 .001 0 0zm-.001-.002v0zm19.134.001zm.001-.003l-.001.001.001-.001zm-19.136-.001l.001.002-.001-.002zm19.137-.001l-.001.002.001-.002z"/> <path d="M58.164 40.547a5.819 5.819 0 0 1-5.811-5.813v-4.57a5.817 5.817 0 0 1 5.811-5.811 5.818 5.818 0 0 1 5.812 5.811v4.57a5.82 5.82 0 0 1-5.812 5.813zm0-14.193a3.815 3.815 0 0 0-3.811 3.811v4.57a3.816 3.816 0 0 0 3.811 3.813 3.816 3.816 0 0 0 3.812-3.813v-4.57a3.815 3.815 0 0 0-3.812-3.811zM34.7 26.218c-1.785 0-3.3-2.213-3.585-2.657a.997.997 0 0 1-.159-.541v-3.331a1 1 0 0 1 1-1h5.489a1 1 0 0 1 1 1v3.331c0 .192-.056.38-.159.541-.285.443-1.8 2.657-3.586 2.657zm-1.744-3.508c.542.753 1.342 1.507 1.744 1.507.407 0 1.206-.753 1.745-1.506v-2.023h-3.489v2.022z"/> <path d="M37.13 20.689h-4.975a1.735 1.735 0 0 1-1.733-1.733c0-1.424-1.345-4.026-2.5-5.828l-.021-.032a8.074 8.074 0 0 1-1.279-4.369c0-4.467 3.634-8.101 8.101-8.101a8.128 8.128 0 0 1 7.036 4.083 8.103 8.103 0 0 1-.216 8.386l-.014.021c-1.196 1.855-2.57 4.473-2.57 5.839-.001.94-.838 1.734-1.829 1.734zm-.172-1.733zm-4.545-.267h4.554c.148-2.204 2.043-5.359 2.876-6.651l.016-.022v-.001c.631-.982.964-2.12.964-3.289a6.08 6.08 0 0 0-.801-3.023 6.122 6.122 0 0 0-5.3-3.077 6.108 6.108 0 0 0-6.101 6.101 6.076 6.076 0 0 0 .97 3.299c.823 1.281 2.68 4.403 2.822 6.663z"/> <path d="M33.722 9.014h2v10.675h-2z"/> <path d="M31.556 8.014h6.11v2h-6.11zM11.447 26.341a.987.987 0 0 1-.993-.904c-.013-.146-.088-1.465 1.042-2.693 1.209-1.315 3.281-1.981 6.159-1.981h14.266a1 1 0 1 1 0 2H17.655c-2.812 0-4.08.704-4.649 1.295-.575.597-.559 1.208-.558 1.234a1.01 1.01 0 0 1-.938 1.048l-.063.001zM58.066 26.354a.999.999 0 0 1-.997-1.083c-.001-.004.016-.616-.56-1.213-.569-.591-1.838-1.295-4.649-1.295H37.595a1 1 0 1 1 0-2H51.86c2.878 0 4.95.667 6.159 1.981 1.13 1.229 1.055 2.547 1.042 2.693a1 1 0 0 1-.995.917zM34.722 30.339a1 1 0 0 1-1-1v-4.127a1 1 0 1 1 2 0v4.127a1 1 0 0 1-1 1zM33.531 57.454h2.16v2.161h-2.16zM33.531 53.417h2.16v2.16h-2.16z"/> </symbol>
<symbol id="architecture" viewBox="0 0 70 64"> <path d="M62.847 55.537H7.154a1 1 0 0 1-1-1V31.943a1 1 0 0 1 1-1h16.592v2H8.154v20.594h53.693V32.943H44.218v-2h18.629a1 1 0 0 1 1 1v22.594a1 1 0 0 1-1 1zM23.309 22.283a.999.999 0 0 1-.707-1.707l11.832-11.82a1 1 0 0 1 1.414 0L47.544 20.45a.999.999 0 1 1-1.414 1.414L35.141 10.876 24.016 21.991a1 1 0 0 1-.707.292z"/> <path d="M64.667 28.927H47.17a.996.996 0 0 1-.707-.293l-11.32-11.318-11.334 11.319a.998.998 0 0 1-.707.292H5.606v-2h17.082l11.749-11.732a1 1 0 0 1 1.414 0l11.732 11.731h17.083v2.001z"/> <path d="M25.195 32.982h-.002l-23.022-.039a.999.999 0 0 1-.784-1.619l12.098-15.368a1 1 0 0 1 .786-.381h13.75v2H14.756L4.23 30.947l20.541.035 9.432-9.762a.997.997 0 0 1 .718-.305h.001c.271 0 .529.109.718.304l9.433 9.719 20.694.005-10.522-13.368H42.254v-2H55.73c.307 0 .596.141.786.381l12.097 15.368a1 1 0 1 1-.786 1.619l-23.178-.006a.998.998 0 0 1-.718-.304l-9.008-9.281-9.01 9.325a.997.997 0 0 1-.718.305z"/> <path d="M35.136 37.724a4.722 4.722 0 0 1-4.717-4.716c0-2.601 2.116-4.717 4.717-4.717s4.716 2.116 4.716 4.717c0 2.6-2.115 4.716-4.716 4.716zm0-7.434a2.72 2.72 0 0 0-2.717 2.717 2.72 2.72 0 0 0 2.717 2.716 2.72 2.72 0 0 0 2.716-2.716 2.72 2.72 0 0 0-2.716-2.717zM11.084 35.102h2v6.281h-2zM15.471 35.102h2v6.281h-2zM11.084 45.098h2v6.282h-2zM15.471 45.098h2v6.282h-2zM20.858 55.537a.997.997 0 0 1-1-1V31.982a1 1 0 0 1 1-1h4.303a1 1 0 0 1 1 1v22.554a1 1 0 0 1-1 1l-4.303.001zm1-22.555v20.555h2.303V32.982h-2.303zM44.686 55.537a.997.997 0 0 1-1-1V31.982a1 1 0 0 1 1-1h4.301a1 1 0 0 1 1 1v22.554a1 1 0 0 1-1 1l-4.301.001zm1-22.555v20.555h2.301V32.982h-2.301zM52.885 35.102h2v6.281h-2zM57.187 35.102h2v6.281h-2zM57.187 45.098h2v6.281h-2zM52.885 45.098h2v6.282h-2zM38.246 55.537h-6.219a1 1 0 0 1-1-1v-11.03c0-2.266 1.844-4.109 4.109-4.109s4.109 1.843 4.109 4.109v11.03a.999.999 0 0 1-.999 1zm-5.219-2h4.219v-10.03c0-1.163-.946-2.109-2.109-2.109s-2.109.946-2.109 2.109v10.03z"/> </symbol>
<symbol id="arrow-link-menu" viewBox="0 0 10 10"> <path d="M5 0h5v1H5z"/> <path d="M9 5V0h1v5z"/> <path d="M0 9.293L9.293 0 10 .707.707 10z"/> </symbol>
<symbol id="arrow-small-menu" viewBox="0 0 5 8.603"> <path d="M.699 8.603L0 7.904l3.603-3.603L0 .699.699 0 5 4.301z"/> </symbol>
<symbol id="arts" viewBox="0 0 70 64"> <path d="M42.653 45.358a3.574 3.574 0 0 1-3.572-3.569 3.575 3.575 0 0 1 3.572-3.57 3.57 3.57 0 0 1 0 7.139zm0-5.139c-.867 0-1.572.705-1.572 1.57a1.569 1.569 0 1 0 1.572-1.57zM45.163 33.394H32.459a1 1 0 0 1-1-1V19.831a1 1 0 0 1 1-1h12.704a1 1 0 0 1 1 1v12.562a1 1 0 0 1-1 1.001zm-11.704-2h10.704V20.831H33.459v10.563z"/> <path d="M32.459 41.016c-4.754 0-8.622-3.868-8.622-8.622s3.868-8.622 8.622-8.622 8.622 3.868 8.622 8.622-3.868 8.622-8.622 8.622zm0-15.244c-3.651 0-6.622 2.97-6.622 6.622s2.971 6.622 6.622 6.622 6.622-2.971 6.622-6.622-2.971-6.622-6.622-6.622z"/> <path d="M55.647 58.925a3.42 3.42 0 0 1-2.84-1.51 2.83 2.83 0 0 1-.217-.416c-.2-.451-.39-.877-1.599-.877-1.378 0-2.671.376-4.04.775-1.497.436-3.045.887-4.828.887-2.36 0-3.889-.58-4.828-1.161a2.85 2.85 0 0 1-4.592 0c-.939.581-2.468 1.161-4.828 1.161-1.784 0-3.332-.451-4.829-.887-1.368-.399-2.661-.775-4.039-.775-1.21 0-1.399.426-1.6.877a2.752 2.752 0 0 1-.218.417 3.418 3.418 0 0 1-2.838 1.509 3.429 3.429 0 0 1-3.425-3.425c0-1.282.809-2.085 1.458-2.73l.116-.115c.699-.699.753-1.419.619-2.286-.247-1.608-.662-2.679-1.063-3.714-.556-1.434-1.13-2.917-1.13-5.532 0-3.226.863-5.236 1.645-6.395a3.432 3.432 0 0 1-1.632-2.652.99.99 0 0 1 0-.154 3.43 3.43 0 0 1 1.632-2.652c-.781-1.158-1.645-3.167-1.645-6.393 0-2.616.575-4.1 1.131-5.534.4-1.035.815-2.104 1.062-3.711.134-.868.08-1.588-.619-2.287l-.118-.118c-.648-.645-1.456-1.448-1.456-2.729a3.428 3.428 0 0 1 3.425-3.424c1.14 0 2.2.564 2.839 1.509.071.104.142.246.218.417.2.451.39.877 1.6.877 1.378 0 2.671-.376 4.039-.775 1.497-.436 3.045-.887 4.829-.887 2.36 0 3.889.58 4.828 1.16a2.853 2.853 0 0 1 4.592 0c.939-.581 2.468-1.16 4.828-1.16 1.783 0 3.331.451 4.828.887 1.369.399 2.662.775 4.04.775 1.209 0 1.398-.426 1.599-.877.076-.171.147-.314.218-.417a3.42 3.42 0 0 1 2.839-1.509 3.428 3.428 0 0 1 3.425 3.424c0 1.281-.808 2.084-1.456 2.729l-.117.117c-.699.699-.754 1.42-.621 2.288.247 1.605.662 2.675 1.063 3.709.556 1.435 1.131 2.918 1.131 5.535 0 3.226-.863 5.235-1.645 6.394a3.435 3.435 0 0 1 1.632 2.65c.004.052.004.104 0 .156a3.435 3.435 0 0 1-1.632 2.651c.781 1.159 1.645 3.168 1.645 6.395 0 2.615-.575 4.098-1.131 5.533-.401 1.035-.815 2.105-1.063 3.712-.133.866-.078 1.587.62 2.286l.116.115c.649.645 1.458 1.448 1.458 2.73a3.43 3.43 0 0 1-3.426 3.427zm-4.655-4.802c2.508 0 3.151 1.446 3.426 2.063.022.05.041.096.062.132a1.427 1.427 0 0 0 2.593-.818c0-.428-.33-.777-.867-1.311l-.121-.121c-1.396-1.397-1.344-2.955-1.183-4.004.28-1.823.756-3.049 1.176-4.131.534-1.378.995-2.568.995-4.81 0-4.625-1.955-6.042-1.975-6.054a1 1 0 0 1 .55-1.836 1.43 1.43 0 0 0 1.41-1.234 1.43 1.43 0 0 0-1.41-1.234 1.001 1.001 0 0 1-.55-1.836c.066-.048 1.975-1.458 1.975-6.053 0-2.243-.462-3.433-.996-4.812-.419-1.081-.895-2.307-1.175-4.128-.161-1.051-.214-2.609 1.183-4.005l.122-.122c.537-.534.866-.883.866-1.311a1.427 1.427 0 0 0-2.607-.796c-.007.015-.025.06-.048.11-.274.618-.918 2.064-3.426 2.064-1.663 0-3.156-.435-4.6-.855-1.425-.415-2.771-.807-4.269-.807-3.368 0-4.405 1.366-4.447 1.424a1.018 1.018 0 0 1-1.125.371.992.992 0 0 1-.697-.94c0-.471-.384-.854-.854-.854s-.854.383-.854.854a1 1 0 0 1-1.835.55c-.029-.039-1.066-1.404-4.435-1.404-1.499 0-2.845.392-4.27.807-1.443.42-2.936.855-4.599.855-2.509 0-3.152-1.446-3.427-2.064-.022-.05-.041-.095-.062-.132a1.427 1.427 0 0 0-2.592.818c0 .428.329.777.866 1.311l.123.122c1.396 1.396 1.343 2.955 1.181 4.005-.28 1.822-.755 3.047-1.175 4.129-.534 1.378-.995 2.569-.995 4.811 0 4.594 1.908 6.005 1.989 6.062.354.252.513.71.38 1.125a.994.994 0 0 1-.944.701 1.43 1.43 0 0 0-1.41 1.234 1.43 1.43 0 0 0 1.41 1.234 1.001 1.001 0 0 1 .55 1.836c-.066.048-1.975 1.459-1.975 6.054 0 2.241.461 3.431.995 4.809.419 1.082.895 2.309 1.175 4.132.162 1.049.216 2.606-1.182 4.004l-.121.121c-.537.534-.867.883-.867 1.311a1.423 1.423 0 1 0 2.606.796c.007-.015.025-.06.048-.11.274-.618.918-2.064 3.427-2.064 1.663 0 3.155.435 4.599.855 1.425.415 2.771.807 4.27.807 3.367 0 4.405-1.366 4.447-1.424.256-.35.714-.507 1.125-.371a.993.993 0 0 1 .697.94c0 .472.384.855.854.855s.854-.383.854-.855a1 1 0 0 1 1.835-.55c.029.039 1.067 1.405 4.435 1.405 1.498 0 2.844-.392 4.269-.807 1.444-.42 2.937-.854 4.6-.854z"/> <path d="M51.868 51.681H18.131V12.319h33.737v39.362zm-31.737-2h29.737V14.319H20.131v35.362z"/> </symbol>
<symbol id="consumer-products" viewBox="0 0 70 64"> <path d="M39.643 19.357h-2v-5.133H22.447v5.133h-2v-7.133h19.196z"/> <path d="M51.911 19.113h-2V8.334H34.152v4.89h-2v-6.89h19.759zM21.447 57.666h-7.051a1 1 0 0 1-.999-1.044l1.487-34.138a1 1 0 0 1 .999-.957h7.051a1 1 0 0 1 .999 1.044l-1.487 34.138a1 1 0 0 1-.999.957zm-6.006-2h5.049l1.399-32.138H16.84l-1.399 32.138z"/> <path d="M55.604 57.666H21.447a1 1 0 0 1-.999-1.044l1.487-34.138a1 1 0 0 1 .999-.957h31.183a1 1 0 0 1 .999.957l1.486 34.138a1.002 1.002 0 0 1-.998 1.044zm-33.112-2h32.066L53.16 23.527H23.892l-1.4 32.139z"/> <path d="M38.738 49.248c-4.327 0-7.847-3.522-7.847-7.851V29.334h2v12.063a5.856 5.856 0 0 0 5.847 5.851 5.856 5.856 0 0 0 5.848-5.851V29.334h2v12.063c0 4.329-3.521 7.851-7.848 7.851z"/> <path d="M29.151 28.632h5.393v2h-5.393zM42.891 28.632h5.394v2h-5.394z"/> </symbol>
<symbol id="e-commerce" viewBox="0 0 70 64"> <path d="M59.498 58.092H18.816a4.784 4.784 0 0 1-4.779-4.778V40.841h2v12.473a2.782 2.782 0 0 0 2.779 2.778h40.682a2.78 2.78 0 0 0 2.778-2.778v-26.12a2.782 2.782 0 0 0-2.778-2.778H42.283v-2h17.215a4.784 4.784 0 0 1 4.778 4.778v26.12a4.783 4.783 0 0 1-4.778 4.778z"/> <path d="M19.327 43.129h2.516v2h-2.516zM24.095 43.129h2.515v2h-2.515zM28.862 43.129h2.516v2h-2.516zM33.629 43.129h2.516v2h-2.516z"/> <g> <path d="M41.309 43.129h2.516v2h-2.516zM46.074 43.129h2.517v2h-2.517zM50.842 43.129h2.516v2h-2.516zM55.61 43.129h2.515v2H55.61z"/> </g> <g> <path d="M34.62 49.496h23.504v2H34.62zM19.327 49.496h10.195v2H19.327z"/> </g> <g> <path d="M21.904 38.269c-8.922 0-16.18-7.259-16.18-16.181s7.258-16.181 16.18-16.181 16.182 7.259 16.182 16.181-7.26 16.181-16.182 16.181zm0-30.361c-7.819 0-14.18 6.361-14.18 14.181s6.361 14.181 14.18 14.181c7.82 0 14.182-6.361 14.182-14.181S29.724 7.908 21.904 7.908zM17.564 30.087l8.681-15.998"/> <path d="M16.684 29.609l8.683-15.998 1.757.954-8.682 15.998zM16.588 21.341a3.671 3.671 0 0 1-3.668-3.666v-.92a3.672 3.672 0 0 1 3.668-3.666 3.67 3.67 0 0 1 3.665 3.666v.92a3.67 3.67 0 0 1-3.665 3.666zm0-6.252c-.92 0-1.668.747-1.668 1.666v.92a1.67 1.67 0 0 0 1.668 1.666c.918 0 1.665-.748 1.665-1.666v-.92c0-.919-.747-1.666-1.665-1.666zM27.164 31.087a3.67 3.67 0 0 1-3.666-3.667v-.919a3.67 3.67 0 0 1 3.666-3.666 3.67 3.67 0 0 1 3.667 3.666v.919a3.671 3.671 0 0 1-3.667 3.667zm0-6.252c-.918 0-1.666.748-1.666 1.666v.919c0 .919.748 1.667 1.666 1.667a1.67 1.67 0 0 0 1.667-1.667v-.919c0-.918-.748-1.666-1.667-1.666z"/> </g> <path d="M49.728 40.456h-.01l-.243-.002a1.004 1.004 0 0 1-.988-1.065 4.48 4.48 0 0 0-1.274-3.466 4.478 4.478 0 0 0-3.175-1.358l-.16.002a1.076 1.076 0 0 1-.742-.287 1.012 1.012 0 0 1-.311-.724l.003-.235a1.002 1.002 0 0 1 1.052-.987l.184.007c1.21.031 2.343-.442 3.205-1.285a4.48 4.48 0 0 0 1.358-3.176c.003-.265.111-.586.301-.771.189-.186.441-.368.71-.352l.23.003a.999.999 0 0 1 .986 1.033l-.229.023v.087l.225.003a4.518 4.518 0 0 0 4.461 4.565l.185-.002a1 1 0 0 1 1.026 1.008l-.002.235a1.002 1.002 0 0 1-1.045.991l-.191-.007h-.054a4.518 4.518 0 0 0-4.505 4.716 1 1 0 0 1-.997 1.044zm-2.393-6.97a6.573 6.573 0 0 1 2.313 2.366 6.55 6.55 0 0 1 2.368-2.312 6.573 6.573 0 0 1-2.312-2.367 6.557 6.557 0 0 1-2.369 2.313z"/> </symbol>
<symbol id="education" viewBox="0 0 70 64"> <path d="M54.415 52.145a1 1 0 0 1-1-1V8.354H21.086a4.506 4.506 0 0 0-4.501 4.5v38.29a1 1 0 1 1-2 0v-38.29c0-3.584 2.916-6.5 6.501-6.5h33.329a1 1 0 0 1 1 1v43.791a1 1 0 0 1-1 1z"/> <path d="M54.415 57.646H21.086a6.508 6.508 0 0 1-6.501-6.5 6.509 6.509 0 0 1 6.501-6.502h33.329a1 1 0 0 1 1 1v11.003a1 1 0 0 1-1 .999zM21.086 46.643a4.507 4.507 0 0 0-4.501 4.502c0 2.481 2.02 4.5 4.501 4.5h32.329v-9.003H21.086z"/> <path d="M21.086 46.643a1 1 0 0 1-1-1V7.666a1 1 0 1 1 2 0v37.977a1 1 0 0 1-1 1zM31.872 22.089h11.542v2H31.872zM29.895 27.157h15.498v2H29.895zM54.415 51.145h-31.54M54.415 52.145h-31.54a1 1 0 1 1 0-2h31.54a1 1 0 1 1 0 2z"/> <path d="M48.176 36.683H26.86a1 1 0 0 1-1-1V15.858a1 1 0 0 1 1-1h21.315a1 1 0 0 1 1 1v19.825a.998.998 0 0 1-.999 1zm-20.316-2h19.315V16.858H27.86v17.825z"/> </symbol>
<symbol id="entertainment-music" viewBox="0 0 70 64"> <path d="M54.27 34.931a1 1 0 0 1-1-1c0-3.306-.893-6.544-2.582-9.366a1.001 1.001 0 0 1 1.717-1.028 20.248 20.248 0 0 1 2.865 10.394 1 1 0 0 1-1 1zM15.73 34.931a1 1 0 0 1-1-1c0-3.963 1.145-7.802 3.311-11.103a1 1 0 0 1 1.672 1.096 18.195 18.195 0 0 0-2.982 10.006 1.001 1.001 0 0 1-1.001 1.001z"/> <path d="M19.946 52.457H15.73a1 1 0 0 1-1-1V33.931a1 1 0 0 1 1-1h4.216a2.416 2.416 0 0 1 2.412 2.413v14.701a2.415 2.415 0 0 1-2.412 2.412zm-3.216-2h3.216a.417.417 0 0 0 .412-.412V35.344a.417.417 0 0 0-.412-.413H16.73v15.526zM54.27 52.457h-4.215a2.415 2.415 0 0 1-2.413-2.412V35.344a2.415 2.415 0 0 1 2.413-2.413h4.215a1 1 0 0 1 1 1v17.526a1 1 0 0 1-1 1zm-4.215-17.526a.418.418 0 0 0-.413.413v14.701c0 .223.189.412.413.412h3.215V34.931h-3.215z"/> <path d="M15.73 52.457c-.099 0-.198-.015-.295-.044-.243-.075-5.95-1.929-5.95-9.715s5.706-9.646 5.949-9.722a1.002 1.002 0 0 1 1.296.955v17.526a1 1 0 0 1-1 1zm-1-16.885c-1.346.935-3.245 2.989-3.245 7.125 0 4.117 1.903 6.175 3.245 7.114V35.572zM54.27 52.457a.998.998 0 0 1-1-1V33.931a.998.998 0 0 1 1.296-.955c.243.075 5.949 1.935 5.949 9.722s-5.707 9.64-5.95 9.715a1.034 1.034 0 0 1-.295.044zm1-16.885v14.247c1.344-.933 3.245-2.983 3.245-7.122 0-4.136-1.9-6.19-3.245-7.125zM49.864 24.79a3.112 3.112 0 0 1-2.406-1.133c-3.084-3.735-7.625-5.877-12.46-5.877s-9.376 2.142-12.458 5.876a3.127 3.127 0 0 1-4.392.419 3.122 3.122 0 0 1-.419-4.391 22.328 22.328 0 0 1 17.269-8.142 22.335 22.335 0 0 1 17.271 8.142 3.122 3.122 0 0 1-2.405 5.106zm-14.866-9.01A18.104 18.104 0 0 1 49 22.383a1.116 1.116 0 0 0 1.575.15 1.12 1.12 0 0 0 .15-1.575 20.338 20.338 0 0 0-15.728-7.415 20.335 20.335 0 0 0-15.727 7.416 1.12 1.12 0 1 0 1.726 1.423 18.106 18.106 0 0 1 14.002-6.602z"/> </symbol>
<symbol id="face" viewBox="0 0 88 99"> <path d="M44 99C24.372 99 8.404 83.08 8.404 63.512v-36.15c0-1.089.885-1.972 1.978-1.972 1.092 0 1.978.883 1.978 1.972v36.15c0 17.394 14.194 31.545 31.64 31.545s31.64-14.151 31.64-31.545v-36.15c0-1.089.885-1.972 1.978-1.972 1.092 0 1.978.883 1.978 1.972v36.15C79.596 83.08 63.628 99 44 99z"/> <path d="M10.382 69.737C4.657 69.737 0 65.094 0 59.386s4.657-10.351 10.382-10.351c1.092 0 1.978.883 1.978 1.972a1.975 1.975 0 0 1-1.978 1.972c-3.544 0-6.427 2.875-6.427 6.408 0 3.533 2.883 6.408 6.427 6.408 1.092 0 1.978.883 1.978 1.972 0 1.087-.886 1.97-1.978 1.97zM29.049 59.529a1.97 1.97 0 0 1-1.474-.657 3.966 3.966 0 0 0-5.897-.001 1.98 1.98 0 0 1-2.792.152 1.968 1.968 0 0 1-.153-2.784 7.938 7.938 0 0 1 5.893-2.625c2.248 0 4.396.958 5.896 2.628a1.968 1.968 0 0 1-.154 2.784c-.379.337-.85.503-1.319.503zM67.599 59.529a1.97 1.97 0 0 1-1.474-.657 3.966 3.966 0 0 0-5.897-.001 1.98 1.98 0 0 1-2.792.152 1.968 1.968 0 0 1-.153-2.784 7.938 7.938 0 0 1 5.893-2.625c2.248 0 4.396.958 5.896 2.628.728.812.66 2.058-.154 2.784-.378.337-.85.503-1.319.503zM77.618 69.737a1.975 1.975 0 0 1-1.978-1.972c0-1.089.885-1.972 1.978-1.972 3.544 0 6.427-2.875 6.427-6.408 0-3.533-2.883-6.408-6.427-6.408a1.975 1.975 0 0 1-1.978-1.972c0-1.089.885-1.972 1.978-1.972C83.343 49.035 88 53.678 88 59.386s-4.657 10.351-10.382 10.351zM6.213 24.271a1.972 1.972 0 0 1-1.949-2.318C7.276 5.138 20.916 1.526 30.912.272c15.307-1.92 32.452 6.929 33.174 7.307a1.969 1.969 0 0 1 .833 2.661 1.98 1.98 0 0 1-2.669.832c-.166-.086-16.785-8.654-30.844-6.887-14.109 1.769-21.28 7.464-23.249 18.461a1.975 1.975 0 0 1-1.944 1.625z"/> <path d="M36.244 37.05c-10.733 0-15.729-3.211-19.377-5.556-1.994-1.281-3.435-2.207-5.218-2.207-4.751 0-7.574 2.208-7.601 2.231a1.983 1.983 0 0 1-2.246.185 1.968 1.968 0 0 1-.962-2.032c.808-4.82 4.908-13.938 14.64-13.938 2.791 0 4.598.675 6.347 1.327 1.739.649 3.381 1.261 6.26 1.261 4.813 0 7.533-4.094 7.646-4.268a1.987 1.987 0 0 1 2.73-.59 1.963 1.963 0 0 1 .604 2.712c-.158.248-3.959 6.09-10.98 6.09-3.595 0-5.747-.803-7.646-1.511-1.549-.578-2.886-1.076-4.961-1.076-5.161 0-7.936 3.513-9.364 6.506a18.368 18.368 0 0 1 5.533-.838c2.948 0 5.092 1.378 7.361 2.836 3.415 2.195 7.667 4.927 17.235 4.927 9.794 0 19.255-5.122 25.306-13.703a1.981 1.981 0 0 1 2.755-.478 1.968 1.968 0 0 1 .48 2.747C57.994 31.301 47.325 37.05 36.244 37.05z"/> <path d="M77.609 45.183h-.59c-8.723 0-15.82-7.076-15.82-15.772v-18.73c0-2.718 2.218-4.929 4.944-4.929h.59c7.087 0 12.854 5.749 12.854 12.815v24.644a1.975 1.975 0 0 1-1.978 1.972zM66.143 9.695a.988.988 0 0 0-.989.986v18.73c0 6.055 4.587 11.062 10.478 11.748V18.567c0-4.892-3.992-8.872-8.899-8.872h-.59zM43.93 86.144c-8.465 0-16.346-3.366-22.187-9.476a1.966 1.966 0 0 1 .067-2.787 1.981 1.981 0 0 1 2.795.066c5.09 5.322 11.952 8.253 19.325 8.253 7.371 0 14.235-2.93 19.325-8.252a1.983 1.983 0 0 1 2.795-.066c.791.751.821 1.999.067 2.787-5.844 6.111-13.724 9.475-22.187 9.475z"/> </symbol>
<symbol id="finance-service" viewBox="0 0 70 64"> <path d="M61.592 46.684h-2V15.918H11.064v30.766h-2V14.918a1 1 0 0 1 1-1h50.527a1 1 0 0 1 1 1v31.766z"/> <path d="M66.38 46.684h-2V12.319a.615.615 0 0 0-.613-.614H7.154a.614.614 0 0 0-.614.614v34.364h-2V12.319a2.617 2.617 0 0 1 2.614-2.614h56.612a2.616 2.616 0 0 1 2.613 2.614v34.365z"/> <path d="M62.34 54.294H7.659c-4.022 0-5.979-1.286-5.979-3.93v-3.681a1 1 0 0 1 1-1h24.063a1 1 0 0 1 1 1c0 .657.534 1.191 1.191 1.191H42c.657 0 1.192-.534 1.192-1.191a1 1 0 0 1 1-1h23.125a1 1 0 0 1 1 1v3.681c.002 2.645-1.954 3.93-5.977 3.93zm-58.659-6.61v2.681c0 .674 0 1.93 3.979 1.93h54.68c3.979 0 3.979-1.255 3.979-1.93v-2.681H45.034a3.199 3.199 0 0 1-3.032 2.191H28.936c-1.41 0-2.61-.92-3.031-2.191H3.681zM35.044 39.942c-4.861 0-8.816-3.956-8.816-8.817s3.955-8.817 8.816-8.817 8.816 3.955 8.816 8.817-3.955 8.817-8.816 8.817zm0-15.634a6.824 6.824 0 0 0-6.816 6.817c0 3.759 3.058 6.817 6.816 6.817s6.816-3.058 6.816-6.817a6.824 6.824 0 0 0-6.816-6.817z"/> <path d="M34.59 35.691v-1.136c-.652-.011-1.316-.214-1.71-.495l.27-.754c.394.27.979.484 1.597.484.81 0 1.35-.461 1.35-1.102 0-.619-.439-1.001-1.271-1.339-1.147-.45-1.856-.978-1.856-1.957 0-.934.664-1.642 1.687-1.811v-1.125h.709v1.091c.675.023 1.136.202 1.462.394l-.281.743a2.696 2.696 0 0 0-1.417-.394c-.866 0-1.192.517-1.192.978 0 .574.416.866 1.395 1.283 1.159.472 1.743 1.046 1.743 2.047 0 .9-.619 1.732-1.777 1.924v1.17h-.709z"/> <path d="M35.799 36.191H34.09v-1.175c-.572-.08-1.119-.277-1.5-.549l-.309-.22.617-1.72.535.367c.361.248.853.396 1.313.396.392 0 .85-.158.85-.603 0-.235-.074-.517-.958-.875-1.07-.419-2.169-1.037-2.169-2.42 0-1.036.662-1.88 1.688-2.205v-1.231h1.709v1.134c.448.066.849.205 1.215.419l.364.213-.639 1.686-.508-.291a2.196 2.196 0 0 0-1.169-.328c-.44 0-.692.174-.692.479 0 .21.078.392 1.091.823.949.387 2.047 1.024 2.047 2.507 0 1.093-.698 1.982-1.776 2.318v1.275zm.434-4.518c.146.174.258.377.316.617a1.15 1.15 0 0 0-.316-.617zM21.837 30.001a1.125 1.125 0 1 1-2.25-.001 1.125 1.125 0 0 1 2.25.001zM50.329 30.001a1.125 1.125 0 1 1-2.25-.001 1.125 1.125 0 0 1 2.25.001z"/> <path d="M52.515 43.833H18.121a1 1 0 0 1-1-1 2.705 2.705 0 0 0-2.702-2.701 1 1 0 0 1-1-1V22.188a1 1 0 0 1 1-1 2.705 2.705 0 0 0 2.702-2.702 1 1 0 0 1 1-1h34.394a1 1 0 0 1 1 1 2.705 2.705 0 0 0 2.701 2.702 1 1 0 0 1 1 1v16.944a1 1 0 0 1-1 1 2.704 2.704 0 0 0-2.701 2.701 1 1 0 0 1-1 1zm-33.501-2h32.608a4.716 4.716 0 0 1 3.594-3.594V23.082a4.716 4.716 0 0 1-3.594-3.595H19.014a4.717 4.717 0 0 1-3.595 3.595V38.24a4.715 4.715 0 0 1 3.595 3.593z"/> </symbol>
<symbol id="games" viewBox="0 0 70 64"> <path d="M26.692 18.422h-2v-3.97h-6.258v3.97h-2v-4.97a1 1 0 0 1 1-1h8.258a1 1 0 0 1 1 1v4.97zM53.589 18.422h-2v-3.97h-6.25v3.962h-2v-4.962a1 1 0 0 1 1-1h8.25a1 1 0 0 1 1 1v4.97z"/> <path d="M21.566 36.006c-5.409 0-9.811-4.398-9.811-9.804a9.8 9.8 0 0 1 5.209-8.663c2.796-1.491 6.395-1.495 9.198 0a9.701 9.701 0 0 1 2.01 1.417 9.838 9.838 0 0 1 3.198 7.245c0 1.927-.558 3.79-1.611 5.389l-1.67-1.102a7.763 7.763 0 0 0 1.281-4.287 7.835 7.835 0 0 0-2.547-5.768 7.649 7.649 0 0 0-1.598-1.126c-2.251-1.202-5.085-1.196-7.321-.003a7.8 7.8 0 0 0-4.149 6.897c0 4.303 3.504 7.804 7.811 7.804.638 0 1.272-.077 1.887-.228l.477 1.942a9.837 9.837 0 0 1-2.364.287zM48.464 36.006a9.764 9.764 0 0 1-1.904-.185l.391-1.962c.495.099.99.147 1.514.147 4.304 0 7.805-3.501 7.805-7.804 0-.37-.029-.75-.087-1.132l-.012-.102c-.359-2.375-1.875-4.507-4.051-5.664-2.235-1.194-5.059-1.196-7.313-.006a7.969 7.969 0 0 0-1.606 1.136 7.848 7.848 0 0 0-2.539 5.767 7.81 7.81 0 0 0 1.344 4.389l-1.656 1.12a9.796 9.796 0 0 1-1.688-5.509 9.854 9.854 0 0 1 3.189-7.243 10.027 10.027 0 0 1 2.016-1.425 9.749 9.749 0 0 1 4.599-1.136c1.607 0 3.197.395 4.596 1.143 2.73 1.451 4.635 4.131 5.094 7.169l.012.102a9.4 9.4 0 0 1 .104 1.39c-.003 5.407-4.402 9.805-9.808 9.805z"/> <path d="M20.565 21.984h2v8.254h-2z"/> <path d="M17.436 25.112h8.256v2h-8.256zM47.462 21.663h2v2.024h-2zM47.462 28.443h2v2.117h-2zM50.901 25.113h2.012v2h-2.012zM44.013 25.113h2.074v2h-2.074zM27.803 40.132a5.13 5.13 0 0 1-5.125-5.125c0-2.827 2.299-5.127 5.125-5.127s5.126 2.3 5.126 5.127c0 2.826-2.3 5.125-5.126 5.125zm0-8.251a3.13 3.13 0 0 0-3.125 3.127 3.129 3.129 0 0 0 3.125 3.125 3.129 3.129 0 0 0 3.126-3.125 3.13 3.13 0 0 0-3.126-3.127zM42.639 40.132a5.13 5.13 0 0 1-5.125-5.125c0-2.827 2.299-5.127 5.125-5.127s5.126 2.3 5.126 5.127c0 2.826-2.3 5.125-5.126 5.125zm0-8.251a3.13 3.13 0 0 0-3.125 3.127 3.129 3.129 0 0 0 3.125 3.125 3.129 3.129 0 0 0 3.126-3.125 3.13 3.13 0 0 0-3.126-3.127zM27.483 18.693h15.064v2H27.483z"/> <path d="M31.929 34.008h6.585v2h-6.585zM55.185 51.548a6.672 6.672 0 0 1-5.94-3.631 1.162 1.162 0 0 1-.062-.146l-4.869-9.07 1.762-.946 4.96 9.239a.907.907 0 0 1 .07.165 4.67 4.67 0 0 0 4.773 2.339 4.65 4.65 0 0 0 3.073-1.843 4.644 4.644 0 0 0 .87-3.478l-3.665-19.254 1.965-.374 3.672 19.293c.27 1.806-.171 3.569-1.235 5.003a6.637 6.637 0 0 1-4.387 2.63c-.33.048-.66.072-.987.073zM14.818 51.548a6.72 6.72 0 0 1-.987-.073 6.635 6.635 0 0 1-4.386-2.63 6.645 6.645 0 0 1-1.243-4.963l3.68-19.333 1.965.374-3.673 19.293a4.636 4.636 0 0 0 .878 3.438 4.647 4.647 0 0 0 3.072 1.843 4.67 4.67 0 0 0 4.773-2.337 1.04 1.04 0 0 1 .069-.166l5.081-9.502 1.764.943-4.99 9.331a.847.847 0 0 1-.062.15 6.673 6.673 0 0 1-5.941 3.632zM28.628 14.862h12.805v2H28.628z"/> </symbol>
<symbol id="healthcare" viewBox="0 0 70 64"> <path d="M38.009 50.979h-6.71a1 1 0 0 1-1-1v-7.723h-7.724a1 1 0 0 1-1-1v-6.711a1 1 0 0 1 1-1h7.724v-7.724a1 1 0 0 1 1-1h6.71a1 1 0 0 1 1 1v7.724h7.724a1 1 0 0 1 1 1v6.711a1 1 0 0 1-1 1h-7.724v7.723a1 1 0 0 1-1 1zm-5.71-2h4.71v-7.723a1 1 0 0 1 1-1h7.724v-4.711h-7.724a1 1 0 0 1-1-1v-7.724h-4.71v7.724a1 1 0 0 1-1 1h-7.724v4.711h7.724a1 1 0 0 1 1 1v7.723z"/> <path d="M34.655 59.476c-11.024 0-19.991-8.968-19.991-19.99 0-9.556 6.243-16.422 11.751-22.48 3.884-4.271 7.237-7.96 7.237-11.481a1.002 1.002 0 0 1 2.003 0c0 3.521 3.354 7.209 7.236 11.48l1.113 1.228a1 1 0 1 1-1.484 1.34l-1.108-1.222c-2.835-3.118-5.406-5.946-6.758-8.79-1.353 2.844-3.924 5.672-6.759 8.791-5.265 5.79-11.231 12.353-11.231 21.135 0 9.92 8.069 17.99 17.988 17.99 9.922 0 17.992-8.07 17.992-17.99 0-3.582-.988-7.063-3.021-10.643a1 1 0 0 1 1.738-.989c2.209 3.889 3.283 7.694 3.283 11.631.001 11.022-8.966 19.99-19.989 19.99z"/> <path d="M48.503 29.704a6.842 6.842 0 0 1-6.835-6.834c0-3.075 1.942-6.589 3.655-9.69 1.071-1.938 2.179-3.943 2.179-4.886a1 1 0 1 1 2 0v.001h.001v.041c.031.959 1.122 2.934 2.178 4.844 1.713 3.101 3.655 6.616 3.655 9.691a6.841 6.841 0 0 1-6.833 6.833zm0-18.234c-.399.812-.892 1.703-1.429 2.674-1.597 2.89-3.406 6.165-3.406 8.725 0 2.666 2.169 4.834 4.834 4.834s4.834-2.169 4.834-4.834c0-2.559-1.81-5.834-3.405-8.723-.537-.972-1.03-1.863-1.428-2.676z"/> </symbol>
<symbol id="icon-click" viewBox="0 0 30 43"> <path d="M5.678 10.097H.015v1.907h5.663v-1.907zm11.639 1.907h5.664v-1.907h-5.664v1.907zM12.489 0h-1.982v5.45h1.982V0zm7.829 3.911l-1.401-1.348-4.004 3.854 1.401 1.348 4.004-3.854zM8.084 6.416L4.078 2.563 2.677 3.911l4.005 3.854 1.402-1.349zM30 23.76v-.492a3.438 3.438 0 0 0-3.429-3.44 3.38 3.38 0 0 0-1.645.441c-.441-1.39-1.724-2.407-3.253-2.407a3.38 3.38 0 0 0-1.645.441c-.44-1.39-1.724-2.407-3.253-2.407-.528 0-1.022.13-1.469.345V13.44A3.438 3.438 0 0 0 11.877 10a3.439 3.439 0 0 0-3.429 3.44v14.725L6.593 24.23a3.437 3.437 0 0 0-1.952-1.79 3.421 3.421 0 0 0-2.644.112A3.475 3.475 0 0 0 .325 27.16l3.549 7.634L7.69 43h17.981l.289-.471c.165-.27 4.04-6.643 4.04-11.469v-7.3zm-1.959 0l-.017 7.3c0 3.573-2.605 8.439-3.471 9.958H8.948L2.115 26.324a1.53 1.53 0 0 1-.097-.278 1.529 1.529 0 0 1-.038-.269l-.002-.014a1.515 1.515 0 0 1 .389-1.072l.002-.002a1.473 1.473 0 0 1 .739-.437c.076-.018.153-.026.23-.033.018-.001.036-.007.054-.007.191-.008.385.022.571.091.187.068.354.17.496.299l.004.004c.141.129.256.285.338.462l3.738 7.946 1.868-.416V13.44c0-.813.659-1.475 1.469-1.475s1.469.662 1.469 1.475v12.285h1.959v-6.389c0-.813.659-1.474 1.469-1.474s1.469.661 1.469 1.474v6.389h1.959v-4.423c0-.813.659-1.474 1.469-1.474s1.469.661 1.469 1.474v4.423h1.959v-2.457c0-.813.659-1.474 1.469-1.474s1.469.661 1.469 1.474v.492z"/> </symbol>
<symbol id="infinity" viewBox="0 0 42 17"> <path d="M33.381-.012C28.096-.012 22.919 4.95 21 7.006 19.082 4.95 13.905-.012 8.619-.012 3.866-.012 0 3.807 0 8.5c0 4.694 3.866 8.512 8.619 8.512 5.328 0 10.469-4.95 12.381-7.012 1.912 2.062 7.053 7.012 12.381 7.012C38.134 17.012 42 13.194 42 8.5c0-4.693-3.866-8.512-8.619-8.512zM8.619 15.037C4.97 15.037 2 12.105 2 8.5s2.97-6.537 6.619-6.537c4.587 0 9.44 4.796 11.052 6.541-1.6 1.745-6.412 6.533-11.052 6.533zm24.762 0c-4.63 0-9.45-4.79-11.052-6.535 1.61-1.745 6.457-6.539 11.052-6.539C37.03 1.963 40 4.895 40 8.5s-2.97 6.537-6.619 6.537z"/> </symbol>
<symbol id="life-sciences" viewBox="0 0 70 64"> <path d="M44.23 58.805c-2.833 0-6.107-1.532-9.505-4.497-4.442-3.876-8.65-9.796-11.848-16.669-6.829-14.676-6.853-28.649-.056-31.813 6.793-3.164 17.472 5.855 24.301 20.532 3.198 6.873 5.016 13.904 5.121 19.798.109 6.177-1.69 10.444-5.066 12.014-.912.425-1.9.635-2.947.635zM25.787 7.19c-.758 0-1.469.146-2.122.45-5.587 2.6-5.119 15.952 1.024 29.155 3.083 6.625 7.114 12.309 11.35 16.005 3.965 3.461 7.717 4.757 10.294 3.557 2.578-1.199 4.003-4.904 3.91-10.165-.099-5.622-1.852-12.366-4.934-18.99C39.882 15.541 31.517 7.19 25.787 7.19z"/> <path d="M36.156 45.382c-.481 0-.962-.005-1.45-.016-16.183-.355-28.73-6.503-28.567-13.998.164-7.495 12.959-13.073 29.154-12.737 16.181.355 28.729 6.504 28.567 13.998-.159 7.271-12.213 12.753-27.704 12.753zm-2.239-24.766c-13.978 0-25.647 4.822-25.778 10.795-.135 6.161 12.052 11.636 26.611 11.955 14.56.302 26.975-4.619 27.11-10.781.134-6.161-12.053-11.636-26.611-11.955-.445-.009-.89-.014-1.332-.014z"/> <path d="M24.581 58.172c-1.231 0-2.378-.27-3.412-.833-6.579-3.595-5.658-17.539 2.096-31.746 3.632-6.653 8.21-12.291 12.892-15.875 4.906-3.755 9.408-4.841 12.674-3.058 6.58 3.592 5.66 17.536-2.094 31.744-6.539 11.977-15.547 19.768-22.156 19.768zm.44-31.621c-6.977 12.782-8.301 26.077-2.893 29.032 5.411 2.953 15.875-5.355 22.853-18.137 6.977-12.783 8.301-26.077 2.892-29.03-2.496-1.364-6.322-.309-10.5 2.89-4.465 3.417-8.852 8.831-12.352 15.245z"/> <path d="M34.684 37.627c-3.347 0-6.069-2.723-6.069-6.069s2.723-6.069 6.069-6.069c3.347 0 6.07 2.723 6.07 6.069s-2.723 6.069-6.07 6.069zm0-10.139c-2.244 0-4.069 1.826-4.069 4.069s1.826 4.069 4.069 4.069c2.244 0 4.07-1.826 4.07-4.069s-1.826-4.069-4.07-4.069z"/> </symbol>
<symbol id="logistics" viewBox="0 0 70 64"> <path d="M64.475 30.414h-16.26a1 1 0 0 1-1-1V8.069a1 1 0 0 1 1-1h16.26a1 1 0 0 1 1 1v21.345a1 1 0 0 1-1 1zm-15.26-2h14.26V9.069h-14.26v19.345z"/> <path d="M64.475 51.76h-16.26a1 1 0 0 1-1-1V29.414a1 1 0 0 1 1-1h16.26a1 1 0 0 1 1 1V50.76a1 1 0 0 1-1 1zm-15.26-2h14.26V30.414h-14.26V49.76zM41.262 23.764h2.076v2.076h-2.076zM36.739 23.764h2.076v2.076h-2.076zM37.525 8.069v6.078M36.525 8.069h2v6.078h-2z"/> <path d="M48.215 30.414H26.872a1 1 0 0 1-1-1V8.069a1 1 0 0 1 1-1h21.344a1 1 0 0 1 1 1v21.345c-.001.552-.448 1-1.001 1zm-20.343-2h19.344V9.069H27.872v19.345zM41.262 44.114h2.076v2.076h-2.076zM36.739 44.114h2.076v2.076h-2.076zM37.525 29.414v6.079"/> <path d="M36.525 29.414h2v6.079h-2z"/> <path d="M48.215 51.76H26.872a1 1 0 0 1-1-1V29.414a1 1 0 0 1 1-1h21.344a1 1 0 0 1 1 1V50.76c-.001.552-.448 1-1.001 1zm-20.343-2h19.344V30.414H27.872V49.76zM20.913 23.764h2.076v2.076h-2.076zM16.392 23.764h2.076v2.076h-2.076zM15.18 8.069h2v6.078h-2z"/> <path d="M23.133 30.412H5.525a1 1 0 0 1-1-1V8.066a1 1 0 0 1 1-1h17.608v2H6.525v19.346h16.608v2zM20.913 44.114h2.076v2.076h-2.076zM16.392 44.114h2.076v2.076h-2.076z"/> <path d="M15.18 29.414h2v6.079h-2z"/> <path d="M6.525 50.758h-2V29.412a1 1 0 0 1 1-1h17.608v2H6.525v20.346z"/> <path d="M5.244 49.76h59.231v2H5.244zM5.244 54.934h59.231v2H5.244z"/> <path d="M12.116 56.934H4.527V49.76h7.589v7.174zm-5.589-2h3.589V51.76H6.527v3.174zM30.665 56.934h-7.587V49.76h7.587v7.174zm-5.587-2h3.587V51.76h-3.587v3.174zM49.467 56.934h-7.59V49.76h7.59v7.174zm-5.59-2h3.59V51.76h-3.59v3.174zM65.475 56.934h-7.588V49.76h7.588v7.174zm-5.588-2h3.588V51.76h-3.588v3.174z"/> <path d="M54.666 56.934h-7.588V49.76h7.588v7.174zm-5.588-2h3.588V51.76h-3.588v3.174z"/> </symbol>
<symbol id="logo-carina" viewBox="0 0 116 136"> <path d="M116 19.917c-26.536-26.555-69.56-26.556-96.097 0C6.634 33.194 0 50.597 0 68s6.634 34.806 19.902 48.084c26.537 26.555 69.561 26.555 96.097 0L67.952 68 116 19.917z" opacity=".5" fill="#fff"/> <path d="M19.903 116.083L67.952 68 19.903 19.917C6.634 33.195 0 50.597 0 68c0 17.402 6.634 34.805 19.903 48.083z" opacity=".5" fill="#fff"/> </symbol>
<symbol id="logo-mcloud" viewBox="0 0 46 46"> <path opacity=".5" fill="#fff" d="M23 23L0 0v46h46V0z"/> <path opacity=".5" fill="#fff" d="M0 46h46L23 23z"/> </symbol>
<symbol id="logo-qaprosoft" viewBox="0 0 137 29"> <path d="M16.403 27.429l-3.071 1.347v-8.405h-.064c-1.131 1.714-2.876 2.747-5.301 2.747-4.557 0-7.466-3.49-7.466-8.049 0-4.557 2.909-7.951 7.402-7.951 2.295 0 4.137.905 5.463 2.716h.096l-.032-2.425h2.974v20.02zM8.549 9.639c-3.071 0-4.882 2.328-4.882 5.399s1.811 5.43 4.882 5.43 4.881-2.359 4.881-5.43-1.81-5.399-4.881-5.399zM32.918 22.763h-3.005l-.033-1.94c-.614.647-2.069 2.295-4.881 2.295-2.845 0-5.301-1.777-5.301-4.752 0-3.005 2.457-4.525 6.013-4.686l4.105-.162v-.614c0-2.328-1.583-3.492-3.814-3.492s-4.106 1.002-4.623 1.326l-.937-2.068c1.132-.647 3.201-1.552 5.754-1.552 2.554 0 4.041.711 5.075 1.745 1.034 1.067 1.648 2.361 1.648 4.978v8.922zm-3.069-7.37l-3.589.226c-2.488.13-3.49 1.197-3.49 2.651s1.131 2.65 3.168 2.65c2.003 0 3.329-1.357 3.911-2.23v-3.297z" fill="#5dbdff"/> <path d="M45.782 23.118c-2.424 0-4.202-1.034-5.3-2.747l-.033-.032v7.09l-3.104 1.347V7.408h2.975v2.425h.064c1.357-1.811 3.2-2.716 5.463-2.716 4.524 0 7.402 3.394 7.402 7.951 0 4.56-2.909 8.05-7.467 8.05zm-.581-13.479c-3.071 0-4.881 2.328-4.881 5.399s1.81 5.43 4.881 5.43 4.881-2.359 4.881-5.43-1.811-5.399-4.881-5.399zM65.174 10.253h-.129c-.292-.129-.84-.324-1.681-.324-1.359 0-2.199.873-2.522 1.294-.291.42-.936 1.616-.936 3.878v7.661h-3.104V7.408h3.104l-.033 2.361h.097c.743-1.747 2.133-2.651 3.781-2.651 1.035 0 1.616.259 1.616.259l-.193 2.876zM74.578 23.118c-4.59 0-8.145-3.2-8.145-7.983 0-4.752 3.555-8.017 8.145-8.017 4.558 0 8.113 3.266 8.113 8.017.001 4.783-3.554 7.983-8.113 7.983zm0-13.479c-3.102 0-5.009 2.392-5.009 5.399 0 3.038 1.907 5.43 5.009 5.43 3.071 0 4.978-2.392 4.978-5.43 0-3.007-1.907-5.399-4.978-5.399z" fill="#096fc4"/> <path d="M95.007 21.761c-1.067.873-2.49 1.357-4.266 1.357-2.587 0-4.687-1.067-5.98-2.747l1.486-1.81c1.164 1.422 3.104 2.198 4.525 2.198 1.423 0 2.942-.517 2.942-2.198s-2.425-2.198-3.459-2.554c-1.035-.355-1.39-.42-2.102-.808-.969-.485-2.424-1.487-2.424-3.685 0-2.845 2.457-4.397 5.171-4.397 2.716 0 4.268.971 5.237 2.004l-1.293 1.907c-.905-.938-2.392-1.648-3.878-1.648-1.487 0-2.457.646-2.457 1.907 0 1.26 1.486 1.81 3.005 2.295.84.291 1.423.484 2.069.743.614.259 1.326.647 1.778 1.099.583.55 1.228 1.455 1.228 2.845.001 1.487-.58 2.651-1.582 3.492zM107.061 23.118c-4.59 0-8.145-3.2-8.145-7.983 0-4.752 3.555-8.017 8.145-8.017 4.558 0 8.113 3.266 8.113 8.017 0 4.783-3.554 7.983-8.113 7.983zm0-13.479c-3.102 0-5.009 2.392-5.009 5.399 0 3.038 1.907 5.43 5.009 5.43 3.071 0 4.978-2.392 4.978-5.43 0-3.007-1.907-5.399-4.978-5.399zM126.486 2.754s-.873-.291-1.745-.291c-2.037 0-2.361 1.519-2.361 3.264v1.714h3.653V9.93h-3.653v12.833h-3.07V9.93h-2.199V7.441h2.199V5.889c0-2.004.388-3.297 1.034-4.105.679-.84 1.907-1.681 3.685-1.681s2.65.355 2.65.355l-.193 2.296zM136.5 22.601s-1.197.517-2.813.517-2.617-.614-3.264-1.583c-.647-.969-.776-2.166-.776-4.59V9.93h-2.262V7.441h2.262v-4.59l3.104-1.347v5.937h3.685V9.93h-3.685v6.951c0 1.293.032 2.166.388 2.812.291.485.71.776 1.583.776.905 0 1.583-.355 1.583-.355l.195 2.487z" fill="#001c84"/> </symbol>
<symbol id="logo-qpsinfra" viewBox="0 0 152 152"> <path d="M152 118.217l-22.778-22.814a67.502 67.502 0 0 0 5.931-27.719C135.152 30.303 104.897 0 67.576 0S0 30.303 0 67.683c0 37.38 30.255 67.683 67.576 67.683 9.994 0 19.472-2.19 28.007-6.09L118.27 152 152 118.217z" opacity=".5" fill="#fff"/> <path d="M84.541 50.651l-33.73 33.783 44.772 44.843c14.914-6.814 26.913-18.894 33.639-33.874L84.541 50.651z" opacity=".5" fill="#fff"/> </symbol>
<symbol id="logo-zafira" viewBox="0 0 136 136"> <path opacity=".5" fill="#fff" d="M136 0H0v136h136V76H60z"/> <path opacity=".5" fill="#fff" d="M0 76v60l60-60z"/> </symbol>
<symbol id="manual" viewBox="0 0 70 64"> <path d="M36.735 30.923h-3.206a1 1 0 0 1-1-1v-2.125a9.033 9.033 0 0 1-1.747-.722l-1.501 1.501a1.03 1.03 0 0 1-1.414 0L25.6 26.311a.999.999 0 0 1 0-1.414l1.501-1.501a9.02 9.02 0 0 1-.723-1.748h-2.125a1.004 1.004 0 0 1-1-1.001l.001-3.206a1 1 0 0 1 1-1h2.124c.18-.608.422-1.191.723-1.747l-1.501-1.5a.999.999 0 0 1 0-1.414l2.267-2.267a1.03 1.03 0 0 1 1.414 0l1.501 1.501a9.096 9.096 0 0 1 1.747-.722V8.168a1 1 0 0 1 1-1l3.205-.001a1.003 1.003 0 0 1 1 1v2.124a8.96 8.96 0 0 1 1.748.724l1.501-1.501a1.03 1.03 0 0 1 1.414 0l2.267 2.267a.999.999 0 0 1 0 1.414l-1.501 1.501c.302.556.543 1.14.723 1.747h2.124a1 1 0 0 1 1 1v3.206a.997.997 0 0 1-1 1h-2.124a9.08 9.08 0 0 1-.723 1.746l1.501 1.501a.999.999 0 0 1 0 1.414l-2.267 2.267a1.03 1.03 0 0 1-1.414 0l-1.501-1.501a9.071 9.071 0 0 1-1.748.723l.001 2.124a1 1 0 0 1-1 1zm-2.206-2h1.206l-.001-1.906a1 1 0 0 1 .804-.981 7.091 7.091 0 0 0 2.545-1.052 1.001 1.001 0 0 1 1.261.125l1.347 1.347.853-.853-1.347-1.347a1 1 0 0 1-.126-1.261 7.067 7.067 0 0 0 1.053-2.543 1 1 0 0 1 .98-.805h1.906v-1.206h-1.906a.998.998 0 0 1-.98-.805 7.06 7.06 0 0 0-1.052-2.542 1 1 0 0 1 .125-1.262l1.347-1.347-.853-.853-1.347 1.347a1 1 0 0 1-1.263.125 7.022 7.022 0 0 0-2.543-1.053 1 1 0 0 1-.804-.98V9.168h-1.205v1.906a.998.998 0 0 1-.804.98 7.088 7.088 0 0 0-2.543 1.052 1.001 1.001 0 0 1-1.262-.125l-1.347-1.347-.853.853 1.347 1.347a1 1 0 0 1 .125 1.262 7.09 7.09 0 0 0-1.053 2.544 1 1 0 0 1-.98.803h-1.905l-.001 1.206h1.907c.477 0 .888.337.98.804a7.05 7.05 0 0 0 1.052 2.543 1 1 0 0 1-.125 1.262l-1.347 1.347.853.853 1.347-1.347a.998.998 0 0 1 1.262-.125 7.036 7.036 0 0 0 2.543 1.051 1 1 0 0 1 .804.98v1.906zm.603-5.612a4.234 4.234 0 0 1-3.017-1.25 4.27 4.27 0 0 1 0-6.032 4.27 4.27 0 0 1 6.032 0 4.27 4.27 0 0 1 0 6.032 4.234 4.234 0 0 1-3.015 1.25zm0-6.53a2.26 2.26 0 0 0-1.603.663 2.269 2.269 0 0 0 0 3.204c.857.858 2.35.855 3.204 0a2.269 2.269 0 0 0 0-3.204 2.255 2.255 0 0 0-1.601-.663z"/> <path d="M50.384 25.054a1.001 1.001 0 0 1-.951-1.312 14.99 14.99 0 0 0-3.66-15.34A14.956 14.956 0 0 0 35.13 3.993c-4.021 0-7.8 1.565-10.643 4.408a.999.999 0 1 1-1.414-1.414A16.94 16.94 0 0 1 35.13 1.993h.001c4.555 0 8.837 1.774 12.057 4.995a16.978 16.978 0 0 1 4.146 17.377.998.998 0 0 1-.95.689zM35.131 36.098a16.94 16.94 0 0 1-12.058-4.995c-4.572-4.572-6.161-11.232-4.146-17.381a1.001 1.001 0 0 1 1.901.623 14.995 14.995 0 0 0 3.66 15.344 14.954 14.954 0 0 0 10.644 4.409c4.021 0 7.8-1.566 10.644-4.41a.999.999 0 1 1 1.414 1.414 16.95 16.95 0 0 1-12.059 4.996z"/> <path d="M50.317 25.122a.999.999 0 0 1-.707-1.707l5.144-5.144a.999.999 0 1 1 1.414 1.414l-5.144 5.144a.997.997 0 0 1-.707.293zM14.54 20.372a.999.999 0 0 1-.707-1.707l5.144-5.143a.999.999 0 1 1 1.414 1.414l-5.144 5.143a1 1 0 0 1-.707.293zM38.121 62.006h-2v-9.524c0-3.493 5.264-8.08 11.928-13.887l1.807-1.577c.556-.486 4.363-4.032 4.401-4.068a1 1 0 0 1 1.287-.064c.085.065 2.084 1.612 2.255 4.122.118 1.742-.654 3.457-2.295 5.098L48.99 48.62l-1.414-1.414 6.514-6.514c1.214-1.214 1.791-2.408 1.713-3.548-.06-.883-.503-1.604-.888-2.073-1.144 1.064-3.312 3.077-3.742 3.453l-1.811 1.581c-5.526 4.816-11.241 9.796-11.241 12.379v9.522z"/> <path d="M51.707 62.006h-2v-2.908c0-1.137 1.878-3.475 13.009-14.319.804-.782 1.462-1.424 1.893-1.852.421-1.355 1.581-10.055 2.521-18.055-.605-.217-1.586-.436-2.475-.036-1.044.468-1.788 1.703-2.211 3.668-1.521 7.07-2.188 8.704-2.215 8.77-.051.12-.124.229-.216.321l-10.32 10.321-1.414-1.414 10.165-10.166c.188-.548.825-2.586 2.045-8.253.566-2.632 1.699-4.342 3.367-5.081 2.339-1.037 4.753.333 4.854.391a1 1 0 0 1 .492.981c-2.216 19.004-2.762 19.549-3.055 19.842-.427.427-1.143 1.125-2.036 1.995-3.213 3.131-11.686 11.386-12.404 12.999v2.796zm-.023-2.74z"/> <g> <path d="M33.879 62.006h-2v-9.524c0-2.583-5.715-7.563-11.241-12.379l-1.812-1.581c-.43-.376-2.597-2.389-3.741-3.453-.387.472-.834 1.2-.889 2.09-.071 1.135.506 2.323 1.714 3.531l6.514 6.514-1.414 1.414-6.514-6.514c-1.641-1.641-2.413-3.356-2.295-5.098.171-2.51 2.17-4.057 2.255-4.122.387-.293.93-.267 1.287.064.038.036 3.847 3.583 4.401 4.068l1.807 1.577C28.615 44.4 33.879 48.987 33.879 52.48v9.526z"/> <path d="M20.293 62.006h-2V59.21c-.718-1.612-9.191-9.868-12.404-12.999-.894-.87-1.609-1.567-2.036-1.995-.293-.293-.839-.838-3.055-19.842a1 1 0 0 1 .492-.981c.101-.06 2.512-1.429 4.854-.391 1.668.739 2.801 2.448 3.367 5.081 1.217 5.655 1.853 7.697 2.045 8.254l10.165 10.165-1.414 1.414-10.32-10.321a.986.986 0 0 1-.216-.322c-.027-.066-.692-1.7-2.214-8.77-.423-1.965-1.167-3.2-2.212-3.668-.886-.398-1.87-.18-2.475.037.94 8 2.101 16.699 2.521 18.054.431.428 1.089 1.07 1.893 1.852C18.415 55.623 20.293 57.96 20.293 59.097v2.909zm-1.977-2.74z"/> </g> </symbol>
<symbol id="manufacturing" viewBox="0 0 70 64"> <path d="M63.213 55.103h-2V43.968a5.573 5.573 0 0 0-5.566-5.567v-2c4.172 0 7.566 3.395 7.566 7.567v11.135z"/> <path d="M59.346 55.006h-2V44.872a2.286 2.286 0 0 0-2.283-2.284v-2a4.288 4.288 0 0 1 4.283 4.284v10.134z"/> <path d="M54.953 55.399H19.739a1 1 0 0 1-1-1V35.353c0-.265.105-.52.293-.707l11.752-11.751a.998.998 0 0 1 1.707.707v9.337l10.045-10.044a.998.998 0 0 1 1.707.707v9.337l10.045-10.044a.998.998 0 0 1 1.707.707v11.753l-.043 19.046a1 1 0 0 1-.999.998zm-34.214-2h33.216l.041-27.383L43.95 36.06a1 1 0 0 1-1.707-.707v-9.337L32.198 36.06a1 1 0 0 1-1.707-.707v-9.337l-9.752 9.751v17.632z"/> <path d="M19.739 55.399H7.787a1 1 0 0 1-1-1V25.142c0-.071.007-.142.022-.211l3.223-14.919c.1-.46.507-.789.978-.789h5.505c.473 0 .881.332.979.794l3.224 15.322c.014.068.021.137.021.206v28.854a1 1 0 0 1-1 1zm-10.952-2h9.952v-27.75l-3.036-14.426h-3.886l-3.03 14.026v28.15z"/> <path d="M19.739 55.399H7.787a1 1 0 0 1-1-1V25.142c0-.071.007-.142.022-.211l3.223-14.919c.1-.46.507-.789.978-.789h5.505c.473 0 .881.332.979.794l3.224 15.322c.014.068.021.137.021.206v28.854a1 1 0 0 1-1 1zm-10.952-2h9.952v-27.75l-3.036-14.426h-3.886l-3.03 14.026v28.15zM49.831 19.109h-2v-1.637a2.463 2.463 0 0 0-3.509-2.224 1 1 0 1 1-1.197-1.545 1.893 1.893 0 0 0-1.451-3.102h-5.095v-2h5.095a3.895 3.895 0 0 1 3.855 4.415 4.465 4.465 0 0 1 4.301 4.456v1.637z"/> <path d="M7.787 24.142h11.952v2H7.787zM47.807 20.957h2v8.833h-2zM12.762 29.79h2v2.521h-2zM12.762 34.27h2v2.521h-2zM12.762 38.751h2v2.521h-2zM12.762 43.231h2v2.521h-2zM25.485 43.991h-2v-3.98a1 1 0 0 1 1-1h3.98v2h-2.98v2.98zM32.811 43.991h-2v-3.98a1 1 0 0 1 1-1h3.98v2h-2.98v2.98zM40.136 43.991h-2v-3.98a1 1 0 0 1 1-1h3.979v2h-2.979v2.98zM47.461 43.991h-2v-3.98a1 1 0 0 1 1-1h3.98v2h-2.98v2.98zM25.485 50.74h-2v-3.98a1 1 0 0 1 1-1h3.98v2h-2.98v2.98zM32.811 50.74h-2v-3.98a1 1 0 0 1 1-1h3.98v2h-2.98v2.98zM40.136 50.74h-2v-3.98a1 1 0 0 1 1-1h3.979v2h-2.979v2.98zM47.461 50.74h-2v-3.98a1 1 0 0 1 1-1h3.98v2h-2.98v2.98zM30.542 8.601h4.182v2h-4.182zM24.577 8.601h2.177v2h-2.177zM28.465 11.991h4.168v2h-4.168z"/> </symbol>
<symbol id="marketing" viewBox="0 0 70 64"> <path d="M21.701 35.531H9.853a1 1 0 0 1-1-1V21.738a1 1 0 0 1 1-1h11.848a1 1 0 0 1 1 1V34.53a1 1 0 0 1-1 1.001zm-10.848-2h9.848V22.738h-9.848v10.793z"/> <path d="M9.853 32.703H5.627a1 1 0 0 1-1-1v-7.275a1 1 0 0 1 1-1h4.226a1 1 0 0 1 1 1v7.275a1 1 0 0 1-1 1zm-3.226-2h2.226v-5.275H6.627v5.275zM47.696 47.653a.998.998 0 0 1-.423-.094L21.278 35.437a1 1 0 0 1-.577-.906V21.738c0-.389.225-.742.577-.906L47.273 8.709a1 1 0 0 1 1.423.906v37.038a.997.997 0 0 1-1 1zm-24.995-13.76l23.995 11.19V11.185l-23.995 11.19v11.518z"/> <path d="M28.19 55.384h-8.068c-.397 0-.757-.235-.917-.6L10.526 34.93a1 1 0 0 1 .917-1.401h8.068c.397 0 .757.235.917.6l8.679 19.854a1 1 0 0 1-.917 1.401zm-7.414-2h5.885L18.856 35.53h-5.885l7.805 17.854zM47.696 35.236v-2c2.852 0 5.172-2.32 5.172-5.172s-2.32-5.172-5.172-5.172v-2c3.955 0 7.172 3.217 7.172 7.172s-3.217 7.172-7.172 7.172zM56.495 36.791l-1.414-1.414a10.38 10.38 0 0 0 3.06-7.386c0-2.79-1.086-5.413-3.06-7.386l1.414-1.414a12.365 12.365 0 0 1 3.646 8.8c0 3.324-1.295 6.449-3.646 8.8z"/> <path d="M60.195 40.491l-1.414-1.414a15.575 15.575 0 0 0 4.592-11.085c0-4.188-1.631-8.125-4.592-11.085l1.414-1.414a17.56 17.56 0 0 1 5.178 12.5 17.56 17.56 0 0 1-5.178 12.498z"/> </symbol>
<symbol id="mcloud-perform" viewBox="0 0 70 64"> <path d="M49.265 10.535h6.373v2h-6.373zM15.888 29.147h-3.327v-2h2.729l3.004-5.615a1 1 0 0 1 .882-.528h.016l5.027.077 2.354-5.119a1 1 0 0 1 .908-.582h4.06l4.335-4.536a.999.999 0 0 1 .723-.309h5.556v2h-5.128l-4.335 4.536a.999.999 0 0 1-.723.309h-3.847l-2.358 5.128c-.165.36-.482.577-.924.582l-5.07-.078-2.999 5.605c-.175.327-.514.53-.883.53zM.402 27.147h6.533v2H.402z"/> <path d="M29.817 48.434a24.058 24.058 0 0 1-17.124-7.093C8.12 36.767 5.6 30.686 5.601 24.218 5.6 17.749 8.12 11.668 12.693 7.094A24.058 24.058 0 0 1 29.817.001c13.353 0 24.216 10.863 24.217 24.216-.001 13.354-10.865 24.217-24.217 24.217zm0-46.433a22.071 22.071 0 0 0-15.71 6.507c-4.195 4.196-6.506 9.775-6.506 15.709s2.311 11.513 6.506 15.709a22.071 22.071 0 0 0 15.71 6.507c12.249 0 22.216-9.966 22.217-22.216-.001-12.249-9.968-22.216-22.217-22.216zm0 40.911c-10.308 0-18.693-8.386-18.693-18.694 0-10.307 8.386-18.693 18.693-18.693 10.308 0 18.693 8.386 18.693 18.693 0 10.308-8.385 18.694-18.693 18.694zm0-35.388c-9.205 0-16.693 7.489-16.693 16.693 0 9.205 7.488 16.694 16.693 16.694S46.51 33.423 46.51 24.218c0-9.205-7.488-16.693-16.693-16.694zM64.369 63.999c-1.34 0-2.68-.51-3.699-1.529L47.818 49.617a.999.999 0 0 1 0-1.414l5.983-5.985a1.03 1.03 0 0 1 1.414 0L68.069 55.07a5.239 5.239 0 0 1-.001 7.399 5.214 5.214 0 0 1-3.699 1.53zM49.939 48.91l12.145 12.145c1.26 1.259 3.311 1.259 4.57 0s1.261-3.311.001-4.57L54.508 44.34l-4.569 4.57zm17.422 12.852h.01-.01z"/> <path d="M51.516 46.918a.997.997 0 0 1-.707-.293l-5.292-5.292a.999.999 0 1 1 1.414-1.414l5.292 5.292a.999.999 0 0 1-.707 1.707zM54.11 50.044l1.528-1.527 1.527 1.528-1.528 1.527zM57.147 53.08l1.527-1.527 1.527 1.528-1.527 1.527zM60.272 56.195l1.528-1.527 1.528 1.529-1.528 1.527z"/> <g> <path d="M19.995 29.038h2v5.053h-2zM24.451 25.693h2v8.398h-2zM28.906 21.917h2v12.174h-2zM33.361 19.149h2v14.943h-2zM37.816 15.255h2v18.836h-2z"/> </g> </symbol>
<symbol id="mcloud-platforms" viewBox="0 0 70 64"> <path d="M34.742 46.467H9.144a2.352 2.352 0 0 1-2.349-2.35v-32.38a2.352 2.352 0 0 1 2.349-2.35h47.334a2.351 2.351 0 0 1 2.348 2.35v5.68h-2v-5.68a.346.346 0 0 0-.348-.35H9.144a.35.35 0 0 0-.349.35v32.38c0 .193.157.35.349.35h25.598v2zM21.302 52.612h13.899v2H21.302z"/> <path d="M7.795 14.322h50.032v2H7.795zM7.795 37.121h26.774v2H7.795zM26.037 33.638H12.374V19.976h13.663v13.662zm-11.663-2h9.663v-9.663h-9.663v9.663zM29.865 19.976h5.336v2h-5.336zM29.865 31.638h5.336v2h-5.336zM29.865 27.751h5.336v2h-5.336zM29.865 23.863h5.336v2h-5.336zM50.366 54.612h-9.573c-1.845 0-3.236-1.535-3.236-3.569V22.987c0-1.521 1.542-2.906 3.236-2.906h19.173c1.694 0 3.238 1.385 3.238 2.906v5.044h-2v-5.044c0-.31-.523-.906-1.238-.906H40.794c-.714 0-1.236.596-1.236.906v28.056c0 .938.497 1.569 1.236 1.569h9.573v2z"/> <path d="M50.02 47.499h-7.713a1 1 0 0 1-1-1V24.862a1 1 0 0 1 1-1h16.147a1 1 0 0 1 1 1v3.227h-2v-2.227H43.307v19.637h6.713v2z"/> <g> <path d="M59.969 54.612H49.704v-2h10.265c.739 0 1.236-.631 1.236-1.569V22.987c0-.31-.522-.906-1.236-.906H40.795c-.715 0-1.237.596-1.237.906v5.044h-2v-5.044c0-1.521 1.543-2.906 3.237-2.906h19.173c1.694 0 3.236 1.385 3.236 2.906v28.056c.001 2.035-1.39 3.569-3.235 3.569z"/> <path d="M58.455 47.499H47.266v-2h10.189V25.862H43.308v2.227h-2v-3.227a1 1 0 0 1 1-1h16.147a1 1 0 0 1 1 1v21.637a1 1 0 0 1-1 1z"/> </g> <path d="M31.769 45.467h2v8.145h-2zM51.506 50.066a1.125 1.125 0 1 1-2.25-.001 1.125 1.125 0 0 1 2.25.001z"/> </symbol>
<symbol id="mcloud-results" viewBox="0 0 70 64"> <path d="M28.054 52.032H5.537V8.333h53.201v8.729h-2v-6.729H7.537v39.699h20.517z"/> <path d="M58.738 18.062H5.537V8.333h53.201v9.729zm-51.201-2h49.201v-5.729H7.537v5.729z"/> <path d="M11.712 12.258h1.88v1.884h-1.88zM42.672 12.258h1.881v1.884h-1.881zM46.469 12.258h1.884v1.884h-1.884zM50.308 12.258h1.884v1.884h-1.884zM11.919 20.761h9.457v2h-9.457zM15.557 24.756H25.95v2H15.557zM15.557 28.912h5.196v2h-5.196zM22.552 28.912h4.136v2h-4.136zM15.557 32.758h7.663v2h-7.663zM11.919 36.941h9.457v2h-9.457zM15.557 40.936h4.583v2h-4.583zM12.652 44.741h4.583v2h-4.583zM22.552 40.936h4.136v2h-4.136z"/> <g> <path d="M49.015 50.492H45.81a1 1 0 0 1-1-1v-2.123a9.016 9.016 0 0 1-1.748-.725l-1.502 1.502a.996.996 0 0 1-1.414 0l-2.266-2.267a.999.999 0 0 1 0-1.414l1.501-1.502a8.967 8.967 0 0 1-.724-1.747h-2.123a1 1 0 0 1-1-1V37.01a1 1 0 0 1 1-1h2.123c.18-.605.421-1.189.724-1.746l-1.501-1.502a.999.999 0 0 1 0-1.414l2.266-2.267a1.03 1.03 0 0 1 1.414 0l1.501 1.501a9.047 9.047 0 0 1 1.749-.724v-2.123a1 1 0 0 1 1-1h3.205a1 1 0 0 1 1 1v2.123c.606.18 1.189.422 1.745.724l1.503-1.501a.999.999 0 0 1 1.414 0l2.267 2.267a1 1 0 0 1 0 1.415l-1.502 1.501c.302.555.544 1.139.724 1.746h2.123a1 1 0 0 1 1 1v3.206a1 1 0 0 1-1 1h-2.123a8.981 8.981 0 0 1-.725 1.747l1.503 1.501a1 1 0 0 1 0 1.415l-2.267 2.267a.999.999 0 0 1-1.414 0l-1.503-1.502a9.015 9.015 0 0 1-1.745.725v2.123a1 1 0 0 1-1 1zm-2.205-2h1.205v-1.905a1 1 0 0 1 .804-.98 7.044 7.044 0 0 0 2.541-1.055.999.999 0 0 1 1.262.125l1.349 1.348.853-.853-1.349-1.348a1 1 0 0 1-.125-1.262 7.058 7.058 0 0 0 1.055-2.542 1 1 0 0 1 .98-.803h1.904v-1.206h-1.904a.998.998 0 0 1-.98-.803 7.05 7.05 0 0 0-1.055-2.542 1 1 0 0 1 .125-1.262l1.349-1.348-.853-.853-1.349 1.348a1.004 1.004 0 0 1-1.262.125 7.027 7.027 0 0 0-2.541-1.054 1 1 0 0 1-.804-.98v-1.904H46.81v1.904a1 1 0 0 1-.805.98 7.059 7.059 0 0 0-2.544 1.054 1.002 1.002 0 0 1-1.262-.125l-1.347-1.347-.852.853 1.347 1.348c.337.337.39.865.125 1.261a7.069 7.069 0 0 0-1.054 2.542 1 1 0 0 1-.98.804h-1.904v1.206h1.904c.477 0 .887.336.98.804a7.065 7.065 0 0 0 1.055 2.543 1 1 0 0 1-.126 1.261L40 45.174l.852.853 1.349-1.348a1 1 0 0 1 1.263-.125 7.02 7.02 0 0 0 2.542 1.054 1 1 0 0 1 .804.98v1.904zm.601-5.613c-2.353 0-4.266-1.914-4.266-4.266s1.913-4.266 4.266-4.266 4.266 1.914 4.266 4.266-1.913 4.266-4.266 4.266zm0-6.531c-1.249 0-2.266 1.016-2.266 2.266s1.017 2.266 2.266 2.266 2.266-1.016 2.266-2.266-1.017-2.266-2.266-2.266z"/> <path d="M31.359 39.614a1 1 0 0 1-1-1c0-9.402 7.649-17.051 17.052-17.051a16.978 16.978 0 0 1 15.22 9.356 1 1 0 0 1-1.785.904 14.984 14.984 0 0 0-13.435-8.259c-8.3 0-15.052 6.752-15.052 15.051a1 1 0 0 1-1 .999zM47.411 55.667c-6.466 0-12.299-3.586-15.223-9.358a1.001 1.001 0 0 1 1.785-.904 14.993 14.993 0 0 0 13.438 8.262c8.3 0 15.052-6.753 15.052-15.053a1 1 0 1 1 2 0c0 9.403-7.65 17.053-17.052 17.053z"/> <path d="M61.738 32.466a1 1 0 0 1-1-1v-7.274a1 1 0 1 1 2 0v7.274a1 1 0 0 1-1 1zM33.081 54.405a1 1 0 0 1-1-1v-7.273a1 1 0 1 1 2 0v7.273a1 1 0 0 1-1 1z"/> </g> <path d="M28.177 24.756h2.78v2h-2.78z"/> </symbol>
<symbol id="media" viewBox="0 0 70 64"> <path d="M50.932 48.478H6.09a1 1 0 0 1-1-1V10.357a1 1 0 0 1 1-1h54.334a1 1 0 0 1 1 1v20.439h-2V11.357H7.09v35.121h43.842v2zM12.504 52.643h38.601v2H12.504z"/> <path d="M17.113 47.478h2v6.165h-2zM47.336 47.478h2v6.165h-2zM50.672 42.937H8.921V13.473h48.721v17.409h-2V15.473H10.921v25.464h39.751zM32.128 43.749h2.365v2h-2.365z"/> <path d="M63.91 54.643H53.722a1 1 0 0 1-1-1V33.744a1 1 0 0 1 1-1H63.91a1 1 0 0 1 1 1v19.899a1 1 0 0 1-1 1zm-9.188-2h8.188V34.744h-8.188v17.899z"/> <path d="M55.941 42.285h2v1.944h-2zM55.941 37.151h2v1.944h-2zM59.69 42.285h2v1.944h-2zM55.941 47.015h2v1.944h-2zM59.69 47.015h2v1.944h-2z"/> </symbol>
<symbol id="museums" viewBox="0 0 70 64"> <path d="M21.425 23.472c-.323 0-.647-.021-.973-.065a7.1 7.1 0 0 1-4.729-2.752c-2.902-3.808-2.167-9.27 1.641-12.176a10.593 10.593 0 0 1 5.818-2.156l23.394-.002c2.172.125 4.184.871 5.876 2.157 3.809 2.907 4.544 8.369 1.641 12.177-2.386 3.133-6.882 3.743-10.021 1.354-2.592-1.981-3.094-5.701-1.121-8.295a4.948 4.948 0 0 1 6.92-.938c.883.673 1.449 1.648 1.597 2.747s-.143 2.189-.816 3.069a.999.999 0 1 1-1.588-1.215 2.13 2.13 0 0 0 .422-1.588 2.125 2.125 0 0 0-.826-1.421 2.944 2.944 0 0 0-4.117.558 3.932 3.932 0 0 0 .743 5.494 5.158 5.158 0 0 0 7.218-.977 6.698 6.698 0 0 0-1.262-9.374 8.623 8.623 0 0 0-4.723-1.75l-23.278.002a8.57 8.57 0 0 0-4.665 1.749c-2.93 2.236-3.496 6.441-1.262 9.373a5.113 5.113 0 0 0 3.406 1.983 5.115 5.115 0 0 0 3.812-1.007 3.927 3.927 0 0 0 .742-5.493 2.94 2.94 0 0 0-4.115-.557 2.133 2.133 0 0 0-.827 1.423 2.128 2.128 0 0 0 .421 1.586 1 1 0 1 1-1.588 1.215 4.108 4.108 0 0 1-.815-3.066 4.12 4.12 0 0 1 1.598-2.749 4.945 4.945 0 0 1 6.918.936 5.928 5.928 0 0 1-1.121 8.295 7.108 7.108 0 0 1-4.32 1.463z"/> <path d="M46.865 46.348H23.119a1 1 0 0 1-1-1V22.472a1 1 0 1 1 2 0v21.876h21.746V22.472a1 1 0 1 1 2 0v22.876a1 1 0 0 1-1 1zM42.774 18.819H27.127a1 1 0 1 1 0-2h15.646a1 1 0 0 1 .001 2z"/> <path d="M33.909 22.472h2v17.613h-2zM28.072 27.05h2v13.035h-2zM39.746 27.05h2v13.035h-2zM50.245 51.499H19.914a1 1 0 0 1-1-1v-5.15a1 1 0 0 1 1-1h30.331a1 1 0 0 1 1 1v5.15a1 1 0 0 1-1 1zm-29.331-2h28.331v-3.15H20.914v3.15z"/> <path d="M55.051 57.679H15.792a1 1 0 0 1-1-1v-6.181a1 1 0 0 1 1-1h39.259a1 1 0 0 1 1 1v6.181a1 1 0 0 1-1 1zm-38.259-2h37.259v-4.181H16.792v4.181zM29.072 11.572h11.674v2H29.072z"/> </symbol>
<symbol id="online-learning" viewBox="0 0 70 64"> <path d="M61.592 46.684h-2V15.918H11.064v30.766h-2V14.918a1 1 0 0 1 1-1h50.527a1 1 0 0 1 1 1v31.766z"/> <path d="M66.381 46.684h-2V12.319a.615.615 0 0 0-.614-.614H7.154a.614.614 0 0 0-.614.614v34.364h-2V12.319a2.617 2.617 0 0 1 2.614-2.614h56.612a2.617 2.617 0 0 1 2.614 2.614v34.365z"/> <path d="M62.34 54.294H7.659c-4.022 0-5.979-1.286-5.979-3.93v-3.681a1 1 0 0 1 1-1h24.063a1 1 0 0 1 1 1c0 .657.534 1.191 1.191 1.191H42c.657 0 1.192-.534 1.192-1.191a1 1 0 0 1 1-1h23.125a1 1 0 0 1 1 1v3.681c.002 2.645-1.954 3.93-5.977 3.93zm-58.659-6.61v2.681c0 .674 0 1.93 3.979 1.93h54.68c3.979 0 3.979-1.255 3.979-1.93v-2.681H45.034a3.199 3.199 0 0 1-3.032 2.191H28.936c-1.41 0-2.61-.92-3.031-2.191H3.681zM53.233 33.981H42.491a4.107 4.107 0 0 1-3.989-3.082l-3.359-.248a1 1 0 0 1-.582-1.752l3.8-3.297v-2.529a4.135 4.135 0 0 1 4.131-4.129h10.742a4.136 4.136 0 0 1 4.131 4.129v6.778a4.137 4.137 0 0 1-4.132 4.13zm-15.545-5.148l1.757.13a1 1 0 0 1 .926.961 2.12 2.12 0 0 0 2.121 2.056h10.742a2.133 2.133 0 0 0 2.131-2.13v-6.778a2.132 2.132 0 0 0-2.131-2.129H42.491a2.132 2.132 0 0 0-2.131 2.129v2.985a1 1 0 0 1-.345.755l-2.327 2.021z"/> <path d="M49.957 25.462h1.979v2h-1.979zM46.883 25.462h1.98v2h-1.98zM43.81 25.462h1.98v2h-1.98z"/> <g> <path d="M27.302 31.753a6.428 6.428 0 0 1-6.42-6.422c0-3.54 2.88-6.42 6.42-6.42a6.427 6.427 0 0 1 6.419 6.42 6.427 6.427 0 0 1-6.419 6.422zm0-10.842a4.425 4.425 0 0 0-4.42 4.42 4.426 4.426 0 0 0 4.42 4.422 4.425 4.425 0 0 0 4.419-4.422 4.425 4.425 0 0 0-4.419-4.42zM41.926 43.456h-2c0-4.374-3.559-7.933-7.933-7.933h-9.385c-4.374 0-7.933 3.559-7.933 7.933h-2c0-5.477 4.456-9.933 9.933-9.933h9.385c5.477 0 9.933 4.456 9.933 9.933z"/> <path d="M26.298 36.657h2.008v2.008h-2.008zM26.301 39.881h2v3.574h-2z"/> </g> </symbol>
<symbol id="prototype" viewBox="0 0 40 35"> <path d="M0 0v35h40V0H0zm38 33.001H2V2h36v31.001zM20 6H6v12h14V6zm-2 10H8V8h10v8zm16 5H6v8h28v-8zm-2 6H8v-4h24v4zm2-21H22v2h12V6zm0 4H22v2h12v-2zm-4 4h-8v2h8v-2z"/> </symbol>
<symbol id="roadmap" viewBox="0 0 38 32"> <path d="M7.961 13.075c0-1.102-.891-1.996-1.991-1.996s-1.992.893-1.992 1.996.892 1.996 1.992 1.996 1.991-.893 1.991-1.996zm2.914 3.631a5.961 5.961 0 0 0 1.07-3.419c0-3.302-2.68-5.988-5.974-5.988S-.003 9.985-.003 13.287c0 1.23.37 2.412 1.07 3.419l4.905 7.06 4.903-7.06zm-8.888-3.419c0-2.201 1.786-3.992 3.983-3.992a3.992 3.992 0 0 1 3.271 6.271L5.97 20.273l-3.271-4.707a3.976 3.976 0 0 1-.712-2.279zM35.017-.002a2.994 2.994 0 0 0-2.987 2.994c0 .01.003.019.003.029L20.565 6.834a2.963 2.963 0 0 0-2.288-1.094 2.994 2.994 0 0 0-2.987 2.994 2.987 2.987 0 0 0 2.832 2.978l2.845 9.133a2.987 2.987 0 0 0-1.243 2.42c0 .01.003.019.003.029L8.258 27.107a2.965 2.965 0 0 0-2.288-1.093 2.994 2.994 0 0 0 0 5.988 2.994 2.994 0 0 0 2.987-2.994l-.003-.03 11.467-3.812a2.967 2.967 0 0 0 2.289 1.094 2.987 2.987 0 1 0 .164-5.972l-2.847-9.139a2.986 2.986 0 0 0 1.236-2.414c0-.01-.003-.019-.003-.029l11.468-3.812a2.965 2.965 0 0 0 2.288 1.093 2.994 2.994 0 0 0 2.987-2.994 2.993 2.993 0 0 0-2.986-2.995zM5.97 30.006a.998.998 0 0 1 0-1.996.998.998 0 0 1 0 1.996zm16.741-7.738a.998.998 0 0 1 0 1.996.998.998 0 0 1 0-1.996zM18.277 9.733a.998.998 0 0 1 0-1.996.998.998 0 0 1 0 1.996zm16.74-5.743a.998.998 0 0 1 0-1.996.998.998 0 0 1 0 1.996z"/> </symbol>
<symbol id="scheduled" viewBox="0 0 70 64"> <path d="M55.782 58.25H3.609a1 1 0 0 1-1-1V18.801a1 1 0 0 1 1-1h52.173a1 1 0 0 1 1 1v5.85h-2v-4.85H4.609V56.25h50.173v-4.847h2v5.847a1 1 0 0 1-1 1z"/> <path d="M56.782 19.801H2.609V12.3a2.667 2.667 0 0 1 2.664-2.664h48.846a2.667 2.667 0 0 1 2.664 2.664v7.501zm-52.173-2h50.173V12.3a.665.665 0 0 0-.664-.664H5.272a.665.665 0 0 0-.664.664v5.501z"/> <path d="M9.794 15.523a1 1 0 0 1-1-1V6.75a1 1 0 0 1 2 0v7.774a1 1 0 0 1-1 .999zM19.745 15.523a1 1 0 0 1-1-1V6.75a1 1 0 0 1 2 0v7.774a1 1 0 0 1-1 .999zM29.695 15.523a1 1 0 0 1-1-1V6.75a1 1 0 0 1 2 0v7.774a.999.999 0 0 1-1 .999zM39.646 15.523a1 1 0 0 1-1-1V6.75a1 1 0 0 1 2 0v7.774a1 1 0 0 1-1 .999zM49.597 15.523a1 1 0 0 1-1-1V6.75a1 1 0 0 1 2 0v7.774a1 1 0 0 1-1 .999zM9.742 32.008h2.275v2.274H9.742zM9.742 37.362h2.275v2.275H9.742zM9.742 42.716h2.275v2.274H9.742zM9.742 48.067h2.275v2.276H9.742zM16.719 32.008h2.274v2.274h-2.274zM16.719 37.362h2.274v2.275h-2.274zM16.719 42.716h2.274v2.274h-2.274zM16.719 48.067h2.274v2.276h-2.274z"/> <g> <path d="M23.696 32.008h2.275v2.274h-2.275zM23.696 37.362h2.275v2.275h-2.275zM23.696 42.716h2.275v2.274h-2.275zM23.696 48.067h2.275v2.276h-2.275z"/> </g> <g> <path d="M30.672 32.008h2.275v2.274h-2.275zM30.672 37.362h2.275v2.275h-2.275zM30.672 42.716h2.275v2.274h-2.275zM30.672 48.067h2.275v2.276h-2.275z"/> </g> <path d="M12.273 26.171h16.492v2H12.273z"/> <g> <path d="M52.654 52.764c-8.126 0-14.737-6.612-14.737-14.739 0-8.126 6.611-14.737 14.737-14.737s14.737 6.611 14.737 14.737c0 8.127-6.611 14.739-14.737 14.739zm0-27.475c-7.023 0-12.737 5.714-12.737 12.737 0 7.024 5.714 12.739 12.737 12.739s12.737-5.714 12.737-12.739c0-7.024-5.714-12.737-12.737-12.737z"/> <path d="M57.132 39.502h-5.079l-3.282-6.244a1 1 0 0 1 1.771-.931l2.719 5.175h3.871a1 1 0 0 1 0 2zM51.658 27.171h2v3.543h-2zM41.498 37.502h3.671v2h-3.671zM51.658 45.978h2v3.504h-2zM60.855 37.502h2.954v2h-2.954zM58.583 30.987l1.252-1.254 1.415 1.413-1.252 1.254zM43.934 31.268l1.413-1.415 1.3 1.298-1.414 1.415zM44.06 45.51l1.14-1.139 1.414 1.414-1.14 1.14zM58.667 46.004l1.415-1.413 1.044 1.044-1.414 1.414z"/> </g> </symbol>
<symbol id="traveling" viewBox="0 0 70 64"> <path d="M14.051 51.138H5.623a1 1 0 0 1-1-1V3.667a1 1 0 0 1 1-1h32.042a3.08 3.08 0 0 1 3.077 3.077v27.159h-2V5.743c0-.594-.483-1.077-1.077-1.077H6.623v44.472h7.428v2z"/> <path d="M44.885 32.902h-2V5.743c0-.594-.483-1.077-1.077-1.077H11.844v-2h29.965a3.08 3.08 0 0 1 3.077 3.077v27.159zM64.377 61.333H12.945a1 1 0 0 1-1-1v-5.45a1 1 0 0 1 1-1c2.93 0 5.313-2.383 5.313-5.312s-2.383-5.312-5.313-5.312a1 1 0 0 1-1-1V36.81a1 1 0 0 1 1-1h51.432a1 1 0 0 1 1 1v5.449a1 1 0 0 1-1 1c-2.929 0-5.312 2.383-5.312 5.312s2.383 5.312 5.312 5.312a1 1 0 0 1 1 1v5.45a1 1 0 0 1-1 1zm-50.432-2h49.432v-3.518c-3.561-.489-6.312-3.551-6.312-7.244s2.751-6.755 6.312-7.244V37.81H13.945v3.517c3.561.489 6.313 3.552 6.313 7.245s-2.752 6.755-6.313 7.244v3.517z"/> <path d="M50.486 36.811h2v1.038h-2zM52.486 58.32h-2v-1.621h2v1.621zm0-4.437h-2v-2.817h2v2.817zm0-5.634h-2v-2.817h2v2.817zm0-5.634h-2v-2.817h2v2.817zM50.486 59.295h2v1.038h-2zM37.721 45.956h10.31v2h-10.31zM37.721 49.588h10.31v2h-10.31zM37.721 53.22h4.108v2h-4.108z"/> <g> <path d="M21.826 50.414l.73-1.862 2.767 1.085-.73 1.862z"/> <path d="M24.959 51.566a.999.999 0 0 1-.342-1.94l7.886-2.871a1 1 0 0 1 .685 1.879l-7.886 2.871a1.01 1.01 0 0 1-.343.061z"/> <path d="M24.732 47.951l.752-1.853 4.532 1.839-.752 1.853z"/> </g> <g> <path d="M22.682 32.211c-6.848 0-12.419-5.571-12.419-12.419S15.834 7.373 22.682 7.373c6.848 0 12.419 5.571 12.419 12.419S29.53 32.211 22.682 32.211zm0-22.838c-5.745 0-10.419 4.674-10.419 10.419s4.674 10.419 10.419 10.419 10.419-4.674 10.419-10.419S28.427 9.373 22.682 9.373z"/> <path d="M21.682 8.373h2v22.839h-2z"/> <path d="M11.263 18.792h22.838v2H11.263zM22.682 16.707a9.307 9.307 0 0 1-8.32-5.089l1.78-.911a7.318 7.318 0 0 0 6.54 4 7.316 7.316 0 0 0 6.552-4.026l1.783.905a9.307 9.307 0 0 1-8.335 5.121zM29.127 29.026c-1.291-2.36-3.76-3.827-6.445-3.827s-5.155 1.466-6.445 3.827l-1.755-.959a9.343 9.343 0 0 1 16.4 0l-1.755.959z"/> </g> </symbol>
</svg>