<?xml version="1.0" encoding="iso-8859-1"?>
<!-- Generator: Adobe Illustrator 22.1.0, SVG Export Plug-In . SVG Version: 6.00 Build 0)  -->
<svg version="1.1" id="Layer_1" xmlns="http://www.w3.org/2000/svg" xmlns:xlink="http://www.w3.org/1999/xlink" x="0px" y="0px"
	 viewBox="0 0 70 64" style="enable-background:new 0 0 70 64;" xml:space="preserve">
<g>
	<g>
		<g>
			<path style="fill:#81BCFF;" d="M50.727,63.375H19.272c-0.553,0-1-0.448-1-1v-5.873c-0.188-1.096,0.466-4.238,11.06-8.991
				c0.502-0.227,1.096-0.001,1.321,0.503c0.227,0.504,0.001,1.096-0.503,1.322c-9.368,4.203-9.868,6.659-9.894,6.88
				c0.011,0.059,0.016,0.119,0.016,0.178v4.981h29.455v-4.981c0-0.061,0.006-0.121,0.017-0.18c-0.025-0.223-0.53-2.714-10.104-6.976
				c-0.505-0.225-0.731-0.815-0.508-1.32c0.226-0.503,0.817-0.733,1.32-0.507c10.802,4.808,11.466,7.984,11.275,9.091v5.873
				C51.727,62.927,51.28,63.375,50.727,63.375z M20.227,56.096C20.227,56.096,20.227,56.096,20.227,56.096
				S20.227,56.096,20.227,56.096z M49.773,56.094c0,0,0,0.001,0,0.001C49.773,56.095,49.773,56.095,49.773,56.094z M20.226,56.093
				c0,0,0,0.001,0,0.002C20.226,56.095,20.226,56.094,20.226,56.093z M49.774,56.092c0,0-0.001,0.001-0.001,0.002
				C49.773,56.093,49.774,56.092,49.774,56.092z M20.225,56.091c0,0,0,0.001,0.001,0.002C20.225,56.092,20.225,56.091,20.225,56.091
				z M49.775,56.089c-0.001,0.001-0.001,0.001-0.001,0.002C49.774,56.091,49.774,56.09,49.775,56.089z"/>
			<path style="fill:#81BCFF;" d="M34.849,51.557c-4.517,0-8.19-3.676-8.19-8.195V36.53c0-4.517,3.674-8.191,8.19-8.191
				c4.518,0,8.193,3.674,8.193,8.191v6.832C43.043,47.881,39.367,51.557,34.849,51.557z M34.849,30.339
				c-3.413,0-6.19,2.777-6.19,6.191v6.832c0,3.416,2.777,6.195,6.19,6.195c3.415,0,6.193-2.779,6.193-6.195V36.53
				C41.043,33.117,38.264,30.339,34.849,30.339z"/>
		</g>
	</g>
	<g>
		<g>
			<path style="fill:#81BCFF;" d="M22.257,48.453H1.215c-0.553,0-1-0.448-1-1v-3.889c-0.196-1.103,0.686-3.257,7.594-6.357
				c0.504-0.226,1.096-0.001,1.321,0.503c0.227,0.503,0.001,1.095-0.503,1.321c-5.681,2.55-6.35,4.094-6.418,4.312
				c0.004,0.036,0.006,0.072,0.006,0.108v3.001h19.042v-3.001c0-0.037,0.002-0.073,0.006-0.11c-0.068-0.22-0.747-1.787-6.556-4.374
				c-0.505-0.225-0.731-0.816-0.507-1.32c0.224-0.504,0.815-0.73,1.319-0.507c7.039,3.134,7.937,5.31,7.737,6.423v3.888
				C23.257,48.005,22.809,48.453,22.257,48.453z M21.269,43.369h0.011H21.269z M2.17,43.154C2.17,43.155,2.17,43.155,2.17,43.154
				C2.17,43.155,2.17,43.155,2.17,43.154z M2.169,43.152c0,0,0,0.001,0,0.001C2.169,43.153,2.169,43.153,2.169,43.152z
				 M21.303,43.153L21.303,43.153L21.303,43.153z M21.304,43.151c-0.001,0-0.001,0.001-0.001,0.001
				C21.303,43.152,21.303,43.151,21.304,43.151z M2.168,43.149c0,0.001,0,0.001,0.001,0.002C2.168,43.151,2.168,43.15,2.168,43.149z
				 M21.304,43.148c0,0,0,0.001,0,0.002C21.304,43.149,21.304,43.149,21.304,43.148z"/>
			<path style="fill:#81BCFF;" d="M11.635,40.547c-3.203,0-5.81-2.608-5.81-5.813v-4.57c0-3.204,2.606-5.811,5.81-5.811
				c3.205,0,5.812,2.607,5.812,5.811v4.57C17.447,37.939,14.84,40.547,11.635,40.547z M11.635,26.354
				c-2.101,0-3.81,1.709-3.81,3.811v4.57c0,2.103,1.709,3.813,3.81,3.813c2.103,0,3.812-1.71,3.812-3.813v-4.57
				C15.447,28.063,13.737,26.354,11.635,26.354z"/>
		</g>
	</g>
	<g>
		<g>
			<path style="fill:#81BCFF;" d="M68.785,48.453H47.743c-0.553,0-1-0.448-1-1v-3.889c-0.196-1.103,0.686-3.257,7.595-6.357
				c0.503-0.226,1.096-0.001,1.321,0.503c0.227,0.504,0.001,1.096-0.503,1.322c-5.682,2.549-6.351,4.094-6.419,4.312
				c0.004,0.036,0.006,0.072,0.006,0.108v3.001h19.042v-3.001c0-0.037,0.002-0.074,0.006-0.11c-0.068-0.22-0.747-1.788-6.555-4.374
				c-0.505-0.225-0.731-0.816-0.507-1.32c0.224-0.504,0.815-0.73,1.319-0.507c7.039,3.134,7.936,5.31,7.736,6.424v3.888
				C69.785,48.005,69.338,48.453,68.785,48.453z M67.798,43.369h0.011H67.798z M48.698,43.154
				C48.698,43.155,48.698,43.155,48.698,43.154C48.698,43.155,48.698,43.155,48.698,43.154z M48.697,43.152c0,0,0,0.001,0,0.001
				C48.697,43.153,48.697,43.153,48.697,43.152z M67.831,43.153L67.831,43.153L67.831,43.153z M67.832,43.15
				c0,0-0.001,0.001-0.001,0.001C67.831,43.151,67.832,43.151,67.832,43.15z M48.696,43.149c0,0.001,0,0.001,0.001,0.002
				C48.696,43.151,48.696,43.15,48.696,43.149z M67.833,43.148c-0.001,0-0.001,0.001-0.001,0.002
				C67.832,43.149,67.832,43.148,67.833,43.148z"/>
			<path style="fill:#81BCFF;" d="M58.164,40.547c-3.204,0-5.811-2.608-5.811-5.813v-4.57c0-3.204,2.606-5.811,5.811-5.811
				c3.205,0,5.812,2.607,5.812,5.811v4.57C63.976,37.939,61.369,40.547,58.164,40.547z M58.164,26.354
				c-2.102,0-3.811,1.709-3.811,3.811v4.57c0,2.103,1.709,3.813,3.811,3.813c2.103,0,3.812-1.71,3.812-3.813v-4.57
				C61.976,28.063,60.266,26.354,58.164,26.354z"/>
		</g>
	</g>
	<g>
		<path style="fill:#81BCFF;" d="M34.7,26.218c-1.785,0-3.3-2.213-3.585-2.657c-0.104-0.161-0.159-0.349-0.159-0.541v-3.331
			c0-0.552,0.447-1,1-1h5.489c0.553,0,1,0.448,1,1v3.331c0,0.192-0.056,0.38-0.159,0.541C38.001,24.004,36.486,26.218,34.7,26.218z
			 M32.956,22.71c0.542,0.753,1.342,1.507,1.744,1.507c0.407,0,1.206-0.753,1.745-1.506v-2.023h-3.489V22.71z"/>
		<path style="fill:#81BCFF;" d="M37.13,20.689h-4.975c-0.956,0-1.733-0.778-1.733-1.733c0-1.424-1.345-4.026-2.5-5.828
			c-0.007-0.011-0.014-0.021-0.021-0.032l0,0c-0.837-1.305-1.279-2.815-1.279-4.369c0-4.467,3.634-8.101,8.101-8.101
			c2.897,0,5.594,1.564,7.036,4.083v0c0.696,1.217,1.064,2.606,1.064,4.017c0,1.553-0.442,3.063-1.28,4.369l0,0
			c-0.005,0.007-0.01,0.014-0.014,0.021c-1.196,1.855-2.57,4.473-2.57,5.839C38.958,19.895,38.121,20.689,37.13,20.689z
			 M36.958,18.956L36.958,18.956L36.958,18.956z M32.413,18.689h4.554c0.148-2.204,2.043-5.359,2.876-6.651
			c0.005-0.007,0.01-0.015,0.016-0.022c0,0,0,0,0-0.001c0.631-0.982,0.964-2.12,0.964-3.289c0-1.063-0.276-2.108-0.801-3.023l0,0
			c-1.086-1.898-3.117-3.077-5.3-3.077c-3.364,0-6.101,2.737-6.101,6.101c0,1.16,0.327,2.288,0.946,3.263
			c0.009,0.012,0.017,0.024,0.024,0.036C30.414,13.307,32.271,16.429,32.413,18.689z"/>
		<rect x="33.722" y="9.014" style="fill:#81BCFF;" width="2" height="10.675"/>
		<rect x="31.556" y="8.014" style="fill:#81BCFF;" width="6.11" height="2"/>
	</g>
	<path style="fill:#81BCFF;" d="M11.447,26.341c-0.516,0-0.95-0.384-0.993-0.904c-0.013-0.146-0.088-1.465,1.042-2.693
		c1.209-1.315,3.281-1.981,6.159-1.981h14.266c0.553,0,1,0.448,1,1s-0.447,1-1,1H17.655c-2.812,0-4.08,0.704-4.649,1.295
		c-0.575,0.597-0.559,1.208-0.558,1.234c0.021,0.543-0.396,1.015-0.938,1.048C11.489,26.341,11.468,26.341,11.447,26.341z"/>
	<path style="fill:#81BCFF;" d="M58.066,26.354c-0.028,0-0.057-0.001-0.085-0.003c-0.55-0.046-0.959-0.53-0.912-1.08
		c-0.001-0.004,0.016-0.616-0.56-1.213c-0.569-0.591-1.838-1.295-4.649-1.295H37.595c-0.553,0-1-0.448-1-1s0.447-1,1-1H51.86
		c2.878,0,4.95,0.667,6.159,1.981c1.13,1.229,1.055,2.547,1.042,2.693C59.018,25.959,58.581,26.354,58.066,26.354z"/>
	<path style="fill:#81BCFF;" d="M34.722,30.339c-0.553,0-1-0.448-1-1v-4.127c0-0.552,0.447-1,1-1s1,0.448,1,1v4.127
		C35.722,29.892,35.274,30.339,34.722,30.339z"/>
	<rect x="33.531" y="57.454" style="fill:#81BCFF;" width="2.16" height="2.161"/>
	<rect x="33.531" y="53.417" style="fill:#81BCFF;" width="2.16" height="2.16"/>
</g>
</svg>
