<?xml version="1.0" encoding="iso-8859-1"?>
<!-- Generator: Adobe Illustrator 22.1.0, SVG Export Plug-In . SVG Version: 6.00 Build 0)  -->
<svg version="1.1" id="Layer_1" xmlns="http://www.w3.org/2000/svg" xmlns:xlink="http://www.w3.org/1999/xlink" x="0px" y="0px"
	 viewBox="0 0 70 64" style="enable-background:new 0 0 70 64;" xml:space="preserve">
<g>
	<path style="fill:#81BCFF;" d="M62.847,55.537H7.154c-0.553,0-1-0.448-1-1V31.943c0-0.552,0.447-1,1-1h16.592v2H8.154v20.594
		h53.693V32.943H44.218v-2h18.629c0.553,0,1,0.448,1,1v22.594C63.847,55.089,63.4,55.537,62.847,55.537z"/>
	<path style="fill:#81BCFF;" d="M23.309,22.283c-0.256,0-0.512-0.098-0.707-0.293c-0.391-0.391-0.391-1.023,0-1.414l11.832-11.82
		c0.391-0.39,1.023-0.39,1.414,0L47.544,20.45c0.391,0.39,0.391,1.023,0,1.414s-1.023,0.391-1.414,0L35.141,10.876L24.016,21.991
		C23.821,22.185,23.565,22.283,23.309,22.283z"/>
	<path style="fill:#81BCFF;" d="M64.667,28.927H47.17c-0.266,0-0.52-0.105-0.707-0.293L35.143,17.316L23.809,28.635
		c-0.188,0.188-0.442,0.292-0.707,0.292H5.606v-2h17.082l11.749-11.732c0.391-0.39,1.023-0.39,1.414,0l11.732,11.731h17.083V28.927z
		"/>
	<path style="fill:#81BCFF;" d="M25.195,32.982c-0.001,0-0.001,0-0.002,0L2.171,32.943c-0.383,0-0.731-0.22-0.898-0.564
		c-0.166-0.344-0.122-0.754,0.114-1.055l12.098-15.368c0.19-0.241,0.479-0.381,0.786-0.381h13.75v2H14.756L4.23,30.947l20.541,0.035
		l9.432-9.762c0.188-0.195,0.447-0.305,0.718-0.305h0.001c0.271,0,0.529,0.109,0.718,0.304l9.433,9.719l20.694,0.005L55.245,17.575
		H42.254v-2H55.73c0.307,0,0.596,0.141,0.786,0.381l12.097,15.368c0.236,0.301,0.28,0.711,0.113,1.056
		c-0.167,0.344-0.517,0.563-0.899,0.563l0,0l-23.178-0.006c-0.271,0-0.529-0.109-0.718-0.304l-9.008-9.281l-9.01,9.325
		C25.725,32.872,25.466,32.982,25.195,32.982z"/>
	<path style="fill:#81BCFF;" d="M35.136,37.724c-2.601,0-4.717-2.116-4.717-4.716c0-2.601,2.116-4.717,4.717-4.717
		s4.716,2.116,4.716,4.717C39.852,35.608,37.737,37.724,35.136,37.724z M35.136,30.29c-1.498,0-2.717,1.219-2.717,2.717
		c0,1.498,1.219,2.716,2.717,2.716c1.497,0,2.716-1.219,2.716-2.716C37.852,31.509,36.633,30.29,35.136,30.29z"/>
	<rect x="11.084" y="35.102" style="fill:#81BCFF;" width="2" height="6.281"/>
	<rect x="15.471" y="35.102" style="fill:#81BCFF;" width="2" height="6.281"/>
	<rect x="11.084" y="45.098" style="fill:#81BCFF;" width="2" height="6.282"/>
	<rect x="15.471" y="45.098" style="fill:#81BCFF;" width="2" height="6.282"/>
	<path style="fill:#81BCFF;" d="M20.858,55.537c-0.265,0-0.52-0.105-0.707-0.293s-0.293-0.442-0.293-0.707V31.982
		c0-0.552,0.447-1,1-1h4.303c0.553,0,1,0.448,1,1v22.554c0,0.552-0.447,1-1,1L20.858,55.537z M21.858,32.982v20.555l2.303,0V32.982
		H21.858z"/>
	<path style="fill:#81BCFF;" d="M44.686,55.537c-0.265,0-0.52-0.105-0.707-0.293s-0.293-0.442-0.293-0.707V31.982
		c0-0.552,0.447-1,1-1h4.301c0.553,0,1,0.448,1,1v22.554c0,0.552-0.447,1-1,1L44.686,55.537z M45.686,32.982v20.555l2.301,0V32.982
		H45.686z"/>
	<rect x="52.885" y="35.102" style="fill:#81BCFF;" width="2" height="6.281"/>
	<rect x="57.187" y="35.102" style="fill:#81BCFF;" width="2" height="6.281"/>
	<rect x="57.187" y="45.098" style="fill:#81BCFF;" width="2" height="6.281"/>
	<rect x="52.885" y="45.098" style="fill:#81BCFF;" width="2" height="6.282"/>
	<path style="fill:#81BCFF;" d="M38.246,55.537h-6.219c-0.553,0-1-0.448-1-1v-11.03c0-2.266,1.844-4.109,4.109-4.109
		s4.109,1.843,4.109,4.109v11.03C39.246,55.089,38.798,55.537,38.246,55.537z M33.027,53.537h4.219v-10.03
		c0-1.163-0.946-2.109-2.109-2.109s-2.109,0.946-2.109,2.109V53.537z"/>
</g>
<g>
</g>
<g>
</g>
<g>
</g>
<g>
</g>
<g>
</g>
<g>
</g>
</svg>
