<?xml version="1.0" encoding="iso-8859-1"?>
<!-- Generator: Adobe Illustrator 22.1.0, SVG Export Plug-In . SVG Version: 6.00 Build 0)  -->
<svg version="1.1" id="Layer_1" xmlns="http://www.w3.org/2000/svg" xmlns:xlink="http://www.w3.org/1999/xlink" x="0px" y="0px"
	 viewBox="0 0 70 64" style="enable-background:new 0 0 70 64;" xml:space="preserve">
<g>
	<path style="fill:#81BCFF;" d="M42.653,45.358c-1.97,0-3.572-1.601-3.572-3.569c0-1.969,1.603-3.57,3.572-3.57
		c1.966,0,3.565,1.602,3.565,3.57C46.219,43.757,44.619,45.358,42.653,45.358z M42.653,40.219c-0.867,0-1.572,0.705-1.572,1.57
		c0,0.865,0.705,1.569,1.572,1.569c0.863,0,1.565-0.704,1.565-1.569C44.219,40.923,43.517,40.219,42.653,40.219z"/>
	<path style="fill:#81BCFF;" d="M45.163,33.394H32.459c-0.553,0-1-0.448-1-1V19.831c0-0.552,0.447-1,1-1h12.704c0.553,0,1,0.448,1,1
		v12.562C46.163,32.946,45.716,33.394,45.163,33.394z M33.459,31.394h10.704V20.831H33.459V31.394z"/>
	<path style="fill:#81BCFF;" d="M32.459,41.016c-4.754,0-8.622-3.868-8.622-8.622c0-4.754,3.868-8.622,8.622-8.622
		s8.622,3.868,8.622,8.622C41.081,37.148,37.213,41.016,32.459,41.016z M32.459,25.772c-3.651,0-6.622,2.97-6.622,6.622
		s2.971,6.622,6.622,6.622s6.622-2.971,6.622-6.622S36.11,25.772,32.459,25.772z"/>
	<path style="fill:#81BCFF;" d="M55.647,58.925c-1.141,0-2.202-0.564-2.84-1.51c-0.069-0.102-0.141-0.245-0.217-0.416
		c-0.2-0.451-0.39-0.877-1.599-0.877c-1.378,0-2.671,0.376-4.04,0.775c-1.497,0.436-3.045,0.887-4.828,0.887
		c-2.36,0-3.889-0.58-4.828-1.161c-0.521,0.704-1.355,1.161-2.296,1.161s-1.775-0.457-2.296-1.161
		c-0.939,0.581-2.468,1.161-4.828,1.161c-1.784,0-3.332-0.451-4.829-0.887c-1.368-0.399-2.661-0.775-4.039-0.775
		c-1.21,0-1.399,0.426-1.6,0.877c-0.076,0.171-0.147,0.313-0.218,0.417c-0.637,0.945-1.698,1.509-2.838,1.509
		c-1.889,0-3.425-1.537-3.425-3.425c0-1.282,0.809-2.085,1.458-2.73l0.116-0.115c0.699-0.699,0.753-1.419,0.619-2.286
		c-0.247-1.608-0.662-2.679-1.063-3.714c-0.556-1.434-1.13-2.917-1.13-5.532c0-3.226,0.863-5.236,1.645-6.395
		c-0.908-0.558-1.545-1.528-1.632-2.652c-0.004-0.051-0.004-0.103,0-0.154c0.087-1.125,0.724-2.094,1.632-2.652
		c-0.781-1.158-1.645-3.167-1.645-6.393c0-2.616,0.575-4.1,1.131-5.534c0.4-1.035,0.815-2.104,1.062-3.711
		c0.134-0.868,0.08-1.588-0.619-2.287l-0.118-0.118c-0.648-0.645-1.456-1.448-1.456-2.729c0-1.888,1.536-3.424,3.425-3.424
		c1.14,0,2.2,0.564,2.839,1.509C17.261,6.687,17.332,6.829,17.408,7c0.2,0.451,0.39,0.877,1.6,0.877
		c1.378,0,2.671-0.376,4.039-0.775c1.497-0.436,3.045-0.887,4.829-0.887c2.36,0,3.889,0.58,4.828,1.16
		c0.521-0.703,1.355-1.16,2.296-1.16s1.775,0.457,2.296,1.16c0.939-0.581,2.468-1.16,4.828-1.16c1.783,0,3.331,0.451,4.828,0.887
		c1.369,0.399,2.662,0.775,4.04,0.775c1.209,0,1.398-0.426,1.599-0.877c0.076-0.171,0.147-0.314,0.218-0.417
		c0.638-0.945,1.699-1.509,2.839-1.509c1.889,0,3.425,1.536,3.425,3.424c0,1.281-0.808,2.084-1.456,2.729l-0.117,0.117
		c-0.699,0.699-0.754,1.42-0.621,2.288c0.247,1.605,0.662,2.675,1.063,3.709c0.556,1.435,1.131,2.918,1.131,5.535
		c0,3.226-0.863,5.235-1.645,6.394c0.907,0.558,1.544,1.527,1.632,2.65c0.004,0.052,0.004,0.104,0,0.156
		c-0.088,1.124-0.725,2.093-1.632,2.651c0.781,1.159,1.645,3.168,1.645,6.395c0,2.615-0.575,4.098-1.131,5.533
		c-0.401,1.035-0.815,2.105-1.063,3.712c-0.133,0.866-0.078,1.587,0.62,2.286l0.116,0.115c0.649,0.645,1.458,1.448,1.458,2.73
		C59.072,57.389,57.536,58.925,55.647,58.925z M50.992,54.123c2.508,0,3.151,1.446,3.426,2.063c0.022,0.05,0.041,0.096,0.062,0.132
		c0.252,0.372,0.693,0.607,1.168,0.607c0.785,0,1.425-0.639,1.425-1.425c0-0.428-0.33-0.777-0.867-1.311l-0.121-0.121
		c-1.396-1.397-1.344-2.955-1.183-4.004c0.28-1.823,0.756-3.049,1.176-4.131c0.534-1.378,0.995-2.568,0.995-4.81
		c0-4.625-1.955-6.042-1.975-6.054c-0.369-0.243-0.535-0.699-0.408-1.123c0.127-0.423,0.517-0.713,0.958-0.713
		c0.712,0,1.316-0.536,1.41-1.234c-0.094-0.698-0.698-1.234-1.41-1.234c-0.441,0-0.831-0.29-0.958-0.713
		c-0.127-0.423,0.039-0.879,0.408-1.123c0.066-0.048,1.975-1.458,1.975-6.053c0-2.243-0.462-3.433-0.996-4.812
		c-0.419-1.081-0.895-2.307-1.175-4.128c-0.161-1.051-0.214-2.609,1.183-4.005l0.122-0.122c0.537-0.534,0.866-0.883,0.866-1.311
		c0-0.785-0.64-1.424-1.425-1.424c-0.475,0-0.916,0.235-1.182,0.628c-0.007,0.015-0.025,0.06-0.048,0.11
		c-0.274,0.618-0.918,2.064-3.426,2.064c-1.663,0-3.156-0.435-4.6-0.855c-1.425-0.415-2.771-0.807-4.269-0.807
		c-3.368,0-4.405,1.366-4.447,1.424c-0.256,0.349-0.715,0.505-1.125,0.371c-0.412-0.134-0.697-0.507-0.697-0.94
		c0-0.471-0.384-0.854-0.854-0.854s-0.854,0.383-0.854,0.854c0,0.442-0.29,0.831-0.713,0.958c-0.422,0.126-0.879-0.039-1.122-0.408
		c-0.029-0.039-1.066-1.404-4.435-1.404c-1.499,0-2.845,0.392-4.27,0.807c-1.443,0.42-2.936,0.855-4.599,0.855
		c-2.509,0-3.152-1.446-3.427-2.064c-0.022-0.05-0.041-0.095-0.062-0.132c-0.252-0.372-0.693-0.606-1.167-0.606
		c-0.785,0-1.425,0.639-1.425,1.424c0,0.428,0.329,0.777,0.866,1.311l0.123,0.122c1.396,1.396,1.343,2.955,1.181,4.005
		c-0.28,1.822-0.755,3.047-1.175,4.129c-0.534,1.378-0.995,2.569-0.995,4.811c0,4.594,1.908,6.005,1.989,6.062
		c0.354,0.252,0.513,0.71,0.38,1.125c-0.132,0.415-0.51,0.701-0.944,0.701c-0.712,0-1.317,0.536-1.41,1.234
		c0.093,0.698,0.698,1.234,1.41,1.234c0.441,0,0.831,0.29,0.958,0.713c0.127,0.423-0.039,0.879-0.408,1.123
		c-0.066,0.048-1.975,1.459-1.975,6.054c0,2.241,0.461,3.431,0.995,4.809c0.419,1.082,0.895,2.309,1.175,4.132
		c0.162,1.049,0.216,2.606-1.182,4.004l-0.121,0.121c-0.537,0.534-0.867,0.883-0.867,1.311c0,0.786,0.64,1.425,1.425,1.425
		c0.474,0,0.915-0.235,1.181-0.629c0.007-0.015,0.025-0.06,0.048-0.11c0.274-0.618,0.918-2.064,3.427-2.064
		c1.663,0,3.155,0.435,4.599,0.855c1.425,0.415,2.771,0.807,4.27,0.807c3.367,0,4.405-1.366,4.447-1.424
		c0.256-0.35,0.714-0.507,1.125-0.371c0.411,0.134,0.697,0.507,0.697,0.94c0,0.472,0.384,0.855,0.854,0.855s0.854-0.383,0.854-0.855
		c0-0.442,0.29-0.831,0.713-0.958c0.421-0.125,0.879,0.039,1.122,0.408c0.029,0.039,1.067,1.405,4.435,1.405
		c1.498,0,2.844-0.392,4.269-0.807C47.836,54.557,49.329,54.123,50.992,54.123z"/>
	<path style="fill:#81BCFF;" d="M51.868,51.681H18.131V12.319h33.737V51.681z M20.131,49.681h29.737V14.319H20.131V49.681z"/>
</g>
</svg>
