<?xml version="1.0" encoding="iso-8859-1"?>
<!-- Generator: Adobe Illustrator 22.1.0, SVG Export Plug-In . SVG Version: 6.00 Build 0)  -->
<svg version="1.1" id="Layer_1" xmlns="http://www.w3.org/2000/svg" xmlns:xlink="http://www.w3.org/1999/xlink" x="0px" y="0px"
	 viewBox="0 0 70 64" style="enable-background:new 0 0 70 64;" xml:space="preserve">
<g>
	<path style="fill:#81BCFF;" d="M54.415,52.145c-0.553,0-1-0.448-1-1V8.354H21.086c-2.481,0-4.501,2.019-4.501,4.5v38.29
		c0,0.552-0.447,1-1,1s-1-0.448-1-1v-38.29c0-3.584,2.916-6.5,6.501-6.5h33.329c0.553,0,1,0.448,1,1v43.791
		C55.415,51.697,54.968,52.145,54.415,52.145z"/>
	<path style="fill:#81BCFF;" d="M54.415,57.646H21.086c-3.585,0-6.501-2.916-6.501-6.5c0-3.585,2.916-6.502,6.501-6.502h33.329
		c0.553,0,1,0.448,1,1v11.003C55.415,57.198,54.968,57.646,54.415,57.646z M21.086,46.643c-2.481,0-4.501,2.02-4.501,4.502
		c0,2.481,2.02,4.5,4.501,4.5h32.329v-9.003H21.086z"/>
	<path style="fill:#81BCFF;" d="M21.086,46.643c-0.553,0-1-0.448-1-1V7.666c0-0.552,0.447-1,1-1s1,0.448,1,1v37.977
		C22.086,46.195,21.639,46.643,21.086,46.643z"/>
	<rect x="31.872" y="22.089" style="fill:#81BCFF;" width="11.542" height="2"/>
	<rect x="29.895" y="27.157" style="fill:#81BCFF;" width="15.498" height="2"/>
	<g>
		<line style="fill:#81BCFF;" x1="54.415" y1="51.145" x2="22.875" y2="51.145"/>
		<path style="fill:#81BCFF;" d="M54.415,52.145h-31.54c-0.553,0-1-0.448-1-1s0.447-1,1-1h31.54c0.553,0,1,0.448,1,1
			S54.968,52.145,54.415,52.145z"/>
	</g>
	<path style="fill:#81BCFF;" d="M48.176,36.683H26.86c-0.553,0-1-0.448-1-1V15.858c0-0.552,0.447-1,1-1h21.315c0.553,0,1,0.448,1,1
		v19.825C49.176,36.235,48.729,36.683,48.176,36.683z M27.86,34.683h19.315V16.858H27.86V34.683z"/>
</g>
</svg>
