<?xml version="1.0" encoding="iso-8859-1"?>
<!-- Generator: Adobe Illustrator 22.1.0, SVG Export Plug-In . SVG Version: 6.00 Build 0)  -->
<svg version="1.1" id="Layer_1" xmlns="http://www.w3.org/2000/svg" xmlns:xlink="http://www.w3.org/1999/xlink" x="0px" y="0px"
	 viewBox="0 0 70 64" style="enable-background:new 0 0 70 64;" xml:space="preserve">
<g>
	<path style="fill:#81BCFF;" d="M26.692,18.422h-2v-3.97h-6.258v3.97h-2v-4.97c0-0.552,0.447-1,1-1h8.258c0.553,0,1,0.448,1,1
		V18.422z"/>
	<path style="fill:#81BCFF;" d="M53.589,18.422h-2v-3.97h-6.25v3.962h-2v-4.962c0-0.552,0.447-1,1-1h8.25c0.553,0,1,0.448,1,1
		V18.422z"/>
	<path style="fill:#81BCFF;" d="M21.566,36.006c-5.409,0-9.811-4.398-9.811-9.804c0-3.633,1.996-6.952,5.209-8.663
		c2.796-1.491,6.395-1.495,9.198,0c0.713,0.375,1.391,0.853,2.01,1.417c2.033,1.858,3.198,4.498,3.198,7.245
		c0,1.927-0.558,3.79-1.611,5.389l-1.67-1.102c0.838-1.271,1.281-2.753,1.281-4.287c0-2.187-0.929-4.289-2.547-5.768
		c-0.492-0.449-1.03-0.828-1.598-1.126c-2.251-1.202-5.085-1.196-7.321-0.003c-2.56,1.362-4.149,4.005-4.149,6.897
		c0,4.303,3.504,7.804,7.811,7.804c0.638,0,1.272-0.077,1.887-0.228l0.477,1.942C23.159,35.91,22.364,36.006,21.566,36.006z"/>
	<path style="fill:#81BCFF;" d="M48.464,36.006c-0.646,0-1.287-0.062-1.904-0.185l0.391-1.962c0.495,0.099,0.99,0.147,1.514,0.147
		c4.304,0,7.805-3.501,7.805-7.804c0-0.37-0.029-0.75-0.087-1.132l-0.012-0.102c-0.359-2.375-1.875-4.507-4.051-5.664
		c-2.235-1.194-5.059-1.196-7.313-0.006c-0.581,0.312-1.124,0.695-1.606,1.136c-1.613,1.479-2.539,3.583-2.539,5.767
		c0,1.571,0.465,3.088,1.344,4.389l-1.656,1.12c-1.104-1.632-1.688-3.537-1.688-5.509c0-2.744,1.162-5.384,3.189-7.243
		c0.606-0.553,1.284-1.032,2.016-1.425c1.431-0.755,2.976-1.136,4.599-1.136c1.607,0,3.197,0.395,4.596,1.143
		c2.73,1.451,4.635,4.131,5.094,7.169l0.012,0.102c0.067,0.44,0.104,0.921,0.104,1.39C58.269,31.608,53.87,36.006,48.464,36.006z"/>
	<g>
		<rect x="20.565" y="21.984" style="fill:#81BCFF;" width="2" height="8.254"/>
		<rect x="17.436" y="25.112" style="fill:#81BCFF;" width="8.256" height="2"/>
	</g>
	<g>
		<rect x="47.462" y="21.663" style="fill:#81BCFF;" width="2" height="2.024"/>
		<rect x="47.462" y="28.443" style="fill:#81BCFF;" width="2" height="2.117"/>
		<rect x="50.901" y="25.113" style="fill:#81BCFF;" width="2.012" height="2"/>
		<rect x="44.013" y="25.113" style="fill:#81BCFF;" width="2.074" height="2"/>
	</g>
	<path style="fill:#81BCFF;" d="M27.803,40.132c-2.826,0-5.125-2.299-5.125-5.125c0-2.827,2.299-5.127,5.125-5.127
		s5.126,2.3,5.126,5.127C32.929,37.833,30.629,40.132,27.803,40.132z M27.803,31.881c-1.723,0-3.125,1.403-3.125,3.127
		c0,1.723,1.402,3.125,3.125,3.125c1.724,0,3.126-1.402,3.126-3.125C30.929,33.283,29.526,31.881,27.803,31.881z"/>
	<path style="fill:#81BCFF;" d="M42.639,40.132c-2.826,0-5.125-2.299-5.125-5.125c0-2.827,2.299-5.127,5.125-5.127
		s5.126,2.3,5.126,5.127C47.765,37.833,45.465,40.132,42.639,40.132z M42.639,31.881c-1.723,0-3.125,1.403-3.125,3.127
		c0,1.723,1.402,3.125,3.125,3.125c1.724,0,3.126-1.402,3.126-3.125C45.765,33.283,44.362,31.881,42.639,31.881z"/>
	<rect x="27.483" y="18.693" style="fill:#81BCFF;" width="15.064" height="2"/>
	<rect x="31.929" y="34.008" style="fill:#81BCFF;" width="6.585" height="2"/>
	<path style="fill:#81BCFF;" d="M55.185,51.548c-2.479,0-4.786-1.378-5.94-3.631c-0.024-0.047-0.045-0.097-0.062-0.146l-4.869-9.07
		l1.762-0.946l4.96,9.239c0.029,0.054,0.053,0.109,0.07,0.165c0.946,1.689,2.834,2.628,4.773,2.339
		c1.236-0.183,2.328-0.838,3.073-1.843c0.746-1.005,1.055-2.24,0.87-3.478l-3.665-19.254l1.965-0.374l3.672,19.293
		c0.27,1.806-0.171,3.569-1.235,5.003c-1.063,1.434-2.621,2.368-4.387,2.63C55.842,51.523,55.512,51.547,55.185,51.548z"/>
	<path style="fill:#81BCFF;" d="M14.818,51.548c-0.327,0-0.657-0.024-0.987-0.073c-1.766-0.262-3.323-1.196-4.386-2.63
		c-1.063-1.435-1.505-3.197-1.243-4.963l3.68-19.333l1.965,0.374l-3.673,19.293c-0.177,1.198,0.133,2.433,0.878,3.438
		c0.745,1.005,1.836,1.66,3.072,1.843c1.935,0.29,3.828-0.648,4.773-2.337c0.018-0.057,0.041-0.112,0.069-0.166l5.081-9.502
		l1.764,0.943l-4.99,9.331c-0.016,0.051-0.036,0.102-0.062,0.15C19.607,50.169,17.298,51.547,14.818,51.548z"/>
	<rect x="28.628" y="14.862" style="fill:#81BCFF;" width="12.805" height="2"/>
</g>
</svg>
