<?xml version="1.0" encoding="iso-8859-1"?>
<!-- Generator: Adobe Illustrator 22.1.0, SVG Export Plug-In . SVG Version: 6.00 Build 0)  -->
<svg version="1.1" id="Layer_1" xmlns="http://www.w3.org/2000/svg" xmlns:xlink="http://www.w3.org/1999/xlink" x="0px" y="0px"
	 viewBox="0 0 70 64" style="enable-background:new 0 0 70 64;" xml:space="preserve">
<g>
	<path style="fill:#81BCFF;" d="M38.009,50.979h-6.71c-0.553,0-1-0.448-1-1v-7.723h-7.724c-0.553,0-1-0.448-1-1v-6.711
		c0-0.552,0.447-1,1-1h7.724v-7.724c0-0.552,0.447-1,1-1h6.71c0.553,0,1,0.448,1,1v7.724h7.724c0.553,0,1,0.448,1,1v6.711
		c0,0.552-0.447,1-1,1h-7.724v7.723C39.009,50.531,38.562,50.979,38.009,50.979z M32.299,48.979h4.71v-7.723c0-0.552,0.447-1,1-1
		h7.724v-4.711h-7.724c-0.553,0-1-0.448-1-1v-7.724h-4.71v7.724c0,0.552-0.447,1-1,1h-7.724v4.711h7.724c0.553,0,1,0.448,1,1V48.979
		z"/>
	<path style="fill:#81BCFF;" d="M34.655,59.476c-11.024,0-19.991-8.968-19.991-19.99c0-9.556,6.243-16.422,11.751-22.48
		c3.884-4.271,7.237-7.96,7.237-11.481c0-0.552,0.447-1,1-1s1.003,0.448,1.003,1c0,3.521,3.354,7.209,7.236,11.48l1.113,1.228
		c0.37,0.41,0.338,1.042-0.072,1.412c-0.409,0.37-1.042,0.338-1.412-0.072l-1.108-1.222c-2.835-3.118-5.406-5.946-6.758-8.79
		c-1.353,2.844-3.924,5.672-6.759,8.791c-5.265,5.79-11.231,12.353-11.231,21.135c0,9.92,8.069,17.99,17.988,17.99
		c9.922,0,17.992-8.07,17.992-17.99c0-3.582-0.988-7.063-3.021-10.643c-0.273-0.48-0.104-1.091,0.375-1.364
		c0.483-0.271,1.092-0.104,1.363,0.375c2.209,3.889,3.283,7.694,3.283,11.631C54.645,50.508,45.678,59.476,34.655,59.476z"/>
	<path style="fill:#81BCFF;" d="M48.503,29.704L48.503,29.704c-3.77,0-6.835-3.066-6.835-6.834c0-3.075,1.942-6.589,3.655-9.69
		c1.071-1.938,2.179-3.943,2.179-4.886c0-0.552,0.447-1,1-1c0.552,0,1,0.447,1,1c0,0,0,0,0,0.001h0.001c0,0.013,0,0.027,0,0.041
		c0.031,0.959,1.122,2.934,2.178,4.844c1.713,3.101,3.655,6.616,3.655,9.691C55.336,26.638,52.271,29.704,48.503,29.704z
		 M48.503,11.47c-0.399,0.812-0.892,1.703-1.429,2.674c-1.597,2.89-3.406,6.165-3.406,8.725c0,2.666,2.169,4.834,4.834,4.834
		s4.834-2.169,4.834-4.834c0-2.559-1.81-5.834-3.405-8.723C49.394,13.174,48.901,12.283,48.503,11.47z"/>
</g>
</svg>
