<?xml version="1.0" encoding="iso-8859-1"?>
<!-- Generator: Adobe Illustrator 22.1.0, SVG Export Plug-In . SVG Version: 6.00 Build 0)  -->
<svg version="1.1" id="Layer_1" xmlns="http://www.w3.org/2000/svg" xmlns:xlink="http://www.w3.org/1999/xlink" x="0px" y="0px"
	 viewBox="0 0 70 64" style="enable-background:new 0 0 70 64;" xml:space="preserve">
<g>
	<g>
		<g>
			<path style="fill:#81BCFF;" d="M36.735,30.923h-3.206c-0.553,0-1-0.448-1-1v-2.125c-0.607-0.179-1.191-0.421-1.747-0.722
				l-1.501,1.501c-0.375,0.375-1.039,0.375-1.414,0L25.6,26.311c-0.391-0.391-0.391-1.023,0-1.414l1.501-1.501
				c-0.302-0.556-0.543-1.14-0.723-1.748h-2.125c-0.266,0-0.52-0.105-0.707-0.293s-0.293-0.442-0.293-0.708l0.001-3.206
				c0-0.552,0.447-1,1-1l2.124,0c0.18-0.608,0.422-1.191,0.723-1.747L25.6,13.194c-0.391-0.391-0.391-1.023,0-1.414l2.267-2.267
				c0.375-0.375,1.039-0.375,1.414,0l1.501,1.501c0.556-0.301,1.14-0.542,1.747-0.722V8.168c0-0.552,0.447-1,1-1l3.205-0.001l0,0
				c0.266,0,0.52,0.105,0.707,0.293s0.293,0.442,0.293,0.707v2.124c0.608,0.18,1.192,0.421,1.748,0.724l1.501-1.501
				c0.375-0.375,1.039-0.375,1.414,0l2.267,2.267c0.391,0.391,0.391,1.023,0,1.414l-1.501,1.501c0.302,0.556,0.543,1.14,0.723,1.747
				l2.124,0c0.553,0,1,0.448,1,1v3.206c0,0.265-0.105,0.52-0.293,0.707s-0.442,0.293-0.707,0.293l0,0l-2.124,0
				c-0.18,0.606-0.421,1.189-0.723,1.746l1.501,1.501c0.391,0.391,0.391,1.023,0,1.414l-2.267,2.267
				c-0.375,0.375-1.039,0.375-1.414,0l-1.501-1.501c-0.557,0.302-1.141,0.543-1.748,0.723l0.001,2.124
				c0,0.266-0.105,0.52-0.293,0.708S37,30.923,36.735,30.923z M34.529,28.923h1.206l-0.001-1.906c0-0.477,0.337-0.888,0.804-0.981
				c0.914-0.183,1.77-0.537,2.545-1.052c0.395-0.263,0.923-0.212,1.261,0.125l1.347,1.347l0.853-0.853l-1.347-1.347
				c-0.337-0.337-0.39-0.864-0.126-1.261c0.517-0.777,0.871-1.632,1.053-2.543c0.093-0.468,0.504-0.805,0.98-0.805l0,0l1.906,0
				v-1.206l-1.906,0c-0.477,0-0.888-0.337-0.98-0.805c-0.183-0.913-0.536-1.768-1.052-2.542c-0.265-0.396-0.212-0.925,0.125-1.262
				l1.347-1.347l-0.853-0.853l-1.347,1.347c-0.337,0.338-0.865,0.389-1.263,0.125c-0.771-0.516-1.627-0.87-2.543-1.053
				c-0.468-0.093-0.804-0.504-0.804-0.98V9.168h-1.205v1.906c0,0.477-0.336,0.887-0.804,0.98c-0.915,0.184-1.771,0.538-2.543,1.052
				c-0.396,0.264-0.925,0.212-1.262-0.125l-1.347-1.347l-0.853,0.853l1.347,1.347c0.337,0.337,0.39,0.865,0.125,1.262
				c-0.514,0.771-0.868,1.627-1.053,2.544c-0.094,0.467-0.504,0.803-0.98,0.803l-1.905,0l-0.001,1.206h1.907
				c0.477,0,0.888,0.337,0.98,0.804c0.183,0.914,0.536,1.77,1.052,2.543c0.265,0.396,0.212,0.925-0.125,1.262l-1.347,1.347
				l0.853,0.853l1.347-1.347c0.337-0.338,0.866-0.39,1.262-0.125c0.771,0.515,1.627,0.868,2.543,1.051
				c0.467,0.093,0.804,0.504,0.804,0.98V28.923z M35.132,23.311c-1.14,0-2.211-0.443-3.017-1.25c-1.663-1.664-1.663-4.37,0-6.032
				c1.663-1.664,4.371-1.663,6.032,0c1.663,1.663,1.663,4.369,0,6.032C37.342,22.867,36.271,23.311,35.132,23.311z M35.132,16.781
				c-0.581,0-1.161,0.221-1.603,0.663c-0.883,0.883-0.883,2.321,0,3.204c0.857,0.858,2.35,0.855,3.204,0
				c0.883-0.883,0.883-2.321,0-3.204C36.292,17.002,35.712,16.781,35.132,16.781z"/>
			<g>
				<path style="fill:#81BCFF;" d="M50.384,25.054c-0.104,0-0.208-0.016-0.312-0.05c-0.524-0.172-0.811-0.737-0.639-1.262
					c1.778-5.426,0.376-11.304-3.66-15.34c-2.843-2.843-6.622-4.408-10.643-4.409H35.13c-4.021,0-7.8,1.565-10.643,4.408
					c-0.391,0.391-1.023,0.391-1.414,0s-0.391-1.023,0-1.414c3.22-3.22,7.502-4.994,12.057-4.994c0,0,0,0,0.001,0
					c4.555,0,8.837,1.774,12.057,4.995c4.572,4.572,6.161,11.231,4.146,17.377C51.197,24.787,50.805,25.054,50.384,25.054z"/>
				<path style="fill:#81BCFF;" d="M35.131,36.098c-4.555,0-8.837-1.774-12.058-4.995c-4.572-4.572-6.161-11.232-4.146-17.381
					c0.171-0.524,0.733-0.812,1.262-0.639c0.524,0.172,0.811,0.737,0.639,1.262c-1.778,5.428-0.376,11.308,3.66,15.344
					c2.843,2.843,6.623,4.409,10.644,4.409c4.021,0,7.8-1.566,10.644-4.41c0.391-0.391,1.023-0.391,1.414,0s0.391,1.023,0,1.414
					C43.968,34.323,39.686,36.097,35.131,36.098z"/>
				<path style="fill:#81BCFF;" d="M50.317,25.122c-0.256,0-0.512-0.098-0.707-0.293c-0.391-0.391-0.391-1.023,0-1.414l5.144-5.144
					c0.391-0.391,1.023-0.391,1.414,0s0.391,1.023,0,1.414l-5.144,5.144C50.829,25.024,50.573,25.122,50.317,25.122z"/>
				<path style="fill:#81BCFF;" d="M14.54,20.372c-0.256,0-0.512-0.098-0.707-0.293c-0.391-0.391-0.391-1.023,0-1.414l5.144-5.143
					c0.391-0.391,1.023-0.391,1.414,0s0.391,1.023,0,1.414l-5.144,5.143C15.051,20.274,14.795,20.372,14.54,20.372z"/>
			</g>
		</g>
	</g>
	<g>
		<g>
			<path style="fill:#81BCFF;" d="M38.121,62.006h-2v-9.524c0-3.493,5.264-8.08,11.928-13.887l1.807-1.577
				c0.556-0.486,4.363-4.032,4.401-4.068c0.356-0.332,0.899-0.359,1.287-0.064c0.085,0.065,2.084,1.612,2.255,4.122
				c0.118,1.742-0.654,3.457-2.295,5.098l-6.514,6.514l-1.414-1.414l6.514-6.514c1.214-1.214,1.791-2.408,1.713-3.548
				c-0.06-0.883-0.503-1.604-0.888-2.073c-1.144,1.064-3.312,3.077-3.742,3.453l-1.811,1.581
				c-5.526,4.816-11.241,9.796-11.241,12.379V62.006z"/>
			<path style="fill:#81BCFF;" d="M51.707,62.006h-2v-2.908c0-1.137,1.878-3.475,13.009-14.319c0.804-0.782,1.462-1.424,1.893-1.852
				c0.421-1.355,1.581-10.055,2.521-18.055c-0.605-0.217-1.586-0.436-2.475-0.036c-1.044,0.468-1.788,1.703-2.211,3.668
				c-1.521,7.07-2.188,8.704-2.215,8.77c-0.051,0.12-0.124,0.229-0.216,0.321l-10.32,10.321l-1.414-1.414l10.165-10.166
				c0.188-0.548,0.825-2.586,2.045-8.253c0.566-2.632,1.699-4.342,3.367-5.081c2.339-1.037,4.753,0.333,4.854,0.391
				c0.345,0.2,0.538,0.585,0.492,0.981c-2.216,19.004-2.762,19.549-3.055,19.842c-0.427,0.427-1.143,1.125-2.036,1.995
				c-3.213,3.131-11.686,11.386-12.404,12.999V62.006z M51.684,59.266L51.684,59.266L51.684,59.266z"/>
		</g>
		<g>
			<path style="fill:#81BCFF;" d="M33.879,62.006h-2v-9.524c0-2.583-5.715-7.563-11.241-12.379l-1.812-1.581
				c-0.43-0.376-2.597-2.389-3.741-3.453c-0.387,0.472-0.834,1.2-0.889,2.09c-0.071,1.135,0.506,2.323,1.714,3.531l6.514,6.514
				l-1.414,1.414l-6.514-6.514c-1.641-1.641-2.413-3.356-2.295-5.098c0.171-2.51,2.17-4.057,2.255-4.122
				c0.387-0.293,0.93-0.267,1.287,0.064c0.038,0.036,3.847,3.583,4.401,4.068l1.807,1.577c6.664,5.807,11.928,10.394,11.928,13.887
				V62.006z"/>
			<path style="fill:#81BCFF;" d="M20.293,62.006h-2V59.21c-0.718-1.612-9.191-9.868-12.404-12.999
				c-0.894-0.87-1.609-1.567-2.036-1.995c-0.293-0.293-0.839-0.838-3.055-19.842c-0.046-0.396,0.147-0.781,0.492-0.981
				c0.101-0.06,2.512-1.429,4.854-0.391c1.668,0.739,2.801,2.448,3.367,5.081c1.217,5.655,1.853,7.697,2.045,8.254l10.165,10.165
				l-1.414,1.414L9.987,37.595c-0.093-0.092-0.166-0.202-0.216-0.322c-0.027-0.066-0.692-1.7-2.214-8.77
				c-0.423-1.965-1.167-3.2-2.212-3.668c-0.886-0.398-1.87-0.18-2.475,0.037c0.94,8,2.101,16.699,2.521,18.054
				c0.431,0.428,1.089,1.07,1.893,1.852c11.131,10.845,13.009,13.182,13.009,14.319V62.006z M18.316,59.266L18.316,59.266
				L18.316,59.266z"/>
		</g>
	</g>
</g>
<g>
</g>
<g>
</g>
<g>
</g>
<g>
</g>
<g>
</g>
<g>
</g>
</svg>
