<?xml version="1.0" encoding="iso-8859-1"?>
<!-- Generator: Adobe Illustrator 22.1.0, SVG Export Plug-In . SVG Version: 6.00 Build 0)  -->
<svg version="1.1" id="Layer_1" xmlns="http://www.w3.org/2000/svg" xmlns:xlink="http://www.w3.org/1999/xlink" x="0px" y="0px"
	 viewBox="0 0 70 64" style="enable-background:new 0 0 70 64;" xml:space="preserve">
<g>
	<path style="fill:#81BCFF;" d="M34.742,46.467H9.144c-1.295,0-2.349-1.054-2.349-2.35v-32.38c0-1.296,1.054-2.35,2.349-2.35h47.334
		c1.295,0,2.348,1.054,2.348,2.35v5.68h-2v-5.68c0-0.196-0.153-0.35-0.348-0.35H9.144c-0.192,0-0.349,0.157-0.349,0.35v32.38
		c0,0.193,0.157,0.35,0.349,0.35h25.598V46.467z"/>
	<rect x="21.302" y="52.612" style="fill:#81BCFF;" width="13.899" height="2"/>
	<rect x="7.795" y="14.322" style="fill:#81BCFF;" width="50.032" height="2"/>
	<rect x="7.795" y="37.121" style="fill:#81BCFF;" width="26.774" height="2"/>
	<path style="fill:#81BCFF;" d="M26.037,33.638H12.374V19.976h13.663V33.638z M14.374,31.638h9.663v-9.663h-9.663V31.638z"/>
	<g>
		<rect x="29.865" y="19.976" style="fill:#81BCFF;" width="5.336" height="2"/>
		<rect x="29.865" y="31.638" style="fill:#81BCFF;" width="5.336" height="2"/>
		<rect x="29.865" y="27.751" style="fill:#81BCFF;" width="5.336" height="2"/>
		<rect x="29.865" y="23.863" style="fill:#81BCFF;" width="5.336" height="2"/>
	</g>
	<g>
		<path style="fill:#81BCFF;" d="M50.366,54.612h-9.573c-1.845,0-3.236-1.535-3.236-3.569V22.987c0-1.521,1.542-2.906,3.236-2.906
			h19.173c1.694,0,3.238,1.385,3.238,2.906v5.044h-2v-5.044c0-0.31-0.523-0.906-1.238-0.906H40.794
			c-0.714,0-1.236,0.596-1.236,0.906v28.056c0,0.938,0.497,1.569,1.236,1.569h9.573V54.612z"/>
		<path style="fill:#81BCFF;" d="M50.02,47.499h-7.713c-0.552,0-1-0.448-1-1V24.862c0-0.552,0.448-1,1-1h16.147c0.552,0,1,0.448,1,1
			v3.227h-2v-2.227H43.307v19.637h6.713V47.499z"/>
	</g>
	<g>
		<path style="fill:#81BCFF;" d="M59.969,54.612H49.704v-2h10.265c0.739,0,1.236-0.631,1.236-1.569V22.987
			c0-0.31-0.522-0.906-1.236-0.906H40.795c-0.715,0-1.237,0.596-1.237,0.906v5.044h-2v-5.044c0-1.521,1.543-2.906,3.237-2.906
			h19.173c1.694,0,3.236,1.385,3.236,2.906v28.056C63.205,53.078,61.814,54.612,59.969,54.612z"/>
		<path style="fill:#81BCFF;" d="M58.455,47.499H47.266v-2h10.189V25.862H43.308v2.227h-2v-3.227c0-0.552,0.448-1,1-1h16.147
			c0.552,0,1,0.448,1,1v21.637C59.455,47.051,59.008,47.499,58.455,47.499z"/>
	</g>
	<rect x="31.769" y="45.467" style="fill:#81BCFF;" width="2" height="8.145"/>
	<path style="fill:#81BCFF;" d="M51.506,50.066c0,0.621-0.504,1.124-1.125,1.124c-0.621,0-1.125-0.504-1.125-1.124
		c0-0.622,0.504-1.125,1.125-1.125C51.002,48.94,51.506,49.444,51.506,50.066z"/>
</g>
</svg>
