<?xml version="1.0" encoding="iso-8859-1"?>
<!-- Generator: Adobe Illustrator 22.1.0, SVG Export Plug-In . SVG Version: 6.00 Build 0)  -->
<svg version="1.1" id="Layer_1" xmlns="http://www.w3.org/2000/svg" xmlns:xlink="http://www.w3.org/1999/xlink" x="0px" y="0px"
	 viewBox="0 0 70 64" style="enable-background:new 0 0 70 64;" xml:space="preserve">
<g>
	<rect x="49.265" y="10.535" style="fill:#81BCFF;" width="6.373" height="2"/>
	<path style="fill:#81BCFF;" d="M15.888,29.147h-3.327v-2h2.729l3.004-5.615c0.174-0.326,0.514-0.528,0.882-0.528
		c0.005,0,0.01,0,0.016,0l5.027,0.077l2.354-5.119c0.163-0.354,0.518-0.582,0.908-0.582h4.06l4.335-4.536
		c0.188-0.197,0.449-0.309,0.723-0.309h5.556v2h-5.128l-4.335,4.536c-0.188,0.197-0.449,0.309-0.723,0.309h-3.847l-2.358,5.128
		c-0.165,0.36-0.482,0.577-0.924,0.582l-5.07-0.078l-2.999,5.605C16.596,28.944,16.257,29.147,15.888,29.147z"/>
	<rect x="0.402" y="27.147" style="fill:#81BCFF;" width="6.533" height="2"/>
	<g>
		<path style="fill:#81BCFF;" d="M29.817,48.434c-6.469,0-12.55-2.519-17.124-7.093C8.12,36.767,5.6,30.686,5.601,24.218
			C5.6,17.749,8.12,11.668,12.693,7.094c4.574-4.574,10.655-7.093,17.124-7.093c13.353,0,24.216,10.863,24.217,24.216
			C54.033,37.571,43.169,48.434,29.817,48.434z M29.817,2.001c-5.935,0-11.514,2.311-15.71,6.507
			c-4.195,4.196-6.506,9.775-6.506,15.709s2.311,11.513,6.506,15.709c4.196,4.196,9.775,6.507,15.71,6.507
			c12.249,0,22.216-9.966,22.217-22.216C52.033,11.968,42.066,2.001,29.817,2.001z M29.817,42.912
			c-10.308,0-18.693-8.386-18.693-18.694c0-10.307,8.386-18.693,18.693-18.693c10.308,0,18.693,8.386,18.693,18.693
			C48.51,34.526,40.125,42.912,29.817,42.912z M29.817,7.524c-9.205,0-16.693,7.489-16.693,16.693
			c0,9.205,7.488,16.694,16.693,16.694S46.51,33.423,46.51,24.218C46.51,15.013,39.022,7.525,29.817,7.524z"/>
		<path style="fill:#81BCFF;" d="M64.369,63.999c-1.34,0-2.68-0.51-3.699-1.529L47.818,49.617c-0.391-0.391-0.391-1.023,0-1.414
			l5.983-5.985c0.375-0.375,1.039-0.375,1.414,0l12.854,12.852c2.039,2.04,2.039,5.359-0.001,7.399c0,0,0,0,0,0
			C67.048,63.489,65.709,63.999,64.369,63.999z M49.939,48.91l12.145,12.145c1.26,1.259,3.311,1.259,4.57,0s1.261-3.311,0.001-4.57
			L54.508,44.34L49.939,48.91z M67.361,61.762h0.01H67.361z"/>
		<path style="fill:#81BCFF;" d="M51.516,46.918c-0.256,0-0.512-0.098-0.707-0.293l-5.292-5.292c-0.391-0.391-0.391-1.023,0-1.414
			s1.023-0.391,1.414,0l5.292,5.292c0.391,0.391,0.391,1.023,0,1.414C52.028,46.821,51.772,46.918,51.516,46.918z"/>
		
			<rect x="54.558" y="48.96" transform="matrix(0.7073 -0.7069 0.7069 0.7073 -19.0884 53.9816)" style="fill:#81BCFF;" width="2.16" height="2.16"/>
		
			<rect x="57.595" y="51.996" transform="matrix(0.7073 -0.7069 0.7069 0.7073 -20.3462 57.0175)" style="fill:#81BCFF;" width="2.16" height="2.16"/>
		
			<rect x="60.715" y="55.116" transform="matrix(0.7074 -0.7069 0.7069 0.7074 -21.6391 60.1253)" style="fill:#81BCFF;" width="2.16" height="2.161"/>
	</g>
	<g>
		<rect x="19.995" y="29.038" style="fill:#81BCFF;" width="2" height="5.053"/>
		<rect x="24.451" y="25.693" style="fill:#81BCFF;" width="2" height="8.398"/>
		<rect x="28.906" y="21.917" style="fill:#81BCFF;" width="2" height="12.174"/>
		<rect x="33.361" y="19.149" style="fill:#81BCFF;" width="2" height="14.943"/>
		<rect x="37.816" y="15.255" style="fill:#81BCFF;" width="2" height="18.836"/>
	</g>
</g>
</svg>
