<?xml version="1.0" encoding="iso-8859-1"?>
<!-- Generator: Adobe Illustrator 22.1.0, SVG Export Plug-In . SVG Version: 6.00 Build 0)  -->
<svg version="1.1" id="Layer_1" xmlns="http://www.w3.org/2000/svg" xmlns:xlink="http://www.w3.org/1999/xlink" x="0px" y="0px"
	 viewBox="0 0 70 64" style="enable-background:new 0 0 70 64;" xml:space="preserve">
<g>
	<polygon style="fill:#81BCFF;" points="28.054,52.032 5.537,52.032 5.537,8.333 58.738,8.333 58.738,17.062 56.738,17.062 
		56.738,10.333 7.537,10.333 7.537,50.032 28.054,50.032 	"/>
	<path style="fill:#81BCFF;" d="M58.738,18.062H5.537V8.333h53.201V18.062z M7.537,16.062h49.201v-5.729H7.537V16.062z"/>
	<rect x="11.712" y="12.258" style="fill:#81BCFF;" width="1.88" height="1.884"/>
	<rect x="42.672" y="12.258" style="fill:#81BCFF;" width="1.881" height="1.884"/>
	<rect x="46.469" y="12.258" style="fill:#81BCFF;" width="1.884" height="1.884"/>
	<rect x="50.308" y="12.258" style="fill:#81BCFF;" width="1.884" height="1.884"/>
	<g>
		<rect x="11.919" y="20.761" style="fill:#81BCFF;" width="9.457" height="2"/>
		<rect x="15.557" y="24.756" style="fill:#81BCFF;" width="10.393" height="2"/>
		<rect x="15.557" y="28.912" style="fill:#81BCFF;" width="5.196" height="2"/>
		<rect x="22.552" y="28.912" style="fill:#81BCFF;" width="4.136" height="2"/>
		<rect x="15.557" y="32.758" style="fill:#81BCFF;" width="7.663" height="2"/>
	</g>
	<rect x="11.919" y="36.941" style="fill:#81BCFF;" width="9.457" height="2"/>
	<rect x="15.557" y="40.936" style="fill:#81BCFF;" width="4.583" height="2"/>
	<rect x="12.652" y="44.741" style="fill:#81BCFF;" width="4.583" height="2"/>
	<rect x="22.552" y="40.936" style="fill:#81BCFF;" width="4.136" height="2"/>
	<g>
		<path style="fill:#81BCFF;" d="M49.015,50.492H45.81c-0.553,0-1-0.448-1-1v-2.123c-0.607-0.18-1.191-0.422-1.748-0.725
			l-1.502,1.502c-0.188,0.188-0.441,0.293-0.707,0.293l0,0c-0.266,0-0.52-0.105-0.707-0.293l-2.266-2.267
			c-0.391-0.391-0.391-1.023,0-1.414l1.501-1.502c-0.303-0.557-0.545-1.141-0.724-1.747h-2.123c-0.553,0-1-0.448-1-1v-3.206
			c0-0.552,0.447-1,1-1h2.123c0.18-0.605,0.421-1.189,0.724-1.746l-1.501-1.502c-0.391-0.391-0.391-1.023,0-1.414l2.266-2.267
			c0.375-0.375,1.039-0.375,1.414,0l1.501,1.501c0.558-0.303,1.142-0.544,1.749-0.724v-2.123c0-0.552,0.447-1,1-1h3.205
			c0.553,0,1,0.448,1,1v2.123c0.606,0.18,1.189,0.422,1.745,0.724l1.503-1.501c0.391-0.391,1.023-0.391,1.414,0l2.267,2.267
			c0.188,0.188,0.293,0.442,0.293,0.707c0,0.266-0.105,0.52-0.293,0.708l-1.502,1.501c0.302,0.555,0.544,1.139,0.724,1.746h2.123
			c0.553,0,1,0.448,1,1v3.206c0,0.552-0.447,1-1,1h-2.123c-0.18,0.607-0.422,1.191-0.725,1.747l1.503,1.501
			c0.188,0.188,0.293,0.442,0.293,0.708c0,0.265-0.105,0.52-0.293,0.707l-2.267,2.267c-0.391,0.391-1.023,0.391-1.414,0
			l-1.503-1.502c-0.556,0.303-1.14,0.545-1.745,0.725v2.123C50.015,50.044,49.567,50.492,49.015,50.492z M46.81,48.492h1.205v-1.905
			c0-0.477,0.337-0.887,0.804-0.98c0.91-0.182,1.765-0.537,2.541-1.055c0.396-0.265,0.923-0.213,1.262,0.125l1.349,1.348
			l0.853-0.853l-1.349-1.348c-0.337-0.337-0.39-0.865-0.125-1.262c0.517-0.773,0.871-1.629,1.055-2.542
			c0.094-0.467,0.504-0.803,0.98-0.803h1.904v-1.206h-1.904c-0.477,0-0.887-0.336-0.98-0.803c-0.184-0.914-0.538-1.769-1.055-2.542
			c-0.265-0.396-0.212-0.925,0.125-1.262l1.349-1.348l-0.853-0.853l-1.349,1.348c-0.338,0.336-0.866,0.388-1.262,0.125
			c-0.775-0.518-1.63-0.872-2.541-1.054c-0.467-0.093-0.804-0.504-0.804-0.98v-1.904H46.81v1.904c0,0.477-0.337,0.887-0.805,0.98
			c-0.912,0.182-1.768,0.537-2.544,1.054c-0.396,0.263-0.924,0.212-1.262-0.125l-1.347-1.347l-0.852,0.853l1.347,1.348
			c0.337,0.337,0.39,0.865,0.125,1.261c-0.518,0.778-0.872,1.633-1.054,2.542c-0.094,0.467-0.504,0.804-0.98,0.804h-1.904v1.206
			h1.904c0.477,0,0.887,0.336,0.98,0.804c0.182,0.909,0.536,1.764,1.055,2.543c0.264,0.396,0.211,0.924-0.126,1.261l-1.347,1.348
			l0.852,0.853l1.349-1.348c0.337-0.338,0.865-0.39,1.263-0.125c0.773,0.517,1.629,0.872,2.542,1.054
			c0.467,0.093,0.804,0.504,0.804,0.98V48.492z M47.411,42.879c-2.353,0-4.266-1.914-4.266-4.266s1.913-4.266,4.266-4.266
			s4.266,1.914,4.266,4.266S49.764,42.879,47.411,42.879z M47.411,36.348c-1.249,0-2.266,1.016-2.266,2.266s1.017,2.266,2.266,2.266
			s2.266-1.016,2.266-2.266S48.66,36.348,47.411,36.348z"/>
		<g>
			<path style="fill:#81BCFF;" d="M31.359,39.614c-0.553,0-1-0.448-1-1c0-9.402,7.649-17.051,17.052-17.051
				c6.467,0,12.299,3.585,15.22,9.356c0.249,0.493,0.052,1.095-0.441,1.344c-0.493,0.25-1.093,0.052-1.344-0.44
				c-2.578-5.095-7.726-8.259-13.435-8.259c-8.3,0-15.052,6.752-15.052,15.051C32.359,39.166,31.912,39.614,31.359,39.614z"/>
			<path style="fill:#81BCFF;" d="M47.411,55.667c-6.466,0-12.299-3.586-15.223-9.358c-0.249-0.493-0.052-1.094,0.44-1.344
				c0.496-0.25,1.095-0.052,1.345,0.44c2.581,5.096,7.729,8.262,13.438,8.262c8.3,0,15.052-6.753,15.052-15.053c0-0.552,0.447-1,1-1
				s1,0.448,1,1C64.463,48.017,56.813,55.667,47.411,55.667z"/>
			<path style="fill:#81BCFF;" d="M61.738,32.466c-0.553,0-1-0.448-1-1v-7.274c0-0.552,0.447-1,1-1s1,0.448,1,1v7.274
				C62.738,32.019,62.291,32.466,61.738,32.466z"/>
			<path style="fill:#81BCFF;" d="M33.081,54.405c-0.553,0-1-0.448-1-1v-7.273c0-0.552,0.447-1,1-1s1,0.448,1,1v7.273
				C34.081,53.958,33.634,54.405,33.081,54.405z"/>
		</g>
	</g>
	<rect x="28.177" y="24.756" style="fill:#81BCFF;" width="2.78" height="2"/>
</g>
</svg>
