<?xml version="1.0" encoding="iso-8859-1"?>
<!-- Generator: Adobe Illustrator 22.1.0, SVG Export Plug-In . SVG Version: 6.00 Build 0)  -->
<svg version="1.1" id="Layer_1" xmlns="http://www.w3.org/2000/svg" xmlns:xlink="http://www.w3.org/1999/xlink" x="0px" y="0px"
	 viewBox="0 0 70 64" style="enable-background:new 0 0 70 64;" xml:space="preserve">
<g>
	<g>
		<path style="fill:#81BCFF;" d="M50.932,48.478H6.09c-0.553,0-1-0.448-1-1V10.357c0-0.552,0.447-1,1-1h54.334c0.553,0,1,0.448,1,1
			v20.439h-2V11.357H7.09v35.121h43.842V48.478z"/>
	</g>
	<g>
		<rect x="12.504" y="52.643" style="fill:#81BCFF;" width="38.601" height="2"/>
	</g>
	<rect x="17.113" y="47.478" style="fill:#81BCFF;" width="2" height="6.165"/>
	<rect x="47.336" y="47.478" style="fill:#81BCFF;" width="2" height="6.165"/>
	<polygon style="fill:#81BCFF;" points="50.672,42.937 8.921,42.937 8.921,13.473 57.642,13.473 57.642,30.882 55.642,30.882 
		55.642,15.473 10.921,15.473 10.921,40.937 50.672,40.937 	"/>
	<rect x="32.128" y="43.749" style="fill:#81BCFF;" width="2.365" height="2"/>
	<g>
		<path style="fill:#81BCFF;" d="M63.91,54.643H53.722c-0.553,0-1-0.448-1-1V33.744c0-0.552,0.447-1,1-1H63.91c0.553,0,1,0.448,1,1
			v19.899C64.91,54.195,64.462,54.643,63.91,54.643z M54.722,52.643h8.188V34.744h-8.188V52.643z"/>
		<rect x="55.941" y="42.285" style="fill:#81BCFF;" width="2" height="1.944"/>
		<rect x="55.941" y="37.151" style="fill:#81BCFF;" width="2" height="1.944"/>
		<rect x="59.69" y="42.285" style="fill:#81BCFF;" width="2" height="1.944"/>
		<rect x="55.941" y="47.015" style="fill:#81BCFF;" width="2" height="1.944"/>
		<rect x="59.69" y="47.015" style="fill:#81BCFF;" width="2" height="1.944"/>
	</g>
</g>
</svg>
