<?xml version="1.0" encoding="iso-8859-1"?>
<!-- Generator: Adobe Illustrator 22.1.0, SVG Export Plug-In . SVG Version: 6.00 Build 0)  -->
<svg version="1.1" id="Layer_1" xmlns="http://www.w3.org/2000/svg" xmlns:xlink="http://www.w3.org/1999/xlink" x="0px" y="0px"
	 viewBox="0 0 70 64" style="enable-background:new 0 0 70 64;" xml:space="preserve">
<g>
	<g>
		<path style="fill:#81BCFF;" d="M61.592,46.684h-2V15.918H11.064v30.766h-2V14.918c0-0.552,0.447-1,1-1h50.527c0.553,0,1,0.448,1,1
			V46.684z"/>
		<path style="fill:#81BCFF;" d="M66.381,46.684h-2V12.319c0-0.338-0.275-0.614-0.614-0.614H7.154c-0.339,0-0.614,0.275-0.614,0.614
			v34.364h-2V12.319c0-1.441,1.173-2.614,2.614-2.614h56.612c1.441,0,2.614,1.172,2.614,2.614V46.684z"/>
		<path style="fill:#81BCFF;" d="M62.34,54.294H7.659c-4.022,0-5.979-1.286-5.979-3.93v-3.681c0-0.552,0.447-1,1-1h24.063
			c0.553,0,1,0.448,1,1c0,0.657,0.534,1.191,1.191,1.191h13.066c0.657,0,1.192-0.534,1.192-1.191c0-0.552,0.447-1,1-1h23.125
			c0.553,0,1,0.448,1,1v3.681C68.319,53.009,66.363,54.294,62.34,54.294z M3.681,47.684v2.681c0,0.674,0,1.93,3.979,1.93H62.34
			c3.979,0,3.979-1.255,3.979-1.93v-2.681H45.034c-0.421,1.271-1.621,2.191-3.032,2.191H28.936c-1.41,0-2.61-0.92-3.031-2.191H3.681
			z"/>
	</g>
	<g>
		<path style="fill:#81BCFF;" d="M53.233,33.981H42.491c-1.92,0-3.527-1.296-3.989-3.082l-3.359-0.248
			c-0.403-0.029-0.749-0.299-0.876-0.682s-0.012-0.806,0.294-1.07l3.8-3.297v-2.529c0-2.277,1.854-4.129,4.131-4.129h10.742
			c2.277,0,4.131,1.853,4.131,4.129v6.778C57.364,32.128,55.511,33.981,53.233,33.981z M37.688,28.833l1.757,0.13
			c0.509,0.037,0.908,0.452,0.926,0.961c0.041,1.153,0.973,2.056,2.121,2.056h10.742c1.175,0,2.131-0.956,2.131-2.13v-6.778
			c0-1.174-0.956-2.129-2.131-2.129H42.491c-1.175,0-2.131,0.955-2.131,2.129v2.985c0,0.29-0.126,0.565-0.345,0.755L37.688,28.833z"
			/>
		<g>
			<rect x="49.957" y="25.462" style="fill:#81BCFF;" width="1.979" height="2"/>
			<rect x="46.883" y="25.462" style="fill:#81BCFF;" width="1.98" height="2"/>
			<rect x="43.81" y="25.462" style="fill:#81BCFF;" width="1.98" height="2"/>
		</g>
	</g>
	<g>
		<path style="fill:#81BCFF;" d="M27.302,31.753c-3.54,0-6.42-2.881-6.42-6.422c0-3.54,2.88-6.42,6.42-6.42
			c3.539,0,6.419,2.88,6.419,6.42C33.721,28.873,30.841,31.753,27.302,31.753z M27.302,20.911c-2.438,0-4.42,1.983-4.42,4.42
			c0,2.438,1.982,4.422,4.42,4.422c2.437,0,4.419-1.984,4.419-4.422C31.721,22.894,29.738,20.911,27.302,20.911z"/>
		<path style="fill:#81BCFF;" d="M41.926,43.456h-2c0-4.374-3.559-7.933-7.933-7.933h-9.385c-4.374,0-7.933,3.559-7.933,7.933h-2
			c0-5.477,4.456-9.933,9.933-9.933h9.385C37.47,33.523,41.926,37.979,41.926,43.456z"/>
		<rect x="26.298" y="36.657" style="fill:#81BCFF;" width="2.008" height="2.008"/>
		<rect x="26.301" y="39.881" style="fill:#81BCFF;" width="2" height="3.574"/>
	</g>
</g>
<g>
</g>
<g>
</g>
<g>
</g>
<g>
</g>
<g>
</g>
<g>
</g>
</svg>
