<?xml version="1.0" encoding="iso-8859-1"?>
<!-- Generator: Adobe Illustrator 22.1.0, SVG Export Plug-In . SVG Version: 6.00 Build 0)  -->
<svg version="1.1" id="Layer_1" xmlns="http://www.w3.org/2000/svg" xmlns:xlink="http://www.w3.org/1999/xlink" x="0px" y="0px"
	 viewBox="0 0 70 64" style="enable-background:new 0 0 70 64;" xml:space="preserve">
<g>
	<g>
		<path style="fill:#81BCFF;" d="M61.949,56.176H8.051c-0.553,0-1-0.448-1-1V25.405h2v28.771h51.897V16.178H9.051v9.089h-2V15.178
			c0-0.552,0.447-1,1-1h53.897c0.553,0,1,0.448,1,1v39.999C62.949,55.729,62.501,56.176,61.949,56.176z"/>
		<path style="fill:#81BCFF;" d="M47.103,16.178H22.75c-0.553,0-1-0.448-1-1v-1.423c0-3.271,2.662-5.931,5.934-5.931h14.49
			c3.27,0,5.929,2.661,5.929,5.931v1.423C48.103,15.73,47.656,16.178,47.103,16.178z M23.75,14.178h22.353v-0.423
			c0-2.167-1.763-3.931-3.929-3.931h-14.49c-2.169,0-3.934,1.764-3.934,3.931V14.178z"/>
		<g>
			<g>
				<rect x="34.108" y="33.654" style="fill:#81BCFF;" width="2" height="4.711"/>
			</g>
		</g>
	</g>
	<g>
		<path style="fill:#81BCFF;" d="M31.31,34.743H12.98c-3.27,0-5.929-2.66-5.929-5.929V15.266h2v13.549
			c0,2.167,1.763,3.929,3.929,3.929h18.33V34.743z"/>
		<path style="fill:#81BCFF;" d="M57.021,34.743H38.908v-2h18.113c2.166,0,3.928-1.762,3.928-3.929V15.266h2v13.549
			C62.949,32.083,60.29,34.743,57.021,34.743z"/>
		<path style="fill:#81BCFF;" d="M48.103,15.178h-2v-1.423c0-2.167-1.763-3.931-3.929-3.931h-14.49
			c-2.169,0-3.934,1.764-3.934,3.931v1.423h-2v-1.423c0-3.271,2.662-5.931,5.934-5.931h14.49c3.27,0,5.929,2.661,5.929,5.931V15.178
			z"/>
		<g>
			<g>
				<path style="fill:#81BCFF;" d="M38.908,39.365H31.31c-0.553,0-1-0.448-1-1v-9.421c0-0.552,0.447-1,1-1h7.598
					c0.553,0,1,0.448,1,1v9.421C39.908,38.917,39.46,39.365,38.908,39.365z M32.31,37.365h5.598v-7.421H32.31V37.365z"/>
				<rect x="34.108" y="33.654" style="fill:#81BCFF;" width="2" height="4.711"/>
			</g>
		</g>
	</g>
</g>
</svg>
