<?xml version="1.0" encoding="iso-8859-1"?>
<!-- Generator: Adobe Illustrator 22.1.0, SVG Export Plug-In . SVG Version: 6.00 Build 0)  -->
<svg version="1.1" id="Layer_1" xmlns="http://www.w3.org/2000/svg" xmlns:xlink="http://www.w3.org/1999/xlink" x="0px" y="0px"
	 viewBox="0 0 70 64" style="enable-background:new 0 0 70 64;" xml:space="preserve">
<g>
	<g>
		<path style="fill:#81BCFF;" d="M24.555,47.308c-0.269,0-0.532-0.108-0.724-0.311l-7.985-8.385
			c-0.177-0.186-0.276-0.433-0.276-0.689v-16.77c0-0.409,0.249-0.777,0.628-0.929c0.378-0.152,0.814-0.058,1.096,0.239l7.985,8.385
			c0.177,0.186,0.276,0.433,0.276,0.689v16.77c0,0.409-0.249,0.777-0.628,0.929C24.806,47.284,24.68,47.308,24.555,47.308z
			 M17.571,37.522l5.985,6.285v-13.87l-5.985-6.285V37.522z"/>
		
			<rect x="19.563" y="27.941" transform="matrix(0.7241 -0.6896 0.6896 0.7241 -17.5896 23.4859)" style="fill:#81BCFF;" width="2" height="11.578"/>
		<g>
			<line style="fill:#81BCFF;" x1="16.57" y1="21.153" x2="16.57" y2="13.567"/>
			<rect x="15.571" y="13.567" style="fill:#81BCFF;" width="2" height="7.586"/>
		</g>
		<rect x="20.894" y="7.178" style="fill:#81BCFF;" width="2" height="19.565"/>
		<rect x="23.555" y="46.308" style="fill:#81BCFF;" width="2" height="10.514"/>
		<path style="fill:#81BCFF;" d="M24.555,47.308c-0.125,0-0.251-0.023-0.372-0.071c-0.379-0.152-0.628-0.52-0.628-0.929v-16.77
			c0-0.257,0.099-0.504,0.276-0.689l7.986-8.385c0.282-0.296,0.716-0.39,1.096-0.239c0.379,0.152,0.628,0.52,0.628,0.929v16.77
			c0,0.257-0.099,0.504-0.276,0.689l-7.986,8.385C25.087,47.199,24.823,47.308,24.555,47.308z M25.555,29.938v13.87l5.986-6.285
			v-13.87L25.555,29.938z"/>
		
			<rect x="22.759" y="32.73" transform="matrix(0.6896 -0.7242 0.7242 0.6896 -15.5659 31.1469)" style="fill:#81BCFF;" width="11.579" height="2"/>
		<g>
			<line style="fill:#81BCFF;" x1="32.541" y1="21.153" x2="32.541" y2="13.567"/>
			<rect x="31.541" y="13.567" style="fill:#81BCFF;" width="2" height="7.586"/>
		</g>
		<rect x="26.218" y="7.178" style="fill:#81BCFF;" width="2" height="19.565"/>
		<rect x="23.555" y="46.308" style="fill:#81BCFF;" width="2" height="10.514"/>
	</g>
	<g>
		<path style="fill:#81BCFF;" d="M45.443,47.308c-0.269,0-0.532-0.108-0.724-0.311l-7.984-8.385
			c-0.177-0.186-0.276-0.433-0.276-0.689v-16.77c0-0.409,0.249-0.777,0.628-0.929s0.813-0.058,1.096,0.239l7.984,8.385
			c0.177,0.186,0.276,0.433,0.276,0.689v16.77c0,0.409-0.249,0.777-0.628,0.929C45.694,47.284,45.568,47.308,45.443,47.308z
			 M38.459,37.522l5.984,6.285V29.938l-5.984-6.285V37.522z"/>
		
			<rect x="40.451" y="27.941" transform="matrix(0.7242 -0.6896 0.6896 0.7242 -11.8277 37.8896)" style="fill:#81BCFF;" width="2" height="11.578"/>
		<g>
			<line style="fill:#81BCFF;" x1="37.458" y1="21.153" x2="37.458" y2="13.567"/>
			<rect x="36.459" y="13.567" style="fill:#81BCFF;" width="2" height="7.586"/>
		</g>
		<rect x="41.782" y="7.178" style="fill:#81BCFF;" width="2" height="19.565"/>
		<rect x="44.443" y="46.308" style="fill:#81BCFF;" width="2" height="10.514"/>
		<path style="fill:#81BCFF;" d="M45.443,47.308c-0.125,0-0.251-0.023-0.372-0.071c-0.379-0.152-0.628-0.52-0.628-0.929v-16.77
			c0-0.257,0.099-0.504,0.276-0.689l7.986-8.385c0.282-0.296,0.717-0.39,1.096-0.239c0.379,0.152,0.628,0.52,0.628,0.929v16.77
			c0,0.257-0.099,0.504-0.276,0.689l-7.986,8.385C45.975,47.199,45.711,47.308,45.443,47.308z M46.443,29.938v13.87l5.986-6.285
			v-13.87L46.443,29.938z"/>
		
			<rect x="43.647" y="32.73" transform="matrix(0.6898 -0.724 0.724 0.6898 -9.0858 46.2539)" style="fill:#81BCFF;" width="11.579" height="2"/>
		<g>
			<line style="fill:#81BCFF;" x1="53.429" y1="21.153" x2="53.429" y2="13.567"/>
			<rect x="52.429" y="13.567" style="fill:#81BCFF;" width="2" height="7.586"/>
		</g>
		<rect x="47.106" y="7.178" style="fill:#81BCFF;" width="2" height="19.565"/>
		<rect x="44.443" y="46.308" style="fill:#81BCFF;" width="2" height="10.514"/>
	</g>
</g>
</svg>
