<?xml version="1.0" encoding="iso-8859-1"?>
<!-- Generator: Adobe Illustrator 22.1.0, SVG Export Plug-In . SVG Version: 6.00 Build 0)  -->
<svg version="1.1" id="Layer_1" xmlns="http://www.w3.org/2000/svg" xmlns:xlink="http://www.w3.org/1999/xlink" x="0px" y="0px"
	 viewBox="0 0 70 64" style="enable-background:new 0 0 70 64;" xml:space="preserve">
<g>
	<polygon style="fill:#81BCFF;" points="39.643,19.357 37.643,19.357 37.643,14.224 22.447,14.224 22.447,19.357 20.447,19.357 
		20.447,12.224 39.643,12.224 	"/>
	<polygon style="fill:#81BCFF;" points="51.911,19.113 49.911,19.113 49.911,8.334 34.152,8.334 34.152,13.224 32.152,13.224 
		32.152,6.334 51.911,6.334 	"/>
	<path style="fill:#81BCFF;" d="M21.447,57.666h-7.051c-0.272,0-0.534-0.111-0.723-0.309c-0.188-0.197-0.288-0.462-0.276-0.735
		l1.487-34.138c0.023-0.535,0.464-0.957,0.999-0.957h7.051c0.272,0,0.534,0.111,0.723,0.309c0.188,0.197,0.288,0.462,0.276,0.735
		l-1.487,34.138C22.423,57.244,21.982,57.666,21.447,57.666z M15.441,55.666h5.049l1.399-32.138h-5.049L15.441,55.666z"/>
	<path style="fill:#81BCFF;" d="M55.604,57.666H21.447c-0.272,0-0.534-0.111-0.723-0.309c-0.188-0.197-0.288-0.462-0.276-0.735
		l1.487-34.138c0.023-0.535,0.464-0.957,0.999-0.957h31.183c0.535,0,0.976,0.422,0.999,0.957l1.486,34.138
		c0.012,0.272-0.088,0.538-0.276,0.735C56.138,57.554,55.876,57.666,55.604,57.666z M22.492,55.666h32.066L53.16,23.527H23.892
		L22.492,55.666z"/>
	<path style="fill:#81BCFF;" d="M38.738,49.248c-4.327,0-7.847-3.522-7.847-7.851V29.334h2v12.063c0,3.226,2.623,5.851,5.847,5.851
		c3.225,0,5.848-2.625,5.848-5.851V29.334h2v12.063C46.586,45.726,43.065,49.248,38.738,49.248z"/>
	<rect x="29.151" y="28.632" style="fill:#81BCFF;" width="5.393" height="2"/>
	<rect x="42.891" y="28.632" style="fill:#81BCFF;" width="5.394" height="2"/>
</g>
</svg>
