<?xml version="1.0" encoding="iso-8859-1"?>
<!-- Generator: Adobe Illustrator 22.1.0, SVG Export Plug-In . SVG Version: 6.00 Build 0)  -->
<svg version="1.1" id="Layer_1" xmlns="http://www.w3.org/2000/svg" xmlns:xlink="http://www.w3.org/1999/xlink" x="0px" y="0px"
	 viewBox="0 0 70 64" style="enable-background:new 0 0 70 64;" xml:space="preserve">
<g>
	<g>
		<path style="fill:#81BCFF;" d="M59.498,58.092H18.816c-2.635,0-4.779-2.144-4.779-4.778V40.841h2v12.473
			c0,1.532,1.247,2.778,2.779,2.778h40.682c1.532,0,2.778-1.246,2.778-2.778v-26.12c0-1.532-1.247-2.778-2.778-2.778H42.283v-2
			h17.215c2.635,0,4.778,2.144,4.778,4.778v26.12C64.276,55.949,62.133,58.092,59.498,58.092z"/>
		<g>
			<rect x="19.327" y="43.129" style="fill:#81BCFF;" width="2.516" height="2"/>
			<rect x="24.095" y="43.129" style="fill:#81BCFF;" width="2.515" height="2"/>
			<rect x="28.862" y="43.129" style="fill:#81BCFF;" width="2.516" height="2"/>
			<rect x="33.629" y="43.129" style="fill:#81BCFF;" width="2.516" height="2"/>
		</g>
		<g>
			<rect x="41.309" y="43.129" style="fill:#81BCFF;" width="2.516" height="2"/>
			<rect x="46.074" y="43.129" style="fill:#81BCFF;" width="2.517" height="2"/>
			<rect x="50.842" y="43.129" style="fill:#81BCFF;" width="2.516" height="2"/>
			<rect x="55.61" y="43.129" style="fill:#81BCFF;" width="2.515" height="2"/>
		</g>
		<g>
			<rect x="34.62" y="49.496" style="fill:#81BCFF;" width="23.504" height="2"/>
			<rect x="19.327" y="49.496" style="fill:#81BCFF;" width="10.195" height="2"/>
		</g>
	</g>
	<g>
		<path style="fill:#81BCFF;" d="M21.904,38.269c-8.922,0-16.18-7.259-16.18-16.181s7.258-16.181,16.18-16.181
			c8.922,0,16.182,7.259,16.182,16.181S30.826,38.269,21.904,38.269z M21.904,7.908c-7.819,0-14.18,6.361-14.18,14.181
			s6.361,14.181,14.18,14.181c7.82,0,14.182-6.361,14.182-14.181S29.724,7.908,21.904,7.908z"/>
		<g>
			<g>
				<g>
					<line style="fill:#81BCFF;" x1="17.564" y1="30.087" x2="26.245" y2="14.089"/>
					
						<rect x="12.804" y="21.088" transform="matrix(0.477 -0.8789 0.8789 0.477 -7.9576 30.8033)" style="fill:#81BCFF;" width="18.202" height="2"/>
				</g>
				<path style="fill:#81BCFF;" d="M16.588,21.341c-2.023,0-3.668-1.645-3.668-3.666v-0.92c0-2.021,1.646-3.666,3.668-3.666
					c2.021,0,3.665,1.645,3.665,3.666v0.92C20.253,19.696,18.609,21.341,16.588,21.341z M16.588,15.089
					c-0.92,0-1.668,0.747-1.668,1.666v0.92c0,0.918,0.749,1.666,1.668,1.666c0.918,0,1.665-0.748,1.665-1.666v-0.92
					C18.253,15.836,17.506,15.089,16.588,15.089z"/>
				<path style="fill:#81BCFF;" d="M27.164,31.087c-2.021,0-3.666-1.645-3.666-3.667v-0.919c0-2.021,1.645-3.666,3.666-3.666
					c2.022,0,3.667,1.645,3.667,3.666v0.919C30.831,29.442,29.186,31.087,27.164,31.087z M27.164,24.835
					c-0.918,0-1.666,0.748-1.666,1.666v0.919c0,0.919,0.748,1.667,1.666,1.667c0.919,0,1.667-0.748,1.667-1.667v-0.919
					C28.831,25.583,28.083,24.835,27.164,24.835z"/>
			</g>
		</g>
	</g>
	<path style="fill:#81BCFF;" d="M49.728,40.456c-0.003,0-0.007,0-0.01,0l-0.243-0.002c-0.274-0.003-0.536-0.119-0.723-0.32
		c-0.187-0.201-0.283-0.471-0.265-0.745c0.006-0.085,0.01-0.171,0.011-0.258c0.014-1.208-0.442-2.346-1.285-3.208
		c-0.842-0.862-1.97-1.345-3.175-1.358l-0.16,0.002c-0.269-0.002-0.548-0.096-0.742-0.287c-0.194-0.191-0.314-0.452-0.311-0.724
		l0.003-0.235c0.003-0.272,0.118-0.532,0.316-0.718c0.199-0.186,0.468-0.281,0.736-0.269l0.184,0.007
		c1.21,0.031,2.343-0.442,3.205-1.285c0.862-0.843,1.345-1.97,1.358-3.176c0.003-0.265,0.111-0.586,0.301-0.771
		c0.189-0.186,0.441-0.368,0.71-0.352l0.23,0.003c0.269,0.003,0.524,0.115,0.71,0.309c0.186,0.194,0.285,0.455,0.276,0.724
		l-0.229,0.023l0,0.087l0.225,0.003c-0.029,2.488,1.972,4.536,4.461,4.565l0.185-0.002c0.265-0.013,0.534,0.096,0.727,0.286
		c0.193,0.19,0.302,0.451,0.299,0.722l-0.002,0.235c-0.002,0.271-0.115,0.531-0.312,0.718c-0.197,0.187-0.46,0.29-0.733,0.273
		l-0.191-0.007c-0.018,0-0.036,0-0.054,0c-2.462,0-4.481,1.99-4.51,4.461c-0.001,0.087,0.001,0.171,0.005,0.255
		c0.013,0.275-0.088,0.543-0.279,0.741C50.259,40.345,50,40.456,49.728,40.456z M47.335,33.486c0.473,0.285,0.912,0.632,1.308,1.037
		c0.395,0.404,0.731,0.851,1.005,1.329c0.284-0.472,0.631-0.911,1.035-1.306c0.405-0.396,0.853-0.733,1.333-1.006
		c-0.959-0.578-1.757-1.395-2.312-2.367C49.127,32.132,48.309,32.931,47.335,33.486z"/>
</g>
</svg>
