<?xml version="1.0" encoding="iso-8859-1"?>
<!-- Generator: Adobe Illustrator 22.1.0, SVG Export Plug-In . SVG Version: 6.00 Build 0)  -->
<svg version="1.1" id="Layer_1" xmlns="http://www.w3.org/2000/svg" xmlns:xlink="http://www.w3.org/1999/xlink" x="0px" y="0px"
	 viewBox="0 0 70 64" style="enable-background:new 0 0 70 64;" xml:space="preserve">
<g>
	<g>
		<g>
			<path style="fill:#81BCFF;" d="M54.27,34.931c-0.553,0-1-0.448-1-1c0-3.306-0.893-6.544-2.582-9.366
				c-0.283-0.474-0.129-1.088,0.345-1.372c0.475-0.284,1.088-0.13,1.372,0.344c1.874,3.132,2.865,6.727,2.865,10.394
				C55.27,34.483,54.822,34.931,54.27,34.931z"/>
			<path style="fill:#81BCFF;" d="M15.73,34.931c-0.553,0-1-0.448-1-1c0-3.963,1.145-7.802,3.311-11.103
				c0.303-0.461,0.924-0.592,1.385-0.288c0.462,0.303,0.59,0.923,0.287,1.384c-1.951,2.975-2.982,6.435-2.982,10.006
				C16.73,34.483,16.283,34.931,15.73,34.931z"/>
			<path style="fill:#81BCFF;" d="M19.946,52.457H15.73c-0.553,0-1-0.448-1-1V33.931c0-0.552,0.447-1,1-1h4.216
				c1.33,0,2.412,1.083,2.412,2.413v14.701C22.358,51.375,21.276,52.457,19.946,52.457z M16.73,50.457h3.216
				c0.224,0,0.412-0.189,0.412-0.412V35.344c0-0.224-0.188-0.413-0.412-0.413H16.73V50.457z"/>
			<path style="fill:#81BCFF;" d="M54.27,52.457h-4.215c-1.331,0-2.413-1.082-2.413-2.412V35.344c0-1.331,1.082-2.413,2.413-2.413
				h4.215c0.553,0,1,0.448,1,1v17.526C55.27,52.009,54.822,52.457,54.27,52.457z M50.055,34.931c-0.224,0-0.413,0.189-0.413,0.413
				v14.701c0,0.223,0.189,0.412,0.413,0.412h3.215V34.931H50.055z"/>
			<path style="fill:#81BCFF;" d="M15.73,52.457c-0.099,0-0.198-0.015-0.295-0.044c-0.243-0.075-5.95-1.929-5.95-9.715
				s5.706-9.646,5.949-9.722c0.302-0.094,0.633-0.038,0.889,0.15c0.256,0.188,0.407,0.487,0.407,0.805v17.526
				c0,0.317-0.15,0.616-0.406,0.805C16.15,52.39,15.941,52.457,15.73,52.457z M14.73,35.572c-1.346,0.935-3.245,2.989-3.245,7.125
				c0,4.117,1.903,6.175,3.245,7.114V35.572z"/>
			<path style="fill:#81BCFF;" d="M54.27,52.457c-0.211,0-0.42-0.067-0.594-0.195c-0.256-0.188-0.406-0.487-0.406-0.805V33.931
				c0-0.318,0.151-0.617,0.407-0.805c0.256-0.188,0.587-0.244,0.889-0.15c0.243,0.075,5.949,1.935,5.949,9.722
				s-5.707,9.64-5.95,9.715C54.468,52.442,54.368,52.457,54.27,52.457z M55.27,35.572v14.247c1.344-0.933,3.245-2.983,3.245-7.122
				C58.515,38.561,56.615,36.507,55.27,35.572z"/>
			<path style="fill:#81BCFF;" d="M49.864,24.79c-0.934,0-1.811-0.413-2.406-1.133c-3.084-3.735-7.625-5.877-12.46-5.877
				s-9.376,2.142-12.458,5.876c-1.1,1.324-3.068,1.513-4.392,0.419c-1.326-1.096-1.515-3.065-0.419-4.391
				c4.272-5.174,10.567-8.142,17.269-8.142c6.702,0,12.997,2.968,17.271,8.142c1.094,1.326,0.906,3.295-0.419,4.389
				C51.292,24.536,50.587,24.79,49.864,24.79z M34.998,15.78c5.434,0,10.537,2.407,14.002,6.603
				c0.214,0.259,0.528,0.407,0.864,0.407c0.183,0,0.454-0.044,0.711-0.257c0.476-0.393,0.543-1.099,0.15-1.575
				c-3.892-4.712-9.624-7.415-15.728-7.415c-6.103,0-11.835,2.703-15.727,7.416c-0.394,0.476-0.325,1.182,0.15,1.575
				c0.476,0.393,1.183,0.324,1.576-0.152C24.461,18.187,29.564,15.78,34.998,15.78z"/>
		</g>
	</g>
</g>
</svg>
