<?xml version="1.0" encoding="iso-8859-1"?>
<!-- Generator: Adobe Illustrator 22.1.0, SVG Export Plug-In . SVG Version: 6.00 Build 0)  -->
<svg version="1.1" id="Layer_1" xmlns="http://www.w3.org/2000/svg" xmlns:xlink="http://www.w3.org/1999/xlink" x="0px" y="0px"
	 viewBox="0 0 88 99" style="enable-background:new 0 0 88 99;" xml:space="preserve">
<path d="M44,99C24.372,99,8.404,83.08,8.404,63.512v-36.15c0-1.089,0.885-1.972,1.978-1.972c1.092,0,1.978,0.883,1.978,1.972v36.15
	c0,17.394,14.194,31.545,31.64,31.545s31.64-14.151,31.64-31.545v-36.15c0-1.089,0.885-1.972,1.978-1.972
	c1.092,0,1.978,0.883,1.978,1.972v36.15C79.596,83.08,63.628,99,44,99z"/>
<path d="M10.382,69.737C4.657,69.737,0,65.094,0,59.386s4.657-10.351,10.382-10.351c1.092,0,1.978,0.883,1.978,1.972
	c0,1.089-0.885,1.972-1.978,1.972c-3.544,0-6.427,2.875-6.427,6.408c0,3.533,2.883,6.408,6.427,6.408
	c1.092,0,1.978,0.883,1.978,1.972C12.36,68.854,11.474,69.737,10.382,69.737z"/>
<path d="M29.049,59.529c-0.544,0-1.084-0.221-1.474-0.657c-0.75-0.836-1.825-1.315-2.949-1.315c-1.123,0-2.197,0.479-2.948,1.314
	c-0.728,0.811-1.979,0.879-2.792,0.152c-0.813-0.727-0.882-1.973-0.153-2.784c1.501-1.668,3.648-2.625,5.893-2.625
	c2.248,0,4.396,0.958,5.896,2.628c0.728,0.812,0.659,2.058-0.154,2.784C29.989,59.363,29.518,59.529,29.049,59.529z"/>
<path d="M67.599,59.529c-0.544,0-1.084-0.221-1.474-0.657c-0.75-0.836-1.825-1.315-2.949-1.315c-1.123,0-2.197,0.479-2.948,1.314
	c-0.729,0.811-1.98,0.879-2.792,0.152c-0.813-0.727-0.882-1.973-0.153-2.784c1.501-1.668,3.648-2.625,5.893-2.625
	c2.248,0,4.396,0.958,5.896,2.628c0.728,0.812,0.66,2.058-0.154,2.784C68.54,59.363,68.068,59.529,67.599,59.529z"/>
<path d="M77.618,69.737c-1.092,0-1.978-0.883-1.978-1.972c0-1.089,0.885-1.972,1.978-1.972c3.544,0,6.427-2.875,6.427-6.408
	c0-3.533-2.883-6.408-6.427-6.408c-1.092,0-1.978-0.883-1.978-1.972c0-1.089,0.885-1.972,1.978-1.972
	C83.343,49.035,88,53.678,88,59.386S83.343,69.737,77.618,69.737z"/>
<path d="M6.213,24.271c-0.115,0-0.232-0.01-0.35-0.031c-1.075-0.192-1.791-1.216-1.599-2.287C7.276,5.138,20.916,1.526,30.912,0.272
	c15.307-1.92,32.452,6.929,33.174,7.307c0.967,0.505,1.339,1.696,0.833,2.661c-0.506,0.964-1.702,1.337-2.669,0.832
	c-0.166-0.086-16.785-8.654-30.844-6.887c-14.109,1.769-21.28,7.464-23.249,18.461C7.986,23.601,7.153,24.271,6.213,24.271z"/>
<path d="M36.244,37.05c-10.733,0-15.729-3.211-19.377-5.556c-1.994-1.281-3.435-2.207-5.218-2.207c-4.751,0-7.574,2.208-7.601,2.231
	c-0.638,0.523-1.534,0.596-2.246,0.185c-0.715-0.411-1.098-1.221-0.962-2.032c0.808-4.82,4.908-13.938,14.64-13.938
	c2.791,0,4.598,0.675,6.347,1.327c1.739,0.649,3.381,1.261,6.26,1.261c4.813,0,7.533-4.094,7.646-4.268
	c0.593-0.91,1.814-1.175,2.73-0.59c0.916,0.585,1.188,1.795,0.604,2.712c-0.158,0.248-3.959,6.09-10.98,6.09
	c-3.595,0-5.747-0.803-7.646-1.511c-1.549-0.578-2.886-1.076-4.961-1.076c-5.161,0-7.936,3.513-9.364,6.506
	c1.514-0.477,3.373-0.838,5.533-0.838c2.948,0,5.092,1.378,7.361,2.836c3.415,2.195,7.667,4.927,17.235,4.927
	c9.794,0,19.255-5.122,25.306-13.703c0.628-0.89,1.863-1.105,2.755-0.478c0.893,0.626,1.108,1.856,0.48,2.747
	C57.994,31.301,47.325,37.05,36.244,37.05z"/>
<path d="M77.609,45.183h-0.59c-8.723,0-15.82-7.076-15.82-15.772v-18.73c0-2.718,2.218-4.929,4.944-4.929h0.59
	c7.087,0,12.854,5.749,12.854,12.815v24.644C79.587,44.3,78.701,45.183,77.609,45.183z M66.143,9.695
	c-0.546,0-0.989,0.442-0.989,0.986v18.73c0,6.055,4.587,11.062,10.478,11.748V18.567c0-4.892-3.992-8.872-8.899-8.872H66.143z"/>
<path d="M43.93,86.144c-8.465,0-16.346-3.366-22.187-9.476c-0.754-0.788-0.724-2.036,0.067-2.787
	c0.789-0.751,2.042-0.722,2.795,0.066c5.09,5.322,11.952,8.253,19.325,8.253c7.371,0,14.235-2.93,19.325-8.252
	c0.754-0.787,2.007-0.816,2.795-0.066c0.791,0.751,0.821,1.999,0.067,2.787C60.273,82.78,52.393,86.144,43.93,86.144z"/>
<g>
</g>
<g>
</g>
<g>
</g>
<g>
</g>
<g>
</g>
<g>
</g>
</svg>
