<?xml version="1.0" encoding="iso-8859-1"?>
<!-- Generator: Adobe Illustrator 22.1.0, SVG Export Plug-In . SVG Version: 6.00 Build 0)  -->
<svg version="1.1" id="Layer_1" xmlns="http://www.w3.org/2000/svg" xmlns:xlink="http://www.w3.org/1999/xlink" x="0px" y="0px"
	 viewBox="0 0 70 64" style="enable-background:new 0 0 70 64;" xml:space="preserve">
<g>
	<g>
		<path style="fill:#81BCFF;" d="M61.592,46.684h-2V15.918H11.064v30.766h-2V14.918c0-0.552,0.447-1,1-1h50.527c0.553,0,1,0.448,1,1
			V46.684z"/>
		<path style="fill:#81BCFF;" d="M66.38,46.684h-2V12.319c0-0.338-0.275-0.614-0.613-0.614H7.154c-0.339,0-0.614,0.275-0.614,0.614
			v34.364h-2V12.319c0-1.441,1.173-2.614,2.614-2.614h56.612c1.441,0,2.613,1.172,2.613,2.614V46.684z"/>
		<path style="fill:#81BCFF;" d="M62.34,54.294H7.659c-4.022,0-5.979-1.286-5.979-3.93v-3.681c0-0.552,0.447-1,1-1h24.063
			c0.553,0,1,0.448,1,1c0,0.657,0.534,1.191,1.191,1.191h13.066c0.657,0,1.192-0.534,1.192-1.191c0-0.552,0.447-1,1-1h23.125
			c0.553,0,1,0.448,1,1v3.681C68.319,53.009,66.363,54.294,62.34,54.294z M3.681,47.684v2.681c0,0.674,0,1.93,3.979,1.93H62.34
			c3.979,0,3.979-1.255,3.979-1.93v-2.681H45.034c-0.421,1.271-1.621,2.191-3.032,2.191H28.936c-1.41,0-2.61-0.92-3.031-2.191H3.681
			z"/>
	</g>
	<g>
		<g>
			<path style="fill:#81BCFF;" d="M35.044,39.942c-4.861,0-8.816-3.956-8.816-8.817s3.955-8.817,8.816-8.817
				s8.816,3.955,8.816,8.817S39.905,39.942,35.044,39.942z M35.044,24.308c-3.759,0-6.816,3.058-6.816,6.817
				c0,3.759,3.058,6.817,6.816,6.817s6.816-3.058,6.816-6.817C41.86,27.366,38.803,24.308,35.044,24.308z"/>
		</g>
		<g>
			<g>
				<path style="fill:#81BCFF;" d="M34.59,35.691v-1.136c-0.652-0.011-1.316-0.214-1.71-0.495l0.27-0.754
					c0.394,0.27,0.979,0.484,1.597,0.484c0.81,0,1.35-0.461,1.35-1.102c0-0.619-0.439-1.001-1.271-1.339
					c-1.147-0.45-1.856-0.978-1.856-1.957c0-0.934,0.664-1.642,1.687-1.811v-1.125h0.709v1.091c0.675,0.023,1.136,0.202,1.462,0.394
					l-0.281,0.743c-0.236-0.135-0.697-0.394-1.417-0.394c-0.866,0-1.192,0.517-1.192,0.978c0,0.574,0.416,0.866,1.395,1.283
					c1.159,0.472,1.743,1.046,1.743,2.047c0,0.9-0.619,1.732-1.777,1.924v1.17H34.59z"/>
				<path style="fill:#81BCFF;" d="M35.799,36.191H34.09v-1.175c-0.572-0.08-1.119-0.277-1.5-0.549l-0.309-0.22l0.617-1.72
					l0.535,0.367c0.361,0.248,0.853,0.396,1.313,0.396c0.392,0,0.85-0.158,0.85-0.603c0-0.235-0.074-0.517-0.958-0.875
					c-1.07-0.419-2.169-1.037-2.169-2.42c0-1.036,0.662-1.88,1.688-2.205v-1.231h1.709v1.134c0.448,0.066,0.849,0.205,1.215,0.419
					l0.364,0.213l-0.639,1.686l-0.508-0.291c-0.2-0.115-0.573-0.328-1.169-0.328c-0.44,0-0.692,0.174-0.692,0.479
					c0,0.21,0.078,0.392,1.091,0.823c0.949,0.387,2.047,1.024,2.047,2.507c0,1.093-0.698,1.982-1.776,2.318V36.191z M36.233,31.673
					c0.146,0.174,0.258,0.377,0.316,0.617C36.511,32.07,36.418,31.868,36.233,31.673z"/>
			</g>
		</g>
	</g>
	<path style="fill:#81BCFF;" d="M21.837,30.001c0,0.621-0.504,1.124-1.125,1.124c-0.621,0-1.125-0.504-1.125-1.124
		c0-0.622,0.504-1.125,1.125-1.125C21.333,28.876,21.837,29.379,21.837,30.001z"/>
	<path style="fill:#81BCFF;" d="M50.329,30.001c0,0.621-0.504,1.124-1.125,1.124c-0.621,0-1.125-0.504-1.125-1.124
		c0-0.622,0.504-1.125,1.125-1.125C49.825,28.876,50.329,29.379,50.329,30.001z"/>
	<path style="fill:#81BCFF;" d="M52.515,43.833H18.121c-0.553,0-1-0.448-1-1c0-1.489-1.212-2.701-2.702-2.701c-0.553,0-1-0.448-1-1
		V22.188c0-0.552,0.447-1,1-1c1.49,0,2.702-1.212,2.702-2.702c0-0.552,0.447-1,1-1h34.394c0.553,0,1,0.448,1,1
		c0,1.49,1.212,2.702,2.701,2.702c0.553,0,1,0.448,1,1v16.944c0,0.552-0.447,1-1,1c-1.489,0-2.701,1.211-2.701,2.701
		C53.515,43.385,53.067,43.833,52.515,43.833z M19.014,41.833h32.608c0.389-1.791,1.803-3.204,3.594-3.594V23.082
		c-1.791-0.39-3.205-1.803-3.594-3.595H19.014c-0.39,1.792-1.803,3.205-3.595,3.595v15.158
		C17.211,38.629,18.624,40.042,19.014,41.833z"/>
</g>
</svg>
