<?xml version="1.0" encoding="iso-8859-1"?>
<!-- Generator: Adobe Illustrator 22.1.0, SVG Export Plug-In . SVG Version: 6.00 Build 0)  -->
<svg version="1.1" id="Layer_1" xmlns="http://www.w3.org/2000/svg" xmlns:xlink="http://www.w3.org/1999/xlink" x="0px" y="0px"
	 viewBox="0 0 30 43" style="enable-background:new 0 0 30 43;" xml:space="preserve">
<g>
	<g>
		<path d="M5.678,10.097H0.015v1.907h5.663V10.097z M17.317,12.004h5.664v-1.907h-5.664V12.004z M12.489,0h-1.982v5.45h1.982V0z
			 M20.318,3.911l-1.401-1.348l-4.004,3.854l1.401,1.348L20.318,3.911z M8.084,6.416L4.078,2.563L2.677,3.911l4.005,3.854
			L8.084,6.416z M30,23.76v-0.492c0-1.897-1.538-3.44-3.429-3.44c-0.599,0-1.154,0.169-1.645,0.441
			c-0.441-1.39-1.724-2.407-3.253-2.407c-0.599,0-1.154,0.169-1.645,0.441c-0.44-1.39-1.724-2.407-3.253-2.407
			c-0.528,0-1.022,0.13-1.469,0.345V13.44c0-1.897-1.538-3.44-3.429-3.44c-1.89,0-3.429,1.543-3.429,3.44v14.725L6.593,24.23
			c-0.389-0.837-1.083-1.473-1.952-1.79c-0.871-0.319-1.81-0.278-2.644,0.112c-1.728,0.808-2.478,2.876-1.672,4.608l3.549,7.634l0,0
			L7.69,43h17.981l0.289-0.471C26.125,42.259,30,35.886,30,31.06L30,23.76z M28.041,23.76l-0.017,7.3
			c0,3.573-2.605,8.439-3.471,9.958H8.948L2.115,26.324c-0.042-0.091-0.074-0.184-0.097-0.278c-0.021-0.088-0.033-0.179-0.038-0.269
			c0-0.005-0.002-0.01-0.002-0.014c-0.008-0.192,0.022-0.387,0.09-0.574c0.068-0.187,0.17-0.355,0.299-0.498
			c0.001-0.001,0.002-0.001,0.002-0.002c0.129-0.141,0.285-0.257,0.462-0.34c0.09-0.042,0.183-0.074,0.277-0.097
			c0.076-0.018,0.153-0.026,0.23-0.033c0.018-0.001,0.036-0.007,0.054-0.007c0.191-0.008,0.385,0.022,0.571,0.091
			c0.187,0.068,0.354,0.17,0.496,0.299c0.001,0.001,0.002,0.003,0.004,0.004c0.141,0.129,0.256,0.285,0.338,0.462l3.738,7.946
			l1.868-0.416V13.44c0-0.813,0.659-1.475,1.469-1.475c0.81,0,1.469,0.662,1.469,1.475v12.285h1.959v-6.389
			c0-0.813,0.659-1.474,1.469-1.474c0.81,0,1.469,0.661,1.469,1.474v6.389h1.959v-4.423c0-0.813,0.659-1.474,1.469-1.474
			s1.469,0.661,1.469,1.474v4.423h1.959v-2.457c0-0.813,0.659-1.474,1.469-1.474c0.81,0,1.469,0.661,1.469,1.474V23.76z"/>
	</g>
</g>
<g>
</g>
<g>
</g>
<g>
</g>
<g>
</g>
<g>
</g>
<g>
</g>
</svg>
