<?xml version="1.0" encoding="iso-8859-1"?>
<!-- Generator: Adobe Illustrator 22.1.0, SVG Export Plug-In . SVG Version: 6.00 Build 0)  -->
<svg version="1.1" id="Layer_1" xmlns="http://www.w3.org/2000/svg" xmlns:xlink="http://www.w3.org/1999/xlink" x="0px" y="0px"
	 viewBox="0 0 42 17" style="enable-background:new 0 0 42 17;" xml:space="preserve">
<g>
	<g>
		<path d="M33.381-0.012C28.096-0.012,22.919,4.95,21,7.006C19.082,4.95,13.905-0.012,8.619-0.012C3.866-0.012,0,3.807,0,8.5
			c0,4.694,3.866,8.512,8.619,8.512c5.328,0,10.469-4.95,12.381-7.012c1.912,2.062,7.053,7.012,12.381,7.012
			C38.134,17.012,42,13.194,42,8.5C42,3.807,38.134-0.012,33.381-0.012z M8.619,15.037C4.97,15.037,2,12.105,2,8.5
			c0-3.605,2.97-6.537,6.619-6.537c4.587,0,9.44,4.796,11.052,6.541C18.071,10.249,13.259,15.037,8.619,15.037z M33.381,15.037
			c-4.63,0-9.45-4.79-11.052-6.535c1.61-1.745,6.457-6.539,11.052-6.539C37.03,1.963,40,4.895,40,8.5
			C40,12.105,37.03,15.037,33.381,15.037z"/>
	</g>
</g>
<g>
</g>
<g>
</g>
<g>
</g>
<g>
</g>
<g>
</g>
<g>
</g>
</svg>
