<?xml version="1.0" encoding="iso-8859-1"?>
<!-- Generator: Adobe Illustrator 22.1.0, SVG Export Plug-In . SVG Version: 6.00 Build 0)  -->
<svg version="1.1" id="Layer_1" xmlns="http://www.w3.org/2000/svg" xmlns:xlink="http://www.w3.org/1999/xlink" x="0px" y="0px"
	 viewBox="0 0 70 64" style="enable-background:new 0 0 70 64;" xml:space="preserve">
<g>
	<g id="ellipses_1_">
		<path style="fill:#81BCFF;" d="M44.23,58.805c-2.833,0-6.107-1.532-9.505-4.497c-4.442-3.876-8.65-9.796-11.848-16.669
			C16.048,22.963,16.024,8.99,22.821,5.826c6.793-3.164,17.472,5.855,24.301,20.532c3.198,6.873,5.016,13.904,5.121,19.798
			c0.109,6.177-1.69,10.444-5.066,12.014C46.265,58.595,45.277,58.805,44.23,58.805z M25.787,7.19c-0.758,0-1.469,0.146-2.122,0.45
			c-5.587,2.6-5.119,15.952,1.024,29.155c3.083,6.625,7.114,12.309,11.35,16.005c3.965,3.461,7.717,4.757,10.294,3.557
			c2.578-1.199,4.003-4.904,3.91-10.165c-0.099-5.622-1.852-12.366-4.934-18.99C39.882,15.541,31.517,7.19,25.787,7.19z"/>
		<path style="fill:#81BCFF;" d="M36.156,45.382c-0.481,0-0.962-0.005-1.45-0.016C18.523,45.011,5.976,38.863,6.139,31.368
			c0.164-7.495,12.959-13.073,29.154-12.737l0,0c16.181,0.355,28.729,6.504,28.567,13.998C63.701,39.9,51.647,45.382,36.156,45.382z
			 M33.917,20.616c-13.978,0-25.647,4.822-25.778,10.795c-0.135,6.161,12.052,11.636,26.611,11.955
			c14.56,0.302,26.975-4.619,27.11-10.781c0.134-6.161-12.053-11.636-26.611-11.955v0C34.804,20.621,34.359,20.616,33.917,20.616z"
			/>
		<path style="fill:#81BCFF;" d="M24.581,58.172c-1.231,0-2.378-0.27-3.412-0.833c-6.579-3.595-5.658-17.539,2.096-31.746l0,0
			c3.632-6.653,8.21-12.291,12.892-15.875c4.906-3.755,9.408-4.841,12.674-3.058c6.58,3.592,5.66,17.536-2.094,31.744
			C40.198,50.381,31.19,58.172,24.581,58.172z M25.021,26.551c-6.977,12.782-8.301,26.077-2.893,29.032
			c5.411,2.953,15.875-5.355,22.853-18.137c6.977-12.783,8.301-26.077,2.892-29.03c-2.496-1.364-6.322-0.309-10.5,2.89
			C32.908,14.723,28.521,20.137,25.021,26.551L25.021,26.551z"/>
	</g>
	<path style="fill:#81BCFF;" d="M34.684,37.627c-3.347,0-6.069-2.723-6.069-6.069s2.723-6.069,6.069-6.069
		c3.347,0,6.07,2.723,6.07,6.069S38.031,37.627,34.684,37.627z M34.684,27.488c-2.244,0-4.069,1.826-4.069,4.069
		s1.826,4.069,4.069,4.069c2.244,0,4.07-1.826,4.07-4.069S36.928,27.488,34.684,27.488z"/>
</g>
</svg>
