<?xml version="1.0" encoding="utf-8"?>
<!-- Generator: Adobe Illustrator 22.0.1, SVG Export Plug-In . SVG Version: 6.00 Build 0)  -->
<svg version="1.1" id="Layer_1" xmlns="http://www.w3.org/2000/svg" xmlns:xlink="http://www.w3.org/1999/xlink" x="0px" y="0px"
	 viewBox="0 0 310 309.318" style="enable-background:new 0 0 310 309.318;" xml:space="preserve">
<g id="XMLID_801_">
	<path id="XMLID_802_" d="M72.16,99.389H9.927c-2.762,0-5,2.239-5,5v199.928c0,2.762,2.238,5,5,5H72.16c2.762,0,5-2.238,5-5V104.389
		C77.16,101.628,74.922,99.389,72.16,99.389z"/>
	<path id="XMLID_803_" d="M41.066,0C18.422,0,0,18.402,0,41.021C0,63.65,18.422,82.059,41.066,82.059
		c22.626,0,41.033-18.41,41.033-41.038C82.1,18.402,63.692,0,41.066,0z"/>
	<path id="XMLID_804_" d="M230.454,94.42c-24.995,0-43.472,10.745-54.679,22.954v-12.985c0-2.761-2.238-5-5-5h-59.599
		c-2.762,0-5,2.239-5,5v199.928c0,2.762,2.238,5,5,5h62.097c2.762,0,5-2.238,5-5v-98.918c0-33.333,9.054-46.319,32.29-46.319
		c25.306,0,27.317,20.818,27.317,48.034v97.204c0,2.762,2.238,5,5,5H305c2.762,0,5-2.238,5-5V194.654
		C310,145.089,300.549,94.42,230.454,94.42z"/>
</g>
</svg>
