<?xml version="1.0" encoding="iso-8859-1"?>
<!-- Generator: Adobe Illustrator 22.1.0, SVG Export Plug-In . SVG Version: 6.00 Build 0)  -->
<svg version="1.1" id="Layer_1" xmlns="http://www.w3.org/2000/svg" xmlns:xlink="http://www.w3.org/1999/xlink" x="0px" y="0px"
	 viewBox="0 0 70 64" style="enable-background:new 0 0 70 64;" xml:space="preserve">
<g>
	<path style="fill:#81BCFF;" d="M64.475,30.414h-16.26c-0.553,0-1-0.448-1-1V8.069c0-0.552,0.447-1,1-1h16.26c0.553,0,1,0.448,1,1
		v21.345C65.475,29.966,65.028,30.414,64.475,30.414z M49.215,28.414h14.26V9.069h-14.26V28.414z"/>
	<path style="fill:#81BCFF;" d="M64.475,51.76h-16.26c-0.553,0-1-0.448-1-1V29.414c0-0.552,0.447-1,1-1h16.26c0.553,0,1,0.448,1,1
		V50.76C65.475,51.312,65.028,51.76,64.475,51.76z M49.215,49.76h14.26V30.414h-14.26V49.76z"/>
	<g>
		<rect x="41.262" y="23.764" style="fill:#81BCFF;" width="2.076" height="2.076"/>
		<rect x="36.739" y="23.764" style="fill:#81BCFF;" width="2.076" height="2.076"/>
	</g>
	<g>
		<line style="fill:#81BCFF;" x1="37.525" y1="8.069" x2="37.525" y2="14.147"/>
		<rect x="36.525" y="8.069" style="fill:#81BCFF;" width="2" height="6.078"/>
	</g>
	<path style="fill:#81BCFF;" d="M48.215,30.414H26.872c-0.553,0-1-0.448-1-1V8.069c0-0.552,0.447-1,1-1h21.344c0.553,0,1,0.448,1,1
		v21.345C49.215,29.966,48.768,30.414,48.215,30.414z M27.872,28.414h19.344V9.069H27.872V28.414z"/>
	<g>
		<rect x="41.262" y="44.114" style="fill:#81BCFF;" width="2.076" height="2.076"/>
		<rect x="36.739" y="44.114" style="fill:#81BCFF;" width="2.076" height="2.076"/>
	</g>
	<g>
		<line style="fill:#81BCFF;" x1="37.525" y1="29.414" x2="37.525" y2="35.493"/>
		<rect x="36.525" y="29.414" style="fill:#81BCFF;" width="2" height="6.079"/>
	</g>
	<path style="fill:#81BCFF;" d="M48.215,51.76H26.872c-0.553,0-1-0.448-1-1V29.414c0-0.552,0.447-1,1-1h21.344c0.553,0,1,0.448,1,1
		V50.76C49.215,51.312,48.768,51.76,48.215,51.76z M27.872,49.76h19.344V30.414H27.872V49.76z"/>
	<g>
		<rect x="20.913" y="23.764" style="fill:#81BCFF;" width="2.076" height="2.076"/>
		<rect x="16.392" y="23.764" style="fill:#81BCFF;" width="2.076" height="2.076"/>
	</g>
	<rect x="15.18" y="8.069" style="fill:#81BCFF;" width="2" height="6.078"/>
	<path style="fill:#81BCFF;" d="M23.133,30.412H5.525c-0.553,0-1-0.448-1-1V8.066c0-0.552,0.447-1,1-1h17.608v2H6.525v19.346h16.608
		V30.412z"/>
	<g>
		<rect x="20.913" y="44.114" style="fill:#81BCFF;" width="2.076" height="2.076"/>
		<rect x="16.392" y="44.114" style="fill:#81BCFF;" width="2.076" height="2.076"/>
	</g>
	<rect x="15.18" y="29.414" style="fill:#81BCFF;" width="2" height="6.079"/>
	<path style="fill:#81BCFF;" d="M6.525,50.758h-2V29.412c0-0.552,0.447-1,1-1h17.608v2H6.525V50.758z"/>
	<rect x="5.244" y="49.76" style="fill:#81BCFF;" width="59.231" height="2"/>
	<rect x="5.244" y="54.934" style="fill:#81BCFF;" width="59.231" height="2"/>
	<path style="fill:#81BCFF;" d="M12.116,56.934H4.527V49.76h7.589V56.934z M6.527,54.934h3.589V51.76H6.527V54.934z"/>
	<path style="fill:#81BCFF;" d="M30.665,56.934h-7.587V49.76h7.587V56.934z M25.078,54.934h3.587V51.76h-3.587V54.934z"/>
	<path style="fill:#81BCFF;" d="M49.467,56.934h-7.59V49.76h7.59V56.934z M43.877,54.934h3.59V51.76h-3.59V54.934z"/>
	<path style="fill:#81BCFF;" d="M65.475,56.934h-7.588V49.76h7.588V56.934z M59.887,54.934h3.588V51.76h-3.588V54.934z"/>
	<path style="fill:#81BCFF;" d="M54.666,56.934h-7.588V49.76h7.588V56.934z M49.078,54.934h3.588V51.76h-3.588V54.934z"/>
</g>
<g>
</g>
<g>
</g>
<g>
</g>
<g>
</g>
<g>
</g>
<g>
</g>
</svg>
