<?xml version="1.0" encoding="iso-8859-1"?>
<!-- Generator: Adobe Illustrator 22.1.0, SVG Export Plug-In . SVG Version: 6.00 Build 0)  -->
<svg version="1.1" id="Layer_1" xmlns="http://www.w3.org/2000/svg" xmlns:xlink="http://www.w3.org/1999/xlink" x="0px" y="0px"
	 viewBox="0 0 116 136" style="enable-background:new 0 0 116 136;" xml:space="preserve">
<path style="opacity:0.5;fill:#FFFFFF;" d="M116,19.917c-26.536-26.555-69.56-26.556-96.097,0l0,0C6.634,33.194,0,50.597,0,68
	c0,17.403,6.634,34.806,19.902,48.084l0,0c26.537,26.555,69.561,26.555,96.097,0L67.952,68L116,19.917z"/>
<path style="opacity:0.5;fill:#FFFFFF;" d="M19.903,116.083L67.952,68L19.903,19.917c0,0,0,0,0,0C6.634,33.195,0,50.597,0,68
	C0,85.402,6.634,102.805,19.903,116.083C19.903,116.083,19.903,116.083,19.903,116.083z"/>
<g>
</g>
<g>
</g>
<g>
</g>
<g>
</g>
<g>
</g>
<g>
</g>
</svg>
