<?xml version="1.0" encoding="iso-8859-1"?>
<svg version="1.1" id="Layer_1" xmlns="http://www.w3.org/2000/svg" xmlns:xlink="http://www.w3.org/1999/xlink" x="0px" y="0px"
	 viewBox="0 0 137 29" style="enable-background:new 0 0 137 29;" xml:space="preserve">
<path style="fill:#5DBDFF;" d="M16.403,27.429l-3.071,1.347v-8.405h-0.064c-1.131,1.714-2.876,2.747-5.301,2.747
	c-4.557,0-7.466-3.49-7.466-8.049c0-4.557,2.909-7.951,7.402-7.951c2.295,0,4.137,0.905,5.463,2.716h0.096l-0.032-2.425h2.974
	V27.429z M8.549,9.639c-3.071,0-4.882,2.328-4.882,5.399s1.811,5.43,4.882,5.43s4.881-2.359,4.881-5.43S11.62,9.639,8.549,9.639z"/>
<path style="fill:#5DBDFF;" d="M32.918,22.763h-3.005l-0.033-1.94c-0.614,0.647-2.069,2.295-4.881,2.295
	c-2.845,0-5.301-1.777-5.301-4.752c0-3.005,2.457-4.525,6.013-4.686l4.105-0.162v-0.614c0-2.328-1.583-3.492-3.814-3.492
	s-4.106,1.002-4.623,1.326L20.442,8.67c1.132-0.647,3.201-1.552,5.754-1.552c2.554,0,4.041,0.711,5.075,1.745
	c1.034,1.067,1.648,2.361,1.648,4.978V22.763z M29.849,15.393l-3.589,0.226c-2.488,0.13-3.49,1.197-3.49,2.651
	s1.131,2.65,3.168,2.65c2.003,0,3.329-1.357,3.911-2.23V15.393z"/>
<path style="fill:#096FC4;" d="M45.782,23.118c-2.424,0-4.202-1.034-5.3-2.747l-0.033-0.032v7.09l-3.104,1.347V7.408h2.975v2.425
	h0.064c1.357-1.811,3.2-2.716,5.463-2.716c4.524,0,7.402,3.394,7.402,7.951C53.249,19.628,50.34,23.118,45.782,23.118z
	 M45.201,9.639c-3.071,0-4.881,2.328-4.881,5.399s1.81,5.43,4.881,5.43c3.071,0,4.881-2.359,4.881-5.43S48.271,9.639,45.201,9.639z"
	/>
<path style="fill:#096FC4;" d="M65.174,10.253h-0.129c-0.292-0.129-0.84-0.324-1.681-0.324c-1.359,0-2.199,0.873-2.522,1.294
	c-0.291,0.42-0.936,1.616-0.936,3.878v7.661h-3.104V7.408h3.104l-0.033,2.361h0.097c0.743-1.747,2.133-2.651,3.781-2.651
	c1.035,0,1.616,0.259,1.616,0.259L65.174,10.253z"/>
<path style="fill:#096FC4;" d="M74.578,23.118c-4.59,0-8.145-3.2-8.145-7.983c0-4.752,3.555-8.017,8.145-8.017
	c4.558,0,8.113,3.266,8.113,8.017C82.692,19.918,79.137,23.118,74.578,23.118z M74.578,9.639c-3.102,0-5.009,2.392-5.009,5.399
	c0,3.038,1.907,5.43,5.009,5.43c3.071,0,4.978-2.392,4.978-5.43C79.556,12.031,77.649,9.639,74.578,9.639z"/>
<path style="fill:#001C84;" d="M95.007,21.761c-1.067,0.873-2.49,1.357-4.266,1.357c-2.587,0-4.687-1.067-5.98-2.747l1.486-1.81
	c1.164,1.422,3.104,2.198,4.525,2.198c1.423,0,2.942-0.517,2.942-2.198s-2.425-2.198-3.459-2.554
	c-1.035-0.355-1.39-0.42-2.102-0.808c-0.969-0.485-2.424-1.487-2.424-3.685c0-2.845,2.457-4.397,5.171-4.397
	c2.716,0,4.268,0.971,5.237,2.004l-1.293,1.907c-0.905-0.938-2.392-1.648-3.878-1.648c-1.487,0-2.457,0.646-2.457,1.907
	c0,1.26,1.486,1.81,3.005,2.295c0.84,0.291,1.423,0.484,2.069,0.743c0.614,0.259,1.326,0.647,1.778,1.099
	c0.583,0.55,1.228,1.455,1.228,2.845C96.59,19.756,96.009,20.92,95.007,21.761z"/>
<path style="fill:#001C84;" d="M107.061,23.118c-4.59,0-8.145-3.2-8.145-7.983c0-4.752,3.555-8.017,8.145-8.017
	c4.558,0,8.113,3.266,8.113,8.017C115.174,19.918,111.62,23.118,107.061,23.118z M107.061,9.639c-3.102,0-5.009,2.392-5.009,5.399
	c0,3.038,1.907,5.43,5.009,5.43c3.071,0,4.978-2.392,4.978-5.43C112.039,12.031,110.132,9.639,107.061,9.639z"/>
<path style="fill:#001C84;" d="M126.486,2.754c0,0-0.873-0.291-1.745-0.291c-2.037,0-2.361,1.519-2.361,3.264v1.714h3.653V9.93
	h-3.653v12.833h-3.07V9.93h-2.199V7.441h2.199V5.889c0-2.004,0.388-3.297,1.034-4.105c0.679-0.84,1.907-1.681,3.685-1.681
	c1.778,0,2.65,0.355,2.65,0.355L126.486,2.754z"/>
<path style="fill:#001C84;" d="M136.5,22.601c0,0-1.197,0.517-2.813,0.517s-2.617-0.614-3.264-1.583
	c-0.647-0.969-0.776-2.166-0.776-4.59V9.93h-2.262V7.441h2.262v-4.59l3.104-1.347v5.937h3.685V9.93h-3.685v6.951
	c0,1.293,0.032,2.166,0.388,2.812c0.291,0.485,0.71,0.776,1.583,0.776c0.905,0,1.583-0.355,1.583-0.355L136.5,22.601z"/>
</svg>
