<?xml version="1.0" encoding="utf-8"?>
<!-- Generator: Adobe Illustrator 22.0.1, SVG Export Plug-In . SVG Version: 6.00 Build 0)  -->
<svg version="1.1" id="Layer_1" xmlns="http://www.w3.org/2000/svg" xmlns:xlink="http://www.w3.org/1999/xlink" x="0px" y="0px"
	 viewBox="0 0 118 24.633" xml:space="preserve">
<path d="M10.361,7.514C9.294,6.255,7.868,5.616,6.115,5.616C2.515,5.616,0,8.314,0,12.175c0,3.907,2.535,6.636,6.166,6.636
	c1.709,0,3.115-0.644,4.098-1.869v7.691l2.845-1.293V5.848h-2.77C10.339,5.848,10.361,7.514,10.361,7.514z M10.341,12.148
	c0,2.484-1.49,4.153-3.709,4.153s-3.709-1.669-3.709-4.153c0-2.468,1.49-4.126,3.709-4.126S10.341,9.68,10.341,12.148z
	 M21.788,5.616c-2.161,0-3.871,0.794-4.697,1.268l-0.154,0.087l0.915,2.018l0.187-0.117c0.169-0.105,1.704-1.031,3.594-1.031
	c1.815,0,2.856,0.947,2.856,2.599v0.304l-3.097,0.124c-3.173,0.143-4.994,1.581-4.994,3.945c0,2.625,2.23,3.998,4.434,3.998
	c1.926,0,3.093-0.941,3.718-1.559l0.021,1.274h2.789V11.19c0-1.92-0.399-3.112-1.376-4.121C24.992,6.078,23.659,5.616,21.788,5.616z
	 M24.515,12.641v2.372c-0.308,0.445-1.295,1.65-2.934,1.65c-1.4,0-2.339-0.774-2.339-1.926c0-1.482,1.417-1.867,2.61-1.929
	L24.515,12.641z"/>
<path d="M38.159,5.616c-1.72,0-3.14,0.633-4.227,1.882v-1.65h-2.766v18.784l2.87-1.293v-6.356c0.962,1.197,2.357,1.828,4.071,1.828
	c3.631,0,6.166-2.73,6.166-6.636C44.273,8.314,41.758,5.616,38.159,5.616z M41.352,12.148c0,2.484-1.49,4.153-3.709,4.153
	c-2.22,0-3.71-1.669-3.71-4.153c0-2.468,1.49-4.126,3.71-4.126C39.861,8.022,41.352,9.68,41.352,12.148z M53.292,5.616
	c-1.218,0-2.246,0.594-2.899,1.65l0.019-1.417H47.54v12.679h2.87V12.2c0-1.772,0.5-2.684,0.711-2.987
	c0.221-0.288,0.844-0.957,1.862-0.957c0.48,0,0.905,0.081,1.265,0.241l0.365,0.018l0.175-2.621L54.664,5.84
	C54.642,5.829,54.151,5.616,53.292,5.616z M63.171,5.616c-3.888,0-6.71,2.78-6.71,6.611c0,3.814,2.822,6.584,6.71,6.584
	c3.872,0,6.682-2.77,6.682-6.584C69.853,8.396,67.043,5.616,63.171,5.616z M63.171,16.301c-2.246,0-3.814-1.708-3.814-4.153
	c0-2.43,1.567-4.126,3.814-4.126c2.23,0,3.786,1.696,3.786,4.126C66.957,14.594,65.401,16.301,63.171,16.301z M79.661,11.399
	c-0.44-0.176-0.846-0.316-1.359-0.494l-0.308-0.106c-1.196-0.381-2.269-0.796-2.269-1.652c0-1.16,1.109-1.333,1.771-1.333
	c1.06,0,2.224,0.494,2.963,1.261l0.165,0.172l1.254-1.852l-0.106-0.114c-1.047-1.12-2.464-1.666-4.329-1.666
	c-2.086,0-4.331,1.162-4.331,3.712c0,1.392,0.689,2.443,2.042,3.121c0.439,0.239,0.716,0.33,1.174,0.48
	c0.153,0.051,0.327,0.107,0.535,0.179c0.103,0.035,0.225,0.073,0.356,0.115c0.909,0.282,2.279,0.709,2.279,1.746
	c0,1.413-1.509,1.565-2.158,1.565c-1.039,0-2.563-0.58-3.469-1.687l-0.15-0.183l-1.436,1.751l0.093,0.123
	c1.127,1.466,2.88,2.275,4.936,2.275c1.43,0,2.62-0.38,3.535-1.13l0.003-0.001c0.886-0.745,1.336-1.735,1.336-2.943
	c0-0.95-0.351-1.763-1.039-2.415C80.702,11.875,80.027,11.553,79.661,11.399z M91.589,5.616c-3.888,0-6.71,2.78-6.71,6.611
	c0,3.814,2.822,6.584,6.71,6.584c3.872,0,6.682-2.77,6.682-6.584C98.271,8.396,95.46,5.616,91.589,5.616z M91.589,16.301
	c-2.246,0-3.814-1.708-3.814-4.153c0-2.43,1.567-4.126,3.814-4.126c2.23,0,3.786,1.696,3.786,4.126
	C95.375,14.594,93.819,16.301,91.589,16.301z M106.377,0c-1.764,0-2.754,0.993-3.098,1.42c-0.584,0.731-0.87,1.845-0.87,3.407v1.047
	h-1.758v2.382h1.758v10.271h2.845V8.255h2.92V5.873h-2.92V4.697c0-1.453,0.288-2.419,1.692-2.419c0.656,0,1.328,0.22,1.335,0.222
	l0.233,0.077l0.188-2.223L108.569,0.3C108.54,0.288,107.821,0,106.377,0z M117.811,15.903l-0.26,0.135
	c-0.005,0.003-0.514,0.263-1.177,0.263c-0.65,0-0.91-0.211-1.097-0.52c-0.266-0.484-0.285-1.168-0.285-2.157V8.255h2.947V5.873
	h-2.947V0.907L112.12,2.2v3.673h-1.81v2.382h1.81v5.42c0,1.936,0.095,2.943,0.654,3.782c0.606,0.911,1.513,1.354,2.773,1.354
	c1.318,0,2.286-0.412,2.326-0.429L118,18.327L117.811,15.903z"/>
</svg>
