<?xml version="1.0" encoding="iso-8859-1"?>
<!-- Generator: Adobe Illustrator 22.1.0, SVG Export Plug-In . SVG Version: 6.00 Build 0)  -->
<svg version="1.1" id="Layer_1" xmlns="http://www.w3.org/2000/svg" xmlns:xlink="http://www.w3.org/1999/xlink" x="0px" y="0px"
	 viewBox="0 0 70 64" style="enable-background:new 0 0 70 64;" xml:space="preserve">
<g>
	<path style="fill:#81BCFF;" d="M63.213,55.103h-2V43.968c0-3.07-2.497-5.567-5.566-5.567v-2c4.172,0,7.566,3.395,7.566,7.567
		V55.103z"/>
	<path style="fill:#81BCFF;" d="M59.346,55.006h-2V44.872c0-1.259-1.024-2.284-2.283-2.284v-2c2.362,0,4.283,1.922,4.283,4.284
		V55.006z"/>
	<path style="fill:#81BCFF;" d="M54.953,55.399H19.739c-0.552,0-1-0.448-1-1V35.353c0-0.265,0.105-0.52,0.293-0.707l11.752-11.751
		c0.287-0.287,0.715-0.372,1.09-0.217c0.374,0.155,0.617,0.52,0.617,0.924v9.337l10.045-10.044c0.286-0.287,0.716-0.372,1.09-0.217
		c0.374,0.155,0.617,0.52,0.617,0.924v9.337l10.045-10.044c0.286-0.287,0.716-0.372,1.09-0.217s0.617,0.52,0.617,0.924v11.751
		c0,0.001,0,0.001,0,0.002l-0.043,19.046C55.951,54.953,55.504,55.399,54.953,55.399z M20.739,53.399h33.216l0.041-27.383
		L43.95,36.06c-0.286,0.286-0.716,0.372-1.09,0.217c-0.374-0.155-0.617-0.52-0.617-0.924v-9.337L32.198,36.06
		c-0.286,0.286-0.716,0.372-1.09,0.217s-0.617-0.52-0.617-0.924v-9.337l-9.752,9.751V53.399z"/>
	<path style="fill:#81BCFF;" d="M19.739,55.399H7.787c-0.552,0-1-0.448-1-1V25.142c0-0.071,0.007-0.142,0.022-0.211l3.223-14.919
		c0.1-0.46,0.507-0.789,0.978-0.789h5.505c0.473,0,0.881,0.332,0.979,0.794l3.224,15.322c0.014,0.068,0.021,0.137,0.021,0.206
		v28.854C20.739,54.951,20.291,55.399,19.739,55.399z M8.787,53.399h9.952v-27.75l-3.036-14.426h-3.886l-3.03,14.026V53.399z"/>
	<path style="fill:#81BCFF;" d="M19.739,55.399H7.787c-0.552,0-1-0.448-1-1V25.142c0-0.071,0.007-0.142,0.022-0.211l3.223-14.919
		c0.1-0.46,0.507-0.789,0.978-0.789h5.505c0.473,0,0.881,0.332,0.979,0.794l3.224,15.322c0.014,0.068,0.021,0.137,0.021,0.206
		v28.854C20.739,54.951,20.291,55.399,19.739,55.399z M8.787,53.399h9.952v-27.75l-3.036-14.426h-3.886l-3.03,14.026V53.399z"/>
	<path style="fill:#81BCFF;" d="M49.831,19.109h-2v-1.637c0-1.355-1.104-2.458-2.461-2.458c-0.367,0-0.72,0.079-1.048,0.234
		c-0.423,0.202-0.931,0.08-1.219-0.292c-0.288-0.371-0.278-0.892,0.022-1.253c0.288-0.345,0.44-0.764,0.44-1.212
		c0-1.042-0.848-1.89-1.891-1.89h-5.095v-2h5.095c2.146,0,3.891,1.745,3.891,3.89c0,0.176-0.012,0.352-0.036,0.525
		c2.386,0.084,4.301,2.051,4.301,4.456V19.109z"/>
	<rect x="7.787" y="24.142" style="fill:#81BCFF;" width="11.952" height="2"/>
	<rect x="47.807" y="20.957" style="fill:#81BCFF;" width="2" height="8.833"/>
	<rect x="12.762" y="29.79" style="fill:#81BCFF;" width="2" height="2.521"/>
	<rect x="12.762" y="34.27" style="fill:#81BCFF;" width="2" height="2.521"/>
	<rect x="12.762" y="38.751" style="fill:#81BCFF;" width="2" height="2.521"/>
	<rect x="12.762" y="43.231" style="fill:#81BCFF;" width="2" height="2.521"/>
	<path style="fill:#81BCFF;" d="M25.485,43.991h-2v-3.98c0-0.552,0.448-1,1-1h3.98v2h-2.98V43.991z"/>
	<path style="fill:#81BCFF;" d="M32.811,43.991h-2v-3.98c0-0.552,0.448-1,1-1h3.98v2h-2.98V43.991z"/>
	<path style="fill:#81BCFF;" d="M40.136,43.991h-2v-3.98c0-0.552,0.448-1,1-1h3.979v2h-2.979V43.991z"/>
	<path style="fill:#81BCFF;" d="M47.461,43.991h-2v-3.98c0-0.552,0.448-1,1-1h3.98v2h-2.98V43.991z"/>
	<path style="fill:#81BCFF;" d="M25.485,50.74h-2v-3.98c0-0.552,0.448-1,1-1h3.98v2h-2.98V50.74z"/>
	<path style="fill:#81BCFF;" d="M32.811,50.74h-2v-3.98c0-0.552,0.448-1,1-1h3.98v2h-2.98V50.74z"/>
	<path style="fill:#81BCFF;" d="M40.136,50.74h-2v-3.98c0-0.552,0.448-1,1-1h3.979v2h-2.979V50.74z"/>
	<path style="fill:#81BCFF;" d="M47.461,50.74h-2v-3.98c0-0.552,0.448-1,1-1h3.98v2h-2.98V50.74z"/>
	<rect x="30.542" y="8.601" style="fill:#81BCFF;" width="4.182" height="2"/>
	<rect x="24.577" y="8.601" style="fill:#81BCFF;" width="2.177" height="2"/>
	<rect x="28.465" y="11.991" style="fill:#81BCFF;" width="4.168" height="2"/>
</g>
</svg>
