<?xml version="1.0" encoding="iso-8859-1"?>
<!-- Generator: Adobe Illustrator 22.1.0, SVG Export Plug-In . SVG Version: 6.00 Build 0)  -->
<svg version="1.1" id="Layer_1" xmlns="http://www.w3.org/2000/svg" xmlns:xlink="http://www.w3.org/1999/xlink" x="0px" y="0px"
	 viewBox="0 0 70 64" style="enable-background:new 0 0 70 64;" xml:space="preserve">
<g>
	<path style="fill:#81BCFF;" d="M21.701,35.531H9.853c-0.552,0-1-0.448-1-1V21.738c0-0.552,0.448-1,1-1h11.848c0.552,0,1,0.448,1,1
		v12.792C22.701,35.083,22.253,35.531,21.701,35.531z M10.853,33.531h9.848V22.738h-9.848V33.531z"/>
	<path style="fill:#81BCFF;" d="M9.853,32.703H5.627c-0.552,0-1-0.448-1-1v-7.275c0-0.552,0.448-1,1-1h4.226c0.552,0,1,0.448,1,1
		v7.275C10.853,32.255,10.406,32.703,9.853,32.703z M6.627,30.703h2.226v-5.275H6.627V30.703z"/>
	<path style="fill:#81BCFF;" d="M47.696,47.653c-0.144,0-0.288-0.031-0.423-0.094L21.278,35.437
		c-0.352-0.164-0.577-0.518-0.577-0.906V21.738c0-0.389,0.225-0.742,0.577-0.906L47.273,8.709c0.31-0.144,0.672-0.121,0.96,0.063
		c0.289,0.184,0.463,0.501,0.463,0.843v37.038c0,0.342-0.174,0.66-0.463,0.843C48.07,47.6,47.884,47.653,47.696,47.653z
		 M22.701,33.893l23.995,11.19V11.185l-23.995,11.19V33.893z"/>
	<path style="fill:#81BCFF;" d="M28.19,55.384h-8.068c-0.397,0-0.757-0.235-0.917-0.6l-8.679-19.854
		c-0.135-0.309-0.105-0.666,0.08-0.948c0.185-0.283,0.5-0.453,0.837-0.453h8.068c0.397,0,0.757,0.235,0.917,0.6l8.679,19.854
		c0.135,0.309,0.105,0.666-0.08,0.948C28.842,55.214,28.527,55.384,28.19,55.384z M20.776,53.384h5.885l-7.805-17.854h-5.885
		L20.776,53.384z"/>
	<path style="fill:#81BCFF;" d="M47.696,35.236v-2c2.852,0,5.172-2.32,5.172-5.172s-2.32-5.172-5.172-5.172v-2
		c3.955,0,7.172,3.217,7.172,7.172S51.651,35.236,47.696,35.236z"/>
	<path style="fill:#81BCFF;" d="M56.495,36.791l-1.414-1.414c1.973-1.974,3.06-4.597,3.06-7.386c0-2.79-1.086-5.413-3.06-7.386
		l1.414-1.414c2.351,2.351,3.646,5.477,3.646,8.8C60.141,31.315,58.846,34.44,56.495,36.791z"/>
	<path style="fill:#81BCFF;" d="M60.195,40.491l-1.414-1.414c2.961-2.961,4.592-6.898,4.592-11.085
		c0-4.188-1.631-8.125-4.592-11.085l1.414-1.414c3.339,3.338,5.178,7.778,5.178,12.5C65.373,32.713,63.534,37.152,60.195,40.491z"/>
</g>
</svg>
