<?xml version="1.0" encoding="iso-8859-1"?>
<!-- Generator: Adobe Illustrator 22.1.0, SVG Export Plug-In . SVG Version: 6.00 Build 0)  -->
<svg version="1.1" id="Layer_1" xmlns="http://www.w3.org/2000/svg" xmlns:xlink="http://www.w3.org/1999/xlink" x="0px" y="0px"
	 viewBox="0 0 70 64" style="enable-background:new 0 0 70 64;" xml:space="preserve">
<g>
	<path style="fill:#81BCFF;" d="M21.425,23.472c-0.323,0-0.647-0.021-0.973-0.065c-1.893-0.256-3.572-1.233-4.729-2.752
		c-2.902-3.808-2.167-9.27,1.641-12.176c1.69-1.287,3.702-2.032,5.818-2.156l23.394-0.002c2.172,0.125,4.184,0.871,5.876,2.157
		c3.809,2.907,4.544,8.369,1.641,12.177c-2.386,3.133-6.882,3.743-10.021,1.354c-2.592-1.981-3.094-5.701-1.121-8.295
		c1.649-2.164,4.753-2.585,6.92-0.938c0.883,0.673,1.449,1.648,1.597,2.747s-0.143,2.189-0.816,3.069
		c-0.334,0.438-0.961,0.523-1.401,0.187c-0.438-0.336-0.522-0.963-0.187-1.402c0.349-0.456,0.498-1.02,0.422-1.588
		c-0.076-0.569-0.369-1.074-0.826-1.421c-1.289-0.979-3.136-0.73-4.117,0.558c-1.306,1.717-0.973,4.182,0.743,5.494
		c2.26,1.719,5.499,1.282,7.218-0.977c2.235-2.932,1.669-7.137-1.262-9.374c-1.373-1.043-3.007-1.649-4.723-1.75L23.241,8.321
		c-1.659,0.099-3.293,0.704-4.665,1.749c-2.93,2.236-3.496,6.441-1.262,9.373c0.834,1.095,2.043,1.799,3.406,1.983
		c1.371,0.184,2.717-0.174,3.812-1.007c1.717-1.311,2.051-3.775,0.742-5.493c-0.98-1.288-2.827-1.538-4.115-0.557
		c-0.457,0.348-0.751,0.854-0.827,1.423c-0.076,0.568,0.073,1.131,0.421,1.586c0.336,0.438,0.252,1.066-0.187,1.402
		s-1.065,0.251-1.401-0.187c-0.673-0.879-0.963-1.968-0.815-3.066c0.147-1.1,0.715-2.076,1.598-2.749
		c2.164-1.647,5.267-1.229,6.918,0.936c1.977,2.595,1.473,6.316-1.121,8.295C24.485,22.967,22.98,23.472,21.425,23.472z"/>
	<path style="fill:#81BCFF;" d="M46.865,46.348H23.119c-0.553,0-1-0.448-1-1V22.472c0-0.552,0.447-1,1-1s1,0.448,1,1v21.876h21.746
		V22.472c0-0.552,0.447-1,1-1s1,0.448,1,1v22.876C47.865,45.9,47.417,46.348,46.865,46.348z"/>
	<path style="fill:#81BCFF;" d="M42.774,18.819H27.127c-0.553,0-1-0.448-1-1s0.447-1,1-1h15.646c0.553,0,1,0.448,1,1
		S43.327,18.819,42.774,18.819z"/>
	<rect x="33.909" y="22.472" style="fill:#81BCFF;" width="2" height="17.613"/>
	<rect x="28.072" y="27.05" style="fill:#81BCFF;" width="2" height="13.035"/>
	<rect x="39.746" y="27.05" style="fill:#81BCFF;" width="2" height="13.035"/>
	<path style="fill:#81BCFF;" d="M50.245,51.499H19.914c-0.553,0-1-0.448-1-1v-5.15c0-0.552,0.447-1,1-1h30.331c0.553,0,1,0.448,1,1
		v5.15C51.245,51.051,50.797,51.499,50.245,51.499z M20.914,49.499h28.331v-3.15H20.914V49.499z"/>
	<path style="fill:#81BCFF;" d="M55.051,57.679H15.792c-0.553,0-1-0.448-1-1v-6.181c0-0.552,0.447-1,1-1h39.259c0.553,0,1,0.448,1,1
		v6.181C56.051,57.231,55.604,57.679,55.051,57.679z M16.792,55.679h37.259v-4.181H16.792V55.679z"/>
	<rect x="29.072" y="11.572" style="fill:#81BCFF;" width="11.674" height="2"/>
</g>
<g>
</g>
<g>
</g>
<g>
</g>
<g>
</g>
<g>
</g>
<g>
</g>
</svg>
