<?xml version="1.0" encoding="iso-8859-1"?>
<!-- Generator: Adobe Illustrator 22.1.0, SVG Export Plug-In . SVG Version: 6.00 Build 0)  -->
<svg version="1.1" id="Layer_1" xmlns="http://www.w3.org/2000/svg" xmlns:xlink="http://www.w3.org/1999/xlink" x="0px" y="0px"
	 viewBox="0 0 800 331" style="enable-background:new 0 0 800 331;" xml:space="preserve">
<path style="display:none;fill:none;stroke:#A7A9AC;stroke-miterlimit:10;" d="M394.37,66.364c0,0,67.758,62,102,62s66-27.758,66-62
	s-31.758-62-66-62S394.37,66.364,394.37,66.364z"/>
<g>
	<path style="fill:#F1F2F2;" d="M199.015,305.514c-37.092,0-74.452-14.771-102.5-40.523c-29.373-26.969-45.549-62.357-45.549-99.645
		s16.176-72.675,45.549-99.645c28.048-25.753,65.408-40.523,102.5-40.523c18.57,0,40.872,6.909,68.179,21.122
		c20.27,10.55,43.227,25.161,68.233,43.426c42.129,30.773,75.333,61.065,76.725,62.339l14.513,13.28l-14.513,13.28
		c-1.393,1.274-34.596,31.566-76.725,62.339c-25.006,18.266-47.963,32.876-68.233,43.426
		C239.886,298.604,217.585,305.514,199.015,305.514z M199.015,61.179c-59.69,0-112.049,48.676-112.049,104.167
		s52.359,104.167,112.049,104.167c13.555,0,46.543-7.486,115.177-57.619c23.891-17.451,45.091-35.008,58.541-46.547
		c-13.513-11.591-34.838-29.251-58.798-46.738C245.467,68.64,212.545,61.179,199.015,61.179z"/>
	<g>
		<path style="fill:#BCBEC0;" d="M105.533,82.655l-0.702-0.712c17.787-17.558,39.988-29.9,64.204-35.694l0.232,0.973
			C145.229,52.973,123.19,65.225,105.533,82.655z"/>
		<g>
			<polygon style="fill:#BCBEC0;" points="167.019,51.578 166.17,51.047 168.788,46.869 164.429,44.563 164.898,43.679 
				170.206,46.489 			"/>
		</g>
	</g>
	<g>
		<path style="fill:#BCBEC0;" d="M364.043,135.259c-9.283-7.569-18.581-14.884-27.635-21.743l0.604-0.797
			c9.064,6.865,18.371,14.188,27.663,21.764L364.043,135.259z"/>
		<g>
			<polygon style="fill:#BCBEC0;" points="359.212,136.048 359.13,135.051 364.044,134.649 363.284,129.776 364.273,129.623 
				365.197,135.557 			"/>
		</g>
	</g>
	<g>
		<path style="fill:#BCBEC0;" d="M337.564,217.555l-0.604-0.797c8.871-6.73,17.961-13.888,27.021-21.273l0.632,0.775
			C355.544,203.653,346.444,210.817,337.564,217.555z"/>
		<g>
			<polygon style="fill:#BCBEC0;" points="337.326,211.877 338.315,212.031 337.551,216.902 342.466,217.309 342.382,218.306 
				336.397,217.81 			"/>
		</g>
	</g>
	<g>
		<path style="fill:#BCBEC0;" d="M170.093,284.691c-23.844-5.497-45.857-17.389-63.662-34.389l0.69-0.724
			c17.675,16.876,39.528,28.681,63.196,34.138L170.093,284.691z"/>
		<g>
			<polygon style="fill:#BCBEC0;" points="112,249.111 112.013,250.112 107.083,250.174 107.505,255.087 106.508,255.172 
				105.995,249.188 			"/>
		</g>
	</g>
	<path style="fill:#F1F2F2;" d="M600.985,305.514c-18.57,0-40.872-6.909-68.179-21.122c-20.271-10.55-43.228-25.161-68.233-43.426
		c-42.129-30.774-75.332-61.065-76.725-62.339l-14.513-13.28l14.513-13.28c1.393-1.274,34.596-31.565,76.725-62.339
		c25.006-18.266,47.963-32.876,68.233-43.426c27.307-14.213,49.608-21.122,68.179-21.122c37.092,0,74.451,14.77,102.5,40.523
		c29.372,26.969,45.549,62.357,45.549,99.645s-16.177,72.675-45.549,99.645C675.437,290.743,638.077,305.514,600.985,305.514z
		 M427.27,165.346c13.513,11.591,34.836,29.25,58.796,46.736c68.468,49.97,101.39,57.431,114.92,57.431
		c59.689,0,112.049-48.676,112.049-104.167S660.675,61.179,600.985,61.179c-13.53,0-46.452,7.461-114.92,57.431
		C462.106,136.097,440.782,153.755,427.27,165.346z"/>
	<g>
		<path style="fill:#BCBEC0;" d="M694.467,82.655c-17.656-17.43-39.695-29.683-63.733-35.433l0.232-0.973
			c24.216,5.793,46.417,18.136,64.204,35.694L694.467,82.655z"/>
		<g>
			<polygon style="fill:#BCBEC0;" points="635.102,43.678 635.571,44.562 631.212,46.867 633.83,51.047 632.981,51.577 
				629.794,46.487 			"/>
		</g>
	</g>
	<g>
		<path style="fill:#BCBEC0;" d="M435.958,135.259l-0.633-0.775c9.283-7.569,18.59-14.892,27.663-21.764l0.604,0.797
			C454.528,120.381,445.232,127.697,435.958,135.259z"/>
		<g>
			<polygon style="fill:#BCBEC0;" points="435.726,129.622 436.715,129.776 435.955,134.647 440.87,135.05 440.787,136.047 
				434.801,135.556 			"/>
		</g>
	</g>
	<g>
		<path style="fill:#BCBEC0;" d="M462.437,217.555c-8.874-6.732-17.975-13.897-27.049-21.295l0.633-0.775
			c9.064,7.391,18.155,14.548,27.02,21.273L462.437,217.555z"/>
		<g>
			<polygon style="fill:#BCBEC0;" points="457.617,218.307 457.534,217.31 462.448,216.904 461.684,212.032 462.673,211.878 
				463.602,217.812 			"/>
		</g>
	</g>
	<g>
		<path style="fill:#BCBEC0;" d="M629.907,284.691l-0.225-0.975c23.669-5.457,45.521-17.262,63.196-34.138l0.691,0.724
			C675.765,267.303,653.751,279.194,629.907,284.691z"/>
		<g>
			<polygon style="fill:#BCBEC0;" points="693.493,255.172 692.496,255.088 692.918,250.175 687.987,250.113 688.001,249.112 
				694.006,249.189 			"/>
		</g>
	</g>
	<circle style="fill:#1B1B1C;" cx="262.069" cy="69.063" r="68.966"/>
	<g>
		<path style="fill:#FFFFFF;" d="M244.959,67.223h-2.456v7.752h-2.235v-7.752h-2.455v-1.766h7.146V67.223z"/>
		<path style="fill:#FFFFFF;" d="M254.172,74.975h-2.235v-3.986h-3.821v3.986h-2.234v-9.518h2.234v3.683h3.821v-3.683h2.235V74.975z
			"/>
		<path style="fill:#FFFFFF;" d="M263.441,74.975h-2.593l-2-3.642h-0.704v3.642h-2.234v-9.518h3.421c1.062,0,1.89,0.221,2.51,0.676
			c0.635,0.469,1.048,1.228,1.048,2.179c0,1.807-1.159,2.511-1.862,2.731L263.441,74.975z M260.158,67.43
			c-0.276-0.207-0.635-0.248-1.145-0.248h-0.883v2.441h0.883c0.51,0,0.869-0.055,1.145-0.262c0.29-0.207,0.482-0.469,0.482-0.965
			C260.641,67.912,260.448,67.637,260.158,67.43z"/>
		<path style="fill:#FFFFFF;" d="M270.476,74.975h-6.29v-9.518h6.166v1.78h-3.945v1.945h3.725v1.779h-3.725v2.207h4.069V74.975z"/>
		<path style="fill:#FFFFFF;" d="M280.42,74.975h-2.428l-0.676-1.917h-3.394l-0.676,1.917h-2.317l3.586-9.532h2.317L280.42,74.975z
			 M276.807,71.32l-1.187-3.421l-1.187,3.421H276.807z"/>
		<path style="fill:#FFFFFF;" d="M286.323,67.223h-2.455v7.752h-2.234v-7.752h-2.456v-1.766h7.145V67.223z"/>
		<path style="fill:#FFFFFF;" d="M237.918,94.68h-2.193l-0.373-6.483h-0.028l-2.042,6.483h-1.766l-2.055-6.483h-0.042l-0.345,6.483
			h-2.193l0.717-9.518h2.814l1.986,6.262h0.028l1.958-6.262h2.828L237.918,94.68z"/>
		<path style="fill:#FFFFFF;" d="M243.862,94.845c-2.828,0-5.049-1.834-5.049-4.911s2.221-4.924,5.049-4.924
			c2.828,0,5.048,1.848,5.048,4.924S246.69,94.845,243.862,94.845z M243.862,86.913c-1.586,0-2.787,1.145-2.787,2.966
			s1.2,2.979,2.787,2.979c1.586,0,2.786-1.159,2.786-2.979C246.648,88.072,245.448,86.913,243.862,86.913z"/>
		<path style="fill:#FFFFFF;" d="M257.062,93.549c-0.787,0.662-2.014,1.131-3.669,1.131h-3.228v-9.518h3.228
			c1.655,0,2.883,0.469,3.669,1.145c0.8,0.662,1.545,1.766,1.545,3.614C258.607,91.769,257.862,92.872,257.062,93.549z
			 M255.503,87.686c-0.4-0.373-1.062-0.676-1.986-0.676h-1.131v5.78h1.131c0.924,0,1.586-0.304,1.986-0.69
			c0.4-0.373,0.842-1.007,0.842-2.179C256.345,88.748,255.903,88.072,255.503,87.686z"/>
		<path style="fill:#FFFFFF;" d="M266.151,94.68h-6.29v-9.518h6.166v1.779h-3.945v1.945h3.725v1.779h-3.725v2.207h4.069V94.68z"/>
		<path style="fill:#FFFFFF;" d="M273.048,94.68h-5.518v-9.518h2.221v7.669h3.297V94.68z"/>
		<path style="fill:#FFFFFF;" d="M276.289,94.68h-2.234v-9.518h2.234V94.68z"/>
		<path style="fill:#FFFFFF;" d="M286.634,94.68h-2.29l-4.179-6.456c0,0,0.041,1.145,0.041,2.152v4.304h-2.179v-9.518h2.386
			l4.083,6.4c0,0-0.042-1.076-0.042-2.083v-4.317h2.18V94.68z"/>
		<path style="fill:#FFFFFF;" d="M297.075,93.203c-0.482,0.428-1.614,1.628-4.234,1.628c-2.635,0-4.952-1.738-4.952-4.911
			c0-3.173,2.317-4.897,4.979-4.897c2.524,0,3.614,1.324,3.917,1.655l-1.476,1.283c-0.4-0.441-1.145-1.09-2.441-1.09
			c-1.531,0-2.717,1.118-2.717,3.049s1.214,3.048,2.759,3.048s1.986-0.607,1.986-0.607v-1.407h-2v-1.696h4.179V93.203z"/>
	</g>
	<g>
		<path style="fill:#BCBEC0;" d="M257.134,45.607c-3.184,0-4.508-2.743-4.508-5.611s1.339-5.611,4.508-5.611
			s4.508,2.743,4.508,5.611S260.303,45.607,257.134,45.607z M257.134,36.512c-1.403,0-2.002,1.482-2.002,3.436
			c0,1.955,0.599,3.468,2.002,3.468s2.002-1.513,2.002-3.468C259.136,37.994,258.537,36.512,257.134,36.512z"/>
		<path style="fill:#BCBEC0;" d="M271.273,45.418h-7.976l-0.299-1.608l3.688-3.326c1.025-0.93,1.64-1.639,1.64-2.569
			c0-0.93-0.678-1.529-1.75-1.529c-1.087,0-2.033,0.709-2.632,1.466l-1.072-1.671c0.142-0.331,1.482-1.797,3.941-1.797
			s3.956,1.308,3.956,3.215c0,1.908-1.418,3.042-2.286,3.815l-2.254,2.033h5.044V45.418z"/>
	</g>
	<circle style="fill:#1B1B1C;" cx="537.931" cy="69.063" r="68.966"/>
	<g>
		<path style="fill:#FFFFFF;" d="M527.902,70.74c-0.634,0.524-1.503,0.717-2.482,0.717h-1.173v3.518h-2.234v-9.518h3.407
			c0.979,0,1.849,0.193,2.482,0.718c0.635,0.524,0.993,1.255,0.993,2.276C528.896,69.471,528.537,70.202,527.902,70.74z
			 M526.179,67.443c-0.276-0.193-0.594-0.262-1.076-0.262h-0.869v2.552h0.869c0.482,0,0.8-0.069,1.076-0.262
			c0.262-0.193,0.455-0.538,0.455-1.021S526.44,67.637,526.179,67.443z"/>
		<path style="fill:#FFFFFF;" d="M534.551,75.141c-2.827,0-5.048-1.834-5.048-4.911s2.221-4.924,5.048-4.924
			c2.828,0,5.049,1.848,5.049,4.924S537.379,75.141,534.551,75.141z M534.551,67.209c-1.586,0-2.786,1.145-2.786,2.966
			s1.2,2.979,2.786,2.979c1.587,0,2.786-1.159,2.786-2.979C537.337,68.368,536.138,67.209,534.551,67.209z"/>
		<path style="fill:#FFFFFF;" d="M546.164,74.354c-0.676,0.538-1.559,0.786-2.579,0.786c-1.38,0-2.607-0.717-3.38-1.435l1.104-1.628
			c0.689,0.718,1.752,1.2,2.483,1.2c0.717,0,1.269-0.345,1.269-0.979c0-0.648-0.703-0.896-1.117-1.048
			c-0.414-0.152-1.131-0.4-1.448-0.538c-0.234-0.11-0.718-0.29-1.131-0.69c-0.414-0.386-0.745-0.938-0.745-1.834
			c0-0.91,0.441-1.628,0.993-2.083c0.538-0.455,1.406-0.759,2.51-0.759s2.373,0.524,3.021,1.173l-0.952,1.559
			c-0.552-0.552-1.407-0.966-2.124-0.966s-1.241,0.276-1.241,0.855s0.538,0.8,0.966,0.966c0.413,0.165,1.117,0.414,1.42,0.538
			c0.263,0.097,0.896,0.345,1.324,0.772c0.4,0.4,0.745,0.979,0.745,1.834C547.281,72.989,546.854,73.816,546.164,74.354z"/>
		<path style="fill:#FFFFFF;" d="M554.66,67.223h-2.455v7.752h-2.234v-7.752h-2.456v-1.766h7.146V67.223z"/>
		<path style="fill:#FFFFFF;" d="M499.082,94.68h-6.29v-9.518h6.166v1.779h-3.945v1.945h3.725v1.779h-3.725v2.207h4.069V94.68z"/>
		<path style="fill:#FFFFFF;" d="M508.696,94.68h-2.663l-1.958-3.545l-1.973,3.545h-2.662l3.158-4.938l-2.951-4.579h2.648
			l1.779,3.131l1.779-3.131h2.648l-2.966,4.579L508.696,94.68z"/>
		<path style="fill:#FFFFFF;" d="M515.316,90.445c-0.634,0.524-1.503,0.717-2.482,0.717h-1.173v3.518h-2.234v-9.518h3.407
			c0.979,0,1.849,0.193,2.482,0.717c0.635,0.524,0.993,1.255,0.993,2.276C516.31,89.176,515.951,89.907,515.316,90.445z
			 M513.593,87.148c-0.276-0.193-0.594-0.262-1.076-0.262h-0.869v2.552h0.869c0.482,0,0.8-0.069,1.076-0.262
			c0.262-0.193,0.455-0.538,0.455-1.021C514.048,87.672,513.855,87.341,513.593,87.148z"/>
		<path style="fill:#FFFFFF;" d="M522.916,94.68h-5.518v-9.518h2.221v7.669h3.297V94.68z"/>
		<path style="fill:#FFFFFF;" d="M527.937,94.845c-2.827,0-5.049-1.834-5.049-4.911s2.222-4.924,5.049-4.924
			c2.828,0,5.049,1.848,5.049,4.924S530.765,94.845,527.937,94.845z M527.937,86.913c-1.586,0-2.786,1.145-2.786,2.966
			s1.2,2.979,2.786,2.979c1.587,0,2.787-1.159,2.787-2.979C530.724,88.072,529.523,86.913,527.937,86.913z"/>
		<path style="fill:#FFFFFF;" d="M536.475,94.68h-2.234v-9.518h2.234V94.68z"/>
		<path style="fill:#FFFFFF;" d="M544.543,86.928h-2.455v7.752h-2.234v-7.752h-2.456v-1.766h7.146V86.928z"/>
		<path style="fill:#FFFFFF;" d="M552.792,94.68h-2.428l-0.677-1.917h-3.393l-0.677,1.917h-2.316l3.586-9.532h2.317L552.792,94.68z
			 M549.178,91.024l-1.187-3.421l-1.187,3.421H549.178z"/>
		<path style="fill:#FFFFFF;" d="M558.695,86.928h-2.455v7.752h-2.234v-7.752h-2.456v-1.766h7.146V86.928z"/>
		<path style="fill:#FFFFFF;" d="M561.854,94.68h-2.234v-9.518h2.234V94.68z"/>
		<path style="fill:#FFFFFF;" d="M568.156,94.845c-2.827,0-5.048-1.834-5.048-4.911s2.221-4.924,5.048-4.924
			c2.828,0,5.049,1.848,5.049,4.924S570.984,94.845,568.156,94.845z M568.156,86.913c-1.586,0-2.786,1.145-2.786,2.966
			s1.2,2.979,2.786,2.979c1.587,0,2.786-1.159,2.786-2.979C570.942,88.072,569.743,86.913,568.156,86.913z"/>
		<path style="fill:#FFFFFF;" d="M583.067,94.68h-2.29l-4.18-6.456c0,0,0.042,1.145,0.042,2.152v4.304h-2.18v-9.518h2.387l4.082,6.4
			c0,0-0.041-1.076-0.041-2.083v-4.317h2.18V94.68z"/>
	</g>
	<g>
		<path style="fill:#BCBEC0;" d="M532.995,45.607c-3.184,0-4.508-2.743-4.508-5.611s1.34-5.611,4.508-5.611s4.508,2.743,4.508,5.611
			S536.163,45.607,532.995,45.607z M532.995,36.512c-1.402,0-2.002,1.482-2.002,3.436c0,1.955,0.6,3.468,2.002,3.468
			c1.403,0,2.002-1.513,2.002-3.468C534.997,37.994,534.398,36.512,532.995,36.512z"/>
		<path style="fill:#BCBEC0;" d="M542.643,45.591c-2.175,0-3.499-0.993-4.004-1.781l1.167-1.497
			c0.599,0.835,1.733,1.308,2.664,1.308c0.93,0,2.049-0.536,2.049-1.844c0-1.292-1.072-1.829-2.049-1.829
			c-0.71,0-1.498,0.221-1.986,0.568l-1.104-0.662l0.835-5.312h6.368v1.955h-4.523l-0.315,1.955c0.331-0.142,0.741-0.237,1.45-0.237
			c1.655,0,3.799,1.041,3.799,3.562C546.993,44.314,544.802,45.591,542.643,45.591z"/>
	</g>
	<circle style="fill:#1B1B1C;" cx="262.069" cy="261.898" r="68.966"/>
	<g>
		<path style="fill:#FFFFFF;" d="M233.021,275.692h-2.593l-2-3.642h-0.704v3.642h-2.234v-9.518h3.421c1.062,0,1.89,0.221,2.51,0.676
			c0.635,0.469,1.048,1.228,1.048,2.18c0,1.807-1.159,2.51-1.862,2.73L233.021,275.692z M229.738,268.147
			c-0.276-0.207-0.635-0.249-1.145-0.249h-0.883v2.441h0.883c0.51,0,0.869-0.055,1.145-0.262c0.29-0.207,0.482-0.469,0.482-0.966
			C230.221,268.63,230.028,268.353,229.738,268.147z"/>
		<path style="fill:#FFFFFF;" d="M240.056,275.692h-6.29v-9.518h6.166v1.779h-3.945v1.944h3.725v1.78h-3.725v2.207h4.069V275.692z"
			/>
		<path style="fill:#FFFFFF;" d="M247.324,271.458c-0.634,0.523-1.503,0.717-2.482,0.717h-1.173v3.518h-2.234v-9.518h3.407
			c0.979,0,1.848,0.192,2.482,0.717c0.635,0.524,0.993,1.256,0.993,2.276S247.959,270.92,247.324,271.458z M245.6,268.161
			c-0.276-0.193-0.593-0.263-1.076-0.263h-0.869v2.553h0.869c0.482,0,0.8-0.069,1.076-0.263c0.262-0.193,0.456-0.538,0.456-1.021
			S245.862,268.353,245.6,268.161z"/>
		<path style="fill:#FFFFFF;" d="M253.973,275.857c-2.828,0-5.049-1.834-5.049-4.91s2.221-4.925,5.049-4.925
			c2.828,0,5.048,1.849,5.048,4.925S256.8,275.857,253.973,275.857z M253.973,267.927c-1.586,0-2.787,1.145-2.787,2.966
			c0,1.82,1.2,2.979,2.787,2.979c1.586,0,2.786-1.158,2.786-2.979C256.759,269.085,255.559,267.927,253.973,267.927z"/>
		<path style="fill:#FFFFFF;" d="M267.807,275.692h-2.593l-2-3.642h-0.704v3.642h-2.234v-9.518h3.421c1.062,0,1.89,0.221,2.51,0.676
			c0.635,0.469,1.048,1.228,1.048,2.18c0,1.807-1.159,2.51-1.862,2.73L267.807,275.692z M264.524,268.147
			c-0.276-0.207-0.635-0.249-1.145-0.249h-0.883v2.441h0.883c0.51,0,0.869-0.055,1.145-0.262c0.29-0.207,0.483-0.469,0.483-0.966
			C265.007,268.63,264.814,268.353,264.524,268.147z"/>
		<path style="fill:#FFFFFF;" d="M274.883,267.94h-2.456v7.752h-2.235v-7.752h-2.455v-1.766h7.146V267.94z"/>
		<path style="fill:#FFFFFF;" d="M278.041,275.692h-2.234v-9.518h2.234V275.692z"/>
		<path style="fill:#FFFFFF;" d="M288.386,275.692h-2.29l-4.179-6.456c0,0,0.041,1.146,0.041,2.152v4.304h-2.179v-9.518h2.386
			l4.083,6.4c0,0-0.042-1.076-0.042-2.083v-4.317h2.18V275.692z"/>
		<path style="fill:#FFFFFF;" d="M298.827,274.217c-0.482,0.428-1.614,1.627-4.234,1.627c-2.635,0-4.952-1.737-4.952-4.91
			s2.317-4.896,4.979-4.896c2.524,0,3.614,1.324,3.917,1.654l-1.476,1.283c-0.4-0.441-1.145-1.09-2.441-1.09
			c-1.531,0-2.717,1.117-2.717,3.049c0,1.931,1.214,3.049,2.759,3.049s1.986-0.607,1.986-0.607v-1.407h-2v-1.696h4.179V274.217z"/>
	</g>
	<g>
		<path style="fill:#BCBEC0;" d="M257.134,238.442c-3.184,0-4.508-2.743-4.508-5.611s1.339-5.611,4.508-5.611
			s4.508,2.743,4.508,5.611S260.303,238.442,257.134,238.442z M257.134,229.347c-1.403,0-2.002,1.482-2.002,3.436
			c0,1.955,0.599,3.468,2.002,3.468s2.002-1.513,2.002-3.468C259.136,230.829,258.537,229.347,257.134,229.347z"/>
		<path style="fill:#BCBEC0;" d="M267.27,238.426c-1.829,0-2.932-0.993-3.5-1.812c-0.536-0.757-0.93-1.907-0.93-3.657
			c0-1.955,0.552-3.468,1.45-4.398c0.835-0.883,1.891-1.34,3.326-1.34c1.481,0,2.585,0.504,3.373,1.056l-0.93,1.671
			c-0.521-0.41-1.45-0.804-2.333-0.804c-0.709,0-1.182,0.237-1.608,0.646c-0.457,0.457-0.867,1.355-0.867,2.554
			c0.299-0.331,1.056-1.119,2.743-1.119s3.341,1.182,3.341,3.326S269.808,238.426,267.27,238.426z M267.191,232.925
			c-1.119,0-1.765,0.851-1.765,1.797c0,0.961,0.646,1.797,1.765,1.797c1.104,0,1.734-0.835,1.734-1.797
			C268.925,233.776,268.294,232.925,267.191,232.925z"/>
	</g>
	<circle style="fill:#1B1B1C;" cx="537.931" cy="261.898" r="68.966"/>
	<g>
		<path style="fill:#FFFFFF;" d="M497.207,258.292l-3.531,9.518h-2.124l-3.531-9.518h2.372l2.234,6.552l2.221-6.552H497.207z"/>
		<path style="fill:#FFFFFF;" d="M505.925,263.837c0,1.338-0.235,2.263-0.911,2.993c-0.662,0.718-1.696,1.131-3.076,1.131
			c-1.393,0-2.413-0.413-3.09-1.131c-0.662-0.73-0.896-1.655-0.896-2.993v-5.545h2.249v5.545c0,0.676,0.055,1.2,0.372,1.586
			c0.304,0.359,0.745,0.593,1.365,0.593c0.621,0,1.062-0.234,1.366-0.593c0.317-0.386,0.372-0.911,0.372-1.586v-5.545h2.249V263.837
			z"/>
		<path style="fill:#FFFFFF;" d="M513.109,267.809h-5.518v-9.518h2.221v7.669h3.297V267.809z"/>
		<path style="fill:#FFFFFF;" d="M522.724,267.809h-2.29l-4.18-6.456c0,0,0.042,1.145,0.042,2.152v4.304h-2.18v-9.518h2.387
			l4.082,6.4c0,0-0.041-1.076-0.041-2.083v-4.317h2.18V267.809z"/>
		<path style="fill:#FFFFFF;" d="M530.751,267.809h-6.29v-9.518h6.166v1.779h-3.945v1.945h3.725v1.779h-3.725v2.208h4.069V267.809z"
			/>
		<path style="fill:#FFFFFF;" d="M539.661,267.809h-2.593l-2.001-3.642h-0.703v3.642h-2.234v-9.518h3.421
			c1.062,0,1.89,0.221,2.511,0.676c0.634,0.469,1.048,1.228,1.048,2.179c0,1.807-1.158,2.511-1.862,2.731L539.661,267.809z
			 M536.378,260.264c-0.275-0.207-0.634-0.248-1.145-0.248h-0.883v2.441h0.883c0.511,0,0.869-0.055,1.145-0.262
			c0.29-0.207,0.483-0.469,0.483-0.965C536.861,260.747,536.668,260.471,536.378,260.264z"/>
		<path style="fill:#FFFFFF;" d="M548.972,267.809h-2.428l-0.676-1.917h-3.393l-0.676,1.917h-2.318l3.587-9.532h2.317
			L548.972,267.809z M545.358,264.154l-1.187-3.421l-1.187,3.421H545.358z"/>
		<path style="fill:#FFFFFF;" d="M556.116,267.188c-0.606,0.441-1.462,0.621-2.441,0.621h-3.89v-9.518h3.241
			c0.869,0,1.711,0.069,2.346,0.4c0.634,0.331,1.213,0.952,1.213,2s-0.676,1.848-1.393,2.097v0.028
			c1.187,0.29,1.973,1.089,1.973,2.262C557.165,266.127,556.724,266.747,556.116,267.188z M553.923,260.14
			c-0.262-0.166-0.51-0.193-0.993-0.193h-0.924v2.193h0.869c0.496,0,0.786-0.027,1.048-0.207c0.276-0.193,0.47-0.441,0.47-0.911
			C554.393,260.568,554.199,260.306,553.923,260.14z M554.42,263.947c-0.331-0.234-0.704-0.262-1.187-0.262h-1.228v2.428h1.228
			c0.482,0,0.855-0.028,1.187-0.263c0.331-0.221,0.482-0.538,0.482-0.952C554.902,264.472,554.751,264.182,554.42,263.947z"/>
		<path style="fill:#FFFFFF;" d="M560.612,267.809h-2.234v-9.518h2.234V267.809z"/>
		<path style="fill:#FFFFFF;" d="M567.868,267.809h-5.518v-9.518h2.221v7.669h3.297V267.809z"/>
		<path style="fill:#FFFFFF;" d="M571.108,267.809h-2.234v-9.518h2.234V267.809z"/>
		<path style="fill:#FFFFFF;" d="M579.178,260.057h-2.455v7.752h-2.234v-7.752h-2.456v-1.766h7.146V260.057z"/>
		<path style="fill:#FFFFFF;" d="M587.937,258.292l-3.311,5.669v3.849h-2.234v-3.849l-3.311-5.669h2.482l1.945,3.793l1.944-3.793
			H587.937z"/>
		<path style="fill:#FFFFFF;" d="M505.228,287.514H502.8l-0.677-1.917h-3.393l-0.677,1.917h-2.316l3.586-9.531h2.317
			L505.228,287.514z M501.613,283.858l-1.187-3.421l-1.187,3.421H501.613z"/>
		<path style="fill:#FFFFFF;" d="M511.075,286.892c-0.676,0.538-1.559,0.787-2.579,0.787c-1.38,0-2.607-0.718-3.38-1.436
			l1.104-1.627c0.689,0.717,1.752,1.2,2.482,1.2c0.718,0,1.27-0.345,1.27-0.979c0-0.648-0.703-0.896-1.117-1.049
			c-0.414-0.151-1.131-0.399-1.448-0.538c-0.234-0.11-0.718-0.289-1.132-0.689c-0.413-0.386-0.744-0.938-0.744-1.835
			c0-0.91,0.441-1.627,0.993-2.082c0.538-0.455,1.407-0.759,2.511-0.759s2.372,0.524,3.021,1.172l-0.952,1.56
			c-0.552-0.553-1.406-0.966-2.124-0.966s-1.241,0.275-1.241,0.854c0,0.58,0.538,0.801,0.965,0.966
			c0.414,0.166,1.118,0.414,1.421,0.538c0.263,0.097,0.897,0.345,1.324,0.772c0.4,0.4,0.745,0.979,0.745,1.835
			C512.192,285.527,511.765,286.355,511.075,286.892z"/>
		<path style="fill:#FFFFFF;" d="M518.551,286.892c-0.676,0.538-1.559,0.787-2.579,0.787c-1.38,0-2.607-0.718-3.38-1.436
			l1.104-1.627c0.689,0.717,1.752,1.2,2.483,1.2c0.717,0,1.269-0.345,1.269-0.979c0-0.648-0.703-0.896-1.117-1.049
			c-0.414-0.151-1.131-0.399-1.448-0.538c-0.234-0.11-0.718-0.289-1.131-0.689c-0.414-0.386-0.745-0.938-0.745-1.835
			c0-0.91,0.441-1.627,0.993-2.082c0.538-0.455,1.406-0.759,2.51-0.759s2.373,0.524,3.021,1.172l-0.952,1.56
			c-0.552-0.553-1.407-0.966-2.124-0.966s-1.241,0.275-1.241,0.854c0,0.58,0.538,0.801,0.966,0.966
			c0.413,0.166,1.117,0.414,1.42,0.538c0.263,0.097,0.896,0.345,1.324,0.772c0.4,0.4,0.745,0.979,0.745,1.835
			C519.668,285.527,519.24,286.355,518.551,286.892z"/>
		<path style="fill:#FFFFFF;" d="M527.145,287.514h-6.29v-9.518h6.166v1.779h-3.945v1.945h3.725v1.779h-3.725v2.207h4.069V287.514z"
			/>
		<path style="fill:#FFFFFF;" d="M533.834,286.892c-0.676,0.538-1.559,0.787-2.579,0.787c-1.38,0-2.607-0.718-3.38-1.436
			l1.104-1.627c0.689,0.717,1.752,1.2,2.483,1.2c0.717,0,1.269-0.345,1.269-0.979c0-0.648-0.703-0.896-1.117-1.049
			c-0.414-0.151-1.131-0.399-1.448-0.538c-0.234-0.11-0.718-0.289-1.131-0.689c-0.414-0.386-0.745-0.938-0.745-1.835
			c0-0.91,0.441-1.627,0.993-2.082c0.538-0.455,1.406-0.759,2.51-0.759s2.373,0.524,3.021,1.172l-0.952,1.56
			c-0.552-0.553-1.407-0.966-2.124-0.966s-1.241,0.275-1.241,0.854c0,0.58,0.538,0.801,0.966,0.966
			c0.413,0.166,1.117,0.414,1.42,0.538c0.263,0.097,0.896,0.345,1.324,0.772c0.4,0.4,0.745,0.979,0.745,1.835
			C534.951,285.527,534.523,286.355,533.834,286.892z"/>
		<path style="fill:#FFFFFF;" d="M541.31,286.892c-0.676,0.538-1.559,0.787-2.579,0.787c-1.38,0-2.607-0.718-3.38-1.436l1.104-1.627
			c0.689,0.717,1.752,1.2,2.482,1.2c0.718,0,1.27-0.345,1.27-0.979c0-0.648-0.703-0.896-1.117-1.049
			c-0.414-0.151-1.131-0.399-1.448-0.538c-0.234-0.11-0.718-0.289-1.132-0.689c-0.413-0.386-0.744-0.938-0.744-1.835
			c0-0.91,0.441-1.627,0.993-2.082c0.538-0.455,1.407-0.759,2.511-0.759s2.372,0.524,3.021,1.172l-0.952,1.56
			c-0.552-0.553-1.406-0.966-2.124-0.966s-1.241,0.275-1.241,0.854c0,0.58,0.538,0.801,0.965,0.966
			c0.414,0.166,1.118,0.414,1.421,0.538c0.263,0.097,0.897,0.345,1.324,0.772c0.4,0.4,0.745,0.979,0.745,1.835
			C542.427,285.527,541.999,286.355,541.31,286.892z"/>
		<path style="fill:#FFFFFF;" d="M554.289,287.514h-2.193l-0.373-6.483h-0.027l-2.041,6.483h-1.766l-2.056-6.483h-0.041
			l-0.346,6.483h-2.192l0.717-9.518h2.814l1.986,6.262h0.027l1.959-6.262h2.827L554.289,287.514z"/>
		<path style="fill:#FFFFFF;" d="M561.957,287.514h-6.29v-9.518h6.166v1.779h-3.945v1.945h3.725v1.779h-3.725v2.207h4.069V287.514z"
			/>
		<path style="fill:#FFFFFF;" d="M571.943,287.514h-2.29l-4.18-6.455c0,0,0.042,1.145,0.042,2.151v4.304h-2.18v-9.518h2.386
			l4.084,6.4c0,0-0.042-1.076-0.042-2.083v-4.317h2.18V287.514z"/>
		<path style="fill:#FFFFFF;" d="M580.013,279.762h-2.455v7.752h-2.234v-7.752h-2.455v-1.766h7.145V279.762z"/>
	</g>
	<g>
		<path style="fill:#BCBEC0;" d="M532.995,238.442c-3.184,0-4.508-2.743-4.508-5.611s1.34-5.611,4.508-5.611
			s4.508,2.743,4.508,5.611S536.163,238.442,532.995,238.442z M532.995,229.347c-1.402,0-2.002,1.482-2.002,3.436
			c0,1.955,0.6,3.468,2.002,3.468c1.403,0,2.002-1.513,2.002-3.468C534.997,230.829,534.398,229.347,532.995,229.347z"/>
		<path style="fill:#BCBEC0;" d="M542.674,238.426c-2.254,0-3.594-1.261-3.972-1.812l1.166-1.513
			c0.441,0.536,1.608,1.355,2.664,1.355c1.072,0,1.907-0.552,1.907-1.529c0-0.961-0.757-1.466-1.733-1.466h-0.962v-1.781h0.962
			c0.851,0,1.45-0.426,1.45-1.277s-0.71-1.277-1.577-1.277c-0.866,0-1.718,0.347-2.601,1.056l-0.945-1.608
			c0.757-0.662,1.766-1.355,3.751-1.355c1.971,0,3.783,1.072,3.783,2.9c0,1.45-0.835,2.081-1.561,2.38v0.047
			c0.914,0.236,1.907,1.104,1.907,2.522C546.914,237.244,544.912,238.426,542.674,238.426z"/>
	</g>
	<circle style="fill:#1B1B1C;" cx="731.034" cy="167.585" r="68.966"/>
	<g>
		<path style="fill:#FFFFFF;" d="M692.187,181.379h-6.29v-9.518h6.166v1.779h-3.945v1.945h3.725v1.779h-3.725v2.207h4.069V181.379z"
			/>
		<path style="fill:#FFFFFF;" d="M701.8,181.379h-2.662l-1.958-3.545l-1.973,3.545h-2.662l3.158-4.938l-2.952-4.579h2.648
			l1.78,3.131l1.779-3.131h2.648l-2.966,4.579L701.8,181.379z"/>
		<path style="fill:#FFFFFF;" d="M708.421,177.144c-0.635,0.524-1.503,0.717-2.482,0.717h-1.173v3.518h-2.234v-9.518h3.407
			c0.979,0,1.848,0.193,2.482,0.717c0.635,0.524,0.993,1.255,0.993,2.276C709.414,175.875,709.056,176.606,708.421,177.144z
			 M706.697,173.848c-0.276-0.193-0.594-0.262-1.076-0.262h-0.869v2.552h0.869c0.482,0,0.8-0.069,1.076-0.262
			c0.262-0.193,0.455-0.538,0.455-1.021C707.152,174.371,706.959,174.04,706.697,173.848z"/>
		<path style="fill:#FFFFFF;" d="M716.021,181.379h-5.518v-9.518h2.221v7.669h3.297V181.379z"/>
		<path style="fill:#FFFFFF;" d="M721.041,181.544c-2.827,0-5.048-1.834-5.048-4.911s2.221-4.924,5.048-4.924
			c2.828,0,5.049,1.848,5.049,4.924S723.869,181.544,721.041,181.544z M721.041,173.613c-1.586,0-2.786,1.145-2.786,2.966
			s1.2,2.979,2.786,2.979c1.587,0,2.786-1.159,2.786-2.979C723.827,174.771,722.628,173.613,721.041,173.613z"/>
		<path style="fill:#FFFFFF;" d="M729.579,181.379h-2.234v-9.518h2.234V181.379z"/>
		<path style="fill:#FFFFFF;" d="M737.648,173.627h-2.455v7.752h-2.234v-7.752h-2.455v-1.766h7.145V173.627z"/>
		<path style="fill:#FFFFFF;" d="M745.896,181.379h-2.428l-0.676-1.917h-3.393l-0.676,1.917h-2.318l3.587-9.532h2.317
			L745.896,181.379z M742.282,177.724l-1.187-3.421l-1.187,3.421H742.282z"/>
		<path style="fill:#FFFFFF;" d="M751.8,173.627h-2.455v7.752h-2.234v-7.752h-2.455v-1.766h7.145V173.627z"/>
		<path style="fill:#FFFFFF;" d="M754.958,181.379h-2.234v-9.518h2.234V181.379z"/>
		<path style="fill:#FFFFFF;" d="M761.261,181.544c-2.827,0-5.049-1.834-5.049-4.911s2.222-4.924,5.049-4.924
			c2.828,0,5.049,1.848,5.049,4.924S764.089,181.544,761.261,181.544z M761.261,173.613c-1.586,0-2.786,1.145-2.786,2.966
			s1.2,2.979,2.786,2.979c1.587,0,2.787-1.159,2.787-2.979C764.048,174.771,762.848,173.613,761.261,173.613z"/>
		<path style="fill:#FFFFFF;" d="M776.172,181.379h-2.29l-4.18-6.456c0,0,0.042,1.145,0.042,2.152v4.304h-2.18v-9.518h2.386
			l4.084,6.4c0,0-0.042-1.076-0.042-2.083v-4.317h2.18V181.379z"/>
	</g>
	<g>
		<path style="fill:#BCBEC0;" d="M726.1,144.129c-3.184,0-4.508-2.743-4.508-5.611s1.34-5.611,4.508-5.611s4.508,2.743,4.508,5.611
			S729.268,144.129,726.1,144.129z M726.1,135.035c-1.403,0-2.002,1.482-2.002,3.436c0,1.955,0.599,3.468,2.002,3.468
			s2.002-1.513,2.002-3.468C728.102,136.516,727.503,135.035,726.1,135.035z"/>
		<path style="fill:#BCBEC0;" d="M740.586,141.765h-1.45v2.175h-2.459v-2.175h-5.296v-1.86l4.934-6.873h2.821v6.762h1.45V141.765z
			 M736.74,139.842v-4.208l-3.042,4.208H736.74z"/>
	</g>
	<circle style="fill:#81BCFF;" cx="68.966" cy="167.585" r="68.966"/>
	<g>
		<path style="fill:#FFFFFF;" d="M25.523,173.497h-2.234v-9.518h2.234V173.497z"/>
		<path style="fill:#FFFFFF;" d="M35.869,173.497h-2.29l-4.179-6.456c0,0,0.041,1.145,0.041,2.152v4.304h-2.179v-9.518h2.386
			l4.083,6.4c0,0-0.042-1.076-0.042-2.083v-4.317h2.18V173.497z"/>
		<path style="fill:#FFFFFF;" d="M43.552,165.759h-3.725v2.331h3.504v1.779h-3.504v3.628h-2.221v-9.518h5.945V165.759z"/>
		<path style="fill:#FFFFFF;" d="M49.165,173.662c-2.828,0-5.049-1.834-5.049-4.911s2.221-4.924,5.049-4.924
			c2.828,0,5.048,1.848,5.048,4.924S51.993,173.662,49.165,173.662z M49.165,165.731c-1.586,0-2.787,1.145-2.787,2.966
			s1.2,2.979,2.787,2.979c1.586,0,2.786-1.159,2.786-2.979C51.951,166.89,50.751,165.731,49.165,165.731z"/>
		<path style="fill:#FFFFFF;" d="M63,173.497h-2.593l-2-3.642h-0.704v3.642h-2.234v-9.518h3.421c1.062,0,1.89,0.221,2.51,0.676
			c0.635,0.469,1.048,1.228,1.048,2.179c0,1.807-1.159,2.511-1.862,2.731L63,173.497z M59.717,165.952
			c-0.276-0.207-0.635-0.248-1.145-0.248h-0.883v2.441h0.883c0.51,0,0.869-0.055,1.145-0.262c0.29-0.207,0.482-0.469,0.482-0.965
			C60.199,166.434,60.006,166.159,59.717,165.952z"/>
		<path style="fill:#FFFFFF;" d="M74.42,173.497h-2.193l-0.372-6.483h-0.028l-2.042,6.483H68.02l-2.055-6.483h-0.042l-0.345,6.483
			h-2.193l0.717-9.518h2.814l1.986,6.262h0.028l1.958-6.262h2.828L74.42,173.497z"/>
		<path style="fill:#FFFFFF;" d="M84.365,173.497h-2.428l-0.676-1.917h-3.394l-0.676,1.917h-2.317l3.586-9.532h2.317L84.365,173.497
			z M80.751,169.842l-1.187-3.421l-1.187,3.421H80.751z"/>
		<path style="fill:#FFFFFF;" d="M90.268,165.745h-2.455v7.752h-2.234v-7.752h-2.456v-1.766h7.145V165.745z"/>
		<path style="fill:#FFFFFF;" d="M93.426,173.497h-2.234v-9.518h2.234V173.497z"/>
		<path style="fill:#FFFFFF;" d="M99.73,173.662c-2.828,0-5.048-1.834-5.048-4.911s2.221-4.924,5.048-4.924
			c2.828,0,5.049,1.848,5.049,4.924S102.558,173.662,99.73,173.662z M99.73,165.731c-1.586,0-2.786,1.145-2.786,2.966
			s1.2,2.979,2.786,2.979c1.586,0,2.787-1.159,2.787-2.979C102.516,166.89,101.316,165.731,99.73,165.731z"/>
		<path style="fill:#FFFFFF;" d="M114.64,173.497h-2.29l-4.179-6.456c0,0,0.041,1.145,0.041,2.152v4.304h-2.179v-9.518h2.386
			l4.083,6.4c0,0-0.042-1.076-0.042-2.083v-4.317h2.18V173.497z"/>
		<path style="fill:#FFFFFF;" d="M40.435,191.725c-0.483,0.428-1.614,1.628-4.235,1.628c-2.635,0-4.952-1.738-4.952-4.911
			c0-3.173,2.317-4.897,4.979-4.897c2.524,0,3.614,1.324,3.917,1.655l-1.476,1.283c-0.4-0.441-1.145-1.089-2.442-1.089
			c-1.531,0-2.717,1.117-2.717,3.048s1.214,3.048,2.759,3.048s1.986-0.607,1.986-0.607v-1.407h-2v-1.697h4.18V191.725z"/>
		<path style="fill:#FFFFFF;" d="M50.558,193.202H48.13l-0.676-1.917h-3.394l-0.676,1.917h-2.317l3.586-9.532h2.317L50.558,193.202z
			 M46.944,189.546l-1.187-3.421l-1.187,3.421H46.944z"/>
		<path style="fill:#FFFFFF;" d="M56.462,185.449h-2.456v7.752h-2.235v-7.752h-2.455v-1.766h7.146V185.449z"/>
		<path style="fill:#FFFFFF;" d="M65.675,193.202H63.44v-3.986H59.62v3.986h-2.234v-9.518h2.234v3.683h3.821v-3.683h2.235V193.202z"
			/>
		<path style="fill:#FFFFFF;" d="M73.703,193.202h-6.29v-9.518h6.166v1.78h-3.945v1.945h3.724v1.779h-3.724v2.207h4.069V193.202z"/>
		<path style="fill:#FFFFFF;" d="M82.613,193.202H80.02l-2-3.642h-0.704v3.642h-2.234v-9.518h3.421c1.062,0,1.89,0.221,2.51,0.676
			c0.635,0.469,1.048,1.228,1.048,2.179c0,1.807-1.159,2.511-1.862,2.731L82.613,193.202z M79.33,185.656
			c-0.276-0.207-0.635-0.248-1.145-0.248h-0.883v2.441h0.883c0.51,0,0.869-0.055,1.145-0.262c0.29-0.207,0.482-0.469,0.482-0.965
			C79.813,186.139,79.62,185.863,79.33,185.656z"/>
		<path style="fill:#FFFFFF;" d="M85.592,193.202h-2.234v-9.518h2.234V193.202z"/>
		<path style="fill:#FFFFFF;" d="M95.937,193.202h-2.29l-4.179-6.456c0,0,0.041,1.145,0.041,2.152v4.304H87.33v-9.518h2.386
			l4.083,6.4c0,0-0.042-1.076-0.042-2.083v-4.318h2.18V193.202z"/>
		<path style="fill:#FFFFFF;" d="M106.378,191.725c-0.482,0.428-1.614,1.628-4.234,1.628c-2.635,0-4.952-1.738-4.952-4.911
			c0-3.173,2.317-4.897,4.979-4.897c2.524,0,3.614,1.324,3.917,1.655l-1.476,1.283c-0.4-0.441-1.145-1.089-2.441-1.089
			c-1.531,0-2.717,1.117-2.717,3.048s1.214,3.048,2.759,3.048s1.986-0.607,1.986-0.607v-1.407h-2v-1.697h4.179V191.725z"/>
	</g>
	<g>
		<path style="fill:#FFFFFF;" d="M65.275,144.129c-3.184,0-4.508-2.743-4.508-5.611s1.34-5.611,4.508-5.611
			c3.168,0,4.508,2.743,4.508,5.611S68.444,144.129,65.275,144.129z M65.275,135.035c-1.403,0-2.002,1.482-2.002,3.436
			c0,1.955,0.599,3.468,2.002,3.468c1.403,0,2.002-1.513,2.002-3.468C67.277,136.516,66.678,135.035,65.275,135.035z"/>
		<path style="fill:#FFFFFF;" d="M75.663,143.94h-2.459v-9.126h-1.97v-1.75h4.429V143.94z"/>
	</g>
</g>
<g>
</g>
<g>
</g>
<g>
</g>
<g>
</g>
<g>
</g>
<g>
</g>
</svg>
