<?xml version="1.0" encoding="iso-8859-1"?>
<!-- Generator: Adobe Illustrator 22.1.0, SVG Export Plug-In . SVG Version: 6.00 Build 0)  -->
<svg version="1.1" id="Layer_1" xmlns="http://www.w3.org/2000/svg" xmlns:xlink="http://www.w3.org/1999/xlink" x="0px" y="0px"
	 viewBox="0 0 38 32" style="enable-background:new 0 0 38 32;" xml:space="preserve">
<g>
	<g>
		<path d="M7.961,13.075c0-1.102-0.891-1.996-1.991-1.996s-1.992,0.893-1.992,1.996s0.892,1.996,1.992,1.996
			S7.961,14.178,7.961,13.075z M10.875,16.706c0.7-1.007,1.07-2.189,1.07-3.419c0-3.302-2.68-5.988-5.974-5.988
			s-5.974,2.686-5.974,5.988c0,1.23,0.37,2.412,1.07,3.419l4.905,7.06L10.875,16.706z M1.987,13.287
			c0-2.201,1.786-3.992,3.983-3.992s3.983,1.791,3.983,3.992c0,0.82-0.246,1.608-0.712,2.279L5.97,20.273l-3.271-4.707
			C2.233,14.895,1.987,14.107,1.987,13.287z M35.017-0.002c-1.647,0-2.987,1.343-2.987,2.994c0,0.01,0.003,0.019,0.003,0.029
			L20.565,6.834C20.017,6.171,19.2,5.74,18.277,5.74c-1.647,0-2.987,1.343-2.987,2.994c0,1.598,1.258,2.895,2.832,2.978l2.845,9.133
			c-0.75,0.545-1.243,1.423-1.243,2.42c0,0.01,0.003,0.019,0.003,0.029L8.258,27.107c-0.548-0.662-1.365-1.093-2.288-1.093
			c-1.647,0-2.987,1.343-2.987,2.994c0,1.651,1.34,2.994,2.987,2.994s2.987-1.343,2.987-2.994c0-0.01-0.003-0.02-0.003-0.03
			l11.467-3.812c0.548,0.662,1.365,1.094,2.289,1.094c1.647,0,2.987-1.343,2.987-2.994c0-1.595-1.254-2.891-2.823-2.978
			l-2.847-9.139c0.746-0.545,1.236-1.421,1.236-2.414c0-0.01-0.003-0.019-0.003-0.029l11.468-3.812
			c0.548,0.662,1.365,1.093,2.288,1.093c1.647,0,2.987-1.343,2.987-2.994C38.004,1.341,36.664-0.002,35.017-0.002z M5.97,30.006
			c-0.549,0-0.996-0.448-0.996-0.998c0-0.551,0.446-0.998,0.996-0.998c0.549,0,0.996,0.448,0.996,0.998
			C6.966,29.558,6.519,30.006,5.97,30.006z M22.711,22.268c0.549,0,0.996,0.448,0.996,0.998s-0.446,0.998-0.996,0.998
			c-0.549,0-0.996-0.448-0.996-0.998S22.161,22.268,22.711,22.268z M18.277,9.733c-0.549,0-0.996-0.448-0.996-0.998
			s0.446-0.998,0.996-0.998c0.549,0,0.996,0.448,0.996,0.998S18.826,9.733,18.277,9.733z M35.017,3.99
			c-0.549,0-0.996-0.448-0.996-0.998s0.446-0.998,0.996-0.998c0.549,0,0.996,0.448,0.996,0.998
			C36.013,3.542,35.566,3.99,35.017,3.99z"/>
	</g>
</g>
</svg>
