<?xml version="1.0" encoding="iso-8859-1"?>
<!-- Generator: Adobe Illustrator 22.1.0, SVG Export Plug-In . SVG Version: 6.00 Build 0)  -->
<svg version="1.1" id="Layer_1" xmlns="http://www.w3.org/2000/svg" xmlns:xlink="http://www.w3.org/1999/xlink" x="0px" y="0px"
	 viewBox="0 0 70 64" style="enable-background:new 0 0 70 64;" xml:space="preserve">
<g>
	<path style="fill:#81BCFF;" d="M55.782,58.25H3.609c-0.552,0-1-0.448-1-1V18.801c0-0.552,0.448-1,1-1h52.173c0.552,0,1,0.448,1,1
		v5.85h-2v-4.85H4.609V56.25h50.173v-4.847h2v5.847C56.782,57.803,56.334,58.25,55.782,58.25z"/>
	<path style="fill:#81BCFF;" d="M56.782,19.801H2.609V12.3c0-1.469,1.195-2.664,2.664-2.664h48.846c1.469,0,2.664,1.195,2.664,2.664
		V19.801z M4.609,17.801h50.173V12.3c0-0.366-0.298-0.664-0.664-0.664H5.272c-0.366,0-0.664,0.298-0.664,0.664V17.801z"/>
	<path style="fill:#81BCFF;" d="M9.794,15.523c-0.552,0-1-0.448-1-1V6.75c0-0.552,0.448-1,1-1s1,0.448,1,1v7.774
		C10.794,15.076,10.346,15.523,9.794,15.523z"/>
	<path style="fill:#81BCFF;" d="M19.745,15.523c-0.552,0-1-0.448-1-1V6.75c0-0.552,0.448-1,1-1s1,0.448,1,1v7.774
		C20.745,15.076,20.297,15.523,19.745,15.523z"/>
	<path style="fill:#81BCFF;" d="M29.695,15.523c-0.552,0-1-0.448-1-1V6.75c0-0.552,0.448-1,1-1s1,0.448,1,1v7.774
		C30.695,15.076,30.248,15.523,29.695,15.523z"/>
	<path style="fill:#81BCFF;" d="M39.646,15.523c-0.552,0-1-0.448-1-1V6.75c0-0.552,0.448-1,1-1s1,0.448,1,1v7.774
		C40.646,15.076,40.198,15.523,39.646,15.523z"/>
	<path style="fill:#81BCFF;" d="M49.597,15.523c-0.552,0-1-0.448-1-1V6.75c0-0.552,0.448-1,1-1s1,0.448,1,1v7.774
		C50.597,15.076,50.149,15.523,49.597,15.523z"/>
	<g>
		<rect x="9.742" y="32.008" style="fill:#81BCFF;" width="2.275" height="2.274"/>
		<rect x="9.742" y="37.362" style="fill:#81BCFF;" width="2.275" height="2.275"/>
		<rect x="9.742" y="42.716" style="fill:#81BCFF;" width="2.275" height="2.274"/>
		<rect x="9.742" y="48.067" style="fill:#81BCFF;" width="2.275" height="2.276"/>
	</g>
	<g>
		<rect x="16.719" y="32.008" style="fill:#81BCFF;" width="2.274" height="2.274"/>
		<rect x="16.719" y="37.362" style="fill:#81BCFF;" width="2.274" height="2.275"/>
		<rect x="16.719" y="42.716" style="fill:#81BCFF;" width="2.274" height="2.274"/>
		<rect x="16.719" y="48.067" style="fill:#81BCFF;" width="2.274" height="2.276"/>
	</g>
	<g>
		<rect x="23.696" y="32.008" style="fill:#81BCFF;" width="2.275" height="2.274"/>
		<rect x="23.696" y="37.362" style="fill:#81BCFF;" width="2.275" height="2.275"/>
		<rect x="23.696" y="42.716" style="fill:#81BCFF;" width="2.275" height="2.274"/>
		<rect x="23.696" y="48.067" style="fill:#81BCFF;" width="2.275" height="2.276"/>
	</g>
	<g>
		<rect x="30.672" y="32.008" style="fill:#81BCFF;" width="2.275" height="2.274"/>
		<rect x="30.672" y="37.362" style="fill:#81BCFF;" width="2.275" height="2.275"/>
		<rect x="30.672" y="42.716" style="fill:#81BCFF;" width="2.275" height="2.274"/>
		<rect x="30.672" y="48.067" style="fill:#81BCFF;" width="2.275" height="2.276"/>
	</g>
	<rect x="12.273" y="26.171" style="fill:#81BCFF;" width="16.492" height="2"/>
	<g>
		<path style="fill:#81BCFF;" d="M52.654,52.764c-8.126,0-14.737-6.612-14.737-14.739c0-8.126,6.611-14.737,14.737-14.737
			s14.737,6.611,14.737,14.737C67.391,46.152,60.78,52.764,52.654,52.764z M52.654,25.289c-7.023,0-12.737,5.714-12.737,12.737
			c0,7.024,5.714,12.739,12.737,12.739s12.737-5.714,12.737-12.739C65.391,31.002,59.677,25.289,52.654,25.289z"/>
		<g>
			<g>
				<path style="fill:#81BCFF;" d="M57.132,39.502h-5.079l-3.282-6.244c-0.257-0.489-0.069-1.094,0.42-1.351
					c0.488-0.257,1.093-0.069,1.351,0.42l2.719,5.175h3.871c0.552,0,1,0.448,1,1S57.685,39.502,57.132,39.502z"/>
				<rect x="51.658" y="27.171" style="fill:#81BCFF;" width="2" height="3.543"/>
				<rect x="41.498" y="37.502" style="fill:#81BCFF;" width="3.671" height="2"/>
				<rect x="51.658" y="45.978" style="fill:#81BCFF;" width="2" height="3.504"/>
				<rect x="60.855" y="37.502" style="fill:#81BCFF;" width="2.954" height="2"/>
				
					<rect x="59.032" y="30.067" transform="matrix(0.7066 -0.7076 0.7076 0.7066 -4.4043 51.5123)" style="fill:#81BCFF;" width="1.772" height="2"/>
				
					<rect x="44.291" y="30.292" transform="matrix(0.7067 -0.7075 0.7075 0.7067 -8.798 41.197)" style="fill:#81BCFF;" width="2" height="1.836"/>
				
					<rect x="44.531" y="44.648" transform="matrix(0.7071 -0.7071 0.7071 0.7071 -18.999 45.4282)" style="fill:#81BCFF;" width="1.612" height="2"/>
				
					<rect x="58.897" y="45.078" transform="matrix(0.7073 -0.7069 0.7069 0.7073 -14.856 55.755)" style="fill:#81BCFF;" width="2" height="1.477"/>
			</g>
		</g>
	</g>
</g>
</svg>
