<?xml version="1.0" encoding="iso-8859-1"?>
<!-- Generator: Adobe Illustrator 22.1.0, SVG Export Plug-In . SVG Version: 6.00 Build 0)  -->
<svg version="1.1" id="Layer_1" xmlns="http://www.w3.org/2000/svg" xmlns:xlink="http://www.w3.org/1999/xlink" x="0px" y="0px"
	 viewBox="0 0 70 64" style="enable-background:new 0 0 70 64;" xml:space="preserve">
<g id="_x35__2_">
	<path style="fill:#81BCFF;" d="M14.051,51.138H5.623c-0.552,0-1-0.448-1-1V3.667c0-0.552,0.448-1,1-1h32.042
		c1.696,0,3.077,1.38,3.077,3.077v27.159h-2V5.743c0-0.594-0.483-1.077-1.077-1.077H6.623v44.472h7.428V51.138z"/>
	<path style="fill:#81BCFF;" d="M44.885,32.902h-2V5.743c0-0.594-0.483-1.077-1.077-1.077H11.844v-2h29.965
		c1.696,0,3.077,1.38,3.077,3.077V32.902z"/>
	<g>
		<path style="fill:#81BCFF;" d="M64.377,61.333H12.945c-0.552,0-1-0.448-1-1v-5.45c0-0.552,0.448-1,1-1
			c2.93,0,5.313-2.383,5.313-5.312s-2.383-5.312-5.313-5.312c-0.552,0-1-0.448-1-1V36.81c0-0.552,0.448-1,1-1h51.432
			c0.552,0,1,0.448,1,1v5.449c0,0.552-0.448,1-1,1c-2.929,0-5.312,2.383-5.312,5.312s2.383,5.312,5.312,5.312c0.552,0,1,0.448,1,1
			v5.45C65.377,60.886,64.929,61.333,64.377,61.333z M13.945,59.333h49.432v-3.518c-3.561-0.489-6.312-3.551-6.312-7.244
			s2.751-6.755,6.312-7.244V37.81H13.945v3.517c3.561,0.489,6.313,3.552,6.313,7.245s-2.752,6.755-6.313,7.244V59.333z"/>
		<g>
			<g>
				<rect x="50.486" y="36.811" style="fill:#81BCFF;" width="2" height="1.038"/>
				<path style="fill:#81BCFF;" d="M52.486,58.32h-2v-1.621h2V58.32z M52.486,53.883h-2v-2.817h2V53.883z M52.486,48.249h-2v-2.817
					h2V48.249z M52.486,42.615h-2v-2.817h2V42.615z"/>
				<rect x="50.486" y="59.295" style="fill:#81BCFF;" width="2" height="1.038"/>
			</g>
		</g>
		<rect x="37.721" y="45.956" style="fill:#81BCFF;" width="10.31" height="2"/>
		<rect x="37.721" y="49.588" style="fill:#81BCFF;" width="10.31" height="2"/>
		<rect x="37.721" y="53.22" style="fill:#81BCFF;" width="4.108" height="2"/>
		<g>
			
				<rect x="22.575" y="48.537" transform="matrix(0.3652 -0.9309 0.9309 0.3652 -31.6017 53.7029)" style="fill:#81BCFF;" width="2" height="2.972"/>
			<path style="fill:#81BCFF;" d="M24.959,51.566c-0.408,0-0.792-0.252-0.939-0.658c-0.189-0.519,0.079-1.093,0.597-1.282
				l7.886-2.871c0.521-0.19,1.093,0.078,1.282,0.597c0.189,0.519-0.079,1.093-0.597,1.282l-7.886,2.871
				C25.188,51.546,25.073,51.566,24.959,51.566z"/>
			
				<rect x="26.375" y="45.496" transform="matrix(0.376 -0.9266 0.9266 0.376 -27.3418 55.2838)" style="fill:#81BCFF;" width="2" height="4.891"/>
		</g>
	</g>
	<g>
		<path style="fill:#81BCFF;" d="M22.682,32.211c-6.848,0-12.419-5.571-12.419-12.419S15.834,7.373,22.682,7.373
			c6.848,0,12.419,5.571,12.419,12.419S29.53,32.211,22.682,32.211z M22.682,9.373c-5.745,0-10.419,4.674-10.419,10.419
			s4.674,10.419,10.419,10.419s10.419-4.674,10.419-10.419S28.427,9.373,22.682,9.373z"/>
		<rect x="21.682" y="8.373" style="fill:#81BCFF;" width="2" height="22.839"/>
		<rect x="11.263" y="18.792" style="fill:#81BCFF;" width="22.838" height="2"/>
		<path style="fill:#81BCFF;" d="M22.682,16.707c-3.526,0-6.714-1.95-8.32-5.089l1.78-0.911c1.263,2.467,3.769,4,6.54,4
			c2.781,0,5.292-1.543,6.552-4.026l1.783,0.905C29.414,14.744,26.22,16.707,22.682,16.707z"/>
		<path style="fill:#81BCFF;" d="M29.127,29.026c-1.291-2.36-3.76-3.827-6.445-3.827s-5.155,1.466-6.445,3.827l-1.755-0.959
			c1.641-3.002,4.783-4.868,8.2-4.868c3.417,0,6.559,1.865,8.2,4.868L29.127,29.026z"/>
	</g>
</g>
</svg>
