<?xml version="1.0" encoding="utf-8"?>
<!-- Generator: Adobe Illustrator 22.0.1, SVG Export Plug-In . SVG Version: 6.00 Build 0)  -->
<svg version="1.1" id="Layer_1" xmlns="http://www.w3.org/2000/svg" xmlns:xlink="http://www.w3.org/1999/xlink" x="0px" y="0px"
	 viewBox="0 0 310 218.166" style="enable-background:new 0 0 310 218.166;" xml:space="preserve">
<g id="XMLID_822_">
	<path id="XMLID_823_" d="M297.917,18.728C286.727,5.426,266.067,0,226.611,0H83.386C43.027,0,22.017,5.776,10.869,19.938
		C0,33.746,0,54.091,0,82.249v53.669c0,54.551,12.896,82.248,83.386,82.248h143.226c34.216,0,53.176-4.788,65.442-16.527
		C304.633,189.601,310,169.946,310,135.918V82.249C310,52.554,309.159,32.089,297.917,18.728z M199.021,116.493l-65.038,33.991
		c-1.454,0.76-3.044,1.137-4.632,1.137c-1.798,0-3.592-0.484-5.181-1.446c-2.992-1.813-4.819-5.056-4.819-8.554V73.857
		c0-3.492,1.822-6.732,4.808-8.546c2.987-1.814,6.702-1.938,9.801-0.328l65.038,33.772c3.309,1.718,5.387,5.134,5.392,8.861
		C204.394,111.346,202.325,114.767,199.021,116.493z"/>
</g>
</svg>
